<svg width="40" height="40" viewBox="0 0 40 40" fill="none" xmlns="http://www.w3.org/2000/svg">
<rect x="0.5" y="0.5" width="39" height="39" rx="19.5" stroke="#7658F2"/>
<path d="M16.7334 24.2L28.0334 12.9C28.3001 12.6333 28.617 12.5 28.9841 12.5C29.3512 12.5 29.6676 12.6333 29.9334 12.9C30.2001 13.1667 30.3334 13.4836 30.3334 13.8507C30.3334 14.2178 30.2001 14.5342 29.9334 14.8L17.6667 27.0667C17.4001 27.3333 17.089 27.4667 16.7334 27.4667C16.3779 27.4667 16.0667 27.3333 15.8001 27.0667L10.0667 21.3333C9.80008 21.0667 9.67208 20.7502 9.68274 20.384C9.69341 20.0178 9.83252 19.7009 10.1001 19.4333C10.3667 19.1667 10.6836 19.0333 11.0507 19.0333C11.4179 19.0333 11.7343 19.1667 12.0001 19.4333L16.7334 24.2Z" fill="#7658F2"/>
</svg>
