<svg width="41" height="40" viewBox="0 0 41 40" fill="none" xmlns="http://www.w3.org/2000/svg">
<path d="M20.0307 23.8005L31.6637 12.1687C32.0434 11.8075 32.5476 11.606 33.0717 11.606C33.5959 11.606 34.1 11.8075 34.4798 12.1687C34.8532 12.5422 35.063 13.0487 35.063 13.5768C35.063 14.1049 34.8532 14.6114 34.4798 14.9849L20.8957 28.569C20.5158 28.9301 20.0117 29.1314 19.4876 29.1314C18.9635 29.1314 18.4594 28.9301 18.0795 28.569L11.6311 22.1206C11.2576 21.7471 11.0478 21.2406 11.0478 20.7124C11.0478 20.1842 11.2576 19.6777 11.6311 19.3042C12.0046 18.9308 12.5111 18.7209 13.0393 18.7209C13.5675 18.7209 14.074 18.9308 14.4475 19.3042L18.9443 23.8008C19.0884 23.9447 19.2838 24.0256 19.4875 24.0255C19.6913 24.0255 19.8866 23.9445 20.0307 23.8005ZM20.5006 39.7804C16.5885 39.7805 12.7642 38.6205 9.5114 36.4471C6.25859 34.2736 3.72332 31.1845 2.22619 27.5702C0.729061 23.9559 0.33732 19.9788 1.1005 16.1419C1.86369 12.3049 3.74752 8.78047 6.51378 6.01418C9.28003 3.2479 12.8045 1.36402 16.6414 0.600794C20.4783 -0.162436 24.4554 0.229257 28.0697 1.72634C31.684 3.22343 34.7732 5.75866 36.9467 9.01145C39.1201 12.2642 40.2802 16.0885 40.2802 20.0006C40.2743 25.2447 38.1884 30.2724 34.4802 33.9806C30.772 37.6888 25.7443 39.7746 20.5001 39.7804H20.5006ZM30.5767 11.0811L19.4872 22.1699L15.5339 18.2166C15.207 17.8883 14.8183 17.628 14.3902 17.4508C13.9621 17.2737 13.5031 17.1831 13.0398 17.1844C12.3421 17.1841 11.6599 17.3907 11.0797 17.7782C10.4994 18.1657 10.0471 18.7165 9.78007 19.3611C9.513 20.0057 9.44314 20.715 9.57933 21.3993C9.71552 22.0836 10.0516 22.7122 10.5452 23.2054L16.9921 29.6528C17.3196 29.9807 17.7085 30.2408 18.1365 30.4182C18.5646 30.5957 19.0234 30.687 19.4868 30.687C19.9501 30.687 20.409 30.5957 20.837 30.4182C21.2651 30.2408 21.6539 29.9807 21.9814 29.6528L35.5655 16.0687C35.8931 15.7411 36.1529 15.3523 36.3302 14.9243C36.5075 14.4963 36.5987 14.0376 36.5987 13.5743C36.5987 13.1111 36.5075 12.6523 36.3302 12.2244C36.1529 11.7964 35.8931 11.4075 35.5655 11.0799C35.238 10.7524 34.8491 10.4925 34.4211 10.3152C33.9931 10.138 33.5344 10.0467 33.0711 10.0467C32.6079 10.0467 32.1492 10.138 31.7212 10.3152C31.2932 10.4925 30.9043 10.7524 30.5767 11.0799V11.0811ZM36.8849 20.0006C36.8847 19.1487 36.8191 18.2982 36.6887 17.4564C36.6732 17.3567 36.6382 17.261 36.5857 17.1749C36.5332 17.0887 36.4643 17.0137 36.3828 16.9541C36.3014 16.8946 36.209 16.8517 36.111 16.8278C36.0129 16.804 35.9111 16.7997 35.8114 16.8152C35.7117 16.8307 35.6161 16.8657 35.5299 16.9181C35.4437 16.9706 35.3687 17.0395 35.3091 17.121C35.2496 17.2025 35.2067 17.2949 35.1828 17.3929C35.159 17.4909 35.1547 17.5927 35.1702 17.6924C35.2888 18.4561 35.3482 19.2278 35.3481 20.0006C35.3485 23.4338 34.1594 26.761 31.9831 29.4163C29.8068 32.0716 26.7777 33.8908 23.4113 34.5644C20.0448 35.238 16.549 34.7244 13.5185 33.111C10.4881 31.4976 8.11021 28.8841 6.78957 25.715C5.46892 22.546 5.28705 19.0173 6.27491 15.7293C7.26276 12.4413 9.35932 9.59719 12.2079 7.68078C15.0564 5.76438 18.4809 4.89412 21.8988 5.21807C25.3166 5.54202 28.5167 7.04018 30.9545 9.45763C31.0993 9.60117 31.2952 9.68129 31.4991 9.68038C31.703 9.67946 31.8982 9.59758 32.0417 9.45275C32.1853 9.30792 32.2654 9.11201 32.2645 8.9081C32.2636 8.7042 32.1817 8.50901 32.0369 8.36547C29.3472 5.69848 25.8167 4.04572 22.0458 3.68839C18.275 3.33107 14.4968 4.29124 11.3541 6.40557C8.21138 8.51989 5.89828 11.6577 4.80833 15.2853C3.71838 18.9128 3.91891 22.8059 5.37581 26.3023C6.8327 29.7986 9.45596 32.6822 12.7993 34.4624C16.1426 36.2426 19.9994 36.8096 23.7136 36.0667C27.4278 35.3238 30.7698 33.317 33.1712 30.3878C35.5726 27.4586 36.8849 23.7878 36.8849 20.0001V20.0006Z" fill="#00D455"/>
</svg>
