<svg width="15" height="14" viewBox="0 0 15 14" fill="none" xmlns="http://www.w3.org/2000/svg">
<path d="M7.5 0C5.65042 0.0223147 3.88287 0.766977 2.57493 2.07493C1.26698 3.38287 0.522315 5.15042 0.5 7C0.522315 8.84958 1.26698 10.6171 2.57493 11.9251C3.88287 13.233 5.65042 13.9777 7.5 14C9.34958 13.9777 11.1171 13.233 12.4251 11.9251C13.733 10.6171 14.4777 8.84958 14.5 7C14.4777 5.15042 13.733 3.38287 12.4251 2.07493C11.1171 0.766977 9.34958 0.0223147 7.5 0ZM11.5 7.5H8V11H7V7.5H3.5V6.5H7V3H8V6.5H11.5V7.5Z" fill="#204F50"/>
</svg>
