<svg width="36" height="36" viewBox="0 0 36 36" fill="none" xmlns="http://www.w3.org/2000/svg">
<rect width="36" height="36" rx="18" fill="#F3F3F3"/>
<path d="M7.09756 27.0502H16.2875C17.6958 28.8454 19.8751 29.9995 22.3171 29.9995C26.5534 29.9995 30 26.5265 30 22.2576C30 17.9887 26.5534 14.5156 22.3171 14.5156C19.7936 14.5156 17.5504 15.7481 16.1489 17.6471C15.5809 17.527 15.0006 17.4649 14.4146 17.4649C9.7748 17.4649 6 21.2687 6 25.9442C6 26.555 6.49141 27.0502 7.09756 27.0502ZM22.3171 16.7276C25.343 16.7276 27.8049 19.2083 27.8049 22.2576C27.8049 25.3068 25.343 27.7875 22.3171 27.7875C19.2911 27.7875 16.8293 25.3068 16.8293 22.2576C16.8293 19.2083 19.2911 16.7276 22.3171 16.7276Z" fill="#7658F2"/>
<path d="M14.4147 6C11.8828 6 9.82312 8.07558 9.82312 10.6268C9.82312 13.178 11.8828 15.2535 14.4147 15.2535C16.9464 15.2535 19.0061 13.178 19.0061 10.6268C19.0061 8.07558 16.9464 6 14.4147 6Z" fill="#7658F2"/>
<path d="M20.122 23.3634H21.2195V24.4694C21.2195 25.0802 21.711 25.5754 22.3171 25.5754C22.9232 25.5754 23.4147 25.0802 23.4147 24.4694V23.3634H24.5122C25.1184 23.3634 25.6098 22.8682 25.6098 22.2574C25.6098 21.6466 25.1184 21.1514 24.5122 21.1514H23.4147V20.0454C23.4147 19.4346 22.9232 18.9395 22.3171 18.9395C21.711 18.9395 21.2195 19.4346 21.2195 20.0454V21.1514H20.122C19.5158 21.1514 19.0244 21.6466 19.0244 22.2574C19.0244 22.8682 19.5158 23.3634 20.122 23.3634Z" fill="#7658F2"/>
</svg>
