<svg width="30" height="28" viewBox="0 0 30 28" fill="none" xmlns="http://www.w3.org/2000/svg">
<path d="M4.33332 11.6673C4.3334 10.5251 4.62696 9.40201 5.18585 8.40584C5.74474 7.40967 6.55021 6.57381 7.52501 5.97842C8.4998 5.38303 9.61122 5.04809 10.7527 5.00572C11.8941 4.96334 13.0273 5.21496 14.0436 5.73644C15.0598 6.25792 15.9251 7.03177 16.5563 7.98376C17.1875 8.93575 17.5635 10.034 17.6483 11.173C17.733 12.3121 17.5237 13.4539 17.0404 14.4888C16.557 15.5238 15.8159 16.4172 14.888 17.0833C16.8131 17.8504 18.4721 19.1635 19.6608 20.8611C20.8495 22.5586 21.5161 24.5666 21.5787 26.638C21.5854 26.771 21.5656 26.904 21.5203 27.0292C21.475 27.1544 21.4052 27.2693 21.3149 27.3671C21.2246 27.465 21.1157 27.5439 20.9945 27.5991C20.8734 27.6543 20.7424 27.6847 20.6093 27.6886C20.4762 27.6925 20.3437 27.6698 20.2195 27.6218C20.0953 27.5738 19.9819 27.5015 19.886 27.4091C19.7902 27.3167 19.7137 27.2061 19.6611 27.0837C19.6086 26.9614 19.581 26.8298 19.58 26.6966C19.5117 24.4556 18.5735 22.3292 16.9641 20.7681C15.3547 19.207 13.2008 18.334 10.9587 18.334C8.71655 18.334 6.56256 19.207 4.9532 20.7681C3.34384 22.3292 2.40559 24.4556 2.33732 26.6966C2.32397 26.9578 2.20889 27.2033 2.01673 27.3806C1.82457 27.5578 1.57062 27.6528 1.30928 27.6452C1.04794 27.6375 0.800001 27.5278 0.618574 27.3395C0.437146 27.1513 0.336663 26.8994 0.338652 26.638C0.401638 24.5568 1.07447 22.5399 2.27363 20.8378C3.47279 19.1357 5.14546 17.8232 7.08399 17.0633C6.23155 16.4454 5.53779 15.6342 5.05963 14.6962C4.58148 13.7582 4.33256 12.7202 4.33332 11.6673ZM11 7.00065C10.3871 7.00065 9.78031 7.12136 9.21413 7.35588C8.64794 7.5904 8.13349 7.93415 7.70015 8.36749C7.26681 8.80083 6.92307 9.31528 6.68855 9.88146C6.45403 10.4476 6.33332 11.0545 6.33332 11.6673C6.33332 12.2802 6.45403 12.887 6.68855 13.4532C6.92307 14.0194 7.26681 14.5338 7.70015 14.9671C8.13349 15.4005 8.64794 15.7442 9.21413 15.9788C9.78031 16.2133 10.3871 16.334 11 16.334C12.2377 16.334 13.4246 15.8423 14.2998 14.9671C15.175 14.092 15.6667 12.905 15.6667 11.6673C15.6667 10.4296 15.175 9.24266 14.2998 8.36749C13.4246 7.49232 12.2377 7.00065 11 7.00065ZM24.6667 0.333984C24.9319 0.333984 25.1862 0.439341 25.3738 0.626878C25.5613 0.814414 25.6667 1.06877 25.6667 1.33398V4.33398H28.6666C28.9319 4.33398 29.1862 4.43934 29.3738 4.62688C29.5613 4.81441 29.6666 5.06877 29.6666 5.33398C29.6666 5.5992 29.5613 5.85355 29.3738 6.04109C29.1862 6.22863 28.9319 6.33398 28.6666 6.33398H25.6667V9.33398C25.6667 9.5992 25.5613 9.85355 25.3738 10.0411C25.1862 10.2286 24.9319 10.334 24.6667 10.334C24.4014 10.334 24.1471 10.2286 23.9595 10.0411C23.772 9.85355 23.6667 9.5992 23.6667 9.33398V6.33398H20.6667C20.4014 6.33398 20.1471 6.22863 19.9595 6.04109C19.772 5.85355 19.6667 5.5992 19.6667 5.33398C19.6667 5.06877 19.772 4.81441 19.9595 4.62688C20.1471 4.43934 20.4014 4.33398 20.6667 4.33398H23.6667V1.33398C23.6667 1.06877 23.772 0.814414 23.9595 0.626878C24.1471 0.439341 24.4014 0.333984 24.6667 0.333984Z" fill="#204F50"/>
</svg>
