<svg width="18" height="16" viewBox="0 0 18 16" fill="none" xmlns="http://www.w3.org/2000/svg">
<path d="M3.16667 8.00004V8.00004C3.16667 9.55773 3.16667 10.3366 3.5016 10.9167C3.72102 11.2968 4.03662 11.6123 4.41667 11.8318C4.99679 12.1667 5.77564 12.1667 7.33333 12.1667H11.195C12.1616 12.1667 12.6449 12.1667 13.0697 12.0072C13.3507 11.9017 13.6103 11.7466 13.8363 11.5491C14.1779 11.2505 14.4069 10.8248 14.8647 9.9735V9.9735C16.028 7.81022 16.6097 6.72858 16.4364 5.84979C16.3244 5.28162 16.0186 4.76995 15.5713 4.40219C14.8794 3.83337 13.6512 3.83337 11.195 3.83337H7.33333C5.77564 3.83337 4.99679 3.83337 4.41667 4.16831C4.03662 4.38773 3.72102 4.70333 3.5016 5.08337C3.16667 5.6635 3.16667 6.44235 3.16667 8.00004V8.00004ZM3.16667 8.00004V3.00004C3.16667 2.07957 2.42047 1.33337 1.5 1.33337V1.33337M9.41667 6.33337V8.00004M9.41667 8.00004V9.66671M9.41667 8.00004H7.75M9.41667 8.00004H11.0833M6.70833 13.4167C6.70833 14.1071 6.14869 14.6667 5.45833 14.6667C4.76798 14.6667 4.20833 14.1071 4.20833 13.4167C4.20833 12.7264 4.76798 12.1667 5.45833 12.1667C6.14869 12.1667 6.70833 12.7264 6.70833 13.4167ZM13.375 13.4167C13.375 14.1071 12.8154 14.6667 12.125 14.6667C11.4346 14.6667 10.875 14.1071 10.875 13.4167C10.875 12.7264 11.4346 12.1667 12.125 12.1667C12.8154 12.1667 13.375 12.7264 13.375 13.4167Z" stroke="#8204FF" stroke-width="1.25" stroke-linecap="round" stroke-linejoin="round"/>
<path d="M3.16667 8.00004V8.00004C3.16667 9.55773 3.16667 10.3366 3.5016 10.9167C3.72102 11.2968 4.03662 11.6123 4.41667 11.8318C4.99679 12.1667 5.77564 12.1667 7.33333 12.1667H11.195C12.1616 12.1667 12.6449 12.1667 13.0697 12.0072C13.3507 11.9017 13.6103 11.7466 13.8363 11.5491C14.1779 11.2505 14.4069 10.8248 14.8647 9.9735V9.9735C16.028 7.81022 16.6097 6.72858 16.4364 5.84979C16.3244 5.28162 16.0186 4.76995 15.5713 4.40219C14.8794 3.83337 13.6512 3.83337 11.195 3.83337H7.33333C5.77564 3.83337 4.99679 3.83337 4.41667 4.16831C4.03662 4.38773 3.72102 4.70333 3.5016 5.08337C3.16667 5.6635 3.16667 6.44235 3.16667 8.00004V8.00004ZM3.16667 8.00004V3.00004C3.16667 2.07957 2.42047 1.33337 1.5 1.33337V1.33337M9.41667 6.33337V8.00004M9.41667 8.00004V9.66671M9.41667 8.00004H7.75M9.41667 8.00004H11.0833M6.70833 13.4167C6.70833 14.1071 6.14869 14.6667 5.45833 14.6667C4.76798 14.6667 4.20833 14.1071 4.20833 13.4167C4.20833 12.7264 4.76798 12.1667 5.45833 12.1667C6.14869 12.1667 6.70833 12.7264 6.70833 13.4167ZM13.375 13.4167C13.375 14.1071 12.8154 14.6667 12.125 14.6667C11.4346 14.6667 10.875 14.1071 10.875 13.4167C10.875 12.7264 11.4346 12.1667 12.125 12.1667C12.8154 12.1667 13.375 12.7264 13.375 13.4167Z" stroke="black" stroke-opacity="0.2" stroke-width="1.25" stroke-linecap="round" stroke-linejoin="round"/>
</svg>
