<svg width="20" height="20" viewBox="0 0 20 20" fill="none" xmlns="http://www.w3.org/2000/svg">
<path d="M4.16699 8.33331V13.3426C4.16699 13.6417 4.16699 13.7913 4.21254 13.9233C4.25281 14.0401 4.31855 14.1465 4.40498 14.2347C4.50271 14.3345 4.63649 14.4014 4.90404 14.5352L9.40404 16.7852C9.62267 16.8945 9.732 16.9491 9.84666 16.9707C9.94822 16.9897 10.0524 16.9897 10.154 16.9707C10.2687 16.9491 10.378 16.8945 10.5966 16.7852L15.0966 14.5352C15.3642 14.4014 15.4979 14.3345 15.5957 14.2347C15.6821 14.1465 15.7478 14.0401 15.7881 13.9233C15.8337 13.7913 15.8337 13.6417 15.8337 13.3426V8.33331M1.66699 7.08331L9.70218 3.06571C9.8115 3.01105 9.86616 2.98372 9.92349 2.97297C9.97427 2.96344 10.0264 2.96344 10.0772 2.97297C10.1345 2.98372 10.1891 3.01105 10.2985 3.06571L18.3337 7.08331L10.2985 11.1009C10.1891 11.1556 10.1345 11.1829 10.0772 11.1936C10.0264 11.2032 9.97427 11.2032 9.92349 11.1936C9.86616 11.1829 9.8115 11.1556 9.70218 11.1009L1.66699 7.08331Z" stroke="#0079E9" stroke-width="2" stroke-linecap="round" stroke-linejoin="round"/>
</svg>
