<svg width="30" height="32" viewBox="0 0 30 32" fill="none" xmlns="http://www.w3.org/2000/svg">
<path d="M28.8733 17.4143C29.6031 16.6848 31.3487 13.0543 28.1019 9.80282C27.0098 8.70762 24.5396 7.53473 21.7504 7.53473C17.519 7.53473 12.1245 9.88619 10.027 15.1519C7.00552 22.7311 12.7104 30.2725 19.7067 30.2725C22.9292 30.2725 26.4586 28.101 27.8939 25.8992C27.984 25.7609 28.0828 25.6302 28.1764 25.4956C28.5301 24.9935 29.2182 23.597 26.9041 22.5322C25.8761 22.0585 25.7496 20.967 25.8761 20.4232C26.2557 18.7804 27.5489 18.7387 28.8733 17.4143ZM23.6954 25.634C22.5738 26.0508 21.4124 25.5885 21.1004 24.5994C20.7884 23.6122 21.4436 22.4734 22.5652 22.0566C23.6867 21.6397 24.8482 22.102 25.1602 23.0911C25.4722 24.0783 24.817 25.2171 23.6954 25.634Z" fill="url(#paint0_radial_508_7429)"/>
<mask id="mask0_508_7429" style="mask-type:luminance" maskUnits="userSpaceOnUse" x="4" y="3" width="22" height="25">
<path d="M20.9813 8.37223C21.1271 7.30192 20.3877 3.29431 15.9897 3.06835C14.5096 2.99118 11.9143 3.81795 9.7481 5.76815C6.46184 8.7268 3.62923 14.3039 5.039 19.8129C7.06634 27.7441 15.849 29.5446 21.2825 24.6527C23.7853 22.3995 25.2732 18.2647 25.1173 15.5709C25.1074 15.4017 25.1087 15.2322 25.1038 15.0635C25.0887 14.4307 24.8172 12.8775 22.4054 13.6781C21.3337 14.0332 20.6056 13.2838 20.39 12.7778C19.7368 11.2512 20.7171 10.315 20.9813 8.37223ZM21.7035 18.3028C21.073 19.4071 19.9042 19.8642 19.0911 19.3231C18.279 18.7834 18.1308 17.451 18.7612 16.3468C19.3917 15.2425 20.5605 14.7854 21.3736 15.3265C22.1857 15.8662 22.334 17.1986 21.7035 18.3028Z" fill="white"/>
</mask>
<g mask="url(#mask0_508_7429)">
<path opacity="0.2" d="M13.8443 25.6102C15.0344 24.5411 15.803 23.4137 15.5611 23.092C15.3192 22.7702 14.1583 23.3761 12.9683 24.4451C11.7782 25.5142 11.0096 26.6416 11.2515 26.9633C11.4934 27.285 12.6543 26.6792 13.8443 25.6102Z" fill="#FFA726"/>
</g>
<mask id="mask1_508_7429" style="mask-type:luminance" maskUnits="userSpaceOnUse" x="9" y="7" width="21" height="24">
<path d="M28.8733 17.4143C29.6031 16.6848 31.3487 13.0543 28.1019 9.80282C27.0098 8.70762 24.5396 7.53473 21.7504 7.53473C17.519 7.53473 12.1245 9.88619 10.027 15.1519C7.00552 22.7311 12.7104 30.2725 19.7067 30.2725C22.9292 30.2725 26.4586 28.101 27.8939 25.8992C27.984 25.7609 28.0828 25.6302 28.1764 25.4956C28.5301 24.9935 29.2182 23.597 26.9041 22.5322C25.8761 22.0584 25.7496 20.967 25.8761 20.4232C26.2557 18.7804 27.5489 18.7387 28.8733 17.4143ZM23.6954 25.634C22.5738 26.0508 21.4124 25.5885 21.1004 24.5994C20.7884 23.6122 21.4436 22.4734 22.5652 22.0566C23.6867 21.6397 24.8482 22.102 25.1602 23.0911C25.4722 24.0783 24.817 25.2171 23.6954 25.634Z" fill="white"/>
</mask>
<g mask="url(#mask1_508_7429)">
<path opacity="0.2" d="M10.5138 26.0584C10.5138 26.0584 14.6828 21.4862 16.0731 22.2479C17.4633 23.0097 12.5992 27.5818 12.5992 27.5818H11.9041L12.5992 28.3436C12.5992 28.3436 18.8518 23.0097 18.1584 20.7226C17.465 18.4356 10.4341 25.0257 9.96777 25.3232L10.5138 26.0584Z" fill="#FFA726"/>
</g>
<mask id="mask2_508_7429" style="mask-type:luminance" maskUnits="userSpaceOnUse" x="9" y="7" width="21" height="24">
<path d="M28.8733 17.4143C29.6031 16.6848 31.3487 13.0543 28.1019 9.80282C27.0098 8.70762 24.5396 7.53473 21.7504 7.53473C17.519 7.53473 12.1245 9.88619 10.027 15.1519C7.00552 22.7311 12.7104 30.2725 19.7067 30.2725C22.9292 30.2725 26.4586 28.101 27.8939 25.8992C27.984 25.7609 28.0828 25.6302 28.1764 25.4956C28.5301 24.9935 29.2182 23.597 26.9041 22.5322C25.8761 22.0584 25.7496 20.967 25.8761 20.4232C26.2557 18.7804 27.5489 18.7387 28.8733 17.4143ZM23.6954 25.634C22.5738 26.0508 21.4124 25.5885 21.1004 24.5994C20.7884 23.6122 21.4436 22.4734 22.5652 22.0566C23.6867 21.6397 24.8482 22.102 25.1602 23.0911C25.4722 24.0783 24.817 25.2171 23.6954 25.634Z" fill="white"/>
</mask>
<g mask="url(#mask2_508_7429)">
<path opacity="0.2" d="M8.7666 23.3602C8.7666 23.3602 14.5824 18.2821 20.3098 17.6796C20.3098 17.6796 22.1317 17.2362 21.7278 18.7577C21.3222 20.2811 19.2403 25.6757 14.0606 29.3876L13.4539 28.912C13.4539 28.912 22.3068 22.1532 19.4431 19.0741C19.4431 19.0741 19.1241 18.5038 17.245 19.328C15.3659 20.1523 9.02662 24.8192 9.02662 24.8192L8.7666 23.3602Z" fill="#FFA726"/>
</g>
<mask id="mask3_508_7429" style="mask-type:luminance" maskUnits="userSpaceOnUse" x="9" y="7" width="21" height="24">
<path d="M28.8733 17.4143C29.6031 16.6848 31.3487 13.0543 28.1019 9.80282C27.0098 8.70762 24.5396 7.53473 21.7504 7.53473C17.519 7.53473 12.1245 9.88619 10.027 15.1519C7.00552 22.7311 12.7104 30.2725 19.7067 30.2725C22.9292 30.2725 26.4586 28.101 27.8939 25.8992C27.984 25.7609 28.0828 25.6302 28.1764 25.4956C28.5301 24.9935 29.2182 23.597 26.9041 22.5322C25.8761 22.0584 25.7496 20.967 25.8761 20.4232C26.2557 18.7804 27.5489 18.7387 28.8733 17.4143ZM23.6954 25.634C22.5738 26.0508 21.4124 25.5885 21.1004 24.5994C20.7884 23.6122 21.4436 22.4734 22.5652 22.0566C23.6867 21.6397 24.8482 22.102 25.1602 23.0911C25.4722 24.0783 24.817 25.2171 23.6954 25.634Z" fill="white"/>
</mask>
<g mask="url(#mask3_508_7429)">
<path opacity="0.2" d="M7.92822 21.6549C7.92822 21.6549 12.118 18.4223 16.8764 16.7094C21.6348 14.9965 23.552 11.6465 23.552 11.6465C23.552 11.6465 23.5867 14.6839 16.131 17.8785C8.67535 21.0732 8.56787 22.6686 8.56787 22.6686L7.92822 21.6549Z" fill="#FFA726"/>
</g>
<mask id="mask4_508_7429" style="mask-type:luminance" maskUnits="userSpaceOnUse" x="9" y="7" width="21" height="24">
<path d="M28.8733 17.4143C29.6031 16.6848 31.3487 13.0543 28.1019 9.80282C27.0098 8.70762 24.5396 7.53473 21.7504 7.53473C17.519 7.53473 12.1245 9.88619 10.027 15.1519C7.00552 22.7311 12.7104 30.2725 19.7067 30.2725C22.9292 30.2725 26.4586 28.101 27.8939 25.8992C27.984 25.7609 28.0828 25.6302 28.1764 25.4956C28.5301 24.9935 29.2182 23.597 26.9041 22.5322C25.8761 22.0584 25.7496 20.967 25.8761 20.4232C26.2557 18.7804 27.5489 18.7387 28.8733 17.4143ZM23.6954 25.634C22.5738 26.0508 21.4124 25.5885 21.1004 24.5994C20.7884 23.6122 21.4436 22.4734 22.5652 22.0566C23.6867 21.6397 24.8482 22.102 25.1602 23.0911C25.4722 24.0783 24.817 25.2171 23.6954 25.634Z" fill="white"/>
</mask>
<g mask="url(#mask4_508_7429)">
<path opacity="0.2" d="M19.8662 7.43621C19.8662 7.43621 13.1195 16.1599 9.60401 14.1344L8.96436 15.4967C8.96436 15.4967 14.8946 16.3153 20.752 7.35663L19.8662 7.43621Z" fill="#FFA726"/>
</g>
<mask id="mask5_508_7429" style="mask-type:luminance" maskUnits="userSpaceOnUse" x="9" y="7" width="21" height="24">
<path d="M28.8733 17.4143C29.6031 16.6848 31.3487 13.0543 28.1019 9.80282C27.0098 8.70762 24.5396 7.53473 21.7504 7.53473C17.519 7.53473 12.1245 9.88619 10.027 15.1519C7.00552 22.7311 12.7104 30.2725 19.7067 30.2725C22.9292 30.2725 26.4586 28.101 27.8939 25.8992C27.984 25.7609 28.0828 25.6302 28.1764 25.4956C28.5301 24.9935 29.2182 23.597 26.9041 22.5322C25.8761 22.0584 25.7496 20.967 25.8761 20.4232C26.2557 18.7804 27.5489 18.7387 28.8733 17.4143ZM23.6954 25.634C22.5738 26.0508 21.4124 25.5885 21.1004 24.5994C20.7884 23.6122 21.4436 22.4734 22.5652 22.0566C23.6867 21.6397 24.8482 22.102 25.1602 23.0911C25.4722 24.0783 24.817 25.2171 23.6954 25.634Z" fill="white"/>
</mask>
<g mask="url(#mask5_508_7429)">
<path opacity="0.2" d="M8.57954 17.5393C8.57954 17.5393 13.6569 16.7605 16.6749 14.5398C19.6928 12.3191 21.2183 8.34948 25.942 8.54276L26.9006 8.97098C26.9006 8.97098 23.8116 8.23011 21.2547 11.5422C18.6978 14.8544 18.0599 15.1253 15.7873 16.0216C13.5147 16.9178 8.08203 18.2404 8.08203 18.2404L8.57954 17.5393Z" fill="#FFA726"/>
</g>
<mask id="mask6_508_7429" style="mask-type:luminance" maskUnits="userSpaceOnUse" x="9" y="7" width="21" height="24">
<path d="M28.8733 17.4143C29.6031 16.6848 31.3487 13.0543 28.1019 9.80282C27.0098 8.70762 24.5396 7.53473 21.7504 7.53473C17.519 7.53473 12.1245 9.88619 10.027 15.1519C7.00552 22.7311 12.7104 30.2725 19.7067 30.2725C22.9292 30.2725 26.4586 28.101 27.8939 25.8992C27.984 25.7609 28.0828 25.6302 28.1764 25.4956C28.5301 24.9935 29.2182 23.597 26.9041 22.5322C25.8761 22.0584 25.7496 20.967 25.8761 20.4232C26.2557 18.7804 27.5489 18.7387 28.8733 17.4143ZM23.6954 25.634C22.5738 26.0508 21.4124 25.5885 21.1004 24.5994C20.7884 23.6122 21.4436 22.4734 22.5652 22.0566C23.6867 21.6397 24.8482 22.102 25.1602 23.0911C25.4722 24.0783 24.817 25.2171 23.6954 25.634Z" fill="white"/>
</mask>
<g mask="url(#mask6_508_7429)">
<path opacity="0.2" d="M29.0844 10.6157C29.0844 10.6157 25.4456 12.8819 24.3223 14.411C24.3223 14.411 28.7255 11.997 30.0291 12.2926L29.0844 10.6157Z" fill="#FFA726"/>
</g>
<mask id="mask7_508_7429" style="mask-type:luminance" maskUnits="userSpaceOnUse" x="9" y="7" width="21" height="24">
<path d="M28.8733 17.4143C29.6031 16.6848 31.3487 13.0543 28.1019 9.80282C27.0098 8.70762 24.5396 7.53473 21.7504 7.53473C17.519 7.53473 12.1245 9.88619 10.027 15.1519C7.00552 22.7311 12.7104 30.2725 19.7067 30.2725C22.9292 30.2725 26.4586 28.101 27.8939 25.8992C27.984 25.7609 28.0828 25.6302 28.1764 25.4956C28.5301 24.9935 29.2182 23.597 26.9041 22.5322C25.8761 22.0584 25.7496 20.967 25.8761 20.4232C26.2557 18.7804 27.5489 18.7387 28.8733 17.4143ZM23.6954 25.634C22.5738 26.0508 21.4124 25.5885 21.1004 24.5994C20.7884 23.6122 21.4436 22.4734 22.5652 22.0566C23.6867 21.6397 24.8482 22.102 25.1602 23.0911C25.4722 24.0783 24.817 25.2171 23.6954 25.634Z" fill="white"/>
</mask>
<g mask="url(#mask7_508_7429)">
<path opacity="0.2" d="M30.04 13.4446C30.04 13.4446 23.2343 16.141 21.5927 21.0011C19.9511 25.8613 17.76 27.3355 17.2608 27.6083C16.7633 27.8812 14.0244 30.5017 13.9741 30.7215L16.0162 31.1592C16.0162 31.1592 20.596 26.8997 21.0935 23.9514C21.591 21.003 24.212 16.8894 30.7368 13.7724L30.04 13.4446Z" fill="#FFA726"/>
</g>
<mask id="mask8_508_7429" style="mask-type:luminance" maskUnits="userSpaceOnUse" x="9" y="7" width="21" height="24">
<path d="M28.8733 17.4143C29.6031 16.6848 31.3487 13.0543 28.1019 9.80282C27.0098 8.70762 24.5396 7.53473 21.7504 7.53473C17.519 7.53473 12.1245 9.88619 10.027 15.1519C7.00552 22.7311 12.7104 30.2725 19.7067 30.2725C22.9292 30.2725 26.4586 28.101 27.8939 25.8992C27.984 25.7609 28.0828 25.6302 28.1764 25.4956C28.5301 24.9935 29.2182 23.597 26.9041 22.5322C25.8761 22.0584 25.7496 20.967 25.8761 20.4232C26.2557 18.7804 27.5489 18.7387 28.8733 17.4143ZM23.6954 25.634C22.5738 26.0508 21.4124 25.5885 21.1004 24.5994C20.7884 23.6122 21.4436 22.4734 22.5652 22.0566C23.6867 21.6397 24.8482 22.102 25.1602 23.0911C25.4722 24.0783 24.817 25.2171 23.6954 25.634Z" fill="white"/>
</mask>
<g mask="url(#mask8_508_7429)">
<path opacity="0.2" d="M22.7467 24.9537C22.7467 24.9537 20.904 29.759 17.5186 32.7622C17.5186 32.7622 21.4015 30.7954 23.8423 25.3895L22.7467 24.9537Z" fill="#FFA726"/>
</g>
<mask id="mask9_508_7429" style="mask-type:luminance" maskUnits="userSpaceOnUse" x="9" y="7" width="21" height="24">
<path d="M28.8733 17.4143C29.6031 16.6848 31.3487 13.0543 28.1019 9.80282C27.0098 8.70762 24.5396 7.53473 21.7504 7.53473C17.519 7.53473 12.1245 9.88619 10.027 15.1519C7.00552 22.7311 12.7104 30.2725 19.7067 30.2725C22.9292 30.2725 26.4586 28.101 27.8939 25.8992C27.984 25.7609 28.0828 25.6302 28.1764 25.4956C28.5301 24.9935 29.2182 23.597 26.9041 22.5322C25.8761 22.0584 25.7496 20.967 25.8761 20.4232C26.2557 18.7804 27.5489 18.7387 28.8733 17.4143ZM23.6954 25.634C22.5738 26.0508 21.4124 25.5885 21.1004 24.5994C20.7884 23.6122 21.4436 22.4734 22.5652 22.0566C23.6867 21.6397 24.8482 22.102 25.1602 23.0911C25.4722 24.0783 24.817 25.2171 23.6954 25.634Z" fill="white"/>
</mask>
<g mask="url(#mask9_508_7429)">
<path opacity="0.2" d="M27.0438 22.5738C27.0438 22.5738 25.5945 29.02 22.9751 30.6135C22.9751 30.6135 26.5982 30.2668 28.2694 22.3654L27.0438 22.5738Z" fill="#FFA726"/>
</g>
<path opacity="0.2" d="M21.7504 8.10317C24.3004 8.10317 26.6995 9.16995 27.7517 10.2235C28.8993 11.3736 29.4817 12.6678 29.48 14.0718C29.4783 15.546 28.823 16.698 28.5231 16.9955C28.0794 17.4389 27.6408 17.725 27.2144 18.0017C26.4187 18.5208 25.6664 19.0116 25.3734 20.2849C25.1931 21.0694 25.3977 22.4545 26.7047 23.057C27.4605 23.4057 27.9129 23.8093 28.0135 24.228C28.1036 24.5994 27.8973 24.9651 27.7673 25.1489C27.7379 25.1906 27.7084 25.2304 27.6789 25.272C27.6113 25.3668 27.5402 25.4634 27.4726 25.5695C26.1743 27.5572 22.8373 29.704 19.7067 29.704C16.3091 29.704 13.0501 27.7903 11.204 24.7093C9.51732 21.8936 9.2625 18.4943 10.5037 15.3792C11.4189 13.0827 13.0883 11.1784 15.3331 9.87103C17.2902 8.73035 19.5697 8.10317 21.7504 8.10317ZM22.8633 26.3559C23.1996 26.3559 23.5359 26.2934 23.8635 26.1721C24.6107 25.8954 25.2174 25.3327 25.5329 24.6316C25.7842 24.0707 25.8258 23.4568 25.6525 22.9054C25.3509 21.9523 24.4668 21.3346 23.399 21.3346C23.0627 21.3346 22.7264 21.3972 22.3988 21.5184C21.6516 21.7951 21.0449 22.3578 20.7294 23.0589C20.4781 23.6198 20.4365 24.2337 20.6098 24.7851C20.9114 25.7401 21.7955 26.3559 22.8633 26.3559ZM21.7504 7.53473C17.519 7.53473 12.1245 9.88619 10.027 15.1519C7.00552 22.7311 12.7104 30.2725 19.7067 30.2725C22.9292 30.2725 26.4586 28.101 27.8939 25.8992C27.984 25.7609 28.0828 25.6302 28.1764 25.4956C28.5301 24.9935 29.2182 23.597 26.9041 22.5322C25.8761 22.0585 25.7496 20.967 25.8761 20.4232C26.254 18.7804 27.5472 18.7368 28.8716 17.4143C29.6013 16.6848 31.347 13.0543 28.1002 9.80282C27.0098 8.70762 24.5396 7.53473 21.7504 7.53473ZM22.8633 25.7874C22.0486 25.7874 21.3361 25.3422 21.1004 24.6013C20.7884 23.6141 21.4436 22.4753 22.5652 22.0585C22.8443 21.9542 23.1268 21.905 23.3972 21.905C24.212 21.905 24.9244 22.3503 25.1602 23.093C25.4722 24.0802 24.817 25.219 23.6954 25.6359C23.4163 25.7382 23.1338 25.7874 22.8633 25.7874Z" fill="#424242"/>
<path d="M19.8742 13.1424C21.0458 12.7427 21.758 11.5862 21.4648 10.5593C21.1716 9.53237 19.9841 9.02387 18.8124 9.42354C17.6408 9.82322 16.9286 10.9797 17.2218 12.0067C17.515 13.0336 18.7025 13.5421 19.8742 13.1424Z" fill="#C62828"/>
<path d="M21.133 10.3277C21.4121 11.3263 20.7049 12.4518 19.5503 12.8402C18.3958 13.2287 17.2325 12.7341 16.9534 11.7355C16.6743 10.737 17.3816 9.61146 18.5362 9.22302C19.6907 8.83459 20.8522 9.32913 21.133 10.3277Z" fill="url(#paint1_radial_508_7429)"/>
<path d="M15.0814 17.2437C16.264 16.8403 16.9837 15.6759 16.6888 14.643C16.3939 13.61 15.1961 13.0997 14.0134 13.5031C12.8308 13.9065 12.1111 15.0709 12.406 16.1039C12.7009 17.1368 13.8987 17.6471 15.0814 17.2437Z" fill="#1565C0"/>
<path d="M16.3995 14.3845C16.6872 15.4096 15.9591 16.5616 14.7769 16.9614C13.5946 17.3612 12.4019 16.8534 12.1141 15.8283C11.8263 14.8032 12.5544 13.6512 13.7367 13.2514C14.919 12.8516 16.1117 13.3594 16.3995 14.3845Z" fill="url(#paint2_radial_508_7429)"/>
<path d="M13.8127 22.9716C15.0283 22.557 15.767 21.3568 15.4627 20.2909C15.1584 19.225 13.9263 18.697 12.7107 19.1117C11.4952 19.5263 10.7565 20.7265 11.0608 21.7924C11.3651 22.8583 12.5972 23.3863 13.8127 22.9716Z" fill="#F9A825"/>
<path d="M15.1824 20.1504C15.4615 21.1489 14.7542 22.2744 13.5996 22.6629C12.4451 23.0513 11.2819 22.5568 11.0027 21.5582C10.7236 20.5596 11.4309 19.4341 12.5855 19.0457C13.74 18.6554 14.9033 19.1499 15.1824 20.1504Z" fill="url(#paint3_radial_508_7429)"/>
<path d="M17.4087 28.1864C18.5675 27.7905 19.2674 26.6324 18.9721 25.5995C18.6769 24.5667 17.4981 24.0503 16.3393 24.4462C15.1806 24.842 14.4806 26.0002 14.7759 27.033C15.0712 28.0658 16.2499 28.5822 17.4087 28.1864Z" fill="#558B2F"/>
<path d="M18.676 25.4236C18.9551 26.4222 18.2478 27.5477 17.0933 27.9362C15.9387 28.3246 14.7755 27.8301 14.4964 26.8315C14.2173 25.8329 14.9246 24.7074 16.0791 24.319C17.2337 23.9305 18.3969 24.4251 18.676 25.4236Z" fill="url(#paint4_radial_508_7429)"/>
<defs>
<radialGradient id="paint0_radial_508_7429" cx="0" cy="0" r="1" gradientUnits="userSpaceOnUse" gradientTransform="translate(19.0195 10.7121) rotate(90) scale(20.1684 12.1113)">
<stop stop-color="#FFCC80"/>
<stop offset="0.2942" stop-color="#FFCB7D"/>
<stop offset="0.4879" stop-color="#FFC774"/>
<stop offset="0.6526" stop-color="#FFC166"/>
<stop offset="0.8012" stop-color="#FFB850"/>
<stop offset="0.9375" stop-color="#FFAD35"/>
<stop offset="1" stop-color="#FFA726"/>
</radialGradient>
<radialGradient id="paint1_radial_508_7429" cx="0" cy="0" r="1" gradientUnits="userSpaceOnUse" gradientTransform="translate(18.7593 9.3981) rotate(90) scale(3.23994 2.31149)">
<stop stop-color="#EF5350"/>
<stop offset="0.3459" stop-color="#E94B49"/>
<stop offset="0.8869" stop-color="#D73534"/>
<stop offset="1" stop-color="#D32F2F"/>
</radialGradient>
<radialGradient id="paint2_radial_508_7429" cx="0" cy="0" r="1" gradientUnits="userSpaceOnUse" gradientTransform="translate(13.9658 13.4306) rotate(90) scale(3.86295 2.75598)">
<stop stop-color="#42A5F5"/>
<stop offset="0.2859" stop-color="#3B9DEF"/>
<stop offset="0.7328" stop-color="#2787DE"/>
<stop offset="1" stop-color="#1976D2"/>
</radialGradient>
<radialGradient id="paint3_radial_508_7429" cx="0" cy="0" r="1" gradientUnits="userSpaceOnUse" gradientTransform="translate(12.8096 19.2193) rotate(90) scale(3.98024 2.83965)">
<stop stop-color="#FFEB3B"/>
<stop offset="0.436" stop-color="#FFEB3B"/>
<stop offset="0.6129" stop-color="#FEE238"/>
<stop offset="0.8995" stop-color="#FCCA30"/>
<stop offset="1" stop-color="#FBC02D"/>
</radialGradient>
<radialGradient id="paint4_radial_508_7429" cx="0" cy="0" r="1" gradientUnits="userSpaceOnUse" gradientTransform="translate(16.3025 24.4933) rotate(90) scale(3.23993 2.31149)">
<stop stop-color="#8BC34A"/>
<stop offset="0.3459" stop-color="#83BB46"/>
<stop offset="0.8869" stop-color="#6DA53B"/>
<stop offset="1" stop-color="#689F38"/>
</radialGradient>
</defs>
</svg>
