<svg width="24" height="24" viewBox="0 0 24 24" fill="none" xmlns="http://www.w3.org/2000/svg">
<path d="M11.9997 0C6.75969 0 2.31969 3.36 0.679688 8H23.3197C21.6797 3.36 17.2397 0 11.9997 0Z" fill="#428BC1"/>
<path d="M11.9997 24C17.2397 24 21.6797 20.68 23.3197 16H0.679688C2.31969 20.68 6.75969 24 11.9997 24Z" fill="#83BF4F"/>
<path d="M0.68 8C0.24 9.24 0 10.6 0 12C0 13.4 0.24 14.76 0.68 16H23.32C23.76 14.76 24 13.4 24 12C24 10.6 23.76 9.24 23.32 8H0.68Z" fill="#ED4C5C"/>
<path d="M11.8399 15.2802C10.0399 15.2802 8.55992 13.8002 8.55992 12.0002C8.55992 10.2002 10.0399 8.72016 11.8399 8.72016C12.2799 8.72016 12.6799 8.80016 13.0399 8.96016C12.3999 8.48016 11.5999 8.16016 10.7199 8.16016C8.59992 8.16016 6.91992 9.88016 6.91992 12.0002C6.91992 14.1202 8.63992 15.8402 10.7199 15.8402C11.5999 15.8402 12.3999 15.5602 13.0399 15.0402C12.6799 15.2002 12.2799 15.2802 11.8399 15.2802ZM15.3599 12.5602L14.4799 13.1602L15.0399 12.2402L13.9999 12.0002L15.0399 11.7602L14.4399 10.8802L15.3599 11.4402L15.5999 10.4002L15.8399 11.4402L16.7199 10.8402L16.1599 11.7602L17.1999 12.0002L16.1599 12.2402L16.7599 13.1202L15.8399 12.5602L15.5999 13.6002L15.3599 12.5602Z" fill="white"/>
</svg>
