<svg width="14" height="13" viewBox="0 0 14 13" fill="none" xmlns="http://www.w3.org/2000/svg">
<path fill-rule="evenodd" clip-rule="evenodd" d="M5.84294 0.688098C6.32312 -0.139442 7.51818 -0.13944 7.99837 0.688099L9.46891 3.22238C9.60445 3.45598 9.83874 3.61539 10.1058 3.65573L12.5477 4.02455C13.6122 4.18532 13.9855 5.52928 13.1566 6.21608L11.3773 7.69015C11.1276 7.89705 11.0102 8.22341 11.0708 8.54199L11.5692 11.1593C11.7645 12.1846 10.6882 12.9811 9.76469 12.4949L7.33531 11.2157C7.07576 11.0791 6.76554 11.0791 6.50599 11.2157L4.07661 12.4949C3.15313 12.9811 2.07684 12.1846 2.27207 11.1593L2.77046 8.54199C2.83113 8.22341 2.7137 7.89705 2.46397 7.69015L0.68474 6.21608C-0.144236 5.52928 0.229142 4.18532 1.29359 4.02455L3.73551 3.65573C4.00256 3.61539 4.23684 3.45598 4.37239 3.22238L5.84294 0.688098ZM7.07461 1.22412C7.00601 1.1059 6.83529 1.1059 6.76669 1.22412L5.29615 3.7584C4.99794 4.27232 4.48252 4.62302 3.89501 4.71176L1.45309 5.08058C1.30102 5.10355 1.24768 5.29554 1.36611 5.39365L3.14534 6.86773C3.69475 7.32291 3.95308 8.0409 3.81962 8.74177L3.32123 11.3591C3.29334 11.5055 3.44709 11.6193 3.57902 11.5499L6.0084 10.2707C6.57941 9.97005 7.26189 9.97005 7.83289 10.2707L10.2623 11.5499C10.3942 11.6193 10.548 11.5055 10.5201 11.3591L10.0217 8.74177C9.88822 8.0409 10.1466 7.32291 10.696 6.86773L12.4752 5.39366C12.5936 5.29554 12.5403 5.10355 12.3882 5.08058L9.94629 4.71176C9.35878 4.62302 8.84336 4.27232 8.54515 3.7584L7.07461 1.22412Z" fill="#388EF2"/>
</svg>
