<svg width="17" height="17" viewBox="0 0 17 17" fill="none" xmlns="http://www.w3.org/2000/svg">
<path d="M14.5477 12.2179L12.4633 2.30798C12.4364 2.17839 12.3841 2.0554 12.3094 1.94608C12.2348 1.83676 12.1393 1.74326 12.0284 1.67096C11.9175 1.59865 11.7935 1.54897 11.6633 1.52476C11.5332 1.50055 11.3996 1.50229 11.2701 1.52989L8.33042 2.16166C8.07039 2.21859 7.84336 2.37589 7.69871 2.59934C7.55405 2.82279 7.50347 3.09432 7.55797 3.35487L9.64232 13.2648C9.68877 13.4909 9.81164 13.6941 9.99028 13.8402C10.1689 13.9864 10.3924 14.0666 10.6233 14.0674C10.6946 14.0673 10.7658 14.0597 10.8355 14.0447L13.7752 13.413C14.0355 13.3559 14.2628 13.1983 14.4075 12.9745C14.5521 12.7506 14.6025 12.4787 14.5477 12.2179ZM8.5408 3.14951C8.5408 3.14574 8.5408 3.14386 8.5408 3.14386L11.4799 2.51585L11.689 3.51249L8.74992 4.14489L8.5408 3.14951ZM8.95654 5.12584L11.8968 4.49469L12.1066 5.49322L9.1688 6.12499L8.95654 5.12584ZM9.37353 7.10844L12.3138 6.47667L13.1491 10.4482L10.2088 11.0799L9.37353 7.10844ZM13.5648 12.4308L10.6258 13.0588L10.4166 12.0621L13.3557 11.4297L13.5648 12.4251C13.5648 12.4289 13.5648 12.4308 13.5648 12.4308ZM6.53119 2.00968H3.51677C3.25028 2.00968 2.9947 2.11554 2.80626 2.30398C2.61783 2.49242 2.51196 2.748 2.51196 3.01449V13.0625C2.51196 13.329 2.61783 13.5846 2.80626 13.7731C2.9947 13.9615 3.25028 14.0674 3.51677 14.0674H6.53119C6.79768 14.0674 7.05325 13.9615 7.24169 13.7731C7.43013 13.5846 7.53599 13.329 7.53599 13.0625V3.01449C7.53599 2.748 7.43013 2.49242 7.24169 2.30398C7.05325 2.11554 6.79768 2.00968 6.53119 2.00968ZM3.51677 3.01449H6.53119V4.01929H3.51677V3.01449ZM3.51677 5.0241H6.53119V11.0529H3.51677V5.0241ZM6.53119 13.0625H3.51677V12.0577H6.53119V13.0625Z" fill="#F8911E"/>
</svg>
