<svg width="23" height="16" viewBox="0 0 23 16" fill="none" xmlns="http://www.w3.org/2000/svg">
<path d="M17.0591 4.66962C16.579 4.66967 16.107 4.71587 15.6434 4.80858C15.1912 4.89902 14.7555 5.01692 14.3365 5.16264L14.328 5.16561L14.3196 5.16889C14.1026 5.25328 14.0388 5.20871 14.0251 5.19913L14.0247 5.19882C13.9983 5.18048 13.9416 5.13502 13.941 4.93672C13.9411 4.90739 13.9509 4.84472 14.0221 4.74081C14.0917 4.63918 14.14 4.61179 14.155 4.60522C14.6273 4.44289 15.0979 4.32158 15.5669 4.24071C16.0363 4.15979 16.5336 4.11874 17.0598 4.11874C17.3833 4.11874 17.7025 4.13912 18.0173 4.17976C18.3396 4.22138 18.6571 4.27479 18.9696 4.33996C19.0015 4.34743 19.0403 4.36541 19.0895 4.42573C19.1312 4.47696 19.1448 4.52054 19.1446 4.57312V4.57512C19.1446 4.75268 19.0941 4.79665 19.0662 4.81695C19.026 4.84616 18.9454 4.88375 18.751 4.838L18.751 4.83791L18.7413 4.83581C18.4801 4.77984 18.2073 4.73815 17.9234 4.71027C17.6396 4.68241 17.3515 4.66891 17.0591 4.66962ZM17.0591 4.66962C17.0593 4.66962 17.0595 4.66962 17.0598 4.66962V5.16962L17.0585 4.66963C17.0587 4.66963 17.0589 4.66962 17.0591 4.66962ZM17.0593 10.3562C16.5823 10.3562 16.1132 10.3977 15.6525 10.481C15.1975 10.5633 14.759 10.6772 14.3373 10.8231L14.3284 10.8262L14.3196 10.8296C14.0946 10.9171 14.0251 10.8727 14.0111 10.8635L14.01 10.8628C13.9939 10.8524 13.9406 10.8181 13.941 10.6257V10.6246V10.6236C13.941 10.5944 13.9507 10.5316 14.0221 10.4274C14.0917 10.3257 14.1401 10.2986 14.1554 10.292C14.6279 10.1296 15.0987 10.0082 15.568 9.92729C16.0373 9.84637 16.5344 9.80532 17.0598 9.80532C17.3833 9.80532 17.7025 9.82571 18.0173 9.86635C18.3396 9.90796 18.6571 9.96138 18.9696 10.0265C19.0014 10.034 19.0403 10.052 19.0895 10.1123C19.1312 10.1636 19.1448 10.2071 19.1446 10.2597V10.2617C19.1446 10.4393 19.0941 10.4832 19.0662 10.5035C19.026 10.5327 18.9454 10.5703 18.751 10.5246L18.751 10.5245L18.7413 10.5224C18.4801 10.4664 18.2073 10.4247 17.9234 10.3969C17.6397 10.369 17.3516 10.3555 17.0593 10.3562ZM17.0593 10.3562C17.0594 10.3562 17.0596 10.3562 17.0598 10.3562V10.8562L17.0585 10.3562C17.0588 10.3562 17.059 10.3562 17.0593 10.3562ZM17.0591 7.51292C16.579 7.51296 16.107 7.55917 15.6434 7.65187C15.1912 7.74231 14.7555 7.86021 14.3365 8.00594L14.328 8.00891L14.3196 8.01218C14.1026 8.09658 14.0388 8.052 14.0251 8.04242L14.0247 8.04212C13.9983 8.02377 13.9416 7.97831 13.941 7.78001C13.9411 7.75069 13.9509 7.68801 14.0221 7.58411C14.0917 7.48245 14.1401 7.45529 14.1554 7.44874C14.6279 7.28629 15.0987 7.16491 15.568 7.084C16.0373 7.00308 16.5344 6.96203 17.0598 6.96203C17.3833 6.96203 17.7025 6.98241 18.0173 7.02305C18.3396 7.06467 18.6571 7.11808 18.9696 7.18325C19.0015 7.19072 19.0403 7.2087 19.0895 7.26903C19.1312 7.32026 19.1448 7.36384 19.1446 7.41641V7.41841C19.1446 7.59597 19.0941 7.63995 19.0662 7.66025C19.026 7.68946 18.9454 7.72704 18.751 7.6813L18.751 7.6812L18.7413 7.67911C18.4801 7.62313 18.2073 7.58145 17.9234 7.55357C17.6396 7.52571 17.3515 7.51221 17.0591 7.51292ZM17.0591 7.51292C17.0593 7.51292 17.0595 7.51292 17.0598 7.51292V8.01292L17.0585 7.51292C17.0587 7.51292 17.0589 7.51292 17.0591 7.51292ZM17.0598 12.4071C16.2492 12.4064 15.4606 12.4967 14.6941 12.678C14.0959 12.8195 13.5003 13.0159 12.9071 13.2674V13.4927H12.4071L12.1917 13.0415C12.2635 13.0072 12.3352 12.9738 12.4071 12.9411L17.0598 12.4071ZM17.0598 12.4071C17.6801 12.4071 18.2877 12.4588 18.8826 12.5622C19.3126 12.6369 19.7445 12.7387 20.1785 12.8674L17.0598 12.4071ZM10.1241 13.944L10.8392 14.285V13.4927V3.30856V3.02188L10.5918 2.87705C9.84576 2.44033 9.05364 2.11256 8.21667 1.89422C7.38327 1.67681 6.53957 1.56785 5.68659 1.56785C5.03359 1.56785 4.385 1.63136 3.74125 1.75822C3.09565 1.88545 2.47249 2.07649 1.87237 2.33139L1.56785 2.46074V2.7916V13.0275V13.7275L2.23001 13.5004C2.80956 13.3017 3.38298 13.1534 3.95043 13.0548C4.51627 12.9565 5.09487 12.9071 5.68659 12.9071C6.45884 12.9071 7.20875 12.9935 7.93722 13.1656C8.66769 13.3382 9.39654 13.5972 10.1241 13.944ZM11.9071 13.4927V14.2854L12.6225 13.944C13.3507 13.5964 14.0795 13.3371 14.8092 13.1646C15.5368 12.9925 16.2865 12.9064 17.0593 12.9071H17.0598C17.6522 12.9071 18.2311 12.9565 18.7969 13.0548C19.3644 13.1534 19.9374 13.3017 20.5162 13.5004L21.1785 13.7277V13.0275V2.7916V2.46058L20.8738 2.33131C20.2731 2.07646 19.6496 1.88545 19.0041 1.75822C18.3603 1.63137 17.7121 1.56785 17.0598 1.56785C16.2068 1.56785 15.3631 1.67681 14.5297 1.89422C13.6927 2.11256 12.9006 2.44033 12.1545 2.87705L11.9071 3.02188V3.30856V13.4927ZM11.3746 15.5H11.3732C11.1742 15.5 10.9915 15.475 10.823 15.4277C10.6445 15.3775 10.4795 15.3109 10.3268 15.2286C9.6187 14.8119 8.87285 14.4986 8.09019 14.2896C7.30682 14.0805 6.50538 13.9757 5.68703 13.9749H5.68659C4.91861 13.9749 4.16356 14.0756 3.42261 14.2767C2.68835 14.4761 1.98598 14.7569 1.31622 15.119C1.10499 15.2289 0.945012 15.2188 0.766799 15.109C0.579675 14.9937 0.50048 14.8535 0.5 14.6296V2.17124C0.5 2.06951 0.524509 1.97135 0.580419 1.87006C0.620736 1.79703 0.679267 1.73982 0.776185 1.69561L0.788217 1.69012L0.799942 1.684C1.55665 1.2892 2.34533 0.993515 3.16676 0.796371C3.98972 0.598862 4.82937 0.5 5.68659 0.5C6.64238 0.5 7.57661 0.62352 8.49045 0.870415C9.40275 1.11689 10.2788 1.48687 11.1195 1.98177L11.3731 2.13104L11.6267 1.98185C12.4681 1.4869 13.3446 1.1169 14.2569 0.870415C15.1708 0.623512 16.1047 0.5 17.0598 0.5C17.917 0.5 18.7566 0.598862 19.5796 0.796371C20.401 0.993515 21.1897 1.2892 21.9464 1.684L21.9584 1.69028L21.9708 1.69589C22.0685 1.74029 22.1269 1.79754 22.167 1.87006C22.2226 1.97083 22.2467 2.06833 22.2463 2.16942V2.17124V14.63C22.2463 14.8539 22.1675 14.9938 21.9806 15.109C21.8025 15.2187 21.6421 15.229 21.4299 15.1189C20.7596 14.7569 20.0574 14.4761 19.3239 14.2768C18.5835 14.0756 17.8284 13.9749 17.0598 13.9749C16.2411 13.9749 15.4394 14.0798 14.6557 14.2898C13.8732 14.4994 13.1275 14.8127 12.4194 15.2287C12.266 15.3117 12.1006 15.3786 11.9223 15.4287C11.7542 15.476 11.5723 15.5006 11.3746 15.5Z" stroke="#F8911E"/>
</svg>
