<svg width="41" height="42" viewBox="0 0 41 42" fill="none" xmlns="http://www.w3.org/2000/svg">
<rect x="1" y="0.5" width="39" height="41" rx="19.5" stroke="#7658F2"/>
<path d="M28 19.925L26.6 21.3C26.4167 21.4833 26.1877 21.5793 25.913 21.588C25.6383 21.5967 25.4007 21.5007 25.2 21.3C25.0167 21.1167 24.925 20.8833 24.925 20.6C24.925 20.3167 25.0167 20.0833 25.2 19.9L26.575 18.5L25.2 17.125C25.0167 16.9417 24.925 16.7127 24.925 16.438C24.925 16.1633 25.0167 15.9257 25.2 15.725C25.4 15.525 25.6377 15.425 25.913 15.425C26.1883 15.425 26.4257 15.525 26.625 15.725L28 17.1L29.375 15.7C29.5583 15.5 29.7873 15.4 30.062 15.4C30.3367 15.4 30.5743 15.5 30.775 15.7C30.975 15.9 31.075 16.1377 31.075 16.413C31.075 16.6883 30.975 16.9257 30.775 17.125L29.4 18.5L30.8 19.9C31 20.1 31.096 20.3333 31.088 20.6C31.08 20.8667 30.9757 21.1 30.775 21.3C30.575 21.4833 30.3417 21.5793 30.075 21.588C29.8083 21.5967 29.575 21.5007 29.375 21.3L28 19.925ZM17.5 21C16.4 21 15.4583 20.6083 14.675 19.825C13.8917 19.0417 13.5 18.1 13.5 17C13.5 15.9 13.8917 14.9583 14.675 14.175C15.4583 13.3917 16.4 13 17.5 13C18.6 13 19.5417 13.3917 20.325 14.175C21.1083 14.9583 21.5 15.9 21.5 17C21.5 18.1 21.1083 19.0417 20.325 19.825C19.5417 20.6083 18.6 21 17.5 21ZM9.5 27V26.2C9.5 25.6333 9.646 25.1127 9.938 24.638C10.23 24.1633 10.6173 23.8007 11.1 23.55C12.1333 23.0333 13.1833 22.646 14.25 22.388C15.3167 22.13 16.4 22.0007 17.5 22C18.6 22 19.6833 22.1293 20.75 22.388C21.8167 22.6467 22.8667 23.034 23.9 23.55C24.3833 23.8 24.771 24.1627 25.063 24.638C25.355 25.1133 25.5007 25.634 25.5 26.2V27C25.5 27.55 25.3043 28.021 24.913 28.413C24.5217 28.805 24.0507 29.0007 23.5 29H11.5C10.95 29 10.4793 28.8043 10.088 28.413C9.69667 28.0217 9.50067 27.5507 9.5 27Z" fill="#7658F2"/>
</svg>
