<svg width="42" height="42" viewBox="0 0 42 42" fill="none" xmlns="http://www.w3.org/2000/svg">
<circle cx="21" cy="21" r="21" fill="#FF3115"/>
<path d="M12.9999 18.5C13 17.6433 13.2202 16.801 13.6393 16.0539C14.0585 15.3068 14.6626 14.6799 15.3937 14.2333C16.1248 13.7868 16.9584 13.5356 17.8144 13.5038C18.6705 13.472 19.5204 13.6607 20.2826 14.0518C21.0448 14.443 21.6937 15.0233 22.1671 15.7373C22.6406 16.4513 22.9226 17.275 22.9861 18.1293C23.0497 18.9836 22.8927 19.8399 22.5302 20.6161C22.1677 21.3923 21.6118 22.0624 20.9159 22.562C22.3598 23.1373 23.604 24.1222 24.4955 25.3953C25.3871 26.6685 25.887 28.1744 25.9339 29.728C25.939 29.8277 25.9242 29.9275 25.8902 30.0214C25.8562 30.1153 25.8038 30.2015 25.7361 30.2749C25.6684 30.3483 25.5867 30.4074 25.4958 30.4488C25.405 30.4902 25.3067 30.513 25.2069 30.516C25.1071 30.5189 25.0077 30.5019 24.9145 30.4659C24.8214 30.4299 24.7364 30.3756 24.6645 30.3063C24.5926 30.237 24.5352 30.1541 24.4958 30.0623C24.4564 29.9706 24.4357 29.8719 24.4349 29.772C24.3837 28.0912 23.68 26.4964 22.473 25.3256C21.266 24.1548 19.6505 23.5 17.9689 23.5C16.2874 23.5 14.6719 24.1548 13.4648 25.3256C12.2578 26.4964 11.5541 28.0912 11.5029 29.772C11.4929 29.9678 11.4066 30.152 11.2625 30.2849C11.1184 30.4179 10.9279 30.4891 10.7319 30.4834C10.5359 30.4776 10.3499 30.3953 10.2139 30.2541C10.0778 30.113 10.0024 29.9241 10.0039 29.728C10.0512 28.1671 10.5558 26.6545 11.4552 25.3779C12.3545 24.1013 13.609 23.1169 15.0629 22.547C14.4236 22.0836 13.9033 21.4751 13.5447 20.7716C13.186 20.0681 12.9994 19.2896 12.9999 18.5ZM17.9999 15C17.5403 15 17.0852 15.0905 16.6605 15.2664C16.2359 15.4423 15.8501 15.7001 15.5251 16.0251C15.2 16.3501 14.9422 16.736 14.7663 17.1606C14.5905 17.5852 14.4999 18.0404 14.4999 18.5C14.4999 18.9596 14.5905 19.4148 14.7663 19.8394C14.9422 20.264 15.2 20.6499 15.5251 20.9749C15.8501 21.2999 16.2359 21.5577 16.6605 21.7336C17.0852 21.9095 17.5403 22 17.9999 22C18.9282 22 19.8184 21.6313 20.4748 20.9749C21.1312 20.3185 21.4999 19.4283 21.4999 18.5C21.4999 17.5717 21.1312 16.6815 20.4748 16.0251C19.8184 15.3687 18.9282 15 17.9999 15ZM28.2499 10C28.4488 10 28.6396 10.079 28.7803 10.2197C28.9209 10.3603 28.9999 10.5511 28.9999 10.75V13H31.2499C31.4488 13 31.6396 13.079 31.7803 13.2197C31.9209 13.3603 31.9999 13.5511 31.9999 13.75C31.9999 13.9489 31.9209 14.1397 31.7803 14.2803C31.6396 14.421 31.4488 14.5 31.2499 14.5H28.9999V16.75C28.9999 16.9489 28.9209 17.1397 28.7803 17.2803C28.6396 17.421 28.4488 17.5 28.2499 17.5C28.051 17.5 27.8602 17.421 27.7196 17.2803C27.5789 17.1397 27.4999 16.9489 27.4999 16.75V14.5H25.2499C25.051 14.5 24.8603 14.421 24.7196 14.2803C24.5789 14.1397 24.4999 13.9489 24.4999 13.75C24.4999 13.5511 24.5789 13.3603 24.7196 13.2197C24.8603 13.079 25.051 13 25.2499 13H27.4999V10.75C27.4999 10.5511 27.5789 10.3603 27.7196 10.2197C27.8602 10.079 28.051 10 28.2499 10Z" fill="white"/>
</svg>
