<svg width="17" height="17" viewBox="0 0 17 17" fill="none" xmlns="http://www.w3.org/2000/svg">
<g clip-path="url(#clip0_200_1644)">
<path d="M13.1721 4.18418C13.0328 3.77342 12.643 3.48102 12.1835 3.48102H4.52531C4.06582 3.48102 3.68291 3.77342 3.53671 4.18418L2.1652 8.13161C2.11647 8.27781 2.08862 8.43097 2.08862 8.5911V13.5759C2.08862 14.1537 2.55507 14.6202 3.13292 14.6202C3.71076 14.6202 4.17721 14.1537 4.17721 13.5759V13.2278H12.5316V13.5759C12.5316 14.1467 12.998 14.6202 13.5759 14.6202C14.1467 14.6202 14.6202 14.1537 14.6202 13.5759V8.5911C14.6202 8.43793 14.5923 8.27781 14.5436 8.13161L13.1721 4.18418ZM4.52531 11.1392C3.94747 11.1392 3.48102 10.6727 3.48102 10.0949C3.48102 9.51704 3.94747 9.05059 4.52531 9.05059C5.10315 9.05059 5.5696 9.51704 5.5696 10.0949C5.5696 10.6727 5.10315 11.1392 4.52531 11.1392ZM12.1835 11.1392C11.6056 11.1392 11.1392 10.6727 11.1392 10.0949C11.1392 9.51704 11.6056 9.05059 12.1835 9.05059C12.7613 9.05059 13.2278 9.51704 13.2278 10.0949C13.2278 10.6727 12.7613 11.1392 12.1835 11.1392ZM3.48102 7.6582L4.36518 4.99873C4.46265 4.72025 4.72721 4.52531 5.02657 4.52531H11.6822C11.9816 4.52531 12.2461 4.72025 12.3436 4.99873L13.2278 7.6582H3.48102Z" fill="#388EF2"/>
</g>
<defs>
<clipPath id="clip0_200_1644">
<rect width="16.7087" height="16.7087" fill="white"/>
</clipPath>
</defs>
</svg>
