<svg width="36" height="36" viewBox="0 0 36 36" fill="none" xmlns="http://www.w3.org/2000/svg">
<rect width="36" height="36" rx="18" fill="#F3F3F3"/>
<path d="M9.75403 9C8.75947 9 7.80564 9.39509 7.10238 10.0983C6.39912 10.8016 6.00403 11.7554 6.00403 12.75V13.5H30V12.75C30 11.7554 29.6049 10.8016 28.9017 10.0983C28.1984 9.39509 27.2446 9 26.25 9H9.75403ZM6.00403 23.25V15H30V23.25C30 24.2446 29.6049 25.1984 28.9017 25.9017C28.1984 26.6049 27.2446 27 26.25 27H9.75503C8.76047 27 7.80664 26.6049 7.10338 25.9017C6.40012 25.1984 6.00503 24.2446 6.00503 23.25H6.00403ZM22.25 20.5C22.0511 20.5 21.8604 20.579 21.7197 20.7197C21.579 20.8603 21.5 21.0511 21.5 21.25C21.5 21.4489 21.579 21.6397 21.7197 21.7803C21.8604 21.921 22.0511 22 22.25 22H25.75C25.9489 22 26.1397 21.921 26.2804 21.7803C26.421 21.6397 26.5 21.4489 26.5 21.25C26.5 21.0511 26.421 20.8603 26.2804 20.7197C26.1397 20.579 25.9489 20.5 25.75 20.5H22.25Z" fill="#7658F2"/>
</svg>
