<svg width="13" height="12" viewBox="0 0 13 12" fill="none" xmlns="http://www.w3.org/2000/svg">
<path d="M11.0834 1.20316C10.9442 0.792403 10.5543 0.5 10.0948 0.5H2.43669C1.9772 0.5 1.59429 0.792403 1.44809 1.20316L0.0765815 5.15059C0.0278478 5.29679 0 5.44995 0 5.61008V10.5948C0 11.1727 0.466451 11.6391 1.04429 11.6391C1.62214 11.6391 2.08859 11.1727 2.08859 10.5948V10.2467H10.4429V10.5948C10.4429 11.1657 10.9094 11.6391 11.4872 11.6391C12.0581 11.6391 12.5315 11.1727 12.5315 10.5948V5.61008C12.5315 5.45692 12.5037 5.29679 12.4549 5.15059L11.0834 1.20316ZM2.43669 8.15816C1.85884 8.15816 1.39239 7.69171 1.39239 7.11386C1.39239 6.53602 1.85884 6.06957 2.43669 6.06957C3.01453 6.06957 3.48098 6.53602 3.48098 7.11386C3.48098 7.69171 3.01453 8.15816 2.43669 8.15816ZM10.0948 8.15816C9.517 8.15816 9.05055 7.69171 9.05055 7.11386C9.05055 6.53602 9.517 6.06957 10.0948 6.06957C10.6727 6.06957 11.1391 6.53602 11.1391 7.11386C11.1391 7.69171 10.6727 8.15816 10.0948 8.15816ZM1.39239 4.67718L2.27656 2.01771C2.37403 1.73923 2.63858 1.54429 2.93795 1.54429H9.59358C9.89295 1.54429 10.1575 1.73923 10.255 2.01771L11.1391 4.67718H1.39239Z" fill="#F99034"/>
</svg>
