<svg width="13" height="12" viewBox="0 0 13 12" fill="none" xmlns="http://www.w3.org/2000/svg">
<path d="M11.1721 1.18412C11.0328 0.77336 10.643 0.480957 10.1835 0.480957H2.52531C2.06582 0.480957 1.68291 0.77336 1.53671 1.18412L0.165205 5.13155C0.116471 5.27775 0.088623 5.43091 0.088623 5.59104V10.5758C0.088623 11.1536 0.555075 11.6201 1.13292 11.6201C1.71076 11.6201 2.17721 11.1536 2.17721 10.5758V10.2277H10.5316V10.5758C10.5316 11.1467 10.998 11.6201 11.5759 11.6201C12.1467 11.6201 12.6202 11.1536 12.6202 10.5758V5.59104C12.6202 5.43787 12.5923 5.27775 12.5436 5.13155L11.1721 1.18412ZM2.52531 8.13912C1.94747 8.13912 1.48102 7.67266 1.48102 7.09482C1.48102 6.51698 1.94747 6.05053 2.52531 6.05053C3.10315 6.05053 3.5696 6.51698 3.5696 7.09482C3.5696 7.67266 3.10315 8.13912 2.52531 8.13912ZM10.1835 8.13912C9.60563 8.13912 9.13917 7.67266 9.13917 7.09482C9.13917 6.51698 9.60563 6.05053 10.1835 6.05053C10.7613 6.05053 11.2278 6.51698 11.2278 7.09482C11.2278 7.67266 10.7613 8.13912 10.1835 8.13912ZM1.48102 4.65813L2.36518 1.99866C2.46265 1.72019 2.72721 1.52525 3.02657 1.52525H9.68221C9.98157 1.52525 10.2461 1.72019 10.3436 1.99866L11.2278 4.65813H1.48102Z" fill="#493EE3"/>
</svg>
