<svg width="40" height="40" viewBox="0 0 40 40" fill="none" xmlns="http://www.w3.org/2000/svg">
<rect width="40" height="40" rx="5" fill="#7F52EE" fill-opacity="0.1"/>
<path d="M28 25.5V26.25C28.4142 26.25 28.75 25.9142 28.75 25.5H28ZM12 25.5H11.25C11.25 25.9142 11.5858 26.25 12 26.25V25.5ZM17.889 18.3336C18.2432 18.1188 18.3562 17.6575 18.1414 17.3034C17.9266 16.9492 17.4653 16.8362 17.1112 17.051L17.889 18.3336ZM13.9581 21.3197C13.8576 21.7215 14.1018 22.1287 14.5037 22.2292C14.9055 22.3298 15.3127 22.0855 15.4132 21.6836L13.9581 21.3197ZM12.5 26.25H27.5V24.75H12.5V26.25ZM27.25 22.5V25.5H28.75V22.5H27.25ZM28 24.75H12V26.25H28V24.75ZM12.75 25.5V22.5H11.25V25.5H12.75ZM20.75 13C20.75 13.4142 20.4142 13.75 20 13.75V15.25C21.2426 15.25 22.25 14.2426 22.25 13H20.75ZM20 13.75C19.5858 13.75 19.25 13.4142 19.25 13H17.75C17.75 14.2426 18.7574 15.25 20 15.25V13.75ZM19.25 13C19.25 12.5858 19.5858 12.25 20 12.25V10.75C18.7574 10.75 17.75 11.7574 17.75 13H19.25ZM20 12.25C20.4142 12.25 20.75 12.5858 20.75 13H22.25C22.25 11.7574 21.2426 10.75 20 10.75V12.25ZM17.1112 17.051C15.5637 17.9896 14.4097 19.514 13.9581 21.3197L15.4132 21.6836C15.7669 20.2697 16.6722 19.0716 17.889 18.3336L17.1112 17.051ZM20 15.25C24.0041 15.25 27.25 18.4959 27.25 22.5H28.75C28.75 17.6675 24.8325 13.75 20 13.75V15.25ZM20 13.75C15.1675 13.75 11.25 17.6675 11.25 22.5H12.75C12.75 18.4959 15.9959 15.25 20 15.25V13.75ZM12.5 26.25H27.5V24.75H12.5V26.25ZM27.5 27.75H12.5V29.25H27.5V27.75ZM12.5 27.75C12.0858 27.75 11.75 27.4142 11.75 27H10.25C10.25 28.2426 11.2574 29.25 12.5 29.25V27.75ZM28.25 27C28.25 27.4142 27.9142 27.75 27.5 27.75V29.25C28.7426 29.25 29.75 28.2426 29.75 27H28.25ZM27.5 26.25C27.9142 26.25 28.25 26.5858 28.25 27H29.75C29.75 25.7574 28.7426 24.75 27.5 24.75V26.25ZM12.5 24.75C11.2574 24.75 10.25 25.7574 10.25 27H11.75C11.75 26.5858 12.0858 26.25 12.5 26.25V24.75Z" fill="#8204FF"/>
<path d="M28 25.5V26.25C28.4142 26.25 28.75 25.9142 28.75 25.5H28ZM12 25.5H11.25C11.25 25.9142 11.5858 26.25 12 26.25V25.5ZM17.889 18.3336C18.2432 18.1188 18.3562 17.6575 18.1414 17.3034C17.9266 16.9492 17.4653 16.8362 17.1112 17.051L17.889 18.3336ZM13.9581 21.3197C13.8576 21.7215 14.1018 22.1287 14.5037 22.2292C14.9055 22.3298 15.3127 22.0855 15.4132 21.6836L13.9581 21.3197ZM12.5 26.25H27.5V24.75H12.5V26.25ZM27.25 22.5V25.5H28.75V22.5H27.25ZM28 24.75H12V26.25H28V24.75ZM12.75 25.5V22.5H11.25V25.5H12.75ZM20.75 13C20.75 13.4142 20.4142 13.75 20 13.75V15.25C21.2426 15.25 22.25 14.2426 22.25 13H20.75ZM20 13.75C19.5858 13.75 19.25 13.4142 19.25 13H17.75C17.75 14.2426 18.7574 15.25 20 15.25V13.75ZM19.25 13C19.25 12.5858 19.5858 12.25 20 12.25V10.75C18.7574 10.75 17.75 11.7574 17.75 13H19.25ZM20 12.25C20.4142 12.25 20.75 12.5858 20.75 13H22.25C22.25 11.7574 21.2426 10.75 20 10.75V12.25ZM17.1112 17.051C15.5637 17.9896 14.4097 19.514 13.9581 21.3197L15.4132 21.6836C15.7669 20.2697 16.6722 19.0716 17.889 18.3336L17.1112 17.051ZM20 15.25C24.0041 15.25 27.25 18.4959 27.25 22.5H28.75C28.75 17.6675 24.8325 13.75 20 13.75V15.25ZM20 13.75C15.1675 13.75 11.25 17.6675 11.25 22.5H12.75C12.75 18.4959 15.9959 15.25 20 15.25V13.75ZM12.5 26.25H27.5V24.75H12.5V26.25ZM27.5 27.75H12.5V29.25H27.5V27.75ZM12.5 27.75C12.0858 27.75 11.75 27.4142 11.75 27H10.25C10.25 28.2426 11.2574 29.25 12.5 29.25V27.75ZM28.25 27C28.25 27.4142 27.9142 27.75 27.5 27.75V29.25C28.7426 29.25 29.75 28.2426 29.75 27H28.25ZM27.5 26.25C27.9142 26.25 28.25 26.5858 28.25 27H29.75C29.75 25.7574 28.7426 24.75 27.5 24.75V26.25ZM12.5 24.75C11.2574 24.75 10.25 25.7574 10.25 27H11.75C11.75 26.5858 12.0858 26.25 12.5 26.25V24.75Z" fill="black" fill-opacity="0.2"/>
</svg>
