<svg width="41" height="40" viewBox="0 0 41 40" fill="none" xmlns="http://www.w3.org/2000/svg">
<rect x="0.5" width="40" height="40" rx="5" fill="#FF8037" fill-opacity="0.25"/>
<path d="M15 12.5L12.6562 20M25 12.5L27.3438 20M18.5 23.6771V23.75C18.5 25.8211 16.8211 27.5 14.75 27.5V27.5C12.6789 27.5 11 25.8211 11 23.75V21.6563C11 20.7415 11.7415 20 12.6562 20V20M18.5 23.6771C18.8665 23.2619 19.4027 23 20 23C20.5973 23 21.1335 23.2619 21.5 23.6771M18.5 23.6771V23.6771C18.5 21.6463 16.8537 20 14.8229 20H12.6562M21.5 23.6771V23.75C21.5 25.8211 23.1789 27.5 25.25 27.5V27.5C27.3211 27.5 29 25.8211 29 23.75V21.6562C29 20.7415 28.2585 20 27.3438 20V20M21.5 23.6771V23.6771C21.5 21.6463 23.1463 20 25.1771 20H27.3438" stroke="#FF8037" stroke-width="1.5" stroke-linecap="round" stroke-linejoin="round"/>
</svg>
