<svg width="40" height="40" viewBox="0 0 40 40" fill="none" xmlns="http://www.w3.org/2000/svg">
<rect width="40" height="40" rx="5" fill="#FFC887" fill-opacity="0.25"/>
<path d="M24.4459 24.9449C24.6411 24.7496 24.6411 24.4331 24.4459 24.2378L24.0923 23.8842L23.3852 24.5914L23.7388 24.9449C23.934 25.1402 24.2506 25.1402 24.4459 24.9449Z" fill="#0A0338"/>
<path d="M18.75 20.1992C18.75 19.785 19.0858 19.4492 19.5 19.4492C19.9142 19.4492 20.25 19.785 20.25 20.1992C20.25 20.6134 19.9142 20.9492 19.5 20.9492C19.0858 20.9492 18.75 20.6134 18.75 20.1992Z" fill="#FFC887"/>
<path d="M24.0923 23.8842V23.8842C26.2402 21.7364 26.2402 18.254 24.0923 16.1061L23.7388 15.7525C21.3956 13.4094 17.5966 13.4094 15.2535 15.7525V15.7525C12.9104 18.0957 12.9103 21.8947 15.2535 24.2378L15.607 24.5914C17.7549 26.7392 21.2373 26.7392 23.3852 24.5914V24.5914M24.0923 23.8842L24.4459 24.2378C24.6411 24.4331 24.6411 24.7496 24.4459 24.9449V24.9449C24.2506 25.1402 23.934 25.1402 23.7388 24.9449L23.3852 24.5914M24.0923 23.8842L23.3852 24.5914M19.5 19.4492V19.4492C19.0858 19.4492 18.75 19.785 18.75 20.1992V20.1992C18.75 20.6134 19.0858 20.9492 19.5 20.9492V20.9492C19.9142 20.9492 20.25 20.6134 20.25 20.1992V20.1992M19.5 19.4492V19.4492C19.9142 19.4492 20.25 19.785 20.25 20.1992V20.1992M19.5 19.4492V16.6992M20.25 20.1992H22M13.2574 21.9913L11.8594 23.3893C11.0639 24.1847 10.6662 24.5824 10.59 25.0638C10.5654 25.2193 10.5654 25.3776 10.59 25.5331C10.6662 26.0145 11.0639 26.4122 11.8594 27.2076L12.2836 27.6319C13.0791 28.4274 13.4768 28.8251 13.9582 28.9013C14.1136 28.9259 14.272 28.9259 14.4275 28.9013C14.9089 28.8251 15.3066 28.4274 16.102 27.6319L17.5 26.2339M21.5 13.7487L22.8902 12.3584C23.6857 11.563 24.0834 11.1652 24.5648 11.089C24.7203 11.0644 24.8786 11.0644 25.0341 11.089C25.5155 11.1652 25.9132 11.563 26.7086 12.3584L27.1329 12.7827C27.9283 13.5781 28.326 13.9758 28.4023 14.4572C28.4269 14.6127 28.4269 14.771 28.4023 14.9265C28.326 15.4079 27.9283 15.8056 27.1329 16.601L25.7426 17.9913" stroke="#FFC887" stroke-width="1.5" stroke-linecap="round" stroke-linejoin="round"/>
</svg>
