<svg width="41" height="40" viewBox="0 0 41 40" fill="none" xmlns="http://www.w3.org/2000/svg">
<rect x="0.5" width="40" height="40" rx="5" fill="#133568" fill-opacity="0.15"/>
<path fill-rule="evenodd" clip-rule="evenodd" d="M25.4 10.25H25.3567H25.3567C24.2685 10.25 23.3911 10.25 22.6896 10.326C21.9647 10.4045 21.3393 10.5713 20.7958 10.9662C20.4775 11.1975 20.1975 11.4775 19.9662 11.7958C19.5713 12.3393 19.4045 12.9647 19.326 13.6896C19.2503 14.3882 19.25 15.2614 19.25 16.3434L17.0465 16.0496L17.0034 16.0438C15.8614 15.8915 14.9446 15.7693 14.2066 15.75C13.448 15.7301 12.7812 15.8139 12.1789 16.1484C11.7138 16.4068 11.3089 16.7613 10.9913 17.1882C10.5801 17.7409 10.409 18.3909 10.3284 19.1455C10.25 19.8795 10.25 20.8044 10.25 21.9566V21.9566V22V22.0434V22.0434C10.25 23.1956 10.25 24.1205 10.3284 24.8545C10.409 25.6091 10.5801 26.2591 10.9913 26.8118C11.3089 27.2387 11.7138 27.5932 12.1789 27.8516C12.7812 28.1861 13.448 28.2699 14.2066 28.25C14.9446 28.2307 15.8614 28.1085 17.0035 27.9562L17.0465 27.9504L19.3854 27.6386C19.717 27.5944 19.83 27.5803 19.9404 27.5773C19.9801 27.5763 20.0199 27.5763 20.0596 27.5773C20.17 27.5803 20.283 27.5944 20.6146 27.6386L22.9535 27.9504L22.9966 27.9562C24.1386 28.1085 25.0554 28.2307 25.7934 28.25C26.552 28.2699 27.2188 28.1861 27.8211 27.8516C28.2862 27.5932 28.6911 27.2387 29.0087 26.8118C29.4199 26.2591 29.591 25.6091 29.6716 24.8545C29.75 24.1205 29.75 23.1956 29.75 22.0434V22V21.9566C29.75 20.8044 29.75 19.8795 29.6716 19.1455C29.591 18.3909 29.4199 17.7409 29.0087 17.1882C28.6911 16.7613 28.2862 16.4068 27.8211 16.1484C27.2188 15.8139 26.552 15.7301 25.7934 15.75C25.0554 15.7693 24.1386 15.8915 22.9966 16.0438L22.9535 16.0496L20.75 16.3434C20.7501 15.232 20.7521 14.4522 20.8173 13.8511C20.882 13.2539 21.0016 12.9226 21.1797 12.6775C21.3185 12.4865 21.4865 12.3185 21.6775 12.1797C21.9226 12.0016 22.2539 11.882 22.8511 11.8173C23.4624 11.751 24.2584 11.75 25.4 11.75H25.5C25.9142 11.75 26.25 11.4142 26.25 11C26.25 10.5858 25.9142 10.25 25.5 10.25H25.4ZM12.9073 17.4597C13.1736 17.3118 13.5303 17.2328 14.1674 17.2495C14.8159 17.2664 15.6532 17.3771 16.8482 17.5364L19.9009 17.9434C19.9667 17.9522 20.0333 17.9522 20.0991 17.9434L23.1518 17.5364C24.3468 17.3771 25.1841 17.2664 25.8326 17.2495C26.4697 17.2328 26.8264 17.3118 27.0927 17.4597C27.3717 17.6147 27.6146 17.8274 27.8052 18.0835C27.987 18.3279 28.1124 18.671 28.1801 19.3047C28.249 19.9498 28.25 20.7944 28.25 22C28.25 23.2057 28.249 24.0502 28.1801 24.6953C28.1124 25.329 27.987 25.6721 27.8052 25.9165C27.6146 26.1726 27.3717 26.3853 27.0927 26.5403C26.8264 26.6882 26.4697 26.7672 25.8326 26.7505C25.1841 26.7336 24.3468 26.6229 23.1518 26.4636L20.8128 26.1517L20.7766 26.1469C20.4945 26.1093 20.299 26.0832 20.0994 26.0779C20.0331 26.0761 19.9669 26.0761 19.9006 26.0779C19.701 26.0832 19.5055 26.1093 19.2234 26.1469L19.1872 26.1517L16.8482 26.4636C15.6532 26.6229 14.8159 26.7336 14.1674 26.7505C13.5303 26.7672 13.1736 26.6882 12.9073 26.5403C12.6283 26.3853 12.3854 26.1726 12.1948 25.9165C12.013 25.6721 11.8876 25.329 11.8199 24.6953C11.751 24.0502 11.75 23.2057 11.75 22C11.75 20.7944 11.751 19.9498 11.8199 19.3047C11.8876 18.671 12.013 18.3279 12.1948 18.0835C12.3854 17.8274 12.6283 17.6147 12.9073 17.4597ZM16.75 20.5C16.75 20.0858 16.4142 19.75 16 19.75C15.5858 19.75 15.25 20.0858 15.25 20.5V21.25H14.5C14.0858 21.25 13.75 21.5858 13.75 22C13.75 22.4142 14.0858 22.75 14.5 22.75H15.25V23.5C15.25 23.9142 15.5858 24.25 16 24.25C16.4142 24.25 16.75 23.9142 16.75 23.5V22.75H17.5C17.9142 22.75 18.25 22.4142 18.25 22C18.25 21.5858 17.9142 21.25 17.5 21.25H16.75V20.5ZM24 21.25C23.5858 21.25 23.25 20.9142 23.25 20.5C23.25 20.0858 23.5858 19.75 24 19.75C24.4142 19.75 24.75 20.0858 24.75 20.5C24.75 20.9142 24.4142 21.25 24 21.25ZM22.5 22.75C22.9142 22.75 23.25 22.4142 23.25 22C23.25 21.5858 22.9142 21.25 22.5 21.25C22.0858 21.25 21.75 21.5858 21.75 22C21.75 22.4142 22.0858 22.75 22.5 22.75ZM25.5 22.75C25.9142 22.75 26.25 22.4142 26.25 22C26.25 21.5858 25.9142 21.25 25.5 21.25C25.0858 21.25 24.75 21.5858 24.75 22C24.75 22.4142 25.0858 22.75 25.5 22.75ZM23.25 23.5C23.25 23.9142 23.5858 24.25 24 24.25C24.4142 24.25 24.75 23.9142 24.75 23.5C24.75 23.0858 24.4142 22.75 24 22.75C23.5858 22.75 23.25 23.0858 23.25 23.5Z" fill="#133568"/>
</svg>
