<svg width="41" height="40" viewBox="0 0 41 40" fill="none" xmlns="http://www.w3.org/2000/svg">
<rect x="0.5" width="40" height="40" rx="5" fill="#1F7DFD" fill-opacity="0.25"/>
<path d="M20.5 29V29C23.3089 29 24.7134 29 25.7223 28.3259C26.159 28.034 26.534 27.659 26.8259 27.2223C27.5 26.2134 27.5 24.8089 27.5 22V18H20.5M20.5 29V29C17.6911 29 16.2866 29 15.2777 28.3259C14.841 28.034 14.466 27.659 14.1741 27.2223C13.5 26.2134 13.5 24.8089 13.5 22V18H20.5M20.5 29V18M17.5 11L19.75 14M23.5 11L21.25 14M19.75 14H13.5C12.3954 14 11.5 14.8954 11.5 16V16C11.5 17.1046 12.3954 18 13.5 18H27.5C28.6046 18 29.5 17.1046 29.5 16V16C29.5 14.8954 28.6046 14 27.5 14H21.25M19.75 14H21.25" stroke="#1F7DFD" stroke-width="1.5" stroke-linecap="round" stroke-linejoin="round"/>
</svg>
