<svg width="36" height="36" viewBox="0 0 36 36" fill="none" xmlns="http://www.w3.org/2000/svg">
<rect width="36" height="36" rx="18" fill="#F3F3F3"/>
<path d="M19.1666 27.3327C17.9672 27.3327 16.8188 27.1102 15.7214 26.6653C14.6247 26.2205 13.6369 25.5982 12.7581 24.7987L13.6132 23.9668C14.3824 24.6567 15.2271 25.1957 16.1472 25.5838C17.0666 25.972 18.073 26.166 19.1666 26.166C21.4377 26.166 23.3666 25.3727 24.9532 23.786C26.5399 22.1993 27.3332 20.2705 27.3332 17.9993C27.3332 15.7438 26.536 13.8188 24.9416 12.2243C23.3471 10.6299 21.4221 9.83268 19.1666 9.83268C16.911 9.83268 14.986 10.6299 13.3916 12.2243C11.7971 13.8188 10.9999 15.7438 10.9999 17.9993V19.6175L13.5106 17.1068L14.3424 17.9095L10.4166 21.8353L6.49072 17.9095L7.32256 17.1068L9.83322 19.6467V17.9993C9.83322 16.7043 10.0767 15.4914 10.5636 14.3605C11.0504 13.2296 11.7166 12.2411 12.5621 11.3948C13.4083 10.5494 14.3968 9.88324 15.5277 9.39635C16.6578 8.90946 17.8704 8.66602 19.1654 8.66602C20.4596 8.66602 21.6729 8.90946 22.8054 9.39635C23.9363 9.88324 24.9248 10.5494 25.7711 11.3948C26.6165 12.2411 27.2827 13.2292 27.7696 14.3593C28.2564 15.4902 28.4999 16.7028 28.4999 17.997C28.4999 20.5862 27.5926 22.7893 25.7781 24.6062C23.9627 26.4238 21.7589 27.3327 19.1666 27.3327ZM16.8332 22.3977C16.5408 22.3977 16.2958 22.2985 16.0982 22.1002C15.8999 21.9026 15.8007 21.6576 15.8007 21.3652V17.8652C15.8007 17.5727 15.9127 17.3277 16.1367 17.1302C16.3607 16.9326 16.6376 16.8335 16.9674 16.8327V15.5318C16.9674 14.9267 17.1828 14.4091 17.6137 13.979C18.0446 13.5481 18.5622 13.3327 19.1666 13.3327C19.7709 13.3327 20.2885 13.5481 20.7194 13.979C21.1503 14.4091 21.3657 14.9263 21.3657 15.5307V16.8327C21.6963 16.8327 21.9732 16.9315 22.1964 17.129C22.4196 17.3266 22.5316 17.5716 22.5324 17.864V21.364C22.5324 21.6572 22.4332 21.9022 22.2349 22.099C22.0373 22.2973 21.7923 22.3965 21.4999 22.3965H16.8332V22.3977ZM17.8657 16.8327H20.4674V15.54C20.4674 15.1745 20.3406 14.8645 20.0871 14.6102C19.8335 14.3566 19.5267 14.2298 19.1666 14.2298C18.8064 14.2298 18.4992 14.3566 18.2449 14.6102C17.9921 14.8637 17.8657 15.1737 17.8657 15.54V16.8327Z" fill="#7658F2"/>
</svg>
