<svg width="110" height="110" viewBox="0 0 110 110" fill="none" xmlns="http://www.w3.org/2000/svg">
<g filter="url(#filter0_d_2816_10978)">
<circle cx="55" cy="53" r="50" fill="white"/>
<circle cx="55" cy="53" r="49" stroke="#0079E9" stroke-width="2"/>
</g>
<path d="M40 64.6666V41.3333H59.27C59.2222 41.6111 59.1933 41.8833 59.1833 42.15C59.1722 42.4166 59.1794 42.7 59.205 43H42.18L55 51.3333L60.955 47.445C61.1517 47.635 61.3511 47.8194 61.5533 47.9983C61.7544 48.1761 61.9661 48.3411 62.1883 48.4933L55 53.1933L41.6667 44.4733V61.9733C41.6667 62.2722 41.7628 62.5177 41.955 62.7099C42.1472 62.9022 42.3928 62.9983 42.6917 62.9983H67.3083C67.6072 62.9983 67.8528 62.9022 68.045 62.7099C68.2372 62.5177 68.3333 62.2722 68.3333 61.9733V49.9166C68.6522 49.8422 68.945 49.7544 69.2117 49.6533C69.4783 49.5533 69.7411 49.4294 70 49.2816V64.6666H40ZM66.6667 46.7833C65.5133 46.7833 64.53 46.3766 63.7167 45.5633C62.9056 44.7522 62.5 43.7694 62.5 42.615C62.5 41.4616 62.9056 40.4788 63.7167 39.6666C64.53 38.8555 65.5133 38.45 66.6667 38.45C67.82 38.45 68.8033 38.8555 69.6167 39.6666C70.4278 40.4777 70.8333 41.4611 70.8333 42.6166C70.8333 43.77 70.4278 44.7522 69.6167 45.5633C68.8033 46.3755 67.82 46.7816 66.6667 46.7816" fill="#0079E9"/>
<defs>
<filter id="filter0_d_2816_10978" x="0" y="0" width="110" height="110" filterUnits="userSpaceOnUse" color-interpolation-filters="sRGB">
<feFlood flood-opacity="0" result="BackgroundImageFix"/>
<feColorMatrix in="SourceAlpha" type="matrix" values="0 0 0 0 0 0 0 0 0 0 0 0 0 0 0 0 0 0 127 0" result="hardAlpha"/>
<feOffset dy="2"/>
<feGaussianBlur stdDeviation="2.5"/>
<feComposite in2="hardAlpha" operator="out"/>
<feColorMatrix type="matrix" values="0 0 0 0 0 0 0 0 0 0 0 0 0 0 0 0 0 0 0.1 0"/>
<feBlend mode="normal" in2="BackgroundImageFix" result="effect1_dropShadow_2816_10978"/>
<feBlend mode="normal" in="SourceGraphic" in2="effect1_dropShadow_2816_10978" result="shape"/>
</filter>
</defs>
</svg>
