<svg width="34" height="34" viewBox="0 0 34 34" fill="none" xmlns="http://www.w3.org/2000/svg">
<path d="M26.6349 0.278076C25.9916 0.278076 1.8173 0.278076 2.05445 0.278076C1.08194 0.278076 0.293457 1.0277 0.293457 1.95227C0.293457 2.56377 0.293457 25.5466 0.293457 25.3212C0.293457 26.2458 1.08194 26.9954 2.05445 26.9954C2.6978 26.9954 26.8721 26.9954 26.6349 26.9954C27.6074 26.9954 28.3959 26.2458 28.3959 25.3212C28.3959 24.7097 28.3959 1.72695 28.3959 1.95227C28.3959 1.0277 27.6076 0.278076 26.6349 0.278076Z" fill="#F9CFCF"/>
<path d="M26.0711 25.6599H2.61841C2.11051 25.6599 1.69873 25.2684 1.69873 24.7856V2.48879C1.69873 2.00592 2.11051 1.61444 2.61841 1.61444H26.0711C26.579 1.61444 26.9908 2.00592 26.9908 2.48879V24.7856C26.9908 25.2684 26.579 25.6599 26.0711 25.6599Z" fill="#4671C6"/>
<path d="M6.75708 1.61444H11.8155V6.42356H6.75708V1.61444Z" fill="#E0EBFC"/>
<path d="M11.8154 1.61444H16.8739V6.42356H11.8154V1.61444Z" fill="#4671C6"/>
<path d="M16.874 1.61444H21.9325V6.42356H16.874V1.61444Z" fill="#E0EBFC"/>
<path d="M6.75708 6.4245H11.8155V11.2336H6.75708V6.4245Z" fill="#4671C6"/>
<path d="M11.8154 6.4245H16.8739V11.2336H11.8154V6.4245Z" fill="#E0EBFC"/>
<path d="M16.874 6.4245H21.9325V11.2336H16.874V6.4245Z" fill="#4671C6"/>
<path d="M6.75708 11.2346H11.8155V16.0437H6.75708V11.2346Z" fill="#E0EBFC"/>
<path d="M11.8154 11.2346H16.8739V16.0437H11.8154V11.2346Z" fill="#4671C6"/>
<path d="M16.874 11.2346H21.9325V16.0437H16.874V11.2346Z" fill="#E0EBFC"/>
<path d="M6.75708 16.0405H11.8155V20.8496H6.75708V16.0405Z" fill="#4671C6"/>
<path d="M11.8154 16.0405H16.8739V20.8496H11.8154V16.0405Z" fill="#E0EBFC"/>
<path d="M16.874 16.0405H21.9325V20.8496H16.874V16.0405Z" fill="#4671C6"/>
<path d="M6.75708 20.8506H11.8155V25.6597H6.75708V20.8506Z" fill="#E0EBFC"/>
<path d="M11.8154 20.8506H16.8739V25.6597H11.8154V20.8506Z" fill="#4671C6"/>
<path d="M16.874 20.8506H21.9325V25.6597H16.874V20.8506Z" fill="#E0EBFC"/>
<path d="M21.9324 6.4245H26.9908V11.2336H21.9324V6.4245Z" fill="#E0EBFC"/>
<path d="M21.9324 11.2346H26.9908V16.0437H21.9324V11.2346Z" fill="#4671C6"/>
<path d="M21.9324 16.0405H26.9908V20.8496H21.9324V16.0405Z" fill="#E0EBFC"/>
<path d="M1.69873 6.4245H6.75717V11.2336H1.69873V6.4245Z" fill="#E0EBFC"/>
<path d="M1.69873 11.2346H6.75717V16.0437H1.69873V11.2346Z" fill="#4671C6"/>
<path d="M1.69873 16.0405H6.75717V20.8496H1.69873V16.0405Z" fill="#E0EBFC"/>
<path d="M11.8156 6.70355H6.75712C6.59511 6.70355 6.46362 6.57855 6.46362 6.42452V1.6154C6.46362 1.46137 6.59511 1.33636 6.75712 1.33636H11.8156C11.9776 1.33636 12.1091 1.46137 12.1091 1.6154V6.42452C12.1091 6.57869 11.9777 6.70355 11.8156 6.70355ZM7.05062 6.14549H11.5221V1.89443H7.05062V6.14549Z" fill="#3762CC"/>
<path d="M16.8739 6.70355H11.8155C11.6535 6.70355 11.522 6.57855 11.522 6.42452V1.6154C11.522 1.46137 11.6535 1.33636 11.8155 1.33636H16.8739C17.0359 1.33636 17.1674 1.46137 17.1674 1.6154V6.42452C17.1674 6.57869 17.0361 6.70355 16.8739 6.70355ZM12.109 6.14549H16.5804V1.89443H12.109V6.14549Z" fill="#3762CC"/>
<path d="M21.9325 6.70355H16.8741C16.7121 6.70355 16.5806 6.57855 16.5806 6.42452V1.6154C16.5806 1.46137 16.7121 1.33636 16.8741 1.33636H21.9325C22.0945 1.33636 22.226 1.46137 22.226 1.6154V6.42452C22.226 6.57869 22.0947 6.70355 21.9325 6.70355ZM17.1677 6.14549H21.6392V1.89443H17.1677V6.14549Z" fill="#3762CC"/>
<path d="M11.8156 11.5136H6.75712C6.59511 11.5136 6.46362 11.3886 6.46362 11.2346V6.42547C6.46362 6.27145 6.59511 6.14644 6.75712 6.14644H11.8156C11.9776 6.14644 12.1091 6.27145 12.1091 6.42547V11.2346C12.1091 11.3888 11.9777 11.5136 11.8156 11.5136ZM7.05062 10.9556H11.5221V6.7045H7.05062V10.9556Z" fill="#3762CC"/>
<path d="M16.8739 11.5136H11.8155C11.6535 11.5136 11.522 11.3886 11.522 11.2346V6.42547C11.522 6.27145 11.6535 6.14644 11.8155 6.14644H16.8739C17.0359 6.14644 17.1674 6.27145 17.1674 6.42547V11.2346C17.1674 11.3888 17.0361 11.5136 16.8739 11.5136ZM12.109 10.9556H16.5804V6.7045H12.109V10.9556Z" fill="#3762CC"/>
<path d="M21.9325 11.5136H16.8741C16.7121 11.5136 16.5806 11.3886 16.5806 11.2346V6.42547C16.5806 6.27145 16.7121 6.14644 16.8741 6.14644H21.9325C22.0945 6.14644 22.226 6.27145 22.226 6.42547V11.2346C22.226 11.3888 22.0947 11.5136 21.9325 11.5136ZM17.1677 10.9556H21.6392V6.7045H17.1677V10.9556Z" fill="#3762CC"/>
<path d="M11.8156 16.3196H6.75712C6.59511 16.3196 6.46362 16.1946 6.46362 16.0405V11.2314C6.46362 11.0774 6.59511 10.9524 6.75712 10.9524H11.8156C11.9776 10.9524 12.1091 11.0774 12.1091 11.2314V16.0405C12.1091 16.1947 11.9777 16.3196 11.8156 16.3196ZM7.05062 15.7615H11.5221V11.5104H7.05062V15.7615Z" fill="#3762CC"/>
<path d="M16.8739 16.3196H11.8155C11.6535 16.3196 11.522 16.1946 11.522 16.0405V11.2314C11.522 11.0774 11.6535 10.9524 11.8155 10.9524H16.8739C17.0359 10.9524 17.1674 11.0774 17.1674 11.2314V16.0405C17.1674 16.1947 17.0361 16.3196 16.8739 16.3196ZM12.109 15.7615H16.5804V11.5104H12.109V15.7615Z" fill="#3762CC"/>
<path d="M21.9325 16.3196H16.8741C16.7121 16.3196 16.5806 16.1946 16.5806 16.0405V11.2314C16.5806 11.0774 16.7121 10.9524 16.8741 10.9524H21.9325C22.0945 10.9524 22.226 11.0774 22.226 11.2314V16.0405C22.226 16.1947 22.0947 16.3196 21.9325 16.3196ZM17.1677 15.7615H21.6392V11.5104H17.1677V15.7615Z" fill="#3762CC"/>
<path d="M11.8156 21.1296H6.75712C6.59511 21.1296 6.46362 21.0046 6.46362 20.8506V16.0415C6.46362 15.8875 6.59511 15.7625 6.75712 15.7625H11.8156C11.9776 15.7625 12.1091 15.8875 12.1091 16.0415V20.8506C12.1091 21.0048 11.9777 21.1296 11.8156 21.1296ZM7.05062 20.5716H11.5221V16.3205H7.05062V20.5716Z" fill="#3762CC"/>
<path d="M16.8739 21.1296H11.8155C11.6535 21.1296 11.522 21.0046 11.522 20.8506V16.0415C11.522 15.8875 11.6535 15.7625 11.8155 15.7625H16.8739C17.0359 15.7625 17.1674 15.8875 17.1674 16.0415V20.8506C17.1674 21.0048 17.0361 21.1296 16.8739 21.1296ZM12.109 20.5716H16.5804V16.3205H12.109V20.5716Z" fill="#3762CC"/>
<path d="M21.9325 21.1296H16.8741C16.7121 21.1296 16.5806 21.0046 16.5806 20.8506V16.0415C16.5806 15.8875 16.7121 15.7625 16.8741 15.7625H21.9325C22.0945 15.7625 22.226 15.8875 22.226 16.0415V20.8506C22.226 21.0048 22.0947 21.1296 21.9325 21.1296ZM17.1677 20.5716H21.6392V16.3205H17.1677V20.5716Z" fill="#3762CC"/>
<path d="M11.8156 25.9397H6.75712C6.59511 25.9397 6.46362 25.8147 6.46362 25.6607V20.8516C6.46362 20.6975 6.59511 20.5725 6.75712 20.5725H11.8156C11.9776 20.5725 12.1091 20.6975 12.1091 20.8516V25.6607C12.1091 25.8148 11.9777 25.9397 11.8156 25.9397ZM7.05062 25.3816H11.5221V21.1306H7.05062V25.3816Z" fill="#3762CC"/>
<path d="M16.8739 25.9397H11.8155C11.6535 25.9397 11.522 25.8147 11.522 25.6607V20.8516C11.522 20.6975 11.6535 20.5725 11.8155 20.5725H16.8739C17.0359 20.5725 17.1674 20.6975 17.1674 20.8516V25.6607C17.1674 25.8148 17.0361 25.9397 16.8739 25.9397ZM12.109 25.3816H16.5804V21.1306H12.109V25.3816Z" fill="#3762CC"/>
<path d="M21.9325 25.9397H16.8741C16.7121 25.9397 16.5806 25.8147 16.5806 25.6607V20.8516C16.5806 20.6975 16.7121 20.5725 16.8741 20.5725H21.9325C22.0945 20.5725 22.226 20.6975 22.226 20.8516V25.6607C22.226 25.8148 22.0947 25.9397 21.9325 25.9397ZM17.1677 25.3816H21.6392V21.1306H17.1677V25.3816Z" fill="#3762CC"/>
<path d="M26.9909 11.5136H21.9324C21.7704 11.5136 21.6389 11.3886 21.6389 11.2346V6.42547C21.6389 6.27145 21.7704 6.14644 21.9324 6.14644H26.9909C27.1529 6.14644 27.2844 6.27145 27.2844 6.42547V11.2346C27.2844 11.3888 27.153 11.5136 26.9909 11.5136ZM22.2259 10.9556H26.6974V6.7045H22.2259V10.9556Z" fill="#3762CC"/>
<path d="M26.9909 16.3196H21.9324C21.7704 16.3196 21.6389 16.1946 21.6389 16.0405V11.2314C21.6389 11.0774 21.7704 10.9524 21.9324 10.9524H26.9909C27.1529 10.9524 27.2844 11.0774 27.2844 11.2314V16.0405C27.2844 16.1947 27.153 16.3196 26.9909 16.3196ZM22.2259 15.7615H26.6974V11.5104H22.2259V15.7615Z" fill="#3762CC"/>
<path d="M26.9909 21.1296H21.9324C21.7704 21.1296 21.6389 21.0046 21.6389 20.8506V16.0415C21.6389 15.8875 21.7704 15.7625 21.9324 15.7625H26.9909C27.1529 15.7625 27.2844 15.8875 27.2844 16.0415V20.8506C27.2844 21.0048 27.153 21.1296 26.9909 21.1296ZM22.2259 20.5716H26.6974V16.3205H22.2259V20.5716Z" fill="#3762CC"/>
<path d="M6.75697 11.5136H1.69853C1.53652 11.5136 1.40503 11.3886 1.40503 11.2346V6.42547C1.40503 6.27145 1.53652 6.14644 1.69853 6.14644H6.75697C6.91898 6.14644 7.05047 6.27145 7.05047 6.42547V11.2346C7.05047 11.3888 6.91913 11.5136 6.75697 11.5136ZM1.99203 10.9556H6.46347V6.7045H1.99203V10.9556Z" fill="#3762CC"/>
<path d="M6.75697 16.3196H1.69853C1.53652 16.3196 1.40503 16.1946 1.40503 16.0405V11.2314C1.40503 11.0774 1.53652 10.9524 1.69853 10.9524H6.75697C6.91898 10.9524 7.05047 11.0774 7.05047 11.2314V16.0405C7.05047 16.1947 6.91913 16.3196 6.75697 16.3196ZM1.99203 15.7615H6.46347V11.5104H1.99203V15.7615Z" fill="#3762CC"/>
<path d="M6.75697 21.1296H1.69853C1.53652 21.1296 1.40503 21.0046 1.40503 20.8506V16.0415C1.40503 15.8875 1.53652 15.7625 1.69853 15.7625H6.75697C6.91898 15.7625 7.05047 15.8875 7.05047 16.0415V20.8506C7.05047 21.0048 6.91913 21.1296 6.75697 21.1296ZM1.99203 20.5716H6.46347V16.3205H1.99203V20.5716Z" fill="#3762CC"/>
<path d="M26.0712 25.9399H2.61845C1.94942 25.9399 1.40527 25.4226 1.40527 24.7865V2.48975C1.40527 1.85369 1.94942 1.33636 2.61845 1.33636H26.0713C26.7403 1.33636 27.2845 1.85369 27.2845 2.48975V24.7865C27.2843 25.4226 26.7402 25.9399 26.0712 25.9399ZM2.61845 1.89429C2.27315 1.89429 1.99227 2.16132 1.99227 2.48961V24.7864C1.99227 25.1147 2.27315 25.3817 2.61845 25.3817H26.0713C26.4166 25.3817 26.6975 25.1147 26.6975 24.7864V2.48975C26.6975 2.16146 26.4166 1.89443 26.0713 1.89443L2.61845 1.89429Z" fill="#3762CC"/>
<path d="M26.6367 27.2754H2.05449C0.922612 27.2754 0.00146749 26.4006 0 25.3248C0 25.3246 0 25.3241 0 25.3239V1.95323C0 0.877138 0.920117 0.00139516 2.0517 0H2.05273H26.635C27.767 0 28.688 0.874766 28.6895 1.95058V1.95155V25.3222C28.6895 26.3983 27.7693 27.274 26.6379 27.2754C26.6376 27.2754 26.637 27.2754 26.6367 27.2754ZM0.586997 25.3222C0.586997 26.0915 1.24531 26.7174 2.05449 26.7174H26.635C27.4441 26.7174 28.1025 26.0915 28.1025 25.3222V1.95323C28.1025 1.18393 27.4441 0.558065 26.635 0.558065H2.05449C1.24531 0.558065 0.586997 1.18393 0.586997 1.95323V25.3222Z" fill="#3762CC"/>
<path d="M24.1066 18.2095H15.4973C14.9975 18.2095 14.5923 17.8243 14.5923 17.3491C14.5923 16.8739 14.9975 16.4887 15.4973 16.4887H24.1066C24.6064 16.4887 25.0116 16.8739 25.0116 17.3491C25.0116 17.8245 24.6064 18.2095 24.1066 18.2095Z" fill="#E0EBFC"/>
<path d="M23.3973 19.9317H16.2066C15.9634 19.9317 15.7664 19.7444 15.7664 19.5132V18.2111H23.8376V19.5132C23.8376 19.7444 23.6405 19.9317 23.3973 19.9317Z" fill="#A4C9FF"/>
<path d="M13.7363 31.998H25.8676C26.3674 31.998 26.7726 32.3832 26.7726 32.8584C26.7726 33.3336 26.3674 33.7188 25.8676 33.7188H13.7363C13.2365 33.7188 12.8313 33.3336 12.8313 32.8584C12.8314 32.3832 13.2366 31.998 13.7363 31.998Z" fill="#E0EBFC"/>
<path d="M14.8426 30.2798H24.7617C25.0048 30.2798 25.2019 30.4672 25.2019 30.6984V32.0005H14.4023V30.6984C14.4023 30.4672 14.5994 30.2798 14.8426 30.2798Z" fill="#A4C9FF"/>
<path d="M22.9993 19.9292H16.6047C16.5181 23.3901 16.2139 26.847 15.6931 30.2759H19.8021H23.9111C23.3905 26.8498 23.086 23.3927 22.9993 19.9292Z" fill="#E0EBFC"/>
<path d="M21.0026 13.8021L20.2008 12.173C20.0426 11.8514 19.5615 11.8514 19.4033 12.173L18.6015 13.8021C18.5121 13.9837 18.2568 14.0191 18.1166 13.8695L16.5354 12.1831C16.2663 11.8959 15.7666 12.077 15.7666 12.4615V16.4902H23.8378C23.8378 16.4404 23.8378 12.412 23.8378 12.4615C23.8378 12.0769 23.3381 11.8959 23.069 12.1831L21.4878 13.8695C21.3473 14.0191 21.092 13.9837 21.0026 13.8021Z" fill="#A4C9FF"/>
<path d="M24.1067 18.4895H15.4973C14.8365 18.4895 14.2988 17.9783 14.2988 17.3501C14.2988 16.7219 14.8365 16.2107 15.4973 16.2107H24.1067C24.7675 16.2107 25.3052 16.7219 25.3052 17.3501C25.3052 17.9783 24.7675 18.4895 24.1067 18.4895ZM15.4973 16.7687C15.1602 16.7687 14.8858 17.0295 14.8858 17.3501C14.8858 17.6707 15.1601 17.9315 15.4973 17.9315H24.1067C24.4439 17.9315 24.7182 17.6707 24.7182 17.3501C24.7182 17.0296 24.4439 16.7687 24.1067 16.7687H15.4973Z" fill="#3762CC"/>
<path d="M23.3974 20.2117H16.2066C15.8021 20.2117 15.4729 19.8988 15.4729 19.5141V18.212C15.4729 18.058 15.6044 17.933 15.7664 17.933H23.8376C23.9996 17.933 24.1311 18.058 24.1311 18.212V19.5141C24.1311 19.8986 23.8019 20.2117 23.3974 20.2117ZM16.0599 18.4911V19.5141C16.0599 19.591 16.1258 19.6537 16.2066 19.6537H23.3974C23.4784 19.6537 23.5441 19.591 23.5441 19.5141V18.4911H16.0599Z" fill="#3762CC"/>
<path d="M25.8677 33.9988H13.7363C13.0755 33.9988 12.5378 33.4876 12.5378 32.8594C12.5378 32.2312 13.0755 31.72 13.7363 31.72H25.8677C26.5285 31.72 27.0662 32.2312 27.0662 32.8594C27.0662 33.4876 26.5285 33.9988 25.8677 33.9988ZM13.7363 32.278C13.3993 32.278 13.1248 32.5388 13.1248 32.8594C13.1248 33.1799 13.3991 33.4408 13.7363 33.4408H25.8677C26.2049 33.4408 26.4792 33.18 26.4792 32.8594C26.4792 32.5388 26.2049 32.278 25.8677 32.278H13.7363Z" fill="#3762CC"/>
<path d="M25.202 32.2764H14.4024C14.2404 32.2764 14.1089 32.1513 14.1089 31.9973V30.6952C14.1089 30.3106 14.438 29.9976 14.8426 29.9976H24.7617C25.1663 29.9976 25.4954 30.3106 25.4954 30.6952V31.9973C25.4954 32.1515 25.364 32.2764 25.202 32.2764ZM14.6959 31.7183H24.9085V30.6952C24.9085 30.6183 24.8427 30.5557 24.7617 30.5557H14.8426C14.7618 30.5557 14.6959 30.6183 14.6959 30.6952V31.7183Z" fill="#3762CC"/>
<path d="M23.9109 30.556H15.693C15.6079 30.556 15.5269 30.5209 15.4711 30.4596C15.4153 30.3985 15.3902 30.3172 15.4024 30.2371C15.9193 26.8345 16.225 23.3644 16.3111 19.9237C16.3149 19.7721 16.4452 19.6512 16.6046 19.6512H22.9993C23.1587 19.6512 23.289 19.7721 23.2927 19.9237C23.3787 23.3644 23.6845 26.8343 24.2014 30.2371C24.2135 30.3173 24.1884 30.3985 24.1327 30.4596C24.0771 30.5209 23.9961 30.556 23.9109 30.556ZM16.0312 29.998H23.5725C23.0946 26.7654 22.8056 23.4753 22.7132 20.2092H16.8908C16.7982 23.4757 16.5092 26.7654 16.0312 29.998Z" fill="#3762CC"/>
<path d="M23.8376 16.7701H15.7664C15.6044 16.7701 15.4729 16.6451 15.4729 16.4911V12.4624C15.4729 12.1704 15.6584 11.9145 15.9454 11.8106C16.2326 11.7066 16.55 11.7804 16.7545 11.9984L18.3357 13.6847L19.1375 12.0557C19.2595 11.8078 19.5141 11.6537 19.802 11.6537C20.0899 11.6537 20.3445 11.8078 20.4665 12.0557L21.2685 13.6848L21.2691 13.6858L22.8497 11.9984C23.0541 11.7804 23.3715 11.7066 23.6587 11.8106C23.9453 11.9144 24.1307 12.1697 24.1312 12.4611V12.462V16.4911C24.1311 16.6452 23.9996 16.7701 23.8376 16.7701ZM16.0599 16.212H23.5441V12.4624C23.5441 12.3756 23.4781 12.3424 23.4496 12.3319C23.4208 12.3216 23.3486 12.3046 23.2877 12.3695L21.7067 14.0559C21.575 14.1964 21.38 14.2647 21.1835 14.2368C20.9877 14.2095 20.8206 14.0915 20.7368 13.9212L19.9348 12.292C19.8991 12.2195 19.83 12.2117 19.802 12.2117C19.774 12.2117 19.7049 12.2195 19.6692 12.292L18.8672 13.9212C18.7834 14.0917 18.6163 14.2097 18.4204 14.2369C18.2246 14.264 18.029 14.1964 17.8975 14.0559L16.3161 12.3696C16.2554 12.3049 16.1829 12.3216 16.1544 12.3319C16.1259 12.3423 16.0599 12.3756 16.0599 12.4624V16.212Z" fill="#3762CC"/>
<path d="M31.6367 23.6267H24.9524C24.5644 23.6267 24.2498 23.3276 24.2498 22.9587C24.2498 22.5898 24.5644 22.2907 24.9524 22.2907H31.6367C32.0247 22.2907 32.3393 22.5898 32.3393 22.9587C32.3393 23.3277 32.0247 23.6267 31.6367 23.6267Z" fill="#A4C9FF"/>
<path d="M31.0861 24.9629H25.5032C25.3144 24.9629 25.1614 24.8174 25.1614 24.638V23.6271H31.4279V24.638C31.4279 24.8174 31.2748 24.9629 31.0861 24.9629Z" fill="#A4C9FF"/>
<path d="M23.5852 32.384H33.0039C33.3919 32.384 33.7065 32.6831 33.7065 33.052C33.7065 33.4209 33.392 33.72 33.0039 33.72H23.5852C23.1972 33.72 22.8826 33.4209 22.8826 33.052C22.8826 32.6831 23.1971 32.384 23.5852 32.384Z" fill="#A4C9FF"/>
<path d="M24.4441 31.0476H32.1452C32.3339 31.0476 32.487 31.1932 32.487 31.3726V32.3835H24.1023V31.3726C24.1023 31.193 24.2552 31.0476 24.4441 31.0476Z" fill="#A4C9FF"/>
<path d="M30.6655 22.2922H25.8801V21.8011C25.8801 21.6016 26.0502 21.4399 26.2601 21.4399H30.2855C30.4954 21.4399 30.6655 21.6016 30.6655 21.8011V22.2922Z" fill="#A4C9FF"/>
<path d="M25.8702 24.9634C25.7632 27 25.565 29.0301 25.2751 31.0469H31.3137C31.0238 29.0302 30.8256 27 30.7187 24.9634H25.8702Z" fill="#E0EBFC"/>
<path d="M30.6654 22.5724H25.8802C25.7182 22.5724 25.5867 22.4474 25.5867 22.2933V21.8021C25.5867 21.4491 25.8888 21.1619 26.2601 21.1619H30.2856C30.6569 21.1619 30.959 21.4491 30.959 21.8021V22.2933C30.9589 22.4474 30.8275 22.5724 30.6654 22.5724ZM26.1737 22.0143H30.3719V21.8021C30.3719 21.7568 30.333 21.7199 30.2854 21.7199H26.26C26.2124 21.7199 26.1735 21.7568 26.1735 21.8021V22.0143H26.1737Z" fill="#3762CC"/>
<path d="M31.6367 23.9067H24.9524C24.4032 23.9067 23.9563 23.4819 23.9563 22.9597C23.9563 22.4375 24.4032 22.0126 24.9524 22.0126H31.6367C32.186 22.0126 32.6328 22.4375 32.6328 22.9597C32.6328 23.4819 32.186 23.9067 31.6367 23.9067ZM24.9524 22.5709C24.7269 22.5709 24.5433 22.7452 24.5433 22.9598C24.5433 23.1744 24.7269 23.3488 24.9524 23.3488H31.6367C31.8623 23.3488 32.0458 23.1744 32.0458 22.9598C32.0458 22.7452 31.8623 22.5709 31.6367 22.5709H24.9524Z" fill="#3762CC"/>
<path d="M31.086 25.2431H25.5032C25.1529 25.2431 24.8679 24.9721 24.8679 24.6391V23.628C24.8679 23.474 24.9994 23.349 25.1614 23.349H31.4278C31.5898 23.349 31.7213 23.474 31.7213 23.628V24.6391C31.7213 24.9721 31.4363 25.2431 31.086 25.2431ZM25.4549 23.9071V24.6391C25.4549 24.6645 25.4765 24.685 25.5032 24.685H31.086C31.1127 24.685 31.1343 24.6645 31.1343 24.6391V23.9071H25.4549Z" fill="#3762CC"/>
<path d="M33.0039 34H23.5852C23.036 34 22.5891 33.5752 22.5891 33.053C22.5891 32.5308 23.036 32.1059 23.5852 32.1059H33.0039C33.5532 32.1059 34 32.5308 34 33.053C34 33.5752 33.5532 34 33.0039 34ZM23.5852 32.664C23.3597 32.664 23.1761 32.8384 23.1761 33.053C23.1761 33.2674 23.3597 33.4419 23.5852 33.4419H33.0039C33.2295 33.4419 33.413 33.2675 33.413 33.053C33.413 32.8384 33.2295 32.664 33.0039 32.664H23.5852Z" fill="#3762CC"/>
<path d="M32.4869 32.6636H24.1021C23.9401 32.6636 23.8086 32.5386 23.8086 32.3846V31.3737C23.8086 31.0406 24.0936 30.7696 24.4439 30.7696H32.1451C32.4954 30.7696 32.7804 31.0405 32.7804 31.3737V32.3846C32.7804 32.5388 32.6491 32.6636 32.4869 32.6636ZM24.3956 32.1056H32.1934V31.3737C32.1934 31.3483 32.1718 31.3276 32.1451 31.3276H24.4439C24.4172 31.3276 24.3956 31.3483 24.3956 31.3737V32.1056Z" fill="#3762CC"/>
<path d="M31.3137 31.3269H25.2752C25.1904 31.3269 25.1099 31.292 25.0541 31.2313C24.9983 31.1706 24.9729 31.09 24.9844 31.0101C25.2714 29.0134 25.4707 26.9748 25.5771 24.9505C25.5849 24.802 25.7139 24.6854 25.8702 24.6854H30.7186C30.8749 24.6854 31.0039 24.802 31.0117 24.9505C31.1181 26.9747 31.3173 29.0134 31.6044 31.0101C31.6158 31.09 31.5904 31.1706 31.5347 31.2313C31.4789 31.292 31.3985 31.3269 31.3137 31.3269ZM25.6109 30.7688H30.9781C30.7249 28.9454 30.5441 27.0892 30.4399 25.2434H26.149C26.0448 27.0892 25.8638 28.9454 25.6109 30.7688Z" fill="#3762CC"/>
<path d="M30.3198 21.4416C31.9333 19.7716 30.6906 17.0573 28.2945 17.0573C25.9033 17.0573 24.655 19.765 26.2662 21.4384C26.3253 21.4384 30.261 21.4366 30.3198 21.4416Z" fill="#E0EBFC"/>
<path d="M30.3199 21.7216C30.3148 21.7216 30.3096 21.7215 30.3043 21.7212C30.1996 21.7184 28.6764 21.7174 26.3205 21.7183H26.2664C26.1839 21.7183 26.1054 21.6853 26.0498 21.6277C25.2237 20.7698 25.0176 19.574 25.5118 18.507C26.0053 17.4413 27.0717 16.7793 28.2948 16.7793C29.5186 16.7793 30.5851 17.442 31.078 18.5086C31.572 19.5775 31.3643 20.7742 30.5362 21.6313C30.4801 21.6891 30.4016 21.7216 30.3199 21.7216ZM27.8701 21.1599C29.3715 21.1599 29.9558 21.1612 30.1877 21.1624C30.7852 20.4787 30.922 19.5587 30.5403 18.7329C30.1425 17.8721 29.2821 17.3373 28.2945 17.3373C27.3076 17.3373 26.447 17.8717 26.0486 18.7319C25.6668 19.5563 25.8027 20.4759 26.3995 21.1602C26.9681 21.1601 27.4542 21.1599 27.8701 21.1599Z" fill="#3762CC"/>
</svg>
