<svg width="60" height="60" viewBox="0 0 60 60" fill="none" xmlns="http://www.w3.org/2000/svg">
<rect width="60" height="60" rx="30" fill="#EBEBEB"/>
<g clip-path="url(#clip0_976_9163)">
<path d="M24.7754 31.0156C24.5801 31.0156 24.4173 30.9505 24.2871 30.8203C24.1569 30.6901 24.0918 30.5273 24.0918 30.332C24.0918 30.1432 24.1569 29.9837 24.2871 29.8535C24.4173 29.7233 24.5801 29.6582 24.7754 29.6582H29.1992V23.75C29.1992 23.5612 29.2643 23.4017 29.3945 23.2715C29.5247 23.1413 29.6842 23.0762 29.873 23.0762C30.0683 23.0762 30.2311 23.1413 30.3614 23.2715C30.4916 23.4017 30.5567 23.5612 30.5567 23.75V30.332C30.5567 30.5273 30.4916 30.6901 30.3614 30.8203C30.2311 30.9505 30.0683 31.0156 29.873 31.0156H24.7754ZM29.8828 39.9219C31.2435 39.9219 32.5244 39.6615 33.7256 39.1406C34.9268 38.6198 35.9863 37.9004 36.9043 36.9824C37.8223 36.0645 38.5417 35.0049 39.0625 33.8037C39.5833 32.6026 39.8438 31.3216 39.8438 29.9609C39.8438 28.6003 39.5833 27.3193 39.0625 26.1182C38.5417 24.917 37.8223 23.8574 36.9043 22.9395C35.9863 22.0215 34.9251 21.3021 33.7207 20.7812C32.5163 20.2604 31.2337 20 29.873 20C28.5124 20 27.2314 20.2604 26.0303 20.7812C24.8291 21.3021 23.7712 22.0215 22.8564 22.9395C21.9417 23.8574 21.224 24.917 20.7031 26.1182C20.1823 27.3193 19.9219 28.6003 19.9219 29.9609C19.9219 31.3216 20.1823 32.6026 20.7031 33.8037C21.224 35.0049 21.9434 36.0645 22.8613 36.9824C23.7793 37.9004 24.8389 38.6198 26.04 39.1406C27.2412 39.6615 28.5221 39.9219 29.8828 39.9219Z" fill="#7658F2"/>
</g>
<defs>
<clipPath id="clip0_976_9163">
<rect width="19.9219" height="19.9316" fill="white" transform="translate(19.9219 20)"/>
</clipPath>
</defs>
</svg>
