<svg width="16" height="16" viewBox="0 0 16 16" fill="none" xmlns="http://www.w3.org/2000/svg">
<path fill-rule="evenodd" clip-rule="evenodd" d="M7.99967 14.6668C4.31767 14.6668 1.33301 11.6822 1.33301 8.00016C1.33301 4.31816 4.31767 1.3335 7.99967 1.3335C11.6817 1.3335 14.6663 4.31816 14.6663 8.00016C14.6663 11.6822 11.6817 14.6668 7.99967 14.6668ZM13.333 8.00016C13.333 6.58567 12.7711 5.22912 11.7709 4.22893C10.7707 3.22873 9.41416 2.66683 7.99967 2.66683C6.58519 2.66683 5.22863 3.22873 4.22844 4.22893C3.22824 5.22912 2.66634 6.58567 2.66634 8.00016C2.66634 9.41465 3.22824 10.7712 4.22844 11.7714C5.22863 12.7716 6.58519 13.3335 7.99967 13.3335C9.41416 13.3335 10.7707 12.7716 11.7709 11.7714C12.7711 10.7712 13.333 9.41465 13.333 8.00016ZM10.6663 7.3335C10.8432 7.3335 11.0127 7.40373 11.1377 7.52876C11.2628 7.65378 11.333 7.82335 11.333 8.00016C11.333 8.17697 11.2628 8.34654 11.1377 8.47157C11.0127 8.59659 10.8432 8.66683 10.6663 8.66683H8.66634C7.93301 8.66683 7.33301 8.06683 7.33301 7.3335V4.66683C7.33301 4.49002 7.40325 4.32045 7.52827 4.19542C7.65329 4.0704 7.82286 4.00016 7.99967 4.00016C8.17649 4.00016 8.34605 4.0704 8.47108 4.19542C8.5961 4.32045 8.66634 4.49002 8.66634 4.66683V7.3335H10.6663Z" fill="#0079E9"/>
</svg>
