<svg width="34" height="34" viewBox="0 0 34 34" fill="none" xmlns="http://www.w3.org/2000/svg">
<path d="M4.59619 0H29.3715V22.5571H4.59619V0Z" fill="#E6E6E6"/>
<path d="M6.16309 2.57355H17.9689V20.0324H6.16309V2.57355Z" fill="#F2F2F2"/>
<path d="M13.519 2.57355H27.8184V20.0324H13.519V2.57355Z" fill="#24285B"/>
<path d="M19.7319 10.2444H23.401V10.563H19.7319V10.2444Z" fill="#68E1FD"/>
<path d="M21.3652 11.0746H25.0343V11.3932H21.3652V11.0746Z" fill="#FFD200"/>
<path d="M18.8486 9.48065H21.927V9.79929H18.8486V9.48065Z" fill="#68E1FD"/>
<path d="M22.5674 9.48065H25.6457V9.79929H22.5674V9.48065Z" fill="#68E1FD"/>
<path d="M19.7319 8.58405H22.4838V8.90268H19.7319V8.58405Z" fill="#FFD200"/>
<path d="M23.2002 8.58405H25.952V8.90268H23.2002V8.58405Z" fill="#FFD200"/>
<path d="M17.7051 10.2444H19.0854V10.563H17.7051V10.2444Z" fill="white"/>
<path d="M19.0801 11.0746H20.4604V11.3932H19.0801V11.0746Z" fill="white"/>
<path d="M16.8232 9.48065H18.2036V9.79929H16.8232V9.48065Z" fill="white"/>
<path d="M16.8232 7.05652H18.2036V7.37516H16.8232V7.05652Z" fill="white"/>
<path d="M17.7051 7.85352H19.0854V8.17215H17.7051V7.85352Z" fill="white"/>
<path d="M19.7319 7.85352H22.4838V8.17215H19.7319V7.85352Z" fill="#FFD200"/>
<path d="M23.2002 7.85352H25.952V8.17215H23.2002V7.85352Z" fill="#FFD200"/>
<path d="M17.7051 8.58405H19.0854V8.90268H17.7051V8.58405Z" fill="white"/>
<path d="M18.7534 7.05652H21.5958V7.37516H18.7534V7.05652Z" fill="#68E1FD"/>
<path d="M7.33057 7.05652H8.06825V7.37516H7.33057V7.05652Z" fill="#C9C9C9"/>
<path d="M8.51855 7.05652H10.6143V7.37516H8.51855V7.05652Z" fill="#A5A5A5"/>
<path d="M11.1665 7.05652H12.4385V7.37516H11.1665V7.05652Z" fill="white"/>
<path d="M7.33057 6.22632H8.80741V6.54496H7.33057V6.22632Z" fill="#C9C9C9"/>
<path d="M9.39746 6.22632H12.4387V6.54496H9.39746V6.22632Z" fill="#A5A5A5"/>
<path d="M7.33057 7.83691H8.80741V8.15555H7.33057V7.83691Z" fill="white"/>
<path d="M9.39746 7.83691H12.4387V8.15555H9.39746V7.83691Z" fill="#A5A5A5"/>
<path d="M7.33057 8.60065H8.35619V8.91929H7.33057V8.60065Z" fill="white"/>
<path d="M11.4185 8.60065H12.4441V8.91929H11.4185V8.60065Z" fill="#C9C9C9"/>
<path d="M8.76465 8.60065H10.8768V8.91929H8.76465V8.60065Z" fill="#A5A5A5"/>
<path d="M7.33057 10.2943H8.06825V10.6129H7.33057V10.2943Z" fill="#C9C9C9"/>
<path d="M8.51855 10.2943H10.6143V10.6129H8.51855V10.2943Z" fill="#A5A5A5"/>
<path d="M11.1665 10.2943H12.4385V10.6129H11.1665V10.2943Z" fill="white"/>
<path d="M7.33057 9.46405H8.80741V9.78269H7.33057V9.46405Z" fill="#C9C9C9"/>
<path d="M9.39746 9.46405H12.4387V9.78269H9.39746V9.46405Z" fill="#A5A5A5"/>
<path d="M7.33057 11.0746H8.80741V11.3932H7.33057V11.0746Z" fill="white"/>
<path d="M9.39746 11.0746H12.4387V11.3932H9.39746V11.0746Z" fill="#A5A5A5"/>
<path d="M7.33057 11.8384H8.35619V12.157H7.33057V11.8384Z" fill="white"/>
<path d="M11.4185 11.8384H12.4441V12.157H11.4185V11.8384Z" fill="#C9C9C9"/>
<path d="M8.76465 11.8384H10.8768V12.157H8.76465V11.8384Z" fill="#A5A5A5"/>
<path d="M7.33057 13.4655H8.06825V13.7842H7.33057V13.4655Z" fill="#C9C9C9"/>
<path d="M8.51855 13.4655H10.6143V13.7842H8.51855V13.4655Z" fill="#A5A5A5"/>
<path d="M11.1665 13.4655H12.4385V13.7842H11.1665V13.4655Z" fill="white"/>
<path d="M7.33057 12.6353H8.80741V12.954H7.33057V12.6353Z" fill="#C9C9C9"/>
<path d="M9.39746 12.6353H12.4387V12.954H9.39746V12.6353Z" fill="#A5A5A5"/>
<path d="M7.33057 14.2458H8.80741V14.5645H7.33057V14.2458Z" fill="white"/>
<path d="M9.39746 14.2458H12.4387V14.5645H9.39746V14.2458Z" fill="#A5A5A5"/>
<path d="M7.33057 15.0096H8.35619V15.3283H7.33057V15.0096Z" fill="white"/>
<path d="M11.4185 15.0096H12.4441V15.3283H11.4185V15.0096Z" fill="#C9C9C9"/>
<path d="M8.76465 15.0096H10.8768V15.3283H8.76465V15.0096Z" fill="#A5A5A5"/>
<path d="M22.1909 7.05652H24.2095V7.37516H22.1909V7.05652Z" fill="#68E1FD"/>
<path d="M19.7319 15.1757H23.401V15.4943H19.7319V15.1757Z" fill="#68E1FD"/>
<path d="M21.3652 16.0225H25.0343V16.3411H21.3652V16.0225Z" fill="#FFD200"/>
<path d="M18.8486 14.4119H21.927V14.7306H18.8486V14.4119Z" fill="#68E1FD"/>
<path d="M22.5674 14.4119H25.6457V14.7306H22.5674V14.4119Z" fill="#68E1FD"/>
<path d="M19.7319 13.5319H22.4838V13.8506H19.7319V13.5319Z" fill="#FFD200"/>
<path d="M23.2002 13.5319H25.952V13.8506H23.2002V13.5319Z" fill="#FFD200"/>
<path d="M17.7051 15.1757H19.0854V15.4943H17.7051V15.1757Z" fill="white"/>
<path d="M19.0801 16.0225H20.4604V16.3411H19.0801V16.0225Z" fill="white"/>
<path d="M16.8232 14.4119H18.2036V14.7306H16.8232V14.4119Z" fill="white"/>
<path d="M16.8232 11.9878H18.2036V12.3064H16.8232V11.9878Z" fill="white"/>
<path d="M17.7051 12.7847H19.0854V13.1034H17.7051V12.7847Z" fill="white"/>
<path d="M19.7319 12.7847H22.4838V13.1034H19.7319V12.7847Z" fill="#FFD200"/>
<path d="M23.2002 12.7847H25.952V13.1034H23.2002V12.7847Z" fill="#FFD200"/>
<path d="M17.7051 13.5319H19.0854V13.8506H17.7051V13.5319Z" fill="white"/>
<path d="M18.7534 11.9878H21.5958V12.3064H18.7534V11.9878Z" fill="#68E1FD"/>
<path d="M22.1909 11.9878H24.2095V12.3064H22.1909V11.9878Z" fill="#68E1FD"/>
<path d="M17.1572 0.996216H19.9269V1.50088H17.1572V0.996216Z" fill="#C9C9C9"/>
<path d="M16.4057 1.64243C16.5902 1.64243 16.7397 1.45689 16.7397 1.22801C16.7397 0.999139 16.5902 0.813599 16.4057 0.813599C16.2213 0.813599 16.0718 0.999139 16.0718 1.22801C16.0718 1.45689 16.2213 1.64243 16.4057 1.64243Z" fill="#A5A5A5"/>
<path d="M16.7473 4.25196L16.1863 4.50613L16.7473 4.7603V5.02L15.9443 4.65164V4.36983L16.7473 4.00146V4.25196Z" fill="white"/>
<path d="M16.8232 5.04366L16.9717 4.81896C16.9948 4.86603 17.027 4.90528 17.0653 4.93324C17.1036 4.96119 17.1469 4.97697 17.1913 4.9792C17.3012 4.9792 17.3576 4.89815 17.3576 4.73607V4.03986H16.9435V3.7691H17.6292V4.71765C17.6292 5.08602 17.4808 5.25731 17.2047 5.25731C17.1322 5.26022 17.0601 5.24247 16.994 5.20543C16.9279 5.1684 16.8695 5.11306 16.8232 5.04366Z" fill="white"/>
<path d="M18.6861 4.60043V5.24139H18.4397V5.10141C18.4095 5.15625 18.3678 5.19993 18.3192 5.22782C18.2706 5.2557 18.2169 5.26676 18.1636 5.25981C17.9514 5.25981 17.8252 5.11246 17.8252 4.91907C17.8252 4.72567 17.938 4.58201 18.2141 4.58201H18.4234C18.4234 4.44203 18.3551 4.35915 18.2141 4.35915C18.1202 4.35835 18.0285 4.39517 17.9528 4.46413L17.8578 4.23574C17.975 4.14425 18.1113 4.0975 18.2497 4.10129C18.5258 4.10129 18.6861 4.26705 18.6861 4.60043ZM18.4234 4.88591V4.77172H18.2423C18.1191 4.77172 18.0805 4.82882 18.0805 4.90433C18.0805 4.97985 18.1369 5.03879 18.2289 5.03879C18.2702 5.04231 18.3113 5.02939 18.3463 5.00189C18.3813 4.97439 18.4083 4.93376 18.4234 4.88591Z" fill="white"/>
<path d="M19.8054 4.11768L19.4225 5.2412H19.1509L18.7783 4.11768H19.0499L19.3008 4.88204L19.5605 4.11768H19.8054Z" fill="white"/>
<path d="M20.6866 4.6004V5.24137H20.4402V5.10139C20.4099 5.15623 20.3683 5.19991 20.3197 5.2278C20.2711 5.25568 20.2173 5.26673 20.1641 5.25979C19.9518 5.25979 19.8257 5.11244 19.8257 4.91904C19.8257 4.72565 19.9385 4.58199 20.2146 4.58199H20.4238C20.4238 4.44201 20.3556 4.35912 20.2146 4.35912C20.1206 4.35832 20.029 4.39514 19.9533 4.46411L19.8583 4.23572C19.9756 4.14443 20.1118 4.09769 20.2502 4.10126C20.5263 4.10126 20.6866 4.26703 20.6866 4.6004ZM20.4238 4.88589V4.7717H20.2428C20.1196 4.7717 20.081 4.82879 20.081 4.90431C20.081 4.97982 20.1374 5.03876 20.2294 5.03876C20.2707 5.04229 20.3118 5.02936 20.3468 5.00187C20.3818 4.97437 20.4088 4.93374 20.4238 4.88589Z" fill="white"/>
<path d="M21.7082 4.36244V4.63503L20.9067 5.0034V4.75291L21.4678 4.49874L20.9067 4.24456V3.98486L21.7082 4.36244Z" fill="white"/>
<path d="M15.5338 7.46531C15.6395 7.46531 15.7252 7.35893 15.7252 7.22771C15.7252 7.09649 15.6395 6.99011 15.5338 6.99011C15.428 6.99011 15.3423 7.09649 15.3423 7.22771C15.3423 7.35893 15.428 7.46531 15.5338 7.46531Z" fill="white"/>
<path d="M15.5338 8.21244C15.6395 8.21244 15.7252 8.10606 15.7252 7.97484C15.7252 7.84362 15.6395 7.73724 15.5338 7.73724C15.428 7.73724 15.3423 7.84362 15.3423 7.97484C15.3423 8.10606 15.428 8.21244 15.5338 8.21244Z" fill="white"/>
<path d="M15.5338 8.95963C15.6395 8.95963 15.7252 8.85326 15.7252 8.72203C15.7252 8.59081 15.6395 8.48444 15.5338 8.48444C15.428 8.48444 15.3423 8.59081 15.3423 8.72203C15.3423 8.85326 15.428 8.95963 15.5338 8.95963Z" fill="white"/>
<path d="M15.5338 9.95585C15.6395 9.95585 15.7252 9.84947 15.7252 9.71825C15.7252 9.58703 15.6395 9.48065 15.5338 9.48065C15.428 9.48065 15.3423 9.58703 15.3423 9.71825C15.3423 9.84947 15.428 9.95585 15.5338 9.95585Z" fill="white"/>
<path d="M15.5338 10.703C15.6395 10.703 15.7252 10.5966 15.7252 10.4654C15.7252 10.3342 15.6395 10.2278 15.5338 10.2278C15.428 10.2278 15.3423 10.3342 15.3423 10.4654C15.3423 10.5966 15.428 10.703 15.5338 10.703Z" fill="white"/>
<path d="M15.5338 11.4502C15.6395 11.4502 15.7252 11.3438 15.7252 11.2126C15.7252 11.0814 15.6395 10.975 15.5338 10.975C15.428 10.975 15.3423 11.0814 15.3423 11.2126C15.3423 11.3438 15.428 11.4502 15.5338 11.4502Z" fill="white"/>
<path d="M15.5338 12.4132C15.6395 12.4132 15.7252 12.3068 15.7252 12.1756C15.7252 12.0444 15.6395 11.938 15.5338 11.938C15.428 11.938 15.3423 12.0444 15.3423 12.1756C15.3423 12.3068 15.428 12.4132 15.5338 12.4132Z" fill="white"/>
<path d="M15.5338 13.1603C15.6395 13.1603 15.7252 13.0539 15.7252 12.9227C15.7252 12.7915 15.6395 12.6851 15.5338 12.6851C15.428 12.6851 15.3423 12.7915 15.3423 12.9227C15.3423 13.0539 15.428 13.1603 15.5338 13.1603Z" fill="white"/>
<path d="M15.5338 13.9075C15.6395 13.9075 15.7252 13.8011 15.7252 13.6699C15.7252 13.5387 15.6395 13.4323 15.5338 13.4323C15.428 13.4323 15.3423 13.5387 15.3423 13.6699C15.3423 13.8011 15.428 13.9075 15.5338 13.9075Z" fill="white"/>
<path d="M15.5338 14.9037C15.6395 14.9037 15.7252 14.7973 15.7252 14.6661C15.7252 14.5349 15.6395 14.4285 15.5338 14.4285C15.428 14.4285 15.3423 14.5349 15.3423 14.6661C15.3423 14.7973 15.428 14.9037 15.5338 14.9037Z" fill="white"/>
<path d="M15.5338 15.6509C15.6395 15.6509 15.7252 15.5445 15.7252 15.4133C15.7252 15.282 15.6395 15.1757 15.5338 15.1757C15.428 15.1757 15.3423 15.282 15.3423 15.4133C15.3423 15.5445 15.428 15.6509 15.5338 15.6509Z" fill="white"/>
<path d="M15.5338 16.398C15.6395 16.398 15.7252 16.2917 15.7252 16.1605C15.7252 16.0292 15.6395 15.9229 15.5338 15.9229C15.428 15.9229 15.3423 16.0292 15.3423 16.1605C15.3423 16.2917 15.428 16.398 15.5338 16.398Z" fill="white"/>
<path d="M7.33057 16.338H12.4439V19.1283H7.33057V16.338Z" fill="#E6E6E6"/>
<path d="M7.73017 4.36362C7.90314 4.36362 8.04335 4.18963 8.04335 3.97499C8.04335 3.76036 7.90314 3.58636 7.73017 3.58636C7.55721 3.58636 7.41699 3.76036 7.41699 3.97499C7.41699 4.18963 7.55721 4.36362 7.73017 4.36362Z" fill="#24285B"/>
<path d="M8.66035 4.36362C8.83331 4.36362 8.97353 4.18963 8.97353 3.97499C8.97353 3.76036 8.83331 3.58636 8.66035 3.58636C8.48738 3.58636 8.34717 3.76036 8.34717 3.97499C8.34717 4.18963 8.48738 4.36362 8.66035 4.36362Z" fill="#68E1FD"/>
<path d="M9.53632 4.36362C9.70929 4.36362 9.8495 4.18963 9.8495 3.97499C9.8495 3.76036 9.70929 3.58636 9.53632 3.58636C9.36336 3.58636 9.22314 3.76036 9.22314 3.97499C9.22314 4.18963 9.36336 4.36362 9.53632 4.36362Z" fill="#FFD200"/>
<path d="M29.3721 22.5643H17.4787H16.2363H4.62793L0 32.6042H16.2363H17.4787H34L29.3721 22.5643Z" fill="#C9C9C9"/>
<path d="M6.16194 23.6933L4.38379 28.0272H29.8255L28.0563 23.6933H6.16194Z" fill="#E6E6E6"/>
<path d="M12.9931 28.8571L12.4395 31.5277H21.5662L20.9072 28.8571H12.9931Z" fill="#E6E6E6"/>
<path d="M0 32.5928H34V34H0V32.5928Z" fill="#E6E6E6"/>
</svg>
