<svg width="42" height="44" viewBox="0 0 42 44" fill="none" xmlns="http://www.w3.org/2000/svg">
<ellipse cx="21" cy="21.7026" rx="21" ry="21.7026" fill="#0079E9"/>
<path d="M26.5 21.703C27.9587 21.703 29.3576 22.3018 30.3891 23.3678C31.4205 24.4337 32 25.8795 32 27.387C32 28.8945 31.4205 30.3402 30.3891 31.4062C29.3576 32.4722 27.9587 33.071 26.5 33.071C25.0413 33.071 23.6424 32.4722 22.6109 31.4062C21.5795 30.3402 21 28.8945 21 27.387C21 25.8795 21.5795 24.4337 22.6109 23.3678C23.6424 22.3018 25.0413 21.703 26.5 21.703ZM24.024 24.8281C23.9303 24.925 23.8776 25.0565 23.8776 25.1935C23.8776 25.3305 23.9303 25.4619 24.024 25.5588L25.793 27.388L24.026 29.2131C23.9795 29.2611 23.9426 29.3181 23.9174 29.3808C23.8923 29.4435 23.8793 29.5107 23.8792 29.5786C23.8792 29.6465 23.8921 29.7137 23.9172 29.7765C23.9423 29.8392 23.9791 29.8962 24.0255 29.9443C24.0719 29.9923 24.127 30.0304 24.1877 30.0565C24.2484 30.0825 24.3134 30.0959 24.3791 30.096C24.4448 30.096 24.5099 30.0827 24.5706 30.0567C24.6313 30.0308 24.6865 29.9928 24.733 29.9448L26.5 28.1187L28.27 29.9469C28.3161 29.9962 28.3713 30.0356 28.4323 30.0627C28.4933 30.0897 28.5589 30.104 28.6253 30.1046C28.6917 30.1052 28.7575 30.0921 28.819 30.0661C28.8804 30.0401 28.9363 30.0018 28.9832 29.9533C29.0301 29.9047 29.0673 29.8471 29.0924 29.7836C29.1176 29.72 29.1302 29.652 29.1296 29.5834C29.129 29.5148 29.1153 29.447 29.0891 29.3839C29.0628 29.3209 29.0248 29.2639 28.977 29.2162L27.208 27.387L28.979 25.5578C29.0701 25.4603 29.1205 25.3298 29.1193 25.1943C29.1182 25.0588 29.0656 24.9292 28.9729 24.8334C28.8802 24.7376 28.7548 24.6833 28.6237 24.6821C28.4926 24.6809 28.3663 24.733 28.272 24.8271L26.501 26.6563L24.731 24.8271C24.6372 24.7302 24.5101 24.6758 24.3775 24.6758C24.2449 24.6758 24.1178 24.7302 24.024 24.8271V24.8281ZM26.75 12.4019C27.612 12.4019 28.4386 12.7557 29.0481 13.3856C29.6576 14.0155 30 14.8698 30 15.7606L30.001 21.7267C29.5335 21.4167 29.0294 21.17 28.501 20.993L28.5 18.0859H13.5V27.6454C13.5 28.6437 14.284 29.4539 15.25 29.4539H20.314C20.486 30.0058 20.726 30.5266 21.023 31.0051L15.25 31.0041C14.388 31.0041 13.5614 30.6502 12.9519 30.0203C12.3424 29.3905 12 28.5361 12 27.6454V15.7606C12 14.8698 12.3424 14.0155 12.9519 13.3856C13.5614 12.7557 14.388 12.4019 15.25 12.4019H26.75ZM26.75 13.952H15.25C14.7859 13.952 14.3408 14.1426 14.0126 14.4818C13.6844 14.8209 13.5 15.2809 13.5 15.7606V16.5357H28.5V15.7606C28.5 15.2809 28.3156 14.8209 27.9874 14.4818C27.6592 14.1426 27.2141 13.952 26.75 13.952Z" fill="white"/>
</svg>
