<svg width="20" height="24" viewBox="0 0 20 24" fill="none" xmlns="http://www.w3.org/2000/svg">
<path d="M18.3337 10.0827H1.66699M1.66699 8.35768L1.66699 15.641C1.66699 16.7144 1.66699 17.2512 1.84865 17.6612C2.00844 18.0218 2.2634 18.315 2.57701 18.4988C2.93353 18.7077 3.40024 18.7077 4.33366 18.7077L15.667 18.7077C16.6004 18.7077 17.0671 18.7077 17.4236 18.4988C17.7372 18.315 17.9922 18.0218 18.152 17.6612C18.3337 17.2512 18.3337 16.7145 18.3337 15.641V8.35768C18.3337 7.28425 18.3337 6.74753 18.152 6.33754C17.9922 5.97689 17.7372 5.68368 17.4236 5.49992C17.0671 5.29102 16.6004 5.29102 15.667 5.29102L4.33366 5.29102C3.40024 5.29102 2.93353 5.29102 2.57701 5.49992C2.2634 5.68368 2.00844 5.97689 1.84865 6.33753C1.66699 6.74753 1.66699 7.28425 1.66699 8.35768Z" stroke="#379DDF" stroke-width="2" stroke-linecap="round" stroke-linejoin="round"/>
</svg>
