<svg width="23" height="34" viewBox="0 0 23 34" fill="none" xmlns="http://www.w3.org/2000/svg">
<path d="M2.10004 0H10.214C10.214 0 16.2635 19.1632 9.41561 32.2715C9.41561 32.2715 8.77366 34 7.41942 34C6.06518 34 5.4953 33.0835 5.4953 33.0835C5.4953 33.0835 3.6353 31.3948 4.25123 27.8293C4.86716 24.2637 2.80866 20.9628 0.734576 18.1597C-1.33951 15.3566 1.41197 12.2393 3.62564 10.2707C5.83931 8.30207 2.10004 0 2.10004 0V0Z" fill="#FFDD95"/>
<mask id="mask0_475_6142" style="mask-type:luminance" maskUnits="userSpaceOnUse" x="0" y="0" width="13" height="34">
<path d="M2.10004 0H10.214C10.214 0 16.2635 19.1632 9.41561 32.2715C9.41561 32.2715 8.77366 34 7.41942 34C6.06518 34 5.4953 33.0835 5.4953 33.0835C5.4953 33.0835 3.6353 31.3948 4.25123 27.8293C4.86716 24.2637 2.80866 20.9628 0.734576 18.1597C-1.33951 15.3566 1.41197 12.2393 3.62564 10.2707C5.83931 8.30207 2.10004 0 2.10004 0V0Z" fill="white"/>
</mask>
<g mask="url(#mask0_475_6142)">
<path d="M5.93813 15.784C5.66725 15.9096 5.54472 16.2416 5.66446 16.5256C5.78419 16.8097 6.10085 16.9381 6.37173 16.8126L14.4996 13.0456L3.89447 5.61138L12.7024 5.11859C12.9981 5.10204 13.2251 4.83724 13.2093 4.52715C13.1935 4.21705 12.941 3.97908 12.6453 3.99563L0.619629 4.66845L12.2821 12.8438L5.93813 15.784Z" fill="#D650C7"/>
</g>
<mask id="mask1_475_6142" style="mask-type:luminance" maskUnits="userSpaceOnUse" x="0" y="0" width="13" height="34">
<path d="M2.10004 0H10.214C10.214 0 16.2635 19.1632 9.41561 32.2715C9.41561 32.2715 8.77366 34 7.41942 34C6.06518 34 5.4953 33.0835 5.4953 33.0835C5.4953 33.0835 3.6353 31.3948 4.25123 27.8293C4.86716 24.2637 2.80866 20.9628 0.734576 18.1597C-1.33951 15.3566 1.41197 12.2393 3.62564 10.2707C5.83931 8.30207 2.10004 0 2.10004 0V0Z" fill="white"/>
</mask>
<g mask="url(#mask1_475_6142)">
<path fill-rule="evenodd" clip-rule="evenodd" d="M2.77902 9.151C2.77902 9.151 7.93646 12.6223 8.21162 17.7481C8.48678 22.8739 10.452 25.4199 13.0899 25.6203C15.7278 25.8207 7.40479 37.0941 7.40479 37.0941C7.40479 37.0941 3.4643 33.8081 2.77902 31.9518C2.09375 30.0955 0.565717 18.5684 0.565717 18.5684L-1.7627 13.1085L2.77902 9.151Z" fill="#FF78C7"/>
</g>
<path d="M11.7524 0H19.8663C19.8663 0 25.9158 19.1632 19.068 32.2715C19.068 32.2715 18.426 34 17.0718 34C15.7175 34 15.1476 33.0835 15.1476 33.0835C15.1476 33.0835 13.2876 31.3948 13.9036 27.8293C14.5195 24.2637 12.461 20.9628 10.3869 18.1597C8.31283 15.3566 11.0643 12.2393 13.278 10.2707C15.4917 8.30207 11.7524 0 11.7524 0V0Z" fill="#FFDD95"/>
<mask id="mask2_475_6142" style="mask-type:luminance" maskUnits="userSpaceOnUse" x="9" y="0" width="14" height="34">
<path d="M11.7524 0H19.8663C19.8663 0 25.9158 19.1632 19.068 32.2715C19.068 32.2715 18.426 34 17.0718 34C15.7175 34 15.1476 33.0835 15.1476 33.0835C15.1476 33.0835 13.2876 31.3948 13.9036 27.8293C14.5195 24.2637 12.461 20.9628 10.3869 18.1597C8.31283 15.3566 11.0643 12.2393 13.278 10.2707C15.4917 8.30207 11.7524 0 11.7524 0V0Z" fill="white"/>
</mask>
<g mask="url(#mask2_475_6142)">
<path d="M15.5905 15.784C15.3196 15.9096 15.1971 16.2416 15.3168 16.5256C15.4365 16.8097 15.7532 16.9381 16.0241 16.8126L24.1519 13.0456L13.5468 5.61138L22.3547 5.11859C22.6505 5.10204 22.8774 4.83724 22.8617 4.52715C22.8459 4.21705 22.5933 3.97908 22.2976 3.99563L10.272 4.66845L21.9344 12.8438L15.5905 15.784Z" fill="#D650C7"/>
</g>
<mask id="mask3_475_6142" style="mask-type:luminance" maskUnits="userSpaceOnUse" x="9" y="0" width="14" height="34">
<path d="M11.7524 0H19.8663C19.8663 0 25.9158 19.1632 19.068 32.2715C19.068 32.2715 18.426 34 17.0718 34C15.7175 34 15.1476 33.0835 15.1476 33.0835C15.1476 33.0835 13.2876 31.3948 13.9036 27.8293C14.5195 24.2637 12.461 20.9628 10.3869 18.1597C8.31283 15.3566 11.0643 12.2393 13.278 10.2707C15.4917 8.30207 11.7524 0 11.7524 0V0Z" fill="white"/>
</mask>
<g mask="url(#mask3_475_6142)">
<path fill-rule="evenodd" clip-rule="evenodd" d="M12.4314 9.151C12.4314 9.151 17.5888 12.6223 17.864 17.7481C18.1391 22.8739 20.1043 25.4199 22.7422 25.6203C25.3801 25.8207 17.0571 37.0941 17.0571 37.0941C17.0571 37.0941 13.1166 33.8081 12.4314 31.9518C11.7461 30.0955 10.2181 18.5684 10.2181 18.5684L7.88965 13.1085L12.4314 9.151Z" fill="#FF78C7"/>
</g>
</svg>
