<svg width="160" height="160" viewBox="0 0 160 160" fill="none" xmlns="http://www.w3.org/2000/svg">
<path d="M140.726 97.2364H76.1925L58.6895 76.4121H123.223L140.726 97.2364Z" fill="#DDEBFD"/>
<path d="M4.84766 97.2364H41.1871L58.6901 76.4121H22.3507L4.84766 97.2364Z" fill="#DDEBFD"/>
<path d="M76.1925 97.2364L58.6895 76.4121V147.515H123.223V97.2364H76.1925Z" fill="#B9D7FF"/>
<path d="M41.1879 97.2364H22.3516V147.515H58.691V76.4121L41.1879 97.2364Z" fill="#7CB7FF"/>
<path d="M124.242 72.3638L119.418 67.5396C118.593 68.582 117.721 69.6002 116.751 70.5699C115.781 71.5396 114.763 72.4123 113.721 73.2365L118.545 78.0608C117.987 80.485 118.666 83.1517 120.557 85.0426L142.278 106.764C145.212 109.697 149.987 109.697 152.921 106.764C155.854 103.83 155.854 99.0547 152.921 96.1214L131.199 74.4002C129.333 72.4608 126.69 71.8062 124.242 72.3638Z" fill="#7CB7FF"/>
<path d="M92.7016 80.5091C111.486 80.5091 126.714 65.2814 126.714 46.497C126.714 27.7126 111.486 12.4849 92.7016 12.4849C73.9172 12.4849 58.6895 27.7126 58.6895 46.497C58.6895 65.2814 73.9172 80.5091 92.7016 80.5091Z" fill="#B9D7FF"/>
<path d="M92.7013 70.8123C86.2043 70.8123 80.0952 68.2911 75.5134 63.685C66.0346 54.2062 66.0346 38.7638 75.5134 29.285C80.1194 24.6789 86.2043 22.1577 92.7013 22.1577C99.1982 22.1577 105.307 24.6789 109.889 29.285C119.368 38.7638 119.368 54.2062 109.889 63.685C105.307 68.2911 99.1982 70.8123 92.7013 70.8123Z" fill="white"/>
<path d="M111.2 28C106.254 23.0545 99.7089 20.3394 92.7028 20.3394C85.6968 20.3394 79.1513 23.0545 74.2301 28C64.0483 38.206 64.0483 54.7878 74.2301 64.9697C79.1756 69.9151 85.721 72.6303 92.7028 72.6303C99.6847 72.6303 106.254 69.9151 111.2 64.9697C121.382 54.7878 121.382 38.206 111.2 28ZM108.63 62.4C104.388 66.6424 98.7392 68.9939 92.7271 68.9939C86.715 68.9939 81.0665 66.6424 76.8241 62.4C68.0483 53.6242 68.0483 39.3454 76.8241 30.5697C81.0665 26.3272 86.715 23.9757 92.7271 23.9757C98.7392 23.9757 104.388 26.3272 108.63 30.5697C117.406 39.3454 117.406 53.6242 108.63 62.4Z" fill="#1576ED"/>
<path d="M154.23 94.7877L132.509 73.0665C130.496 71.0544 127.684 70.0847 124.872 70.3998L121.818 67.3453C131.854 53.3574 130.618 33.7211 118.06 21.1392C104.096 7.17559 81.3571 7.17559 67.3692 21.1392C53.4056 35.1029 53.4056 57.8423 67.3692 71.8301C74.351 78.812 83.5389 82.3029 92.7025 82.3029C100.024 82.3029 107.345 80.0241 113.551 75.5877L116.606 78.6423C116.29 81.4544 117.236 84.2665 119.272 86.2786L140.993 108C142.812 109.818 145.212 110.739 147.612 110.739C150.012 110.739 152.412 109.818 154.23 108C157.866 104.363 157.866 98.4483 154.23 94.7877ZM69.9389 69.2604C63.8541 63.1756 60.5086 55.1029 60.5086 46.4968C60.5086 37.8907 63.8541 29.818 69.9389 23.7332C76.0238 17.6483 84.0965 14.3029 92.7025 14.3029C101.309 14.3029 109.381 17.6483 115.466 23.7332C121.551 29.818 124.896 37.8907 124.896 46.4968C124.896 55.1029 121.551 63.1756 115.466 69.2604C109.381 75.3453 101.309 78.6908 92.7025 78.6908C84.0965 78.6908 76.0238 75.3453 69.9389 69.2604ZM151.66 105.454C149.43 107.685 145.818 107.685 143.587 105.454L121.866 83.7332C120.484 82.3514 119.927 80.3635 120.339 78.4483C120.484 77.8423 120.29 77.212 119.854 76.7756L116.412 73.3332C116.969 72.8483 117.527 72.3877 118.036 71.8544C118.569 71.321 119.03 70.7635 119.515 70.2301L122.957 73.6726C123.393 74.1089 124.024 74.3029 124.63 74.1574C126.569 73.7211 128.533 74.2786 129.939 75.6847L151.66 97.4059C152.751 98.4968 153.333 99.9271 153.333 101.454C153.333 102.982 152.751 104.363 151.66 105.454Z" fill="#1576ED"/>
<path d="M42.5698 98.4242L58.691 79.2485L74.8122 98.4242C75.1516 98.8363 75.6607 99.0788 76.194 99.0788H122.521C123.515 99.0788 124.339 98.2545 124.339 97.2606C124.339 96.2666 123.515 95.4424 122.521 95.4424H77.0425L62.594 78.2545H64.3153C65.3092 78.2545 66.1334 77.4303 66.1334 76.4363C66.1334 75.4424 65.3092 74.6182 64.3153 74.6182H22.3516C21.8183 74.6182 21.3092 74.8606 20.9698 75.2727L3.46676 96.0969C3.00615 96.6303 2.90919 97.406 3.20009 98.0363C3.491 98.6666 4.14555 99.0788 4.84858 99.0788H41.188C41.7213 99.0545 42.2304 98.8121 42.5698 98.4242ZM8.75161 95.4182L23.2001 78.2303H54.788L40.3395 95.4182H8.75161Z" fill="#1576ED"/>
<path d="M86.2539 130.084H67.2479C66.2539 130.084 65.4297 130.909 65.4297 131.903C65.4297 132.897 66.2539 133.721 67.2479 133.721H86.2539C87.2479 133.721 88.0721 132.897 88.0721 131.903C88.0721 130.909 87.2479 130.084 86.2539 130.084Z" fill="#1576ED"/>
<path d="M86.2539 137.139H67.2479C66.2539 137.139 65.4297 137.963 65.4297 138.957C65.4297 139.951 66.2539 140.776 67.2479 140.776H86.2539C87.2479 140.776 88.0721 139.951 88.0721 138.957C88.0721 137.939 87.2479 137.139 86.2539 137.139Z" fill="#1576ED"/>
<path d="M101.262 37.9394C100.559 37.2364 99.3949 37.2364 98.6919 37.9394L92.704 43.9273L86.7161 37.9394C86.0131 37.2364 84.8494 37.2364 84.1464 37.9394C83.4434 38.6424 83.4434 39.806 84.1464 40.5091L90.1343 46.497L84.1464 52.4848C83.4434 53.1879 83.4434 54.3515 84.1464 55.0545C84.51 55.4182 84.9707 55.5879 85.4313 55.5879C85.8919 55.5879 86.3525 55.4182 86.7161 55.0545L92.704 49.0667L98.6919 55.0545C99.0555 55.4182 99.5161 55.5879 99.9767 55.5879C100.437 55.5879 100.898 55.4182 101.262 55.0545C101.965 54.3515 101.965 53.1879 101.262 52.4848L95.2737 46.497L101.262 40.5091C101.989 39.806 101.989 38.6424 101.262 37.9394Z" fill="#1576ED"/>
<path d="M123.224 102.691C122.23 102.691 121.406 103.515 121.406 104.509V145.697H60.509V87.7088C60.509 86.7149 59.6847 85.8906 58.6908 85.8906C57.6968 85.8906 56.8726 86.7149 56.8726 87.7088V145.697H24.1696V104.509C24.1696 103.515 23.3453 102.691 22.3514 102.691C21.3574 102.691 20.5332 103.515 20.5332 104.509V147.515C20.5332 148.509 21.3574 149.333 22.3514 149.333H58.6908H123.224C124.218 149.333 125.042 148.509 125.042 147.515V104.509C125.042 103.515 124.218 102.691 123.224 102.691Z" fill="#1576ED"/>
</svg>
