<svg width="42" height="42" viewBox="0 0 42 42" fill="none" xmlns="http://www.w3.org/2000/svg">
<circle cx="21" cy="21" r="21" fill="#FF3115"/>
<path d="M24.6667 15.5002V14.7668C24.6667 13.7401 24.6667 13.2267 24.4668 12.8345C24.2911 12.4895 24.0106 12.2091 23.6656 12.0333C23.2735 11.8335 22.7601 11.8335 21.7333 11.8335H20.2667C19.2399 11.8335 18.7265 11.8335 18.3344 12.0333C17.9894 12.2091 17.7089 12.4895 17.5332 12.8345C17.3333 13.2267 17.3333 13.7401 17.3333 14.7668V15.5002M12.75 15.5002H29.25M27.4167 15.5002V25.7668C27.4167 27.307 27.4167 28.077 27.1169 28.6653C26.8533 29.1827 26.4326 29.6034 25.9151 29.8671C25.3269 30.1668 24.5568 30.1668 23.0167 30.1668H18.9833C17.4432 30.1668 16.6731 30.1668 16.0849 29.8671C15.5674 29.6034 15.1467 29.1827 14.8831 28.6653C14.5833 28.077 14.5833 27.307 14.5833 25.7668V15.5002" stroke="white" stroke-width="2" stroke-linecap="round" stroke-linejoin="round"/>
</svg>
