<svg width="22" height="22" viewBox="0 0 22 22" fill="none" xmlns="http://www.w3.org/2000/svg">
<path d="M6.41634 3.66659C6.41634 3.18035 6.6095 2.71404 6.95331 2.37022C7.29713 2.02641 7.76344 1.83325 8.24967 1.83325H13.7497C14.2359 1.83325 14.7022 2.02641 15.046 2.37022C15.3899 2.71404 15.583 3.18035 15.583 3.66659V5.49992H19.2497C19.4928 5.49992 19.7259 5.5965 19.8979 5.7684C20.0698 5.94031 20.1663 6.17347 20.1663 6.41658C20.1663 6.6597 20.0698 6.89286 19.8979 7.06477C19.7259 7.23667 19.4928 7.33325 19.2497 7.33325H18.2698L17.475 18.4634C17.4421 18.926 17.2351 19.3588 16.8958 19.6749C16.5564 19.9909 16.11 20.1666 15.6463 20.1666H6.35217C5.88847 20.1666 5.44199 19.9909 5.10265 19.6749C4.76332 19.3588 4.55635 18.926 4.52342 18.4634L3.73051 7.33325H2.74967C2.50656 7.33325 2.2734 7.23667 2.10149 7.06477C1.92958 6.89286 1.83301 6.6597 1.83301 6.41658C1.83301 6.17347 1.92958 5.94031 2.10149 5.7684C2.2734 5.5965 2.50656 5.49992 2.74967 5.49992H6.41634V3.66659ZM8.24967 5.49992H13.7497V3.66659H8.24967V5.49992ZM5.56751 7.33325L6.35309 18.3333H15.6472L16.4328 7.33325H5.56751ZM9.16634 9.16658C9.40946 9.16658 9.64261 9.26316 9.81452 9.43507C9.98643 9.60698 10.083 9.84014 10.083 10.0833V15.5833C10.083 15.8264 9.98643 16.0595 9.81452 16.2314C9.64261 16.4033 9.40946 16.4999 9.16634 16.4999C8.92323 16.4999 8.69007 16.4033 8.51816 16.2314C8.34625 16.0595 8.24967 15.8264 8.24967 15.5833V10.0833C8.24967 9.84014 8.34625 9.60698 8.51816 9.43507C8.69007 9.26316 8.92323 9.16658 9.16634 9.16658ZM12.833 9.16658C13.0761 9.16658 13.3093 9.26316 13.4812 9.43507C13.6531 9.60698 13.7497 9.84014 13.7497 10.0833V15.5833C13.7497 15.8264 13.6531 16.0595 13.4812 16.2314C13.3093 16.4033 13.0761 16.4999 12.833 16.4999C12.5899 16.4999 12.3567 16.4033 12.1848 16.2314C12.0129 16.0595 11.9163 15.8264 11.9163 15.5833V10.0833C11.9163 9.84014 12.0129 9.60698 12.1848 9.43507C12.3567 9.26316 12.5899 9.16658 12.833 9.16658Z" fill="#0079E9"/>
</svg>
