<svg width="16" height="16" viewBox="0 0 16 16" fill="none" xmlns="http://www.w3.org/2000/svg">
<path d="M7.66665 3.33325H7.95624C9.98774 3.33325 11.0035 3.33325 11.3891 3.69811C11.7224 4.0135 11.8701 4.47811 11.7801 4.92806C11.676 5.4486 10.8467 6.03516 9.18817 7.20827L6.47846 9.1249C4.81992 10.298 3.99064 10.8846 3.88654 11.4051C3.79655 11.8551 3.94426 12.3197 4.27755 12.6351C4.66314 12.9999 5.67888 12.9999 7.71038 12.9999H8.33331M5.33331 3.33325C5.33331 4.43782 4.43788 5.33325 3.33331 5.33325C2.22874 5.33325 1.33331 4.43782 1.33331 3.33325C1.33331 2.22868 2.22874 1.33325 3.33331 1.33325C4.43788 1.33325 5.33331 2.22868 5.33331 3.33325ZM14.6666 12.6666C14.6666 13.7712 13.7712 14.6666 12.6666 14.6666C11.5621 14.6666 10.6666 13.7712 10.6666 12.6666C10.6666 11.562 11.5621 10.6666 12.6666 10.6666C13.7712 10.6666 14.6666 11.562 14.6666 12.6666Z" stroke="#493EE3" stroke-linecap="round" stroke-linejoin="round"/>
</svg>
