<svg width="36" height="36" viewBox="0 0 36 36" fill="none" xmlns="http://www.w3.org/2000/svg">
<rect width="36" height="36" rx="18" fill="#F3F3F3"/>
<path d="M25.5 9H10.5C10.1022 9 9.72064 9.15804 9.43934 9.43934C9.15804 9.72064 9 10.1022 9 10.5V25.5C9 25.8978 9.15804 26.2794 9.43934 26.5607C9.72064 26.842 10.1022 27 10.5 27H20.6897C20.8867 27.0003 21.0818 26.9616 21.2638 26.8862C21.4458 26.8107 21.611 26.7 21.75 26.5603L26.5603 21.75C26.7 21.611 26.8107 21.4458 26.8862 21.2638C26.9616 21.0818 27.0003 20.8867 27 20.6897V10.5C27 10.1022 26.842 9.72064 26.5607 9.43934C26.2794 9.15804 25.8978 9 25.5 9ZM15 14.25H21C21.1989 14.25 21.3897 14.329 21.5303 14.4697C21.671 14.6103 21.75 14.8011 21.75 15C21.75 15.1989 21.671 15.3897 21.5303 15.5303C21.3897 15.671 21.1989 15.75 21 15.75H15C14.8011 15.75 14.6103 15.671 14.4697 15.5303C14.329 15.3897 14.25 15.1989 14.25 15C14.25 14.8011 14.329 14.6103 14.4697 14.4697C14.6103 14.329 14.8011 14.25 15 14.25ZM18 21.75H15C14.8011 21.75 14.6103 21.671 14.4697 21.5303C14.329 21.3897 14.25 21.1989 14.25 21C14.25 20.8011 14.329 20.6103 14.4697 20.4697C14.6103 20.329 14.8011 20.25 15 20.25H18C18.1989 20.25 18.3897 20.329 18.5303 20.4697C18.671 20.6103 18.75 20.8011 18.75 21C18.75 21.1989 18.671 21.3897 18.5303 21.5303C18.3897 21.671 18.1989 21.75 18 21.75ZM15 18.75C14.8011 18.75 14.6103 18.671 14.4697 18.5303C14.329 18.3897 14.25 18.1989 14.25 18C14.25 17.8011 14.329 17.6103 14.4697 17.4697C14.6103 17.329 14.8011 17.25 15 17.25H21C21.1989 17.25 21.3897 17.329 21.5303 17.4697C21.671 17.6103 21.75 17.8011 21.75 18C21.75 18.1989 21.671 18.3897 21.5303 18.5303C21.3897 18.671 21.1989 18.75 21 18.75H15ZM21 25.1897V21H25.1906L21 25.1897Z" fill="#7658F2"/>
</svg>
