<svg width="42" height="42" viewBox="0 0 42 42" fill="none" xmlns="http://www.w3.org/2000/svg">
<circle cx="21" cy="21" r="21" fill="#7658F2"/>
<path d="M28.5 18H22.5V12H13.5V30H28.5V18ZM27.879 16.5L24 12.621V16.5H27.879ZM12.75 10.5H24L30 16.5V30.75C30 30.9489 29.921 31.1397 29.7803 31.2803C29.6397 31.421 29.4489 31.5 29.25 31.5H12.75C12.5511 31.5 12.3603 31.421 12.2197 31.2803C12.079 31.1397 12 30.9489 12 30.75V11.25C12 11.0511 12.079 10.8603 12.2197 10.7197C12.3603 10.579 12.5511 10.5 12.75 10.5ZM16.5 21H25.5V22.5H16.5V21ZM16.5 16.5H20.25V18H16.5V16.5ZM16.5 25.5H25.5V27H16.5V25.5Z" fill="white"/>
</svg>
