<svg width="5" height="21" viewBox="0 0 5 21" fill="none" xmlns="http://www.w3.org/2000/svg">
<path d="M0.0833434 17.7501C0.0833435 19.0792 1.17084 20.1667 2.50001 20.1667C3.82918 20.1667 4.91668 19.0792 4.91668 17.7501C4.91668 16.4209 3.82918 15.3334 2.50001 15.3334C1.17084 15.3334 0.0833433 16.4209 0.0833434 17.7501ZM0.0833428 3.25008C0.0833428 4.57925 1.17084 5.66675 2.50001 5.66675C3.82918 5.66675 4.91668 4.57925 4.91668 3.25008C4.91668 1.92091 3.82918 0.833414 2.50001 0.833414C1.17084 0.833414 0.0833427 1.92091 0.0833428 3.25008ZM0.0833431 10.5001C0.0833431 11.8292 1.17084 12.9167 2.50001 12.9167C3.82918 12.9167 4.91668 11.8292 4.91668 10.5001C4.91668 9.17091 3.82918 8.08341 2.50001 8.08341C1.17084 8.08341 0.083343 9.17091 0.0833431 10.5001Z" fill="#323232"/>
</svg>
