<svg width="18" height="4" viewBox="0 0 18 4" fill="none" xmlns="http://www.w3.org/2000/svg">
<path fill-rule="evenodd" clip-rule="evenodd" d="M2 -8.74228e-08C3.10457 -1.35705e-07 4 0.89543 4 2C4 3.10457 3.10457 4 2 4C0.895431 4 -3.91405e-08 3.10457 -8.74228e-08 2C-1.35705e-07 0.895431 0.89543 -3.91405e-08 2 -8.74228e-08ZM9 -3.93402e-07C10.1046 -4.41685e-07 11 0.89543 11 2C11 3.10457 10.1046 4 9 4C7.89543 4 7 3.10457 7 2C7 0.89543 7.89543 -3.4512e-07 9 -3.93402e-07ZM18 2C18 0.89543 17.1046 -7.47665e-07 16 -6.99382e-07C14.8954 -6.511e-07 14 0.89543 14 2C14 3.10457 14.8954 4 16 4C17.1046 4 18 3.10457 18 2Z" fill="black"/>
</svg>
