<svg width="30" height="9" viewBox="0 0 30 9" fill="none" xmlns="http://www.w3.org/2000/svg">
<path fill-rule="evenodd" clip-rule="evenodd" d="M4.0205 0.71729C6.03655 0.71729 7.67089 2.35162 7.67089 4.36768C7.67089 6.38373 6.03656 8.01806 4.0205 8.01806C2.00445 8.01806 0.370117 6.38373 0.370117 4.36768C0.370117 2.35162 2.00445 0.71729 4.0205 0.71729ZM14.9717 0.717295C16.9878 0.717295 18.6221 2.35163 18.6221 4.36768C18.6221 6.38373 16.9878 8.01807 14.9717 8.01807C12.9557 8.01807 11.3213 6.38373 11.3213 4.36768C11.3213 2.35163 12.9557 0.717295 14.9717 0.717295ZM29.5733 4.36768C29.5733 2.35163 27.9389 0.717294 25.9229 0.717294C23.9068 0.717294 22.2725 2.35163 22.2725 4.36768C22.2725 6.38373 23.9068 8.01807 25.9229 8.01807C27.9389 8.01807 29.5733 6.38373 29.5733 4.36768Z" fill="black"/>
</svg>
