<svg width="36" height="37" viewBox="0 0 36 37" fill="none" xmlns="http://www.w3.org/2000/svg">
<rect y="0.5" width="36" height="36" rx="18" fill="#F3F3F3"/>
<path d="M22.9999 16.8342L19.6666 13.5009M10.0833 26.4176L12.9036 26.1042C13.2481 26.0659 13.4204 26.0468 13.5815 25.9946C13.7243 25.9484 13.8603 25.883 13.9857 25.8004C14.127 25.7072 14.2495 25.5846 14.4947 25.3395L25.4999 14.3342C26.4204 13.4138 26.4204 11.9214 25.4999 11.0009C24.5795 10.0804 23.0871 10.0804 22.1666 11.0009L11.1614 22.0061C10.9162 22.2513 10.7936 22.3739 10.7004 22.5152C10.6178 22.6405 10.5524 22.7765 10.5062 22.9194C10.454 23.0804 10.4349 23.2527 10.3966 23.5973L10.0833 26.4176Z" stroke="#7658F2" stroke-width="2" stroke-linecap="round" stroke-linejoin="round"/>
</svg>
