<svg width="32" height="32" viewBox="0 0 32 32" fill="none" xmlns="http://www.w3.org/2000/svg">
<rect width="32" height="32" rx="16" fill="white"/>
<path d="M20.9997 14.3333L17.6664 10.9999M8.08301 23.9166L10.9033 23.6032C11.2479 23.5649 11.4202 23.5458 11.5812 23.4937C11.7241 23.4474 11.86 23.3821 11.9854 23.2994C12.1267 23.2062 12.2493 23.0836 12.4944 22.8385L23.4997 11.8333C24.4202 10.9128 24.4202 9.4204 23.4997 8.49993C22.5792 7.57945 21.0868 7.57945 20.1664 8.49992L9.16112 19.5052C8.91596 19.7503 8.79339 19.8729 8.70021 20.0142C8.61753 20.1396 8.55219 20.2755 8.50594 20.4184C8.4538 20.5794 8.43466 20.7517 8.39637 21.0963L8.08301 23.9166Z" stroke="#0079E9" stroke-width="2" stroke-linecap="round" stroke-linejoin="round"/>
</svg>
