<svg width="24" height="24" viewBox="0 0 24 24" fill="none" xmlns="http://www.w3.org/2000/svg">
<g clip-path="url(#clip0_976_10516)">
<mask id="mask0_976_10516" style="mask-type:luminance" maskUnits="userSpaceOnUse" x="-2" y="0" width="28" height="24">
<path d="M-2 0V24H26V0H-2Z" fill="white"/>
</mask>
<g mask="url(#mask0_976_10516)">
<path d="M-2 0V24H26V0H-2Z" fill="#012169"/>
<path d="M-2 0L26 24L-2 0ZM26 0L-2 24L26 0Z" fill="#204F50"/>
<path d="M-2 0L26 24M26 0L-2 24" stroke="white" stroke-width="4.4"/>
<mask id="mask1_976_10516" style="mask-type:luminance" maskUnits="userSpaceOnUse" x="-2" y="0" width="28" height="24">
<path d="M12 12H26V24L12 12ZM12 12V24H-2L12 12ZM12 12H-2V0L12 12ZM12 12V0H26L12 12Z" fill="white"/>
</mask>
<g mask="url(#mask1_976_10516)">
<path d="M-2 0L26 24L-2 0ZM26 0L-2 24L26 0Z" fill="#204F50"/>
<path d="M-2 0L26 24M26 0L-2 24" stroke="#C8102E" stroke-width="3.2"/>
</g>
<path d="M12 0V24V0ZM-2 12H26H-2Z" fill="#204F50"/>
<path d="M12 0V24M-2 12H26" stroke="white" stroke-width="8"/>
<path d="M12 0V24V0ZM-2 12H26H-2Z" fill="#204F50"/>
<path d="M12 0V24M-2 12H26" stroke="#C8102E" stroke-width="4.8"/>
</g>
</g>
<defs>
<clipPath id="clip0_976_10516">
<rect width="24" height="24" rx="12" fill="white"/>
</clipPath>
</defs>
</svg>
