<svg width="111" height="110" viewBox="0 0 111 110" fill="none" xmlns="http://www.w3.org/2000/svg">
<circle cx="55.5" cy="55" r="55" fill="#FFDADA"/>
<circle cx="55.5" cy="55" r="45" fill="#FF9797"/>
<circle cx="56" cy="54.5" r="35.5" fill="#FF0000"/>
<path d="M59.7259 54.9974L72.6135 42.138C73.1778 41.5736 73.4949 40.808 73.4949 40.0098C73.4949 39.2115 73.1778 38.446 72.6135 37.8815C72.0491 37.3171 71.2837 37 70.4855 37C69.6874 37 68.9219 37.3171 68.3576 37.8815L55.5 50.7709L42.6424 37.8815C42.0781 37.3171 41.3126 37 40.5145 37C39.7163 37 38.9509 37.3171 38.3865 37.8815C37.8222 38.446 37.5051 39.2115 37.5051 40.0098C37.5051 40.808 37.8222 41.5736 38.3865 42.138L51.2741 54.9974L38.3865 67.8568C38.1056 68.1355 37.8827 68.467 37.7305 68.8323C37.5783 69.1976 37.5 69.5894 37.5 69.9851C37.5 70.3808 37.5783 70.7726 37.7305 71.1379C37.8827 71.5031 38.1056 71.8347 38.3865 72.1133C38.6652 72.3943 38.9966 72.6173 39.3619 72.7695C39.7271 72.9217 40.1188 73 40.5145 73C40.9101 73 41.3019 72.9217 41.6671 72.7695C42.0323 72.6173 42.3638 72.3943 42.6424 72.1133L55.5 59.224L68.3576 72.1133C68.6362 72.3943 68.9677 72.6173 69.3329 72.7695C69.6981 72.9217 70.0899 73 70.4855 73C70.8812 73 71.2729 72.9217 71.6381 72.7695C72.0034 72.6173 72.3348 72.3943 72.6135 72.1133C72.8944 71.8347 73.1173 71.5031 73.2695 71.1379C73.4217 70.7726 73.5 70.3808 73.5 69.9851C73.5 69.5894 73.4217 69.1976 73.2695 68.8323C73.1173 68.467 72.8944 68.1355 72.6135 67.8568L59.7259 54.9974Z" fill="white"/>
</svg>
