<svg width="152" height="158" viewBox="0 0 152 158" fill="none" xmlns="http://www.w3.org/2000/svg">
<path d="M56.5283 139.401C52.117 139.401 48.5283 135.813 48.5283 131.401C48.5283 126.99 52.117 123.401 56.5283 123.401C60.9397 123.401 64.5283 126.99 64.5283 131.401C64.5283 135.813 60.9403 139.401 56.5283 139.401ZM56.5283 128.735C55.057 128.735 53.8617 129.931 53.8617 131.401C53.8617 132.871 55.057 134.068 56.5283 134.068C57.9997 134.068 59.195 132.871 59.195 131.401C59.195 129.931 57.9997 128.735 56.5283 128.735Z" fill="#2E58FF"/>
<path d="M111.835 6.21696C113.409 6.21696 114.686 4.94067 114.686 3.36629C114.686 1.79191 113.409 0.515625 111.835 0.515625C110.261 0.515625 108.984 1.79191 108.984 3.36629C108.984 4.94067 110.261 6.21696 111.835 6.21696Z" fill="#2E58FF"/>
<path d="M125.862 64.7347C127.335 64.7347 128.529 63.5408 128.529 62.068C128.529 60.5953 127.335 59.4014 125.862 59.4014C124.389 59.4014 123.195 60.5953 123.195 62.068C123.195 63.5408 124.389 64.7347 125.862 64.7347Z" fill="#2E58FF"/>
<path d="M132.299 39.1712C131.617 39.1712 130.935 38.9105 130.414 38.3899L122.873 30.8485C121.831 29.8072 121.831 28.1192 122.873 27.0779C123.914 26.0365 125.602 26.0365 126.643 27.0779L134.185 34.6192C135.226 35.6605 135.226 37.3485 134.185 38.3899C133.664 38.9112 132.981 39.1712 132.299 39.1712Z" fill="#2E58FF"/>
<path d="M124.758 39.1712C124.076 39.1712 123.393 38.9105 122.873 38.3899C121.831 37.3485 121.831 35.6605 122.873 34.6192L130.414 27.0779C131.455 26.0365 133.143 26.0365 134.185 27.0779C135.226 28.1192 135.226 29.8072 134.185 30.8485L126.643 38.3899C126.123 38.9112 125.441 39.1712 124.758 39.1712Z" fill="#2E58FF"/>
<path d="M85.9316 99.498L93.9306 91.499L124.498 122.066L116.499 130.065L85.9316 99.498Z" fill="#CCEAFF"/>
<path d="M116.528 132.734C115.846 132.734 115.164 132.474 114.643 131.953L84.0704 101.382C83.5704 100.882 83.2891 100.203 83.2891 99.4964C83.2891 98.7897 83.5704 98.1111 84.0704 97.6111L92.0704 89.6111C93.1117 88.5697 94.7997 88.5697 95.8411 89.6111L126.414 120.182C126.914 120.682 127.195 121.361 127.195 122.068C127.195 122.774 126.914 123.453 126.414 123.953L118.414 131.953C117.893 132.474 117.211 132.734 116.528 132.734ZM89.7264 99.4964L116.528 126.297L120.758 122.068L93.9557 95.2671L89.7264 99.4964Z" fill="#2E58FF"/>
<path d="M146.525 152.064C142.843 155.746 136.873 155.746 133.191 152.064L107.803 126.675L121.136 113.342L146.525 138.73C150.207 142.412 150.207 148.382 146.525 152.064Z" fill="#92CEFF"/>
<path d="M139.86 157.485C136.763 157.485 133.664 156.307 131.308 153.949L105.917 128.561C105.417 128.061 105.136 127.382 105.136 126.675C105.136 125.969 105.417 125.29 105.917 124.79L119.25 111.457C120.292 110.415 121.98 110.415 123.021 111.457L148.412 136.845C150.696 139.129 151.956 142.166 151.956 145.397C151.956 148.629 150.695 151.665 148.412 153.949C146.055 156.307 142.956 157.485 139.86 157.485ZM111.573 126.675L135.078 150.178C137.714 152.813 142.006 152.813 144.641 150.178C145.917 148.901 146.623 147.203 146.623 145.397C146.623 143.591 145.917 141.893 144.641 140.615L121.136 117.113L111.573 126.675Z" fill="#2E58FF"/>
<path d="M56.016 114.887C85.4711 114.887 109.349 91.0092 109.349 61.554C109.349 32.0989 85.4711 8.2207 56.016 8.2207C26.5608 8.2207 2.68262 32.0989 2.68262 61.554C2.68262 91.0092 26.5608 114.887 56.016 114.887Z" fill="#92CEFF"/>
<path d="M56.0156 117.528C41.6743 117.528 27.3336 112.07 16.4169 101.152C-5.41372 79.3177 -5.41372 43.7917 16.4169 21.9571C38.2503 0.121078 73.7816 0.121078 95.615 21.9571C117.446 43.7917 117.446 79.3177 95.615 101.152C84.6976 112.07 70.3569 117.528 56.0156 117.528ZM56.0156 10.9117C43.0416 10.9117 30.0649 15.8504 20.1876 25.7284C0.434943 45.4837 0.434943 77.6271 20.1876 97.3818C39.9456 117.137 72.0863 117.137 91.8436 97.3818C111.596 77.6264 111.596 45.4831 91.8436 25.7284C81.9663 15.8504 68.9896 10.9117 56.0156 10.9117Z" fill="#2E58FF"/>
<path d="M74.2856 22.9835C58.4483 15.4822 38.947 18.2822 25.8456 31.3835C9.18297 48.0462 9.18297 75.0609 25.8456 91.7235C42.5083 108.386 69.523 108.386 86.1856 91.7235C102.848 75.0609 102.848 48.0462 86.1856 31.3835C85.5416 30.7395 84.8823 30.1209 84.209 29.5262" fill="white"/>
<path d="M56.016 106.887C43.9066 106.887 32.524 102.171 23.9613 93.6085C15.3986 85.0472 10.6826 73.6632 10.6826 61.5538C10.6826 49.4445 15.3986 38.0605 23.9613 29.4992C37.4793 15.9852 58.1646 12.3938 75.4273 20.5732C76.758 21.2032 77.3286 22.7932 76.6953 24.1252C76.0653 25.4558 74.4766 26.0265 73.1459 25.3932C57.9066 18.1758 39.6593 21.3452 27.732 33.2692C20.1773 40.8238 16.016 50.8678 16.016 61.5532C16.016 72.2385 20.1773 82.2825 27.732 89.8372C35.2866 97.3918 45.3306 101.553 56.016 101.553C66.7013 101.553 76.7453 97.3918 84.2999 89.8372C91.8546 82.2825 96.016 72.2385 96.016 61.5532C96.016 50.8678 91.8546 40.8238 84.2999 33.2692C83.6959 32.6638 83.076 32.0832 82.446 31.5258C81.3393 30.5505 81.2353 28.8658 82.2093 27.7618C83.186 26.6565 84.876 26.5558 85.9726 27.5258C86.6913 28.1585 87.3893 28.8152 88.0739 29.4998C96.6339 38.0598 101.35 49.4438 101.35 61.5532C101.35 73.6625 96.6339 85.0465 88.0713 93.6078C79.5079 102.171 68.1253 106.887 56.016 106.887Z" fill="#2E58FF"/>
<path d="M116.529 135.401C115.847 135.401 115.164 135.141 114.643 134.62C113.602 133.579 113.602 131.891 114.643 130.849L118.643 126.849C119.685 125.808 121.373 125.808 122.414 126.849C123.455 127.891 123.455 129.579 122.414 130.62L118.414 134.62C117.893 135.141 117.211 135.401 116.529 135.401Z" fill="#2E58FF"/>
<path d="M121.862 140.734C121.18 140.734 120.497 140.474 119.976 139.953C118.935 138.912 118.935 137.224 119.976 136.182L123.976 132.182C125.018 131.141 126.706 131.141 127.747 132.182C128.788 133.224 128.788 134.912 127.747 135.953L123.747 139.953C123.226 140.474 122.544 140.734 121.862 140.734Z" fill="#2E58FF"/>
<path d="M127.195 146.067C126.513 146.067 125.83 145.807 125.309 145.286C124.268 144.245 124.268 142.557 125.309 141.515L129.309 137.515C130.351 136.474 132.039 136.474 133.08 137.515C134.121 138.557 134.121 140.245 133.08 141.286L129.08 145.286C128.559 145.807 127.877 146.067 127.195 146.067Z" fill="#2E58FF"/>
<path d="M132.529 151.401C131.847 151.401 131.164 151.141 130.643 150.62C129.602 149.579 129.602 147.891 130.643 146.849L134.643 142.849C135.685 141.808 137.373 141.808 138.414 142.849C139.455 143.891 139.455 145.579 138.414 146.62L134.414 150.62C133.893 151.141 133.211 151.401 132.529 151.401Z" fill="#2E58FF"/>
<path d="M76.0717 48.735L68.5283 41.1924L55.8617 53.859L43.195 41.1924L35.6523 48.735L48.319 61.4017L35.6523 74.0684L43.195 81.611L55.8617 68.9444L68.5283 81.611L76.0717 74.0684L63.405 61.4017L76.0717 48.735Z" fill="#CCEAFF"/>
<path d="M68.5283 84.2774C67.8203 84.2774 67.143 83.9961 66.643 83.4961L55.8616 72.7147L45.0803 83.4961C44.5803 83.9961 43.903 84.2774 43.195 84.2774C42.487 84.2774 41.8096 83.9961 41.3096 83.4961L33.7683 75.9534C32.727 74.9121 32.727 73.2241 33.7683 72.1827L44.5496 61.4014L33.7683 50.6201C32.727 49.5787 32.727 47.8907 33.7683 46.8494L41.3096 39.3067C42.3096 38.3067 44.0803 38.3067 45.0803 39.3067L55.8616 50.0881L66.643 39.3067C67.143 38.8067 67.8203 38.5254 68.5283 38.5254C69.2363 38.5254 69.9136 38.8067 70.4136 39.3067L77.955 46.8494C78.9963 47.8907 78.9963 49.5787 77.955 50.6201L67.1736 61.4014L77.955 72.1827C78.9963 73.2241 78.9963 74.9121 77.955 75.9534L70.4136 83.4961C69.9143 83.9967 69.237 84.2774 68.5283 84.2774ZM55.8616 66.2774C56.5436 66.2774 57.2263 66.5381 57.747 67.0587L68.5283 77.8401L72.299 74.0681L61.5176 63.2867C60.4763 62.2454 60.4763 60.5574 61.5176 59.5161L72.299 48.7347L68.5283 44.9627L57.747 55.7441C56.7056 56.7854 55.0176 56.7854 53.9763 55.7441L43.195 44.9627L39.4243 48.7347L50.2056 59.5161C51.247 60.5574 51.247 62.2454 50.2056 63.2867L39.4243 74.0681L43.195 77.8401L53.9763 67.0587C54.4976 66.5381 55.1796 66.2774 55.8616 66.2774Z" fill="#2E58FF"/>
</svg>
