<svg width="36" height="36" viewBox="0 0 36 36" fill="none" xmlns="http://www.w3.org/2000/svg">
<rect width="36" height="36" rx="18" fill="#F3F3F3"/>
<g clip-path="url(#clip0_1280_8134)">
<path d="M18 6C16.4308 6 15.2308 7.2 15.2308 8.76923V14.3077C15.2308 15.8769 16.4308 17.0769 18 17.0769H23.5385L27.2308 20.7692V17.0769C28.8 17.0769 30 15.8769 30 14.3077V8.76923C30 7.2 28.8 6 27.2308 6H18ZM21.8658 8.76923H23.4517L25.0098 14.3077H23.6252L23.2495 12.9231H21.8649L21.5197 14.3077H20.3077L21.8658 8.76923ZM22.6154 9.69231C22.5231 10.0615 22.4197 10.512 22.3265 10.7889L22.068 12H23.1637L22.9034 10.788C22.7197 10.512 22.6154 10.0615 22.6154 9.69231ZM8.76923 15.2308C7.2 15.2308 6 16.4308 6 18V23.5385C6 25.1077 7.2 26.3077 8.76923 26.3077V30L12.4615 26.3077H18C19.5692 26.3077 20.7692 25.1077 20.7692 23.5385V18H18C16.2462 18 14.856 16.8 14.3945 15.2308H8.76923ZM13.0098 17.9132C14.5791 17.9132 15.3175 19.2055 15.3175 20.6825C15.3175 21.9748 14.8735 22.7945 14.1351 23.1637C14.5043 23.3483 14.9418 23.4462 15.4034 23.5385L15.0582 24.4615C14.412 24.2769 13.7418 23.9889 13.0957 23.7111C13.0034 23.6188 12.8418 23.6252 12.7495 23.6252C11.6418 23.5329 10.6154 22.6154 10.6154 20.7692C10.6154 19.2 11.5329 17.9132 13.0098 17.9132ZM13.0098 18.9231C12.2714 18.9231 11.9132 19.7538 11.9132 20.7692C11.9132 21.8769 12.2714 22.6154 13.0098 22.6154C13.7483 22.6154 14.1342 21.7846 14.1342 20.7692C14.1342 19.7538 13.7483 18.9231 13.0098 18.9231Z" fill="#7658F2"/>
</g>
<defs>
<clipPath id="clip0_1280_8134">
<rect width="24" height="24" fill="white" transform="translate(6 6)"/>
</clipPath>
</defs>
</svg>
