<svg width="15" height="16" viewBox="0 0 15 16" fill="none" xmlns="http://www.w3.org/2000/svg">
<path d="M10.3655 1.90259H4.26817V4.95127H10.3655V1.90259ZM8.23146 4.95127L10.0607 11.9632H4.57304L6.40225 4.95127M12.1947 14.0973H2.43896V12.8778L4.26817 11.9632H10.3655L12.1947 12.8778V14.0973ZM3.65844 7.70118H10.9753H3.65844ZM6.24982 1.90259V3.12206V1.90259ZM8.38389 1.90259V3.12206V1.90259Z" fill="white"/>
<path d="M8.23146 4.95127L10.0607 11.9632H4.57304L6.40225 4.95127M3.65844 7.70118H10.9753M6.24982 1.90259V3.12206M8.38389 1.90259V3.12206M10.3655 1.90259H4.26817V4.95127H10.3655V1.90259ZM12.1947 14.0973H2.43896V12.8778L4.26817 11.9632H10.3655L12.1947 12.8778V14.0973Z" stroke="white" stroke-width="1.21947" stroke-miterlimit="2" stroke-linecap="round" stroke-linejoin="round"/>
</svg>
