<svg width="16" height="16" viewBox="0 0 16 16" fill="none" xmlns="http://www.w3.org/2000/svg">
<path d="M14.3163 3.36818C14.2449 2.9474 14.0445 2.55923 13.7427 2.25745C13.4409 1.95566 13.0527 1.75519 12.6319 1.6838C10.6088 1.34068 6.79507 1.1838 3.99007 3.99005C1.18507 6.7963 1.3407 10.6088 1.68382 12.6319C1.7554 13.0531 1.95633 13.4416 2.25872 13.7435C2.56112 14.0453 2.94998 14.2455 3.37132 14.3163C4.08017 14.4372 4.79787 14.4987 5.51695 14.5001C7.52257 14.5001 10.0201 14.0001 12.0101 12.0101C14.8157 9.20505 14.6594 5.3913 14.3163 3.36818ZM10.4657 2.49318C11.1361 2.49554 11.8051 2.55408 12.4657 2.66818C12.682 2.70513 12.8815 2.8084 13.0366 2.9637C13.1917 3.11901 13.2947 3.31866 13.3313 3.53505C13.4603 4.28245 13.5168 5.04055 13.5001 5.7988L10.2007 2.50005C10.2882 2.49505 10.3751 2.4938 10.4657 2.4938V2.49318ZM3.53507 13.3313C3.31871 13.2945 3.11913 13.1914 2.96394 13.0362C2.80875 12.881 2.70562 12.6814 2.66882 12.4651C2.53987 11.7177 2.48336 10.9596 2.50007 10.2013L5.79882 13.5001C5.04056 13.5171 4.28243 13.4606 3.53507 13.3313ZM11.3038 11.3038C10.5782 12.0288 9.22445 13.0369 7.0932 13.3832L2.61695 8.90693C2.9632 6.77568 3.97132 5.42193 4.69632 4.6963C5.42132 3.97068 6.77507 2.96255 8.90632 2.6163L13.3832 7.09318C13.0369 9.22443 12.0288 10.5782 11.3038 11.3038ZM10.3526 5.64755C10.4463 5.74131 10.4989 5.86844 10.4989 6.00099C10.4989 6.13354 10.4463 6.26067 10.3526 6.35443L9.45632 7.25005L9.85257 7.6463C9.90198 7.69202 9.94165 7.74724 9.9692 7.80866C9.99675 7.87007 10.0116 7.93642 10.0129 8.00372C10.0142 8.07102 10.0019 8.13788 9.97671 8.20031C9.95153 8.26274 9.91401 8.31944 9.86639 8.36701C9.81878 8.41459 9.76204 8.45206 9.69959 8.47718C9.63715 8.5023 9.57027 8.51455 9.50297 8.5132C9.43567 8.51185 9.36934 8.49693 9.30795 8.46932C9.24656 8.44172 9.19137 8.402 9.1457 8.35255L8.75007 7.95693L7.95695 8.75005L8.3532 9.1463C8.40265 9.19198 8.44236 9.24716 8.46997 9.30855C8.49757 9.36994 8.5125 9.43628 8.51385 9.50357C8.5152 9.57087 8.50295 9.63775 8.47783 9.7002C8.45271 9.76265 8.41523 9.81938 8.36766 9.867C8.32008 9.91462 8.26338 9.95214 8.20095 9.97732C8.13853 10.0025 8.07166 10.0148 8.00436 10.0135C7.93706 10.0122 7.87072 9.99736 7.8093 9.9698C7.74788 9.94225 7.69266 9.90259 7.64695 9.85318L7.25007 9.4563L6.35382 10.3526C6.30786 10.4009 6.25267 10.4396 6.19151 10.4663C6.13036 10.4931 6.06447 10.5073 5.99774 10.5081C5.931 10.509 5.86477 10.4965 5.80295 10.4713C5.74113 10.4462 5.68497 10.4089 5.63778 10.3617C5.59059 10.3145 5.55332 10.2584 5.52818 10.1965C5.50304 10.1347 5.49052 10.0685 5.49138 10.0018C5.49223 9.93503 5.50644 9.86915 5.53315 9.80799C5.55987 9.74684 5.59857 9.69165 5.64695 9.64568L6.54382 8.75005L6.14757 8.3538C6.0599 8.25888 6.01238 8.13371 6.01497 8.00452C6.01757 7.87534 6.07007 7.75217 6.16148 7.66084C6.25288 7.56952 6.3761 7.51712 6.50529 7.51465C6.63448 7.51217 6.75961 7.5598 6.85445 7.64755L7.2507 8.0438L8.0432 7.25005L7.64695 6.8538C7.55919 6.75896 7.51156 6.63383 7.51404 6.50464C7.51652 6.37545 7.56891 6.25224 7.66024 6.16083C7.75157 6.06943 7.87473 6.01692 8.00392 6.01433C8.13311 6.01174 8.25828 6.05926 8.3532 6.14693L8.75007 6.5438L9.64632 5.64755C9.74006 5.55405 9.86705 5.50154 9.99945 5.50154C10.1318 5.50154 10.2588 5.55405 10.3526 5.64755Z" fill="#F99034"/>
</svg>
