<svg width="110" height="110" viewBox="0 0 110 110" fill="none" xmlns="http://www.w3.org/2000/svg">
<g filter="url(#filter0_d_2077_35518)">
<circle cx="55" cy="53" r="50" fill="white"/>
<circle cx="55" cy="53" r="49" stroke="#0079E9" stroke-width="2"/>
</g>
<path d="M47 50.3334V47.6667C47 43.2534 48.3333 39.6667 55 39.6667C61.6667 39.6667 63 43.2534 63 47.6667V50.3334" stroke="#0079E9" stroke-width="1.5" stroke-linecap="round" stroke-linejoin="round"/>
<path d="M55.0003 61.6667C56.8413 61.6667 58.3337 60.1743 58.3337 58.3333C58.3337 56.4924 56.8413 55 55.0003 55C53.1594 55 51.667 56.4924 51.667 58.3333C51.667 60.1743 53.1594 61.6667 55.0003 61.6667Z" stroke="#0079E9" stroke-width="1.5" stroke-linecap="round" stroke-linejoin="round"/>
<path d="M61.667 66.3333H48.3337C43.0003 66.3333 41.667 64.9999 41.667 59.6666V56.9999C41.667 51.6666 43.0003 50.3333 48.3337 50.3333H61.667C67.0003 50.3333 68.3337 51.6666 68.3337 56.9999V59.6666C68.3337 64.9999 67.0003 66.3333 61.667 66.3333Z" stroke="#0079E9" stroke-width="1.5" stroke-linecap="round" stroke-linejoin="round"/>
<defs>
<filter id="filter0_d_2077_35518" x="0" y="0" width="110" height="110" filterUnits="userSpaceOnUse" color-interpolation-filters="sRGB">
<feFlood flood-opacity="0" result="BackgroundImageFix"/>
<feColorMatrix in="SourceAlpha" type="matrix" values="0 0 0 0 0 0 0 0 0 0 0 0 0 0 0 0 0 0 127 0" result="hardAlpha"/>
<feOffset dy="2"/>
<feGaussianBlur stdDeviation="2.5"/>
<feComposite in2="hardAlpha" operator="out"/>
<feColorMatrix type="matrix" values="0 0 0 0 0 0 0 0 0 0 0 0 0 0 0 0 0 0 0.1 0"/>
<feBlend mode="normal" in2="BackgroundImageFix" result="effect1_dropShadow_2077_35518"/>
<feBlend mode="normal" in="SourceGraphic" in2="effect1_dropShadow_2077_35518" result="shape"/>
</filter>
</defs>
</svg>
