<svg width="26" height="22" viewBox="0 0 26 22" fill="none" xmlns="http://www.w3.org/2000/svg">
<path fill-rule="evenodd" clip-rule="evenodd" d="M0.604248 7.75062C0.604248 3.92493 3.96053 0.979248 7.90008 0.979248C9.93083 0.979248 11.7178 1.93144 13.0001 3.16351C14.2824 1.93144 16.0693 0.979248 18.1001 0.979248C22.0396 0.979248 25.3959 3.92493 25.3959 7.75062C25.3959 10.3713 24.2783 12.6759 22.73 14.6239C21.1843 16.5686 19.1625 18.2191 17.2267 19.5602C16.4873 20.0725 15.7392 20.545 15.0546 20.8936C14.4118 21.221 13.6726 21.5209 13.0001 21.5209C12.3275 21.5209 11.5884 21.221 10.9455 20.8936C10.2609 20.545 9.5129 20.0725 8.7735 19.5602C6.83765 18.2191 4.81582 16.5686 3.27016 14.6239C1.72183 12.6759 0.604248 10.3713 0.604248 7.75062ZM7.90008 3.10425C4.95448 3.10425 2.72925 5.27047 2.72925 7.75062C2.72925 9.73891 3.57328 11.5901 4.93371 13.3017C6.29681 15.0167 8.13089 16.5299 9.98363 17.8134C10.6847 18.2991 11.345 18.7124 11.9099 19.0001C12.5165 19.309 12.8679 19.3959 13.0001 19.3959C13.1323 19.3959 13.4837 19.309 14.0903 19.0001C14.6551 18.7124 15.3155 18.2991 16.0165 17.8134C17.8693 16.5299 19.7033 15.0167 21.0665 13.3017C22.4269 11.5901 23.2709 9.73891 23.2709 7.75062C23.2709 5.27047 21.0457 3.10425 18.1001 3.10425C16.4084 3.10425 14.8287 4.11493 13.8424 5.39772C13.6413 5.65929 13.33 5.81258 13.0001 5.81258C12.6701 5.81258 12.3589 5.65929 12.1578 5.39772C11.1715 4.11493 9.59179 3.10425 7.90008 3.10425Z" fill="#F8911E"/>
</svg>
