<svg width="36" height="36" viewBox="0 0 36 36" fill="none" xmlns="http://www.w3.org/2000/svg">
<rect width="36" height="36" rx="18" fill="#F3F3F3"/>
<path d="M13.5 13.6881C13.5 13.6881 13.5675 12.1412 15.0722 10.9009C15.9656 10.1645 17.0386 9.95118 18 9.93805C18.878 9.92727 19.6627 10.0759 20.1319 10.3046C20.9339 10.6974 22.5 11.6537 22.5 13.6881C22.5 15.8288 21.1322 16.7991 19.5773 17.8684C18.0225 18.9376 17.625 19.9862 17.625 21.1881" stroke="#7658F2" stroke-width="1.875" stroke-miterlimit="10" stroke-linecap="round"/>
<path d="M17.625 26.25C18.4534 26.25 19.125 25.5784 19.125 24.75C19.125 23.9216 18.4534 23.25 17.625 23.25C16.7966 23.25 16.125 23.9216 16.125 24.75C16.125 25.5784 16.7966 26.25 17.625 26.25Z" fill="#7658F2"/>
</svg>
