<svg width="36" height="36" viewBox="0 0 36 36" fill="none" xmlns="http://www.w3.org/2000/svg">
<rect width="36" height="36" rx="18" fill="#F3F3F3"/>
<path d="M19 9C16.6131 9 14.3239 9.94821 12.636 11.636C10.9482 13.3239 10 15.6131 10 18H7L10.89 21.89L10.96 22.03L15 18H12C12 14.13 15.13 11 19 11C22.87 11 26 14.13 26 18C26 21.87 22.87 25 19 25C17.07 25 15.32 24.21 14.06 22.94L12.64 24.36C13.4734 25.198 14.4645 25.8627 15.5561 26.3158C16.6476 26.769 17.8181 27.0015 19 27C21.3869 27 23.6761 26.0518 25.364 24.364C27.0518 22.6761 28 20.3869 28 18C28 15.6131 27.0518 13.3239 25.364 11.636C23.6761 9.94821 21.3869 9 19 9ZM18 14V19L22.25 21.52L23.02 20.23L19.5 18.14V14H18Z" fill="#7658F2"/>
</svg>
