<svg width="93" height="40" viewBox="0 0 93 40" fill="none" xmlns="http://www.w3.org/2000/svg">
<rect width="40" height="40" rx="20" fill="#E5DCFC"/>
<path fill-rule="evenodd" clip-rule="evenodd" d="M29.3141 20.9585L24.9131 26.7073C22.9219 29.3083 21.9263 30.6088 20.6272 30.8498C20.2126 30.9268 19.7874 30.9268 19.3728 30.8498C18.0737 30.6088 17.0781 29.3083 15.0869 26.7073L10.6859 20.9585C9.3397 19.2 8.66658 18.3207 8.57623 17.3322C8.54686 17.0109 8.56287 16.6871 8.62379 16.3703C8.81121 15.3955 9.56777 14.5869 11.0809 12.9698L12.6105 11.335C13.4126 10.4778 13.8136 10.0492 14.3143 9.78138C14.4799 9.69284 14.6523 9.61802 14.8301 9.55765C15.3678 9.375 15.9547 9.375 17.1286 9.375H22.8714C24.0453 9.375 24.6322 9.375 25.1699 9.55765C25.3477 9.61802 25.5201 9.69284 25.6857 9.78138C26.1864 10.0492 26.5874 10.4778 27.3895 11.335L27.3895 11.335L28.9191 12.9698C30.4322 14.5869 31.1888 15.3955 31.3762 16.3703C31.4371 16.6871 31.4531 17.0109 31.4238 17.3322C31.3334 18.3207 30.6603 19.2 29.3141 20.9585ZM18.3076 13.125L18.1742 13.1249C17.4067 13.1243 16.801 13.1238 16.2367 13.3253C16.0515 13.3915 15.8723 13.4734 15.7011 13.5703C15.1795 13.8652 14.7837 14.3236 14.2821 14.9046L14.1949 15.0055L13.0409 16.3399C12.752 16.6739 12.7354 17.1642 13.0011 17.517L15.5011 20.8373C15.8125 21.251 16.4003 21.3338 16.8139 21.0224C17.2275 20.7109 17.3104 20.1232 16.9989 19.7095L14.9542 16.9939L15.6131 16.2321C16.2446 15.5019 16.4214 15.317 16.624 15.2024C16.7019 15.1584 16.7833 15.1211 16.8675 15.0911C17.0867 15.0128 17.3423 15 18.3076 15H20C20.5178 15 20.9375 14.5803 20.9375 14.0625C20.9375 13.5447 20.5178 13.125 20 13.125H18.3076Z" fill="#8204FF"/>
<path fill-rule="evenodd" clip-rule="evenodd" d="M29.3141 20.9585L24.9131 26.7073C22.9219 29.3083 21.9263 30.6088 20.6272 30.8498C20.2126 30.9268 19.7874 30.9268 19.3728 30.8498C18.0737 30.6088 17.0781 29.3083 15.0869 26.7073L10.6859 20.9585C9.3397 19.2 8.66658 18.3207 8.57623 17.3322C8.54686 17.0109 8.56287 16.6871 8.62379 16.3703C8.81121 15.3955 9.56777 14.5869 11.0809 12.9698L12.6105 11.335C13.4126 10.4778 13.8136 10.0492 14.3143 9.78138C14.4799 9.69284 14.6523 9.61802 14.8301 9.55765C15.3678 9.375 15.9547 9.375 17.1286 9.375H22.8714C24.0453 9.375 24.6322 9.375 25.1699 9.55765C25.3477 9.61802 25.5201 9.69284 25.6857 9.78138C26.1864 10.0492 26.5874 10.4778 27.3895 11.335L27.3895 11.335L28.9191 12.9698C30.4322 14.5869 31.1888 15.3955 31.3762 16.3703C31.4371 16.6871 31.4531 17.0109 31.4238 17.3322C31.3334 18.3207 30.6603 19.2 29.3141 20.9585ZM18.3076 13.125L18.1742 13.1249C17.4067 13.1243 16.801 13.1238 16.2367 13.3253C16.0515 13.3915 15.8723 13.4734 15.7011 13.5703C15.1795 13.8652 14.7837 14.3236 14.2821 14.9046L14.1949 15.0055L13.0409 16.3399C12.752 16.6739 12.7354 17.1642 13.0011 17.517L15.5011 20.8373C15.8125 21.251 16.4003 21.3338 16.8139 21.0224C17.2275 20.7109 17.3104 20.1232 16.9989 19.7095L14.9542 16.9939L15.6131 16.2321C16.2446 15.5019 16.4214 15.317 16.624 15.2024C16.7019 15.1584 16.7833 15.1211 16.8675 15.0911C17.0867 15.0128 17.3423 15 18.3076 15H20C20.5178 15 20.9375 14.5803 20.9375 14.0625C20.9375 13.5447 20.5178 13.125 20 13.125H18.3076Z" fill="black" fill-opacity="0.2"/>
<path d="M54.0098 23.8066L56.8418 12.7812H58.3262L58.1602 15.623L55.1328 27H53.5898L54.0098 23.8066ZM51.8906 12.7812L54.1855 23.7188L54.3906 27H52.75L49.459 12.7812H51.8906ZM61.5391 23.6895L63.8047 12.7812H66.2461L62.9551 27H61.3145L61.5391 23.6895ZM58.9023 12.7812L61.7051 23.8359L62.1152 27H60.5723L57.5938 15.623L57.4375 12.7812H58.9023ZM70.3477 16.4336V27H67.9844V16.4336H70.3477ZM67.8281 13.6602C67.8281 13.3021 67.9453 13.0059 68.1797 12.7715C68.4206 12.5306 68.7526 12.4102 69.1758 12.4102C69.5924 12.4102 69.9212 12.5306 70.1621 12.7715C70.403 13.0059 70.5234 13.3021 70.5234 13.6602C70.5234 14.0117 70.403 14.3047 70.1621 14.5391C69.9212 14.7734 69.5924 14.8906 69.1758 14.8906C68.7526 14.8906 68.4206 14.7734 68.1797 14.5391C67.9453 14.3047 67.8281 14.0117 67.8281 13.6602ZM81.0996 25.125V27H73.2285V25.125H81.0996ZM80.8848 17.8984L74.0293 27H72.5059V25.4863L79.3223 16.4336H80.8848V17.8984ZM79.9766 16.4336V18.3086H72.623V16.4336H79.9766ZM82.3789 21.834V21.6094C82.3789 20.8477 82.4896 20.1413 82.7109 19.4902C82.9323 18.8327 83.2513 18.263 83.668 17.7812C84.0911 17.293 84.6055 16.9154 85.2109 16.6484C85.8229 16.375 86.513 16.2383 87.2812 16.2383C88.056 16.2383 88.7461 16.375 89.3516 16.6484C89.9635 16.9154 90.4811 17.293 90.9043 17.7812C91.3275 18.263 91.6497 18.8327 91.8711 19.4902C92.0924 20.1413 92.2031 20.8477 92.2031 21.6094V21.834C92.2031 22.5957 92.0924 23.3021 91.8711 23.9531C91.6497 24.6042 91.3275 25.1738 90.9043 25.6621C90.4811 26.1439 89.9668 26.5215 89.3613 26.7949C88.7559 27.0618 88.069 27.1953 87.3008 27.1953C86.526 27.1953 85.8327 27.0618 85.2207 26.7949C84.6152 26.5215 84.1009 26.1439 83.6777 25.6621C83.2546 25.1738 82.9323 24.6042 82.7109 23.9531C82.4896 23.3021 82.3789 22.5957 82.3789 21.834ZM84.7324 21.6094V21.834C84.7324 22.3092 84.7812 22.7585 84.8789 23.1816C84.9766 23.6048 85.1296 23.9759 85.3379 24.2949C85.5462 24.6139 85.8132 24.8646 86.1387 25.0469C86.4642 25.2292 86.8516 25.3203 87.3008 25.3203C87.737 25.3203 88.1146 25.2292 88.4336 25.0469C88.7591 24.8646 89.026 24.6139 89.2344 24.2949C89.4427 23.9759 89.5957 23.6048 89.6934 23.1816C89.7975 22.7585 89.8496 22.3092 89.8496 21.834V21.6094C89.8496 21.1406 89.7975 20.6979 89.6934 20.2812C89.5957 19.8581 89.4395 19.4837 89.2246 19.1582C89.0163 18.8327 88.7493 18.5788 88.4238 18.3965C88.1048 18.2077 87.724 18.1133 87.2812 18.1133C86.8385 18.1133 86.4544 18.2077 86.1289 18.3965C85.8099 18.5788 85.5462 18.8327 85.3379 19.1582C85.1296 19.4837 84.9766 19.8581 84.8789 20.2812C84.7812 20.6979 84.7324 21.1406 84.7324 21.6094Z" fill="black"/>
</svg>
