<svg width="14" height="15" viewBox="0 0 14 15" fill="none" xmlns="http://www.w3.org/2000/svg">
<path fill-rule="evenodd" clip-rule="evenodd" d="M8.16835 2.15068C7.51543 1.52416 6.48454 1.52416 5.83162 2.15068L2.36179 5.48018C2.27677 5.56175 2.21959 5.66802 2.19834 5.78391C1.78274 8.0503 1.75206 10.3705 2.10759 12.6471L2.19198 13.1875H4.42433V8.52899C4.42433 8.21833 4.67617 7.96649 4.98683 7.96649H9.01314C9.3238 7.96649 9.57564 8.21833 9.57564 8.52899V13.1875H11.808L11.8924 12.6471C12.2479 10.3705 12.2172 8.0503 11.8016 5.78391C11.7804 5.66802 11.7232 5.56175 11.6382 5.48018L8.16835 2.15068ZM5.05271 1.33894C6.14092 0.294736 7.85905 0.294736 8.94726 1.33894L12.4171 4.66844C12.6725 4.91353 12.8443 5.2328 12.9082 5.58099C13.3466 7.97171 13.3789 10.4192 13.0039 12.8207L12.8683 13.6888C12.8123 14.0478 12.5031 14.3125 12.1397 14.3125H9.01314C8.70248 14.3125 8.45064 14.0606 8.45064 13.75V9.09149H5.54933V13.75C5.54933 14.0606 5.29749 14.3125 4.98683 14.3125H1.86028C1.49692 14.3125 1.18771 14.0478 1.13164 13.6888L0.996067 12.8207C0.621031 10.4192 0.653391 7.97171 1.09179 5.58099C1.15564 5.2328 1.32745 4.91353 1.58288 4.66843L5.05271 1.33894Z" fill="#FED538"/>
</svg>
