<svg width="18" height="18" viewBox="0 0 18 18" fill="none" xmlns="http://www.w3.org/2000/svg">
<path d="M9.64157 8.35714C9.64157 8.18665 9.57384 8.02313 9.45328 7.90257C9.33272 7.78202 9.16921 7.71429 8.99871 7.71429C8.82822 7.71429 8.66471 7.78202 8.54415 7.90257C8.42359 8.02313 8.35586 8.18665 8.35586 8.35714V12.2143C8.35586 12.3848 8.42359 12.5483 8.54415 12.6689C8.66471 12.7894 8.82822 12.8571 8.99871 12.8571C9.16921 12.8571 9.33272 12.7894 9.45328 12.6689C9.57384 12.5483 9.64157 12.3848 9.64157 12.2143V8.35714ZM9.963 5.78571C9.963 6.04129 9.86147 6.28639 9.68076 6.46711C9.50004 6.64783 9.25493 6.74936 8.99936 6.74936C8.74378 6.74936 8.49868 6.64783 8.31796 6.46711C8.13724 6.28639 8.03571 6.04129 8.03571 5.78571C8.03571 5.53031 8.13717 5.28537 8.31777 5.10477C8.49837 4.92417 8.74331 4.82271 8.99871 4.82271C9.25412 4.82271 9.49906 4.92417 9.67966 5.10477C9.86026 5.28537 9.963 5.53031 9.963 5.78571ZM9 0C6.61305 0 4.32387 0.948211 2.63604 2.63604C0.948211 4.32387 0 6.61305 0 9C0 11.3869 0.948211 13.6761 2.63604 15.364C4.32387 17.0518 6.61305 18 9 18C11.3869 18 13.6761 17.0518 15.364 15.364C17.0518 13.6761 18 11.3869 18 9C18 6.61305 17.0518 4.32387 15.364 2.63604C13.6761 0.948211 11.3869 0 9 0ZM1.28571 9C1.28571 7.98695 1.48525 6.98381 1.87293 6.04787C2.26061 5.11193 2.82884 4.26151 3.54518 3.54518C4.26151 2.82884 5.11193 2.26061 6.04787 1.87293C6.98381 1.48525 7.98695 1.28571 9 1.28571C10.0131 1.28571 11.0162 1.48525 11.9521 1.87293C12.8881 2.26061 13.7385 2.82884 14.4548 3.54518C15.1712 4.26151 15.7394 5.11193 16.1271 6.04787C16.5147 6.98381 16.7143 7.98695 16.7143 9C16.7143 11.046 15.9015 13.0081 14.4548 14.4548C13.0081 15.9015 11.046 16.7143 9 16.7143C6.95404 16.7143 4.99189 15.9015 3.54518 14.4548C2.09847 13.0081 1.28571 11.046 1.28571 9Z" fill="#757575"/>
</svg>
