<svg width="13" height="14" viewBox="0 0 13 14" fill="none" xmlns="http://www.w3.org/2000/svg">
<path d="M6.5 0.5C2.912 0.5 0 3.412 0 7C0 10.588 2.912 13.5 6.5 13.5C10.088 13.5 13 10.588 13 7C13 3.412 10.088 0.5 6.5 0.5ZM3.2955 11.082C3.575 10.497 5.278 9.925 6.5 9.925C7.722 9.925 9.4315 10.497 9.7045 11.082C8.8205 11.784 7.709 12.2 6.5 12.2C5.291 12.2 4.1795 11.784 3.2955 11.082ZM10.634 10.1395C9.7045 9.0085 7.449 8.625 6.5 8.625C5.551 8.625 3.2955 9.0085 2.366 10.1395C1.703 9.2685 1.3 8.183 1.3 7C1.3 4.1335 3.6335 1.8 6.5 1.8C9.3665 1.8 11.7 4.1335 11.7 7C11.7 8.183 11.297 9.2685 10.634 10.1395ZM6.5 3.1C5.239 3.1 4.225 4.114 4.225 5.375C4.225 6.636 5.239 7.65 6.5 7.65C7.761 7.65 8.775 6.636 8.775 5.375C8.775 4.114 7.761 3.1 6.5 3.1ZM6.5 6.35C5.9605 6.35 5.525 5.9145 5.525 5.375C5.525 4.8355 5.9605 4.4 6.5 4.4C7.0395 4.4 7.475 4.8355 7.475 5.375C7.475 5.9145 7.0395 6.35 6.5 6.35Z" fill="#F8911E"/>
</svg>
