<svg width="16" height="16" viewBox="0 0 16 16" fill="none" xmlns="http://www.w3.org/2000/svg">
<g clip-path="url(#clip0_197_483)">
<path d="M7.99992 1.33337C4.31992 1.33337 1.33325 4.32004 1.33325 8.00004C1.33325 11.68 4.31992 14.6667 7.99992 14.6667C11.6799 14.6667 14.6666 11.68 14.6666 8.00004C14.6666 4.32004 11.6799 1.33337 7.99992 1.33337ZM4.71325 12.1867C4.99992 11.5867 6.74658 11 7.99992 11C9.25325 11 11.0066 11.5867 11.2866 12.1867C10.3799 12.9067 9.23992 13.3334 7.99992 13.3334C6.75992 13.3334 5.61992 12.9067 4.71325 12.1867ZM12.2399 11.22C11.2866 10.06 8.97325 9.66671 7.99992 9.66671C7.02659 9.66671 4.71325 10.06 3.75992 11.22C3.07992 10.3267 2.66659 9.21337 2.66659 8.00004C2.66659 5.06004 5.05992 2.66671 7.99992 2.66671C10.9399 2.66671 13.3333 5.06004 13.3333 8.00004C13.3333 9.21337 12.9199 10.3267 12.2399 11.22ZM7.99992 4.00004C6.70658 4.00004 5.66658 5.04004 5.66658 6.33337C5.66658 7.62671 6.70658 8.66671 7.99992 8.66671C9.29325 8.66671 10.3333 7.62671 10.3333 6.33337C10.3333 5.04004 9.29325 4.00004 7.99992 4.00004ZM7.99992 7.33337C7.44658 7.33337 6.99992 6.88671 6.99992 6.33337C6.99992 5.78004 7.44658 5.33337 7.99992 5.33337C8.55325 5.33337 8.99992 5.78004 8.99992 6.33337C8.99992 6.88671 8.55325 7.33337 7.99992 7.33337Z" fill="#F8911E"/>
</g>
<defs>
<clipPath id="clip0_197_483">
<rect width="16" height="16" fill="white"/>
</clipPath>
</defs>
</svg>
