<svg width="36" height="36" viewBox="0 0 36 36" fill="none" xmlns="http://www.w3.org/2000/svg">
<rect width="36" height="36" rx="18" fill="#F3F3F3"/>
<path d="M17.9998 26.3327C22.6022 26.3327 26.3332 22.6017 26.3332 17.9993C26.3332 13.397 22.6022 9.66602 17.9998 9.66602C13.3975 9.66602 9.6665 13.397 9.6665 17.9993C9.6665 22.6017 13.3975 26.3327 17.9998 26.3327Z" stroke="#7658F2" stroke-width="1.5" stroke-linecap="round" stroke-linejoin="round"/>
<path d="M14.6667 10.5H15.5C13.875 15.3667 13.875 20.6333 15.5 25.5H14.6667" stroke="#7658F2" stroke-width="1.5" stroke-linecap="round" stroke-linejoin="round"/>
<path d="M20.5 10.5C22.125 15.3667 22.125 20.6333 20.5 25.5" stroke="#7658F2" stroke-width="1.5" stroke-linecap="round" stroke-linejoin="round"/>
<path d="M10.5 21.3333V20.5C15.3667 22.125 20.6333 22.125 25.5 20.5V21.3333" stroke="#7658F2" stroke-width="1.5" stroke-linecap="round" stroke-linejoin="round"/>
<path d="M10.5 15.5C15.3667 13.875 20.6333 13.875 25.5 15.5" stroke="#7658F2" stroke-width="1.5" stroke-linecap="round" stroke-linejoin="round"/>
</svg>
