<svg width="15" height="15" viewBox="0 0 15 15" fill="none" xmlns="http://www.w3.org/2000/svg">
<path d="M1.25 7.5H13.75M1.25 7.5C1.25 10.9518 4.04822 13.75 7.5 13.75M1.25 7.5C1.25 4.04822 4.04822 1.25 7.5 1.25M13.75 7.5C13.75 10.9518 10.9518 13.75 7.5 13.75M13.75 7.5C13.75 4.04822 10.9518 1.25 7.5 1.25M7.5 1.25C9.0633 2.96147 9.95172 5.18252 10 7.5C9.95172 9.81748 9.0633 12.0385 7.5 13.75M7.5 1.25C5.9367 2.96147 5.04828 5.18252 5 7.5C5.04828 9.81748 5.9367 12.0385 7.5 13.75" stroke="#493EE3" stroke-linecap="round" stroke-linejoin="round"/>
</svg>
