<svg width="12" height="15" viewBox="0 0 12 15" fill="none" xmlns="http://www.w3.org/2000/svg">
<path d="M10.625 13.8125H7.34055C7.89229 13.3198 8.4126 12.7931 8.89844 12.2354C10.7213 10.1389 11.6875 7.92891 11.6875 5.84375C11.6875 4.29389 11.0718 2.80751 9.97591 1.71159C8.87999 0.615679 7.39361 0 5.84375 0C4.29389 0 2.80751 0.615679 1.71159 1.71159C0.615679 2.80751 0 4.29389 0 5.84375C0 7.92891 0.963555 10.1389 2.78906 12.2354C3.2749 12.7931 3.79521 13.3198 4.34695 13.8125H1.0625C0.921604 13.8125 0.786478 13.8685 0.68685 13.9681C0.587221 14.0677 0.53125 14.2029 0.53125 14.3438C0.53125 14.4846 0.587221 14.6198 0.68685 14.7194C0.786478 14.819 0.921604 14.875 1.0625 14.875H10.625C10.7659 14.875 10.901 14.819 11.0007 14.7194C11.1003 14.6198 11.1562 14.4846 11.1562 14.3438C11.1562 14.2029 11.1003 14.0677 11.0007 13.9681C10.901 13.8685 10.7659 13.8125 10.625 13.8125ZM1.0625 5.84375C1.0625 4.57568 1.56624 3.35955 2.4629 2.4629C3.35955 1.56624 4.57568 1.0625 5.84375 1.0625C7.11182 1.0625 8.32795 1.56624 9.2246 2.4629C10.1213 3.35955 10.625 4.57568 10.625 5.84375C10.625 9.64418 6.94145 12.8164 5.84375 13.6797C4.74605 12.8164 1.0625 9.64418 1.0625 5.84375ZM8.5 5.84375C8.5 5.31839 8.34421 4.80483 8.05234 4.36802C7.76047 3.9312 7.34562 3.59074 6.86025 3.38969C6.37489 3.18865 5.8408 3.13605 5.32554 3.23854C4.81028 3.34103 4.33698 3.59401 3.9655 3.9655C3.59401 4.33698 3.34103 4.81028 3.23854 5.32554C3.13605 5.8408 3.18865 6.37489 3.38969 6.86025C3.59074 7.34562 3.9312 7.76047 4.36802 8.05234C4.80483 8.34421 5.31839 8.5 5.84375 8.5C6.54823 8.5 7.22386 8.22015 7.722 7.722C8.22015 7.22386 8.5 6.54823 8.5 5.84375ZM4.25 5.84375C4.25 5.52854 4.34347 5.2204 4.5186 4.95831C4.69372 4.69622 4.94263 4.49194 5.23385 4.37132C5.52507 4.25069 5.84552 4.21913 6.15468 4.28062C6.46383 4.34212 6.74781 4.49391 6.9707 4.7168C7.19359 4.93969 7.34538 5.22367 7.40688 5.53282C7.46837 5.84198 7.43681 6.16243 7.31618 6.45365C7.19556 6.74487 6.99128 6.99378 6.72919 7.1689C6.4671 7.34403 6.15896 7.4375 5.84375 7.4375C5.42106 7.4375 5.01568 7.26959 4.7168 6.9707C4.41791 6.67182 4.25 6.26644 4.25 5.84375Z" fill="white"/>
</svg>
