<svg width="13" height="15" viewBox="0 0 13 15" fill="none" xmlns="http://www.w3.org/2000/svg">
<path d="M11.1565 13.8125H7.87204C8.42378 13.3198 8.9441 12.7931 9.42993 12.2354C11.2528 10.1389 12.219 7.92891 12.219 5.84375C12.219 4.29389 11.6033 2.80751 10.5074 1.71159C9.41148 0.615679 7.9251 0 6.37524 0C4.82539 0 3.339 0.615679 2.24309 1.71159C1.14717 2.80751 0.531494 4.29389 0.531494 5.84375C0.531494 7.92891 1.49505 10.1389 3.32056 12.2354C3.80639 12.7931 4.32671 13.3198 4.87845 13.8125H1.59399C1.4531 13.8125 1.31797 13.8685 1.21834 13.9681C1.11872 14.0677 1.06274 14.2029 1.06274 14.3438C1.06274 14.4846 1.11872 14.6198 1.21834 14.7194C1.31797 14.819 1.4531 14.875 1.59399 14.875H11.1565C11.2974 14.875 11.4325 14.819 11.5321 14.7194C11.6318 14.6198 11.6877 14.4846 11.6877 14.3438C11.6877 14.2029 11.6318 14.0677 11.5321 13.9681C11.4325 13.8685 11.2974 13.8125 11.1565 13.8125ZM1.59399 5.84375C1.59399 4.57568 2.09773 3.35955 2.99439 2.4629C3.89105 1.56624 5.10718 1.0625 6.37524 1.0625C7.64331 1.0625 8.85944 1.56624 9.7561 2.4629C10.6528 3.35955 11.1565 4.57568 11.1565 5.84375C11.1565 9.64418 7.47294 12.8164 6.37524 13.6797C5.27755 12.8164 1.59399 9.64418 1.59399 5.84375ZM9.03149 5.84375C9.03149 5.31839 8.87571 4.80483 8.58384 4.36802C8.29196 3.9312 7.87711 3.59074 7.39175 3.38969C6.90638 3.18865 6.3723 3.13605 5.85704 3.23854C5.34177 3.34103 4.86847 3.59401 4.49699 3.9655C4.12551 4.33698 3.87252 4.81028 3.77003 5.32554C3.66754 5.8408 3.72014 6.37489 3.92119 6.86025C4.12223 7.34562 4.46269 7.76047 4.89951 8.05234C5.33633 8.34421 5.84989 8.5 6.37524 8.5C7.07973 8.5 7.75535 8.22015 8.2535 7.722C8.75164 7.22386 9.03149 6.54823 9.03149 5.84375ZM4.78149 5.84375C4.78149 5.52854 4.87497 5.2204 5.05009 4.95831C5.22521 4.69622 5.47412 4.49194 5.76534 4.37132C6.05656 4.25069 6.37701 4.21913 6.68617 4.28062C6.99533 4.34212 7.27931 4.49391 7.5022 4.7168C7.72509 4.93969 7.87688 5.22367 7.93837 5.53282C7.99987 5.84198 7.9683 6.16243 7.84768 6.45365C7.72705 6.74487 7.52277 6.99378 7.26068 7.1689C6.99859 7.34403 6.69046 7.4375 6.37524 7.4375C5.95256 7.4375 5.54718 7.26959 5.24829 6.9707C4.94941 6.67182 4.78149 6.26644 4.78149 5.84375Z" fill="#493EE3"/>
</svg>
