<svg width="14" height="16" viewBox="0 0 14 16" fill="none" xmlns="http://www.w3.org/2000/svg">
<path d="M7 9.5C8.24264 9.5 9.25 8.49264 9.25 7.25C9.25 6.00736 8.24264 5 7 5C5.75736 5 4.75 6.00736 4.75 7.25C4.75 8.49264 5.75736 9.5 7 9.5Z" stroke="#493EE3" stroke-linecap="round" stroke-linejoin="round"/>
<path d="M11.2428 11.4925L8.0605 14.6748C7.77924 14.9558 7.39794 15.1136 7.00038 15.1136C6.60282 15.1136 6.22151 14.9558 5.94025 14.6748L2.75725 11.4925C1.91817 10.6534 1.34675 9.58431 1.11527 8.42043C0.883782 7.25655 1.00262 6.05017 1.45676 4.95383C1.91089 3.85749 2.67993 2.92044 3.66661 2.26116C4.6533 1.60189 5.81333 1.25 7 1.25C8.18668 1.25 9.3467 1.60189 10.3334 2.26116C11.3201 2.92044 12.0891 3.85749 12.5433 4.95383C12.9974 6.05017 13.1162 7.25655 12.8847 8.42043C12.6533 9.58431 12.0818 10.6534 11.2428 11.4925V11.4925Z" stroke="#493EE3" stroke-linecap="round" stroke-linejoin="round"/>
</svg>
