<svg width="129" height="128" viewBox="0 0 129 128" fill="none" xmlns="http://www.w3.org/2000/svg">
<rect x="0.5" width="128" height="128" rx="64" fill="#76F5A4" fill-opacity="0.3"/>
<rect x="16.5" y="16" width="96" height="96" rx="48" fill="#76F5A4" fill-opacity="0.4"/>
<rect x="32.5" y="32" width="64" height="64" rx="32" fill="#76F5A4" fill-opacity="0.8"/>
<path d="M56.5 61.3337V58.667C56.5 54.2537 57.8333 50.667 64.5 50.667C71.1667 50.667 72.5 54.2537 72.5 58.667V61.3337" stroke="#204F50" stroke-width="1.5" stroke-linecap="round" stroke-linejoin="round"/>
<path d="M64.5001 72.6667C66.341 72.6667 67.8334 71.1743 67.8334 69.3333C67.8334 67.4924 66.341 66 64.5001 66C62.6591 66 61.1667 67.4924 61.1667 69.3333C61.1667 71.1743 62.6591 72.6667 64.5001 72.6667Z" stroke="#204F50" stroke-width="1.5" stroke-linecap="round" stroke-linejoin="round"/>
<path d="M71.1667 77.333H57.8334C52.5001 77.333 51.1667 75.9997 51.1667 70.6663V67.9997C51.1667 62.6663 52.5001 61.333 57.8334 61.333H71.1667C76.5001 61.333 77.8334 62.6663 77.8334 67.9997V70.6663C77.8334 75.9997 76.5001 77.333 71.1667 77.333Z" stroke="#204F50" stroke-width="1.5" stroke-linecap="round" stroke-linejoin="round"/>
</svg>
