<svg width="36" height="36" viewBox="0 0 36 36" fill="none" xmlns="http://www.w3.org/2000/svg">
<rect width="36" height="36" rx="18" fill="#F3F3F3"/>
<path d="M12 28C11.45 28 10.979 27.804 10.587 27.412C10.195 27.02 9.99934 26.5493 10 26V16C10 15.45 10.196 14.979 10.588 14.587C10.98 14.195 11.4507 13.9993 12 14H13V12C13 10.6167 13.4877 9.43733 14.463 8.462C15.4383 7.48667 16.6173 6.99933 18 7C19.3833 7 20.5627 7.48767 21.538 8.463C22.5133 9.43833 23.0007 10.6173 23 12V14H24C24.55 14 25.021 14.196 25.413 14.588C25.805 14.98 26.0007 15.4507 26 16V26C26 26.55 25.804 27.021 25.412 27.413C25.02 27.805 24.5493 28.0007 24 28H12ZM18 23C18.55 23 19.021 22.804 19.413 22.412C19.805 22.02 20.0007 21.5493 20 21C20 20.45 19.804 19.979 19.412 19.587C19.02 19.195 18.5493 18.9993 18 19C17.45 19 16.979 19.196 16.587 19.588C16.195 19.98 15.9993 20.4507 16 21C16 21.55 16.196 22.021 16.588 22.413C16.98 22.805 17.4507 23.0007 18 23ZM15 14H21V12C21 11.1667 20.7083 10.4583 20.125 9.875C19.5417 9.29167 18.8333 9 18 9C17.1667 9 16.4583 9.29167 15.875 9.875C15.2917 10.4583 15 11.1667 15 12V14Z" fill="#7658F2"/>
</svg>
