<svg width="20" height="20" viewBox="0 0 20 20" fill="none" xmlns="http://www.w3.org/2000/svg">
<path d="M4.5 14.5833C4.5 15.4358 4.5 15.862 4.5937 16.2118C4.84799 17.1608 5.58924 17.902 6.53825 18.1563C6.88796 18.25 7.31419 18.25 8.16667 18.25H13.85C15.3901 18.25 16.1602 18.25 16.7485 17.9503C17.2659 17.6866 17.6866 17.2659 17.9503 16.7485C18.25 16.1602 18.25 15.3901 18.25 13.85V6.15C18.25 4.60986 18.25 3.83978 17.9503 3.25153C17.6866 2.73408 17.2659 2.31338 16.7485 2.04973C16.1602 1.75 15.3901 1.75 13.85 1.75H8.16667C7.31419 1.75 6.88796 1.75 6.53825 1.8437C5.58924 2.09799 4.84799 2.83924 4.5937 3.78825C4.5 4.13796 4.5 4.56419 4.5 5.41667M10 6.33333L13.6667 10M13.6667 10L10 13.6667M13.6667 10H1.75" stroke="#FF3115" stroke-width="2" stroke-linecap="round" stroke-linejoin="round"/>
</svg>
