<svg width="61" height="61" viewBox="0 0 61 61" fill="none" xmlns="http://www.w3.org/2000/svg">
<g filter="url(#filter0_d_2077_35982)">
<circle cx="30.5" cy="28.5" r="25.5" fill="white"/>
</g>
<path d="M18.5996 28.2843H35.0143C37.2146 28.2843 38.9996 26.5632 38.9996 24.4417C38.9996 22.3202 37.2146 20.5991 35.0143 20.5991H22.585C20.3846 20.5991 18.5996 22.3202 18.5996 24.4417V28.2843Z" fill="#46AEE2"/>
<path d="M28.7987 19.5146C31.0941 19.5146 32.9549 17.7205 32.9549 15.5073C32.9549 13.2941 31.0941 11.5 28.7987 11.5C26.5034 11.5 24.6426 13.2941 24.6426 15.5073C24.6426 17.7205 26.5034 19.5146 28.7987 19.5146Z" fill="#FACB13"/>
<path d="M32.8922 29.3892H24.6426C24.6426 37.5548 30.8737 44.3153 38.9995 45.4999V37.3629C35.464 36.3158 32.8938 33.1411 32.8938 29.3907L32.8922 29.3892Z" fill="#374B9D"/>
<defs>
<filter id="filter0_d_2077_35982" x="0" y="0" width="61" height="61" filterUnits="userSpaceOnUse" color-interpolation-filters="sRGB">
<feFlood flood-opacity="0" result="BackgroundImageFix"/>
<feColorMatrix in="SourceAlpha" type="matrix" values="0 0 0 0 0 0 0 0 0 0 0 0 0 0 0 0 0 0 127 0" result="hardAlpha"/>
<feOffset dy="2"/>
<feGaussianBlur stdDeviation="2.5"/>
<feComposite in2="hardAlpha" operator="out"/>
<feColorMatrix type="matrix" values="0 0 0 0 0 0 0 0 0 0 0 0 0 0 0 0 0 0 0.1 0"/>
<feBlend mode="normal" in2="BackgroundImageFix" result="effect1_dropShadow_2077_35982"/>
<feBlend mode="normal" in="SourceGraphic" in2="effect1_dropShadow_2077_35982" result="shape"/>
</filter>
</defs>
</svg>
