<svg width="34" height="35" viewBox="0 0 34 35" fill="none" xmlns="http://www.w3.org/2000/svg">
<path d="M16.3558 35C14.4536 35 12.5359 34.6921 10.6735 34.0484C1.96156 31.0228 -2.27185 21.6913 1.22946 13.2443C3.97414 6.65014 11.7793 3.38104 18.0498 3.80647L18.8738 0C24.1549 0.946022 28.5568 3.92402 31.2708 8.38824C34.2146 13.2303 34.8334 19.4466 32.8515 24.2187C30.0854 30.8549 23.3493 35 16.3589 35H16.3558ZM16.846 12.7573C14.4627 12.7573 11.3566 14.2267 10.4315 16.4406C8.85699 20.2471 10.5264 24.3754 14.1656 25.6349C17.8017 26.9028 22.0596 24.8289 23.6464 21.0224C24.6144 18.6993 24.207 15.2987 22.6569 12.7517C21.5358 10.9016 19.9766 9.66733 18.01 9.07117L17.4709 12.7937C17.2687 12.7685 17.0604 12.7545 16.846 12.7545V12.7573Z" fill="#76F5A4"/>
</svg>
