<svg width="24" height="24" viewBox="0 0 24 24" fill="none" xmlns="http://www.w3.org/2000/svg">
<path fill-rule="evenodd" clip-rule="evenodd" d="M17.608 21.0005L15.134 7.81055L4 8.82255V17.8005C4 18.9205 4 19.4805 4.218 19.9085C4.40974 20.2849 4.71569 20.5908 5.092 20.7825C5.52 21.0005 6.08 21.0005 7.2 21.0005H17.608ZM13.5 15.0305C13.5 17.1885 11.36 18.7045 10.427 19.2635C10.2981 19.3412 10.1505 19.3823 10 19.3823C9.84951 19.3823 9.70188 19.3412 9.573 19.2635C8.64 18.7045 6.5 17.1885 6.5 15.0295C6.5 12.9125 8.196 11.5005 10 11.5005C11.867 11.5005 13.5 12.9125 13.5 15.0305Z" fill="black"/>
<path d="M4.218 4.092C4 4.52 4 5.08 4 6.2V6.814L21.99 5.178C21.971 4.69 21.92 4.364 21.782 4.092C21.5903 3.71569 21.2843 3.40974 20.908 3.218C20.48 3 19.92 3 18.8 3H7.2C6.08 3 5.52 3 5.092 3.218C4.71569 3.40974 4.40974 3.71569 4.218 4.092ZM22 7.186L17.135 7.628L19.641 20.995C20.233 20.982 20.604 20.937 20.908 20.782C21.2843 20.5903 21.5903 20.2843 21.782 19.908C22 19.48 22 18.92 22 17.8V7.186Z" fill="black" fill-opacity="0.25"/>
<path d="M10 16C10.5523 16 11 15.5523 11 15C11 14.4477 10.5523 14 10 14C9.44772 14 9 14.4477 9 15C9 15.5523 9.44772 16 10 16Z" fill="black"/>
</svg>
