<svg width="48" height="30" viewBox="0 0 48 30" fill="none" xmlns="http://www.w3.org/2000/svg">
<path d="M17.4932 3.16919H30.4588V26.4663H17.4932V3.16919Z" fill="#FF5F00"/>
<path d="M18.3167 14.8179C18.3167 10.0845 20.5393 5.886 23.9556 3.16931C21.4449 1.19363 18.2756 0 14.8181 0C6.62681 0 0 6.62681 0 14.8179C0 23.0089 6.62681 29.6359 14.8179 29.6359C18.2754 29.6359 21.4448 28.4423 23.9556 26.4664C20.5393 23.7909 18.3167 19.5514 18.3167 14.8179Z" fill="#EB001B"/>
<path d="M47.9526 14.8179C47.9526 23.0089 41.3258 29.6359 33.1347 29.6359C29.6772 29.6359 26.5079 28.4423 23.9971 26.4664C27.4546 23.7499 29.6361 19.5514 29.6361 14.8179C29.6361 10.0845 27.4133 5.886 23.9971 3.16931C26.5077 1.19363 29.6772 0 33.1347 0C41.3258 0 47.9526 6.66806 47.9526 14.8179Z" fill="#F79E1B"/>
</svg>
