<svg width="20" height="20" viewBox="0 0 20 20" fill="none" xmlns="http://www.w3.org/2000/svg">
<path d="M10.0001 5.83333C9.55805 5.83333 9.13413 5.65774 8.82157 5.34518C8.50901 5.03262 8.33341 4.60869 8.33341 4.16667C8.33341 3.72464 8.50901 3.30072 8.82157 2.98816C9.13413 2.67559 9.55805 2.5 10.0001 2.5C10.4421 2.5 10.866 2.67559 11.1786 2.98816C11.4912 3.30072 11.6667 3.72464 11.6667 4.16667C11.6667 4.60869 11.4912 5.03262 11.1786 5.34518C10.866 5.65774 10.4421 5.83333 10.0001 5.83333ZM10.0001 11.6667C9.55805 11.6667 9.13413 11.4911 8.82157 11.1785C8.50901 10.866 8.33341 10.442 8.33341 10C8.33341 9.55797 8.50901 9.13405 8.82157 8.82149C9.13413 8.50893 9.55805 8.33333 10.0001 8.33333C10.4421 8.33333 10.866 8.50893 11.1786 8.82149C11.4912 9.13405 11.6667 9.55797 11.6667 10C11.6667 10.442 11.4912 10.866 11.1786 11.1785C10.866 11.4911 10.4421 11.6667 10.0001 11.6667ZM10.0001 17.5C9.55805 17.5 9.13413 17.3244 8.82157 17.0118C8.50901 16.6993 8.33341 16.2754 8.33341 15.8333C8.33341 15.3913 8.50901 14.9674 8.82157 14.6548C9.13413 14.3423 9.55805 14.1667 10.0001 14.1667C10.4421 14.1667 10.866 14.3423 11.1786 14.6548C11.4912 14.9674 11.6667 15.3913 11.6667 15.8333C11.6667 16.2754 11.4912 16.6993 11.1786 17.0118C10.866 17.3244 10.4421 17.5 10.0001 17.5Z" fill="#727272"/>
</svg>
