<svg width="32" height="23" viewBox="0 0 32 23" fill="none" xmlns="http://www.w3.org/2000/svg">
<path fill-rule="evenodd" clip-rule="evenodd" d="M0.5 1.37234C0.5 1.0962 0.723858 0.872342 1 0.872342H31C31.2761 0.872342 31.5 1.0962 31.5 1.37234C31.5 1.64848 31.2761 1.87234 31 1.87234H1C0.723858 1.87234 0.5 1.64848 0.5 1.37234ZM0.5 11.3724C0.5 11.0962 0.723858 10.8724 1 10.8724H31C31.2761 10.8724 31.5 11.0962 31.5 11.3724C31.5 11.6485 31.2761 11.8724 31 11.8724H1C0.723858 11.8724 0.5 11.6485 0.5 11.3724ZM1 20.8723C0.723858 20.8723 0.5 21.0962 0.5 21.3723C0.5 21.6485 0.723858 21.8723 1 21.8723H31C31.2761 21.8723 31.5 21.6485 31.5 21.3723C31.5 21.0962 31.2761 20.8723 31 20.8723H1Z" fill="black"/>
<path d="M1 0.372342C0.447715 0.372342 0 0.820057 0 1.37234H1V0.372342ZM31 0.372342H1V1.37234H31V0.372342ZM32 1.37234C32 0.820057 31.5523 0.372342 31 0.372342V1.37234H32ZM31 2.37234C31.5523 2.37234 32 1.92463 32 1.37234H31V1.37234V2.37234ZM1 2.37234H31V1.37234H1V2.37234ZM0 1.37234C0 1.92463 0.447715 2.37234 1 2.37234V1.37234V1.37234H0ZM1 10.3724C0.447715 10.3724 0 10.8201 0 11.3724H1V10.3724ZM31 10.3724H1V11.3724H31V10.3724ZM32 11.3724C32 10.8201 31.5523 10.3724 31 10.3724V11.3724H32ZM31 12.3724C31.5523 12.3724 32 11.9246 32 11.3724H31V12.3724ZM1 12.3724H31V11.3724H1V12.3724ZM0 11.3724C0 11.9246 0.447715 12.3724 1 12.3724V11.3724H0ZM1 21.3723V20.3723C0.447715 20.3723 0 20.82 0 21.3723H1ZM1 21.3723H0C0 21.9246 0.447715 22.3723 1 22.3723V21.3723ZM31 21.3723H1V22.3723H31V21.3723ZM31 21.3723V22.3723C31.5523 22.3723 32 21.9246 32 21.3723H31ZM31 21.3723H32C32 20.82 31.5523 20.3723 31 20.3723V21.3723ZM1 21.3723H31V20.3723H1V21.3723Z" fill="black"/>
</svg>
