<svg width="16" height="16" viewBox="0 0 16 16" fill="none" xmlns="http://www.w3.org/2000/svg">
<path d="M8 0C9.20811 0.000698213 10.4004 0.275006 11.4873 0.802337C12.5743 1.32967 13.5277 2.09633 14.276 3.04479C15.0243 3.99324 15.5481 5.09886 15.808 6.27868C16.0679 7.45849 16.0573 8.68186 15.7769 9.85697C15.4964 11.0321 14.9535 12.1284 14.1888 13.0637C13.4241 13.999 12.4575 14.749 11.3616 15.2573C10.2656 15.7657 9.06877 16.0192 7.86083 15.9989C6.65289 15.9785 5.46524 15.6849 4.387 15.14L4.266 15.075L0.621 15.985C0.550851 16.0026 0.47771 16.0048 0.406625 15.9915C0.335539 15.9781 0.268201 15.9495 0.209258 15.9075C0.150315 15.8656 0.101171 15.8114 0.0652158 15.7486C0.0292608 15.6859 0.00735144 15.6161 0.000999928 15.544V15.462L0.0150001 15.379L0.925 11.735L0.862 11.615C0.404384 10.7142 0.12269 9.73433 0.0320001 8.728L0.00699997 8.346L0 8C0 5.87827 0.842855 3.84344 2.34315 2.34315C3.84344 0.842855 5.87827 0 8 0ZM8 1C6.77846 0.999802 5.57814 1.31926 4.5183 1.92664C3.45847 2.53402 2.57603 3.40816 1.95866 4.46221C1.3413 5.51626 1.01051 6.71351 0.999167 7.93499C0.987823 9.15648 1.29632 10.3597 1.894 11.425C1.9404 11.5078 1.96225 11.6022 1.957 11.697L1.943 11.791L1.187 14.812L4.211 14.058C4.27248 14.0428 4.33626 14.0394 4.399 14.048L4.49 14.069L4.577 14.108C5.51034 14.6305 6.55102 14.9322 7.61911 14.9898C8.68721 15.0475 9.7543 14.8596 10.7385 14.4406C11.7226 14.0216 12.5977 13.3826 13.2964 12.5727C13.9952 11.7628 14.499 10.8036 14.7693 9.76866C15.0395 8.73371 15.069 7.6506 14.8555 6.60249C14.6419 5.55437 14.191 4.56914 13.5374 3.72244C12.8837 2.87574 12.0448 2.1901 11.0849 1.71816C10.1249 1.24622 9.06965 1.00055 8 1ZM8.5 9C8.62495 8.99977 8.74545 9.04633 8.83778 9.13051C8.93012 9.21469 8.98759 9.33039 8.99888 9.45482C9.01017 9.57926 8.97446 9.70341 8.89878 9.80283C8.8231 9.90225 8.71295 9.96974 8.59 9.992L8.5 10H5.5C5.37505 10.0002 5.25455 9.95367 5.16222 9.86949C5.06988 9.78531 5.01241 9.66961 5.00112 9.54518C4.98984 9.42074 5.02554 9.29659 5.10122 9.19717C5.1769 9.09775 5.28705 9.03026 5.41 9.008L5.5 9H8.5ZM10.5 6C10.6249 5.99977 10.7455 6.04633 10.8378 6.13051C10.9301 6.21469 10.9876 6.33039 10.9989 6.45482C11.0102 6.57926 10.9745 6.70341 10.8988 6.80283C10.8231 6.90225 10.7129 6.96974 10.59 6.992L10.5 7H5.5C5.37505 7.00023 5.25455 6.95367 5.16222 6.86949C5.06988 6.78531 5.01241 6.66961 5.00112 6.54518C4.98984 6.42074 5.02554 6.29659 5.10122 6.19717C5.1769 6.09775 5.28705 6.03026 5.41 6.008L5.5 6H10.5Z" fill="#7658F2"/>
</svg>
