<svg width="41" height="40" viewBox="0 0 41 40" fill="none" xmlns="http://www.w3.org/2000/svg">
<rect x="0.666504" width="40" height="40" rx="20" fill="#7658F2"/>
<path d="M20.6666 11C19.1052 10.9995 17.5705 11.4052 16.2133 12.1773C14.8561 12.9494 13.7232 14.0613 12.9257 15.4037C12.1283 16.7461 11.6939 18.273 11.6651 19.8341C11.6363 21.3953 12.0142 22.9371 12.7616 24.308L11.6966 28.043C11.6591 28.1742 11.6581 28.313 11.6937 28.4447C11.7293 28.5764 11.8001 28.6959 11.8986 28.7903C11.997 28.8847 12.1193 28.9505 12.2524 28.9806C12.3854 29.0107 12.5241 29.0039 12.6536 28.961L16.1606 27.7925C17.3559 28.4832 18.6941 28.8897 20.0716 28.9805C21.4491 29.0713 22.829 28.844 24.1047 28.3162C25.3803 27.7884 26.5174 26.9742 27.428 25.9366C28.3386 24.899 28.9983 23.6658 29.3561 22.3325C29.7139 20.9992 29.7601 19.6014 29.4913 18.2473C29.2224 16.8932 28.6457 15.6191 27.8057 14.5236C26.9657 13.4281 25.8849 12.5405 24.6469 11.9295C23.409 11.3185 22.0471 11.0005 20.6666 11ZM17.6666 18.5C17.6666 18.3011 17.7456 18.1103 17.8863 17.9697C18.0269 17.829 18.2177 17.75 18.4166 17.75H22.9166C23.1155 17.75 23.3063 17.829 23.4469 17.9697C23.5876 18.1103 23.6666 18.3011 23.6666 18.5C23.6666 18.6989 23.5876 18.8897 23.4469 19.0303C23.3063 19.171 23.1155 19.25 22.9166 19.25H18.4166C18.2177 19.25 18.0269 19.171 17.8863 19.0303C17.7456 18.8897 17.6666 18.6989 17.6666 18.5ZM18.4166 20.75H21.4166C21.6155 20.75 21.8063 20.829 21.9469 20.9697C22.0876 21.1103 22.1666 21.3011 22.1666 21.5C22.1666 21.6989 22.0876 21.8897 21.9469 22.0303C21.8063 22.171 21.6155 22.25 21.4166 22.25H18.4166C18.2177 22.25 18.0269 22.171 17.8863 22.0303C17.7456 21.8897 17.6666 21.6989 17.6666 21.5C17.6666 21.3011 17.7456 21.1103 17.8863 20.9697C18.0269 20.829 18.2177 20.75 18.4166 20.75Z" fill="white"/>
</svg>
