<svg width="24" height="24" viewBox="0 0 24 24" fill="none" xmlns="http://www.w3.org/2000/svg">
<path d="M19.5 9.39029H13.5V3.59368H4.5V20.9835H19.5V9.39029ZM18.879 7.94114L15 4.19363V7.94114H18.879ZM3.75 2.14453H15L21 7.94114V21.7081C21 21.9003 20.921 22.0846 20.7803 22.2204C20.6397 22.3563 20.4489 22.4327 20.25 22.4327H3.75C3.55109 22.4327 3.36032 22.3563 3.21967 22.2204C3.07902 22.0846 3 21.9003 3 21.7081V2.86911C3 2.67694 3.07902 2.49264 3.21967 2.35675C3.36032 2.22087 3.55109 2.14453 3.75 2.14453ZM7.5 12.2886H16.5V13.7378H7.5V12.2886ZM7.5 7.94114H11.25V9.39029H7.5V7.94114ZM7.5 16.6361H16.5V18.0852H7.5V16.6361Z" fill="white"/>
</svg>
