<svg width="32" height="33" viewBox="0 0 32 33" fill="none" xmlns="http://www.w3.org/2000/svg">
<path d="M23.0919 18.1774C22.4207 17.1723 21.0388 18.5617 19.5604 17.0366C18.7065 16.1558 20.45 12.1682 19.3129 10.9953C18.1759 9.82248 14.4617 8.80603 12.3392 10.9953C10.2168 13.1846 11.4758 15.2589 7.85617 15.0832C7.85277 15.083 7.84956 15.083 7.84622 15.0829C5.68499 14.9465 3.5997 15.642 2.07917 17.2104C-1.03638 20.4241 -0.600869 26.0839 3.05196 29.8518C6.70479 33.6198 12.1916 34.069 15.3072 30.8552C16.8219 29.2928 17.497 27.1521 17.3713 24.9317C17.5695 22.1764 18.3754 22.1019 20.066 22.1521C22.6715 22.2295 23.763 19.1824 23.0919 18.1774Z" fill="#E2A042"/>
<path d="M11.8157 18.0689L27.1703 3.69964C27.3494 3.53083 27.6256 3.53727 27.7972 3.7142L28.4382 4.37541C28.6097 4.55235 28.6159 4.83726 28.4523 5.022L14.5221 20.8607C14.3476 21.0575 14.0492 21.0645 13.8663 20.8759L11.8009 18.7454C11.618 18.5567 11.6247 18.2488 11.8157 18.0689Z" fill="#A36119"/>
<path d="M10.9433 24.6176C10.7283 24.6176 10.5133 24.533 10.3493 24.3638L8.37244 22.3246C8.04431 21.9862 8.04431 21.4375 8.37244 21.0991C8.70057 20.7606 9.23249 20.7606 9.56056 21.0991L11.5374 23.1382C11.8655 23.4766 11.8655 24.0253 11.5374 24.3638C11.3733 24.533 11.1583 24.6176 10.9433 24.6176Z" fill="#FFE1AB"/>
<path d="M30.7853 2.38363C30.7282 2.3248 30.6358 2.3248 30.5787 2.38363L15.7628 17.6664C15.6878 17.5299 15.599 17.3995 15.4966 17.2768L30.2567 2.05153C30.3137 1.99264 30.3137 1.89722 30.2567 1.83839C30.1996 1.77956 30.1072 1.77956 30.0501 1.83839L15.2932 17.0603C15.1775 16.9517 15.054 16.8572 14.9246 16.7763L29.7281 1.50629C29.7852 1.4474 29.7852 1.35197 29.7281 1.29314C29.671 1.23432 29.5786 1.23432 29.5215 1.29314L14.6527 16.6305C13.7808 16.2342 12.7254 16.4037 12.0111 17.1405C11.2968 17.8773 11.1324 18.9659 11.5167 19.8654L7.46763 24.0421L6.95531 23.5136C6.64527 23.1938 6.12494 23.2681 5.91062 23.6626L5.33685 24.7189C5.1921 24.9854 5.23671 25.3188 5.44618 25.5348L7.28432 27.4309C7.49372 27.6469 7.81687 27.693 8.07531 27.5437L9.09939 26.9518C9.4819 26.7308 9.5538 26.194 9.24376 25.8742L8.73144 25.3458L12.7992 21.1498C13.658 21.5085 14.6786 21.3287 15.375 20.6104C16.0713 19.8921 16.2456 18.8392 15.898 17.9534L30.7853 2.59684C30.8424 2.53795 30.8424 2.44252 30.7853 2.38363ZM11.6581 20.1459C11.7365 20.2793 11.8281 20.4068 11.9334 20.5261L7.99616 24.5874L7.6742 24.2553L11.6581 20.1459ZM8.52474 25.1326L8.20279 24.8005L12.1432 20.7359C12.2621 20.8415 12.3887 20.933 12.521 21.0105L8.52474 25.1326Z" fill="#2B3B47"/>
<path d="M26.0192 3.67027L29.3891 0.19418C29.6401 -0.0647266 30.047 -0.0647266 30.2981 0.19418L31.8118 1.75561C32.0628 2.01452 32.0628 2.43431 31.8118 2.69328L28.4419 6.16937C28.1909 6.42828 27.784 6.42828 27.5329 6.16937L26.0192 4.60794C25.7682 4.34897 25.7682 3.92918 26.0192 3.67027Z" fill="#E2A042"/>
<path d="M29.0525 0.43755C29.2162 0.606427 29.1668 0.931181 28.9423 1.16285C28.7177 1.39452 28.4028 1.44548 28.2391 1.27654C28.0754 1.1076 28.1247 0.78291 28.3493 0.55124C28.5739 0.319569 28.8887 0.268672 29.0525 0.43755ZM27.3573 1.57451C27.1327 1.80618 27.0833 2.13094 27.247 2.29982C27.4108 2.46869 27.7256 2.4178 27.9502 2.18613C28.1748 1.95446 28.2242 1.6297 28.0604 1.46082C27.8967 1.29195 27.5819 1.34284 27.3573 1.57451ZM26.3653 2.59779C26.1407 2.82946 26.0913 3.15421 26.2551 3.32309C26.4188 3.49197 26.7336 3.44107 26.9582 3.2094C27.1828 2.97773 27.2322 2.65298 27.0684 2.4841C26.9047 2.31516 26.5899 2.36612 26.3653 2.59779ZM30.9117 3.19445C30.6871 3.42612 30.6377 3.75087 30.8015 3.91975C30.9652 4.08863 31.28 4.03773 31.5046 3.80606C31.7292 3.57439 31.7786 3.24964 31.6149 3.08076C31.4511 2.91188 31.1363 2.96278 30.9117 3.19445ZM29.9197 4.21772C29.6951 4.44939 29.6457 4.77415 29.8095 4.94303C29.9733 5.1119 30.288 5.06101 30.5126 4.82934C30.7372 4.59767 30.7866 4.27291 30.6228 4.10403C30.4591 3.93509 30.1444 3.98605 29.9197 4.21772ZM28.9277 5.241C28.7031 5.47267 28.6537 5.79742 28.8175 5.9663C28.9812 6.13518 29.296 6.08428 29.5206 5.85261C29.7452 5.62094 29.7946 5.29619 29.6308 5.12731C29.4671 4.95837 29.1524 5.00926 28.9277 5.241Z" fill="#A36119"/>
</svg>
