<svg width="150" height="150" viewBox="0 0 150 150" fill="none" xmlns="http://www.w3.org/2000/svg">
<g clip-path="url(#clip0_1824_27211)">
<path d="M75 2.5C34.9594 2.5 2.5 34.9594 2.5 75C2.5 115.041 34.9594 147.5 75 147.5C115.041 147.5 147.5 115.041 147.5 75C147.5 34.9594 115.041 2.5 75 2.5ZM23.9 110.925C15.4308 98.9592 11.4718 84.3811 12.725 69.775C15.3702 39.4302 39.4302 15.3702 69.775 12.725C84.3811 11.4718 98.9592 15.4308 110.925 23.9C112.104 24.7573 112.847 26.0888 112.958 27.5421C113.068 28.9954 112.535 30.4241 111.5 31.45L31.45 111.5C30.4241 112.535 28.9954 113.068 27.5421 112.958C26.0888 112.847 24.7573 112.104 23.9 110.925ZM80.225 137.275C65.6189 138.528 51.0408 134.569 39.075 126.1C37.8962 125.243 37.1531 123.911 37.0424 122.458C36.9317 121.005 37.4646 119.576 38.5 118.55L118.55 38.5C119.576 37.4646 121.005 36.9317 122.458 37.0424C123.911 37.1531 125.243 37.8962 126.1 39.075C134.569 51.0408 138.528 65.6189 137.275 80.225C134.63 110.57 110.57 134.63 80.225 137.275Z" fill="#D7E9FF"/>
<path fill-rule="evenodd" clip-rule="evenodd" d="M75 2.5C73.7417 2.5 72.4917 2.53167 71.25 2.595C109.798 4.57032 140.04 36.4014 140.04 75C140.04 113.599 109.798 145.43 71.25 147.405C72.4933 147.468 73.7433 147.5 75 147.5C115.041 147.5 147.5 115.041 147.5 75C147.5 34.9594 115.041 2.5 75 2.5Z" fill="#D7E9FF"/>
<path fill-rule="evenodd" clip-rule="evenodd" d="M137.275 80.2253C134.63 110.57 110.57 134.63 80.2248 137.275C65.6187 138.528 51.0406 134.569 39.0748 126.1C37.896 125.243 37.1529 123.912 37.0422 122.458C36.9315 121.005 37.4644 119.576 38.4998 118.55L118.55 38.5003C119.576 37.4649 121.004 36.932 122.458 37.0427C123.911 37.1534 125.243 37.8965 126.1 39.0753C134.569 51.0411 138.528 65.6192 137.275 80.2253Z" fill="#A4C2F7"/>
<path fill-rule="evenodd" clip-rule="evenodd" d="M126.1 39.0753C125.243 37.8965 123.911 37.1534 122.458 37.0427C121.005 36.932 119.576 37.4649 118.55 38.5003L118.3 38.7503C118.404 38.8549 118.503 38.9651 118.595 39.0803C127.064 51.0461 131.023 65.6241 129.77 80.2303C127.123 110.571 103.066 134.628 72.7249 137.275C72.2499 137.315 71.7874 137.3 71.3149 137.33C74.2826 137.52 77.2599 137.502 80.2249 137.275C110.57 134.63 134.63 110.57 137.275 80.2253C138.528 65.6192 134.569 51.0411 126.1 39.0753Z" fill="#94C1FF"/>
<path fill-rule="evenodd" clip-rule="evenodd" d="M111.5 31.4503L31.4498 111.5C30.4239 112.536 28.9952 113.069 27.5419 112.958C26.0885 112.847 24.757 112.104 23.8998 110.925C15.4305 98.9594 11.4716 84.3814 12.7248 69.7753C15.3699 39.4305 39.43 15.3704 69.7748 12.7253C84.3809 11.4721 98.959 15.431 110.925 23.9003C112.104 24.7575 112.847 26.089 112.957 27.5424C113.068 28.9957 112.535 30.4244 111.5 31.4503Z" fill="#A4C2F7"/>
<path fill-rule="evenodd" clip-rule="evenodd" d="M110.925 23.8996C99.3472 15.7243 85.3188 11.7611 71.1748 12.6696C82.7643 13.3193 93.9384 17.2103 103.425 23.8996C104.604 24.7569 105.347 26.0884 105.457 27.5417C105.568 28.9951 105.035 30.4237 104 31.4496L24.1948 111.25C25.0981 112.286 26.3912 112.902 27.7655 112.949C29.1399 112.997 30.4722 112.472 31.4448 111.5L111.5 31.4496C112.535 30.4237 113.068 28.9951 112.957 27.5417C112.847 26.0884 112.104 24.7569 110.925 23.8996Z" fill="#94C1FF"/>
<path d="M75 122.5C80.5228 122.5 85 118.023 85 112.5C85 106.977 80.5228 102.5 75 102.5C69.4772 102.5 65 106.977 65 112.5C65 118.023 69.4772 122.5 75 122.5Z" fill="#D7E9FF"/>
<path fill-rule="evenodd" clip-rule="evenodd" d="M75 102.5C73.7133 102.505 72.4398 102.76 71.25 103.25C75.0275 104.771 77.5019 108.435 77.5019 112.508C77.5019 116.58 75.0275 120.244 71.25 121.765C74.991 123.284 79.2788 122.405 82.1195 119.535C84.9603 116.666 85.7966 112.369 84.2396 108.644C82.6826 104.918 79.0378 102.495 75 102.5Z" fill="#D7E9FF"/>
<path fill-rule="evenodd" clip-rule="evenodd" d="M76.9752 80.0752C83.5663 80.6302 89.8054 83.2853 94.7752 87.6502C96.331 89.0343 96.8714 91.235 96.1335 93.1824C95.3956 95.1297 93.5326 96.4197 91.4502 96.4252C90.2961 96.4326 89.178 96.0244 88.3002 95.2752C84.6324 91.9957 79.9187 90.1261 75.0002 90.0002C70.2872 90.1156 65.7559 91.8413 62.1602 94.8902" fill="#D7E9FF"/>
<path fill-rule="evenodd" clip-rule="evenodd" d="M75.4253 67.525C75.2847 67.5035 75.1424 67.4951 75.0003 67.5C62.7503 67.5 53.7003 75.075 49.4003 79.6C47.9875 81.0969 45.8044 81.5802 43.8918 80.8196C41.9792 80.059 40.7243 78.2084 40.7253 76.15C40.7135 74.896 41.1885 73.6862 42.0503 72.775C47.5253 66.975 58.9253 57.5 75.0003 57.5C78.1495 57.4953 81.2882 57.8645 84.3503 58.6" fill="#D7E9FF"/>
<path fill-rule="evenodd" clip-rule="evenodd" d="M94.5753 62.4746C99.5584 65.1665 104.075 68.6445 107.95 72.7746C109.835 74.8043 109.717 77.9774 107.688 79.8621C105.658 81.7468 102.485 81.6293 100.6 79.5996C96.7742 75.522 92.1659 72.2571 87.0503 69.9996" fill="#D7E9FF"/>
<path fill-rule="evenodd" clip-rule="evenodd" d="M93.7252 49.225C87.8647 46.4729 81.4747 45.0311 75.0002 45C55.8002 45 42.0252 57.975 36.4252 64.35C34.7289 66.264 31.8824 66.6371 29.7502 65.225L29.7252 65.2C28.5337 64.4153 27.7399 63.1536 27.5482 61.7399C27.3565 60.3262 27.7857 58.8986 28.7252 57.825C35.4252 50.1 51.5502 35 75.0002 35C84.1644 35.0313 93.1768 37.3424 101.225 41.725" fill="#D7E9FF"/>
<path fill-rule="evenodd" clip-rule="evenodd" d="M109.875 47.2002C114.038 50.3309 117.859 53.8923 121.275 57.8252C122.214 58.8988 122.644 60.3264 122.452 61.7401C122.26 63.1538 121.466 64.4155 120.275 65.2002L120.25 65.2252C118.118 66.6373 115.271 66.2642 113.575 64.3502C110.305 60.6452 106.633 57.3163 102.625 54.4252" fill="#D7E9FF"/>
<path fill-rule="evenodd" clip-rule="evenodd" d="M71.2502 147.405C72.4935 147.468 73.7435 147.5 75.0002 147.5C76.2569 147.5 77.5069 147.468 78.7502 147.405C40.2021 145.43 9.96045 113.599 9.96045 75C9.96045 36.4014 40.2021 4.57032 78.7502 2.595C77.5085 2.53167 76.2585 2.5 75.0002 2.5C73.7419 2.5 72.4919 2.53167 71.2502 2.595C32.7021 4.57032 2.46045 36.4014 2.46045 75C2.46045 113.599 32.7021 145.43 71.2502 147.405Z" fill="white"/>
<path fill-rule="evenodd" clip-rule="evenodd" d="M2.885 54.5801L7.6975 55.9401L6.5 60.6126C6.2 62.1926 6 63.7926 5.75 65.3801L5.3825 67.7651L5.2575 70.1776L5 75.0001H0L0.25 69.8351L0.4 67.2501L0.7875 64.6926C1.06 62.9901 1.2875 61.2776 1.6 59.5851L2.885 54.5801Z" fill="white"/>
<path fill-rule="evenodd" clip-rule="evenodd" d="M3.31262 67.5254C1.93191 67.533 0.806461 66.4199 0.798867 65.0391C0.791273 63.6584 1.9044 62.533 3.28512 62.5254H3.31262C4.69333 62.5254 5.81262 63.6447 5.81262 65.0254C5.81262 66.4061 4.69333 67.5254 3.31262 67.5254Z" fill="#0E65E5"/>
<path fill-rule="evenodd" clip-rule="evenodd" d="M75 0C58.6807 0.0437299 42.8188 5.39654 29.81 15.25C23.3448 20.135 17.7027 26.0227 13.0975 32.69C8.57073 39.412 5.1248 46.8015 2.885 54.59C2.50945 55.9189 3.28232 57.3007 4.61125 57.6762C5.94019 58.0518 7.32195 57.2789 7.6975 55.95C9.786 48.6781 12.9999 41.7779 17.2225 35.5C30.3357 16.4972 51.9122 5.1073 75 5C113.66 5 145 36.3401 145 75C145 113.66 113.66 145 75 145C36.3401 145 5 113.66 5 75C5 73.6193 3.88071 72.5 2.5 72.5C1.11929 72.5 0 73.6193 0 75C0 116.421 33.5786 150 75 150C116.421 150 150 116.421 150 75C150 33.5786 116.421 0 75 0Z" fill="#0E65E5"/>
<path d="M34.5575 122.75C34.7356 124.912 35.8615 126.884 37.6325 128.137C48.519 135.882 61.5546 140.03 74.915 140C76.74 140 78.58 139.925 80.415 139.775C111.965 136.978 136.974 111.974 139.778 80.4247C141.101 65.2325 136.978 50.0648 128.148 37.6322C126.895 35.8612 124.922 34.7354 122.76 34.5572C120.539 34.3585 118.345 35.1583 116.773 36.7397L36.75 116.772C35.1728 118.344 34.3703 120.531 34.5575 122.75ZM110.058 50.5197C113.434 53.2138 116.56 56.2076 119.398 59.4647C119.861 59.9831 120.074 60.6784 119.98 61.3672C119.888 62.0825 119.488 62.7217 118.885 63.1172C118.846 63.142 118.809 63.1687 118.773 63.1972C117.692 63.8519 116.297 63.6416 115.458 62.6972C112.709 59.5851 109.685 56.7276 106.423 54.1597L110.058 50.5197ZM95 65.5872C99.1087 68.0227 102.855 71.0228 106.13 74.4997C106.615 75.0097 106.849 75.7081 106.77 76.4072C106.672 77.3929 106.007 78.2303 105.069 78.5495C104.132 78.8687 103.094 78.6108 102.415 77.8897C99.1754 74.4673 95.422 71.5708 91.29 69.3047L95 65.5872ZM77.885 82.6997C83.5329 83.4214 88.84 85.8018 93.135 89.5397C93.6944 90.0201 94.0022 90.7307 93.97 91.4672C93.9194 92.8291 92.8078 93.911 91.445 93.9247C90.8858 93.9313 90.3431 93.7351 89.9175 93.3722C85.8022 89.702 80.5129 87.6198 75 87.4997C74.305 87.4997 73.6325 87.5497 72.97 87.6147L77.885 82.6997ZM40.275 120.31L63.815 96.7697C66.9508 94.1185 70.8952 92.6127 75 92.4997C79.3198 92.6241 83.4549 94.2792 86.6675 97.1697C88.0019 98.3049 89.6981 98.9256 91.45 98.9197C95.5087 98.9074 98.8314 95.6885 98.9725 91.6322C99.0541 89.3796 98.1065 87.2121 96.3975 85.7422C92.3008 82.2174 87.4375 79.6979 82.195 78.3847L87.58 72.9997C91.7809 75.0902 95.578 77.9088 98.795 81.3247C100.821 83.4571 103.903 84.2147 106.686 83.2647C109.47 82.3146 111.446 79.8307 111.745 76.9047C111.968 74.7604 111.247 72.6252 109.77 71.0547C106.463 67.5554 102.723 64.4923 98.64 61.9397L102.838 57.7497C106.043 60.2172 109.01 62.9793 111.7 65.9997C113.15 67.6418 115.237 68.5808 117.428 68.5772C118.929 68.5801 120.396 68.1344 121.643 67.2972C121.693 67.2647 121.743 67.2272 121.793 67.1872C123.518 65.9833 124.658 64.1101 124.935 62.0247C125.211 59.9119 124.564 57.7825 123.16 56.1797C120.249 52.8398 117.055 49.7583 113.613 46.9697L120.31 40.2722C120.787 39.7926 121.436 39.5227 122.113 39.5222C122.186 39.5185 122.259 39.5185 122.333 39.5222C123.026 39.5719 123.661 39.9297 124.063 40.4972C132.211 51.9744 136.015 65.9744 134.795 79.9972C132.21 109.111 109.133 132.187 80.02 134.772C65.9966 135.999 51.9945 132.194 40.52 124.04C39.9524 123.638 39.5946 123.003 39.545 122.31C39.484 121.568 39.7508 120.838 40.275 120.31Z" fill="#0E65E5"/>
<path d="M112.367 21.8524C99.9358 13.0175 84.7658 8.89488 69.5724 10.2224C38.0269 13.0247 13.0234 38.0292 10.2224 69.5749C8.89932 84.7671 13.0215 99.9348 21.8524 112.367C23.1054 114.138 25.0778 115.264 27.2399 115.442C27.4574 115.462 27.6749 115.47 27.8899 115.47C29.8921 115.472 31.8127 114.677 33.2274 113.26L113.25 33.2274C114.826 31.652 115.625 29.4601 115.432 27.2399C115.257 25.0795 114.135 23.1073 112.367 21.8524ZM74.3924 65.0224C61.5049 65.2724 52.0874 73.1424 47.5949 77.8699C46.8896 78.6325 45.7886 78.8841 44.822 78.5037C43.8554 78.1232 43.2213 77.1886 43.2249 76.1499C43.2156 75.5341 43.446 74.9389 43.8674 74.4899C48.9749 69.0774 59.8149 59.9999 74.9999 59.9999C76.3943 60.0065 77.7873 60.09 79.1724 60.2499L74.3924 65.0224ZM93.1225 46.2949C87.3955 43.8329 81.2335 42.5425 74.9999 42.4999C54.4999 42.4999 39.8824 56.6274 34.5499 62.6974C33.7115 63.6423 32.3174 63.8527 31.2374 63.1974C31.1993 63.1666 31.1592 63.1382 31.1174 63.1124C30.5145 62.7169 30.1145 62.0776 30.0224 61.3624C29.9294 60.668 30.1461 59.9679 30.6149 59.4474C36.3424 52.8599 52.1299 37.4999 74.9999 37.4999C82.604 37.5142 90.1128 39.1918 96.9999 42.4149L93.1225 46.2949ZM109.725 29.6899L100.725 38.6899C92.7498 34.6491 83.9403 32.5293 74.9999 32.4999C50.0699 32.4999 33.0149 49.0649 26.8474 56.1749C25.439 57.7784 24.7894 59.9109 25.0649 62.0274C25.3405 64.1062 26.4738 65.9748 28.1899 67.1799C28.2437 67.2227 28.2996 67.2627 28.3574 67.2999C29.6035 68.137 31.0713 68.5827 32.5724 68.5799C34.7645 68.5835 36.8521 67.6435 38.3024 65.9999C43.1899 60.4374 56.5474 47.4999 74.9999 47.4999C79.8791 47.5274 84.7147 48.4195 89.2824 50.1349L83.5324 55.8849C80.7255 55.3023 77.8667 55.0058 74.9999 54.9999C57.9374 54.9999 45.8924 65.0599 40.2324 71.0574C38.9371 72.4354 38.221 74.2586 38.2324 76.1499C38.2231 79.2381 40.1028 82.0182 42.9723 83.1599C45.8418 84.3016 49.1176 83.5729 51.2324 81.3224C55.9277 76.2315 61.9694 72.5753 68.6574 70.7774L29.6899 109.725C29.1623 110.264 28.4182 110.535 27.6674 110.46C26.9739 110.41 26.3391 110.052 25.9374 109.485C17.7885 98.0078 13.9846 84.0077 15.2049 69.9849C17.7899 40.8713 40.8643 17.7938 69.9774 15.2049C71.6858 15.0682 73.3841 14.9999 75.0724 14.9999C87.4033 14.9695 99.4353 18.7945 109.485 25.9399C110.053 26.3415 110.41 26.9763 110.46 27.6699C110.526 28.4188 110.257 29.1583 109.725 29.6899Z" fill="#0E65E5"/>
<path d="M75 125C81.9036 125 87.5 119.404 87.5 112.5C87.5 105.596 81.9036 100 75 100C68.0964 100 62.5 105.596 62.5 112.5C62.5083 119.4 68.0999 124.992 75 125ZM75 105C79.1421 105 82.5 108.358 82.5 112.5C82.5 116.642 79.1421 120 75 120C70.8579 120 67.5 116.642 67.5 112.5C67.5 108.358 70.8579 105 75 105Z" fill="#0E65E5"/>
</g>
<defs>
<clipPath id="clip0_1824_27211">
<rect width="150" height="150" fill="white"/>
</clipPath>
</defs>
</svg>
