<svg width="117" height="104" viewBox="0 0 117 104" fill="none" xmlns="http://www.w3.org/2000/svg">
<path d="M104.043 64.9273H55.6429L42.5156 49.3091H90.9156L104.043 64.9273Z" fill="#DDEBFD"/>
<path d="M2.13477 64.9273H29.3893L42.5166 49.3091H15.262L2.13477 64.9273Z" fill="#DDEBFD"/>
<path d="M55.6429 64.9273L42.5156 49.3091V102.636H90.9156V64.9273H55.6429Z" fill="#B9D7FF"/>
<path d="M29.389 64.9273H15.2617V102.636H42.5163V49.3091L29.389 64.9273Z" fill="#7CB7FF"/>
<path d="M91.68 46.273L88.0618 42.6548C87.4436 43.4366 86.7891 44.2002 86.0618 44.9275C85.3345 45.6548 84.5709 46.3093 83.7891 46.9275L87.4072 50.5457C86.9891 52.3639 87.4982 54.3639 88.9163 55.7821L105.207 72.073C107.407 74.273 110.989 74.273 113.189 72.073C115.389 69.873 115.389 66.2911 113.189 64.0911L96.8982 47.8002C95.4982 46.3457 93.5163 45.8548 91.68 46.273Z" fill="#7CB7FF"/>
<path d="M68.0247 52.382C82.113 52.382 93.5338 40.9611 93.5338 26.8729C93.5338 12.7846 82.113 1.36377 68.0247 1.36377C53.9364 1.36377 42.5156 12.7846 42.5156 26.8729C42.5156 40.9611 53.9364 52.382 68.0247 52.382Z" fill="#B9D7FF"/>
<path d="M68.0255 45.1091C63.1527 45.1091 58.5709 43.2182 55.1346 39.7636C48.0255 32.6545 48.0255 21.0727 55.1346 13.9636C58.5891 10.5091 63.1527 8.61816 68.0255 8.61816C72.8982 8.61816 77.48 10.5091 80.9164 13.9636C88.0255 21.0727 88.0255 32.6545 80.9164 39.7636C77.48 43.2182 72.8982 45.1091 68.0255 45.1091Z" fill="white"/>
<path d="M81.8999 12.9998C78.1908 9.29076 73.2817 7.25439 68.0271 7.25439C62.7726 7.25439 57.8635 9.29076 54.1726 12.9998C46.5362 20.6544 46.5362 33.0908 54.1726 40.7271C57.8817 44.4362 62.7908 46.4726 68.0271 46.4726C73.2635 46.4726 78.1908 44.4362 81.8999 40.7271C89.5362 33.0908 89.5362 20.6544 81.8999 12.9998ZM79.9726 38.7998C76.7908 41.9817 72.5544 43.7453 68.0453 43.7453C63.5362 43.7453 59.2999 41.9817 56.118 38.7998C49.5362 32.218 49.5362 21.5089 56.118 14.9271C59.2999 11.7453 63.5362 9.98167 68.0453 9.98167C72.5544 9.98167 76.7908 11.7453 79.9726 14.9271C86.5544 21.5089 86.5544 32.218 79.9726 38.7998Z" fill="#1576ED"/>
<path d="M114.172 63.0909L97.881 46.8C96.3719 45.2909 94.2628 44.5636 92.1537 44.8L89.8628 42.5091C97.3901 32.0182 96.4628 17.2909 87.0446 7.85455C76.5719 -2.61818 59.5173 -2.61818 49.0264 7.85455C38.5537 18.3273 38.5537 35.3818 49.0264 45.8727C54.2628 51.1091 61.1537 53.7273 68.0264 53.7273C73.5173 53.7273 79.0082 52.0182 83.6628 48.6909L85.9537 50.9818C85.7173 53.0909 86.4264 55.2 87.9537 56.7091L104.245 73C105.608 74.3636 107.408 75.0545 109.208 75.0545C111.008 75.0545 112.808 74.3636 114.172 73C116.899 70.2727 116.899 65.8364 114.172 63.0909ZM50.9537 43.9455C46.3901 39.3818 43.881 33.3273 43.881 26.8727C43.881 20.4182 46.3901 14.3636 50.9537 9.8C55.5173 5.23636 61.5719 2.72727 68.0264 2.72727C74.481 2.72727 80.5355 5.23636 85.0992 9.8C89.6628 14.3636 92.1719 20.4182 92.1719 26.8727C92.1719 33.3273 89.6628 39.3818 85.0992 43.9455C80.5355 48.5091 74.481 51.0182 68.0264 51.0182C61.5719 51.0182 55.5173 48.5091 50.9537 43.9455ZM112.245 71.0909C110.572 72.7636 107.863 72.7636 106.19 71.0909L89.8992 54.8C88.8628 53.7636 88.4446 52.2727 88.7537 50.8364C88.8628 50.3818 88.7173 49.9091 88.3901 49.5818L85.8082 47C86.2264 46.6364 86.6446 46.2909 87.0264 45.8909C87.4264 45.4909 87.7719 45.0727 88.1355 44.6727L90.7173 47.2545C91.0446 47.5818 91.5173 47.7273 91.9719 47.6182C93.4264 47.2909 94.8991 47.7091 95.9537 48.7636L112.245 65.0545C113.063 65.8727 113.499 66.9454 113.499 68.0909C113.499 69.2364 113.063 70.2727 112.245 71.0909Z" fill="#1576ED"/>
<path d="M30.4264 65.8184L42.5173 51.4366L54.6082 65.8184C54.8627 66.1275 55.2446 66.3093 55.6446 66.3093H90.39C91.1355 66.3093 91.7537 65.6911 91.7537 64.9457C91.7537 64.2002 91.1355 63.582 90.39 63.582H56.2809L45.4446 50.6911H46.7355C47.4809 50.6911 48.0991 50.073 48.0991 49.3275C48.0991 48.582 47.4809 47.9639 46.7355 47.9639H15.2627C14.8627 47.9639 14.4809 48.1457 14.2264 48.4548L1.09909 64.073C0.753639 64.473 0.680912 65.0548 0.899094 65.5275C1.11728 66.0002 1.60818 66.3093 2.13546 66.3093H29.39C29.79 66.2911 30.1718 66.1093 30.4264 65.8184ZM5.06273 63.5639L15.8991 50.673H39.59L28.7536 63.5639H5.06273Z" fill="#1576ED"/>
<path d="M63.1904 89.5635H48.9359C48.1904 89.5635 47.5723 90.1817 47.5723 90.9271C47.5723 91.6726 48.1904 92.2907 48.9359 92.2907H63.1904C63.9359 92.2907 64.5541 91.6726 64.5541 90.9271C64.5541 90.1817 63.9359 89.5635 63.1904 89.5635Z" fill="#1576ED"/>
<path d="M63.1904 94.8545H48.9359C48.1904 94.8545 47.5723 95.4727 47.5723 96.2181C47.5723 96.9636 48.1904 97.5818 48.9359 97.5818H63.1904C63.9359 97.5818 64.5541 96.9636 64.5541 96.2181C64.5541 95.4545 63.9359 94.8545 63.1904 94.8545Z" fill="#1576ED"/>
<path d="M74.4447 20.4545C73.9174 19.9273 73.0447 19.9273 72.5174 20.4545L68.0265 24.9454L63.5356 20.4545C63.0083 19.9273 62.1356 19.9273 61.6083 20.4545C61.0811 20.9818 61.0811 21.8545 61.6083 22.3818L66.0993 26.8727L61.6083 31.3636C61.0811 31.8909 61.0811 32.7636 61.6083 33.2909C61.8811 33.5636 62.2265 33.6909 62.572 33.6909C62.9174 33.6909 63.2629 33.5636 63.5356 33.2909L68.0265 28.8L72.5174 33.2909C72.7902 33.5636 73.1356 33.6909 73.4811 33.6909C73.8265 33.6909 74.172 33.5636 74.4447 33.2909C74.972 32.7636 74.972 31.8909 74.4447 31.3636L69.9538 26.8727L74.4447 22.3818C74.9902 21.8545 74.9902 20.9818 74.4447 20.4545Z" fill="#1576ED"/>
<path d="M90.9166 69.018C90.1712 69.018 89.553 69.6362 89.553 70.3816V101.273H43.8803V57.7816C43.8803 57.0362 43.2621 56.418 42.5166 56.418C41.7712 56.418 41.153 57.0362 41.153 57.7816V101.273H16.6257V70.3816C16.6257 69.6362 16.0075 69.018 15.2621 69.018C14.5166 69.018 13.8984 69.6362 13.8984 70.3816V102.636C13.8984 103.382 14.5166 104 15.2621 104H42.5166H90.9166C91.6621 104 92.2803 103.382 92.2803 102.636V70.3816C92.2803 69.6362 91.6621 69.018 90.9166 69.018Z" fill="#1576ED"/>
</svg>
