<svg width="18" height="18" viewBox="0 0 18 18" fill="none" xmlns="http://www.w3.org/2000/svg">
<path d="M9.0149 15.3974C7.2674 15.3974 5.5199 15.1199 3.8624 14.5649C3.2324 14.3474 2.7524 13.9049 2.5424 13.3274C2.3249 12.7499 2.3999 12.1124 2.7449 11.5424L3.6074 10.1099C3.7874 9.80994 3.9524 9.20994 3.9524 8.85744V6.68994C3.9524 3.89994 6.2249 1.62744 9.0149 1.62744C11.8049 1.62744 14.0774 3.89994 14.0774 6.68994V8.85744C14.0774 9.20244 14.2424 9.80994 14.4224 10.1174L15.2774 11.5424C15.5999 12.0824 15.6599 12.7349 15.4424 13.3274C15.2249 13.9199 14.7524 14.3699 14.1599 14.5649C12.5099 15.1199 10.7624 15.3974 9.0149 15.3974ZM9.0149 2.75244C6.8474 2.75244 5.0774 4.51494 5.0774 6.68994V8.85744C5.0774 9.40494 4.8524 10.2149 4.5749 10.6874L3.7124 12.1199C3.5474 12.3974 3.5024 12.6899 3.5999 12.9374C3.6899 13.1924 3.9149 13.3874 4.2224 13.4924C7.3574 14.5424 10.6799 14.5424 13.8149 13.4924C14.0849 13.4024 14.2949 13.1999 14.3924 12.9299C14.4899 12.6599 14.4674 12.3674 14.3174 12.1199L13.4549 10.6874C13.1699 10.1999 12.9524 9.39744 12.9524 8.84994V6.68994C12.9524 4.51494 11.1899 2.75244 9.0149 2.75244Z" fill="#0079E9"/>
<path d="M10.4105 2.95477C10.358 2.95477 10.3055 2.94727 10.253 2.93227C10.0355 2.87227 9.82545 2.82727 9.62295 2.79727C8.98545 2.71477 8.37045 2.75977 7.79295 2.93227C7.58295 2.99977 7.35795 2.93227 7.21545 2.77477C7.07295 2.61727 7.02795 2.39227 7.11045 2.18977C7.41795 1.40227 8.16795 0.884766 9.02295 0.884766C9.87795 0.884766 10.628 1.39477 10.9355 2.18977C11.0105 2.39227 10.973 2.61727 10.8305 2.77477C10.718 2.89477 10.5605 2.95477 10.4105 2.95477Z" fill="#0079E9"/>
<path d="M9.01465 17.1074C8.27215 17.1074 7.55215 16.8074 7.02715 16.2824C6.50215 15.7574 6.20215 15.0374 6.20215 14.2949H7.32715C7.32715 14.7374 7.50715 15.1724 7.82215 15.4874C8.13715 15.8024 8.57215 15.9824 9.01465 15.9824C9.94465 15.9824 10.7021 15.2249 10.7021 14.2949H11.8271C11.8271 15.8474 10.5671 17.1074 9.01465 17.1074Z" fill="#0079E9"/>
</svg>
