<svg width="22" height="16" viewBox="0 0 22 16" fill="none" xmlns="http://www.w3.org/2000/svg">
<path d="M20.1666 6.16634H1.83331M1.83331 4.51634L1.83331 11.483C1.83331 12.5098 1.83331 13.0232 2.03313 13.4153C2.2089 13.7603 2.48937 14.0408 2.83433 14.2165C3.2265 14.4163 3.73988 14.4163 4.76665 14.4163L17.2333 14.4163C18.2601 14.4163 18.7735 14.4163 19.1656 14.2165C19.5106 14.0408 19.7911 13.7603 19.9668 13.4153C20.1666 13.0232 20.1666 12.5098 20.1666 11.483V4.51634C20.1666 3.48958 20.1666 2.9762 19.9668 2.58403C19.7911 2.23906 19.5106 1.9586 19.1656 1.78283C18.7735 1.58301 18.2601 1.58301 17.2333 1.58301L4.76665 1.58301C3.73988 1.58301 3.2265 1.58301 2.83433 1.78283C2.48937 1.9586 2.2089 2.23906 2.03313 2.58402C1.83331 2.9762 1.83331 3.48958 1.83331 4.51634Z" stroke="#0079E9" stroke-width="2" stroke-linecap="round" stroke-linejoin="round"/>
</svg>
