<svg width="40" height="40" viewBox="0 0 40 40" fill="none" xmlns="http://www.w3.org/2000/svg">
<rect width="40" height="40" rx="20" fill="#7658F2"/>
<g clip-path="url(#clip0_976_7585)">
<path d="M15.7549 24.2774C16.6924 25.2148 17.682 26.0612 18.7236 26.8165C19.7653 27.5717 20.807 28.1706 21.8486 28.6133C22.8903 29.056 23.8766 29.2774 24.8076 29.2774C25.4391 29.2774 26.0283 29.1634 26.5751 28.9356C27.1221 28.7077 27.6169 28.3496 28.0595 27.8614C28.3199 27.5749 28.525 27.2673 28.6748 26.9385C28.8246 26.6097 28.8994 26.2793 28.8994 25.9473C28.8994 25.6999 28.8506 25.4639 28.7529 25.2393C28.6553 25.0147 28.4892 24.821 28.2548 24.6583L25.2568 22.5293C25.029 22.3731 24.8174 22.2559 24.622 22.1778C24.4268 22.0996 24.2412 22.0606 24.0654 22.0606C23.8441 22.0606 23.6293 22.1208 23.4209 22.2413C23.2126 22.3617 22.9977 22.5326 22.7763 22.754L22.083 23.4375C21.9854 23.5417 21.8617 23.5938 21.7119 23.5938C21.6338 23.5938 21.5605 23.5807 21.4921 23.5547C21.4238 23.5287 21.3668 23.5059 21.3212 23.4864C21.0153 23.3236 20.6247 23.042 20.1494 22.6416C19.6742 22.2412 19.1956 21.8002 18.7139 21.3184C18.2386 20.8366 17.7992 20.358 17.3955 19.8828C16.9919 19.4076 16.7119 19.0202 16.5557 18.7207C16.5296 18.6686 16.5052 18.6084 16.4824 18.54C16.4596 18.4717 16.4482 18.4017 16.4482 18.3301C16.4482 18.1868 16.4971 18.0664 16.5947 17.9688L17.2881 17.2559C17.5029 17.0345 17.6722 16.8197 17.7959 16.6113C17.9196 16.403 17.9814 16.1882 17.9814 15.9668C17.9814 15.791 17.9408 15.6055 17.8594 15.4102C17.778 15.2148 17.6559 15.0033 17.4932 14.7754L15.3936 11.8164C15.2243 11.582 15.0225 11.4111 14.7881 11.3037C14.5537 11.1963 14.3063 11.1426 14.0459 11.1426C13.3753 11.1426 12.7471 11.4258 12.1611 11.9922C11.6859 12.4479 11.3392 12.9508 11.1211 13.501C10.903 14.0511 10.7939 14.6387 10.7939 15.2637C10.7939 16.2012 11.012 17.1859 11.4482 18.2178C11.8844 19.2497 12.4769 20.2832 13.2256 21.3184C13.9743 22.3535 14.8174 23.3398 15.7549 24.2774Z" fill="white"/>
</g>
<defs>
<clipPath id="clip0_976_7585">
<rect width="18.1055" height="18.8379" fill="white" transform="translate(10.7939 10.4395)"/>
</clipPath>
</defs>
</svg>
