<svg width="36" height="37" viewBox="0 0 36 37" fill="none" xmlns="http://www.w3.org/2000/svg">
<rect y="0.5" width="36" height="36" rx="18" fill="#F3F3F3"/>
<path d="M24.625 26C22.8889 26 21.1736 25.6217 19.4792 24.865C17.7847 24.1083 16.2431 23.0353 14.8542 21.6458C13.4653 20.2564 12.3925 18.7147 11.6358 17.0208C10.8792 15.3269 10.5006 13.6117 10.5 11.875C10.5 11.625 10.5833 11.4167 10.75 11.25C10.9167 11.0833 11.125 11 11.375 11H14.75C14.9444 11 15.1181 11.0661 15.2708 11.1983C15.4236 11.3306 15.5139 11.4867 15.5417 11.6667L16.0833 14.5833C16.1111 14.8056 16.1042 14.9931 16.0625 15.1458C16.0208 15.2986 15.9444 15.4306 15.8333 15.5417L13.8125 17.5833C14.0903 18.0972 14.42 18.5936 14.8017 19.0725C15.1833 19.5514 15.6036 20.0133 16.0625 20.4583C16.4931 20.8889 16.9444 21.2883 17.4167 21.6567C17.8889 22.025 18.3889 22.3617 18.9167 22.6667L20.875 20.7083C21 20.5833 21.1633 20.4897 21.365 20.4275C21.5667 20.3653 21.7644 20.3478 21.9583 20.375L24.8333 20.9583C25.0278 21.0139 25.1875 21.1147 25.3125 21.2608C25.4375 21.4069 25.5 21.57 25.5 21.75V25.125C25.5 25.375 25.4167 25.5833 25.25 25.75C25.0833 25.9167 24.875 26 24.625 26Z" fill="#7658F2"/>
</svg>
