<svg width="16" height="16" viewBox="0 0 16 16" fill="none" xmlns="http://www.w3.org/2000/svg">
<path d="M1.69445 15.25C1.22847 15.25 0.829432 15.0839 0.497321 14.7518C0.16521 14.4197 -0.000563376 14.021 1.43841e-06 13.5556V1.69445C1.43841e-06 1.22847 0.166057 0.829432 0.498168 0.497321C0.830279 0.16521 1.22904 -0.000563376 1.69445 1.43841e-06H13.5556C14.0215 1.43841e-06 14.4206 0.166057 14.7527 0.498168C15.0848 0.830279 15.2506 1.22904 15.25 1.69445V13.5556C15.25 14.0215 15.0839 14.4206 14.7518 14.7527C14.4197 15.0848 14.021 15.2506 13.5556 15.25H1.69445ZM1.69445 13.5556H4.44792V9.74306H4.23611C3.99607 9.74306 3.79471 9.66172 3.63204 9.49905C3.46938 9.33639 3.38832 9.13531 3.38889 8.89583V1.69445H1.69445V13.5556ZM10.8021 13.5556H13.5556V1.69445H11.8611V8.89583C11.8611 9.13588 11.7798 9.33724 11.6171 9.4999C11.4544 9.66257 11.2534 9.74362 11.0139 9.74306H10.8021V13.5556ZM5.71875 13.5556H9.53125V9.74306H9.31944C9.0794 9.74306 8.87804 9.66172 8.71537 9.49905C8.55271 9.33639 8.47166 9.13531 8.47222 8.89583V1.69445H6.77778V8.89583C6.77778 9.13588 6.69644 9.33724 6.53378 9.4999C6.37111 9.66257 6.17004 9.74362 5.93056 9.74306H5.71875V13.5556Z" fill="#F99034"/>
</svg>
