<svg width="120" height="120" viewBox="0 0 120 120" fill="none" xmlns="http://www.w3.org/2000/svg">
<path d="M102.427 17.5734C91.1746 6.32119 75.9133 -0.000244141 60.0002 -0.000244141C44.0872 -0.000244141 28.8259 6.32119 17.5737 17.5734C6.32143 28.8256 0 44.0869 0 60C0 75.913 6.32143 91.1743 17.5737 102.427C28.8259 113.679 44.0872 120 60.0002 120C75.9133 120 91.1746 113.679 102.427 102.427C113.679 91.1743 120 75.913 120 60C120 44.0869 113.679 28.8256 102.427 17.5734ZM99.776 99.7758C89.2268 110.325 74.919 116.251 60.0002 116.251C45.0814 116.251 30.7736 110.325 20.2244 99.7758C9.67524 89.2266 3.74877 74.9188 3.74877 60C3.74877 45.0812 9.67524 30.7734 20.2244 20.2242C30.7736 9.675 45.0814 3.74853 60.0002 3.74853C74.919 3.74853 89.2268 9.675 99.776 20.2242C110.325 30.7734 116.252 45.0812 116.252 60C116.252 74.9188 110.325 89.2266 99.776 99.7758Z" fill="#0079E9"/>
<path d="M99.7708 25.7419C99.6029 25.5451 99.3961 25.3852 99.1634 25.2722C98.9307 25.1593 98.6771 25.0957 98.4186 25.0854C98.1601 25.0752 97.9023 25.1186 97.6614 25.2129C97.4205 25.3071 97.2017 25.4502 97.0188 25.6331L25.6331 97.0188C25.4502 97.2017 25.3071 97.4205 25.2129 97.6614C25.1186 97.9023 25.0752 98.1601 25.0854 98.4186C25.0957 98.6771 25.1593 98.9307 25.2722 99.1634C25.3852 99.3961 25.5451 99.6029 25.7419 99.7708C34.7219 107.435 46.118 111.572 58.0992 111.572C59.047 111.572 59.9987 111.546 60.9544 111.494C74.0144 110.781 86.3887 105.206 95.7975 95.7975C105.206 86.3885 110.781 74.0137 111.494 60.9544C112.205 47.9379 108.042 35.4326 99.7708 25.7419ZM52.7266 75.229C55.8759 76.7322 59.4137 77.2223 62.8531 76.6318C66.2924 76.0414 69.4642 74.3993 71.9318 71.9317C74.3993 69.4642 76.0414 66.2924 76.6318 62.8531C77.2223 59.4137 76.7322 55.8759 75.229 52.7266L86.7054 41.2502H91.8752V78.7502H49.2054L52.7266 75.229ZM72.3642 55.5914C73.1975 57.9311 73.35 60.4592 72.804 62.8822C72.2581 65.3051 71.036 67.5235 69.2798 69.2798C67.5235 71.036 65.3051 72.258 62.8822 72.804C60.4592 73.35 57.9311 73.1975 55.5914 72.3642L72.3642 55.5914ZM107.75 60.7502C107.087 72.8864 101.9 84.3916 93.1458 93.1462C84.3912 101.901 72.8859 107.086 60.7502 107.75C49.3952 108.37 38.4675 104.991 29.752 98.2033L45.4551 82.5002H93.7502C94.2475 82.5002 94.7244 82.3027 95.076 81.951C95.4277 81.5994 95.6252 81.1225 95.6252 80.6252V39.3752C95.6252 38.8779 95.4277 38.401 95.076 38.0494C94.7244 37.6978 94.2475 37.5002 93.7502 37.5002H90.4554L98.2033 29.752C104.991 38.4677 108.37 49.3943 107.75 60.7502Z" fill="#0079E9"/>
<path d="M94.2588 20.2289C84.5674 11.9578 72.0611 7.79765 59.0463 8.50546C45.9869 9.21796 33.6119 14.7937 24.2018 24.2016C14.7916 33.6094 9.21816 45.9867 8.50566 59.0461C7.7955 72.0633 11.958 84.5672 20.2291 94.2586C20.397 94.4553 20.6039 94.6152 20.8366 94.7282C21.0694 94.8411 21.3229 94.9047 21.5814 94.9148C21.6072 94.9148 21.6307 94.9172 21.6564 94.9172C21.9026 94.9171 22.1463 94.8685 22.3735 94.7739C22.6008 94.6794 22.8071 94.5409 22.9807 94.3664L94.3666 22.9805C94.5497 22.7977 94.6929 22.579 94.7873 22.3382C94.8817 22.0973 94.9251 21.8396 94.915 21.5811C94.9049 21.3226 94.8414 21.069 94.7284 20.8363C94.6155 20.6036 94.4556 20.3968 94.2588 20.2289ZM47.6369 64.4086C46.8032 62.0689 46.6503 59.5408 47.1961 57.1177C47.7418 54.6947 48.9638 52.4762 50.7201 50.7199C52.4764 48.9636 54.6949 47.7416 57.1179 47.1959C59.541 46.6501 62.0691 46.803 64.4088 47.6367L47.6369 64.4086ZM67.2729 44.7703C64.1236 43.2677 60.586 42.778 57.1469 43.3687C53.7079 43.9594 50.5364 45.6015 48.069 48.0688C45.6017 50.5362 43.9596 53.7077 43.3689 57.1467C42.7782 60.5858 43.2679 64.1234 44.7705 67.2726L33.2955 78.75H28.1252V41.25H50.6252C51.0433 41.2499 51.4494 41.1101 51.7789 40.8528C52.1085 40.5954 52.3425 40.2353 52.4439 39.8297L53.965 33.75H66.0354L67.5564 39.8297C67.6578 40.2353 67.8919 40.5954 68.2214 40.8528C68.551 41.1101 68.9571 41.2499 69.3752 41.25H70.7955L67.2729 44.7703ZM33.7502 37.5V35.625H37.5002V37.5H33.7502ZM74.5455 37.5H70.84L69.3189 31.4203C69.2176 31.0147 68.9835 30.6546 68.6539 30.3972C68.3244 30.1399 67.9183 30.0001 67.5002 30H52.5002C52.0821 30.0001 51.676 30.1399 51.3464 30.3972C51.0169 30.6546 50.7828 31.0147 50.6814 31.4203L49.1603 37.5H41.2502V33.75C41.2502 33.2527 41.0527 32.7758 40.701 32.4242C40.3494 32.0725 39.8725 31.875 39.3752 31.875H31.8752C31.3779 31.875 30.901 32.0725 30.5494 32.4242C30.1977 32.7758 30.0002 33.2527 30.0002 33.75V37.5H26.2502C25.7529 37.5 25.276 37.6975 24.9244 38.0492C24.5727 38.4008 24.3752 38.8777 24.3752 39.375V80.625C24.3752 81.1223 24.5727 81.5992 24.9244 81.9508C25.276 82.3024 25.7529 82.5 26.2502 82.5H29.5455L21.7971 90.2484C15.0096 81.532 11.6299 70.6055 12.251 59.25C12.9143 47.1141 18.0986 35.6086 26.8549 26.8547C35.6111 18.1008 47.1143 12.9141 59.2502 12.2508C60.1361 12.2016 61.0189 12.1773 61.8986 12.1781C72.2955 12.1781 82.2119 15.5391 90.2486 21.7969L74.5455 37.5Z" fill="#0079E9"/>
<path d="M31.875 52.5H39.375C39.8723 52.5 40.3492 52.3025 40.7008 51.9508C41.0525 51.5992 41.25 51.1223 41.25 50.625V45C41.25 44.5027 41.0525 44.0258 40.7008 43.6742C40.3492 43.3225 39.8723 43.125 39.375 43.125H31.875C31.3777 43.125 30.9008 43.3225 30.5492 43.6742C30.1975 44.0258 30 44.5027 30 45V50.625C30 51.1223 30.1975 51.5992 30.5492 51.9508C30.9008 52.3025 31.3777 52.5 31.875 52.5ZM33.75 46.875H37.5V48.75H33.75V46.875Z" fill="#0079E9"/>
</svg>
