<svg width="10" height="8" viewBox="0 0 10 8" fill="none" xmlns="http://www.w3.org/2000/svg">
<path d="M0.459517 8V6.08239C0.459517 5.5 0.5625 4.8821 0.768466 4.22869C0.981534 3.56818 1.28693 2.93253 1.68466 2.32173C2.08949 1.70383 2.57599 1.16761 3.14418 0.713068L4.18821 1.61861C3.64844 2.24361 3.19389 2.93963 2.82457 3.70668C2.46236 4.46662 2.28125 5.24787 2.28125 6.05043V8H0.459517ZM5.45597 8V6.08239C5.45597 5.5 5.55895 4.8821 5.76492 4.22869C5.97798 3.56818 6.28338 2.93253 6.68111 2.32173C7.08594 1.70383 7.57244 1.16761 8.14062 0.713068L9.18466 1.61861C8.64489 2.24361 8.19034 2.93963 7.82102 3.70668C7.45881 4.46662 7.2777 5.24787 7.2777 6.05043V8H5.45597Z" fill="white"/>
</svg>
