<svg width="60" height="60" viewBox="0 0 60 60" fill="none" xmlns="http://www.w3.org/2000/svg">
<rect width="60" height="60" rx="30" fill="#EBEBEB"/>
<path d="M30 24V25.79C30 26.24 30.54 26.46 30.85 26.14L33.64 23.35C33.84 23.15 33.84 22.84 33.64 22.64L30.85 19.85C30.7795 19.7809 30.6901 19.7342 30.5931 19.7158C30.4962 19.6974 30.3959 19.7081 30.305 19.7466C30.2141 19.7851 30.1366 19.8497 30.0823 19.9321C30.0281 20.0146 29.9994 20.1113 30 20.21V22C25.58 22 22 25.58 22 30C22 31.04 22.2 32.04 22.57 32.95C22.84 33.62 23.7 33.8 24.21 33.29C24.48 33.02 24.59 32.61 24.44 32.25C24.15 31.56 24 30.79 24 30C24 26.69 26.69 24 30 24ZM35.79 26.71C35.52 26.98 35.41 27.4 35.56 27.75C35.84 28.45 36 29.21 36 30C36 33.31 33.31 36 30 36V34.21C30 33.76 29.46 33.54 29.15 33.86L26.36 36.65C26.16 36.85 26.16 37.16 26.36 37.36L29.15 40.15C29.2199 40.2185 29.3083 40.265 29.4044 40.2837C29.5005 40.3024 29.5999 40.2926 29.6904 40.2553C29.7809 40.218 29.8585 40.155 29.9135 40.0741C29.9686 39.9931 29.9986 39.8978 30 39.8V38C34.42 38 38 34.42 38 30C38 28.96 37.8 27.96 37.43 27.05C37.16 26.38 36.3 26.2 35.79 26.71Z" fill="#7658F2"/>
</svg>
