<svg width="19" height="18" viewBox="0 0 19 18" fill="none" xmlns="http://www.w3.org/2000/svg">
<path d="M6.8 12.75L9.5 10.05L12.2 12.75L13.25 11.7L10.55 9L13.25 6.3L12.2 5.25L9.5 7.95L6.8 5.25L5.75 6.3L8.45 9L5.75 11.7L6.8 12.75ZM9.5 16.5C8.4625 16.5 7.4875 16.303 6.575 15.909C5.6625 15.515 4.86875 14.9808 4.19375 14.3063C3.51875 13.6313 2.9845 12.8375 2.591 11.925C2.1975 11.0125 2.0005 10.0375 2 9C2 7.9625 2.197 6.9875 2.591 6.075C2.985 5.1625 3.51925 4.36875 4.19375 3.69375C4.86875 3.01875 5.6625 2.4845 6.575 2.091C7.4875 1.6975 8.4625 1.5005 9.5 1.5C10.5375 1.5 11.5125 1.697 12.425 2.091C13.3375 2.485 14.1313 3.01925 14.8063 3.69375C15.4813 4.36875 16.0157 5.1625 16.4097 6.075C16.8037 6.9875 17.0005 7.9625 17 9C17 10.0375 16.803 11.0125 16.409 11.925C16.015 12.8375 15.4808 13.6313 14.8063 14.3063C14.1313 14.9813 13.3375 15.5157 12.425 15.9097C11.5125 16.3037 10.5375 16.5005 9.5 16.5ZM9.5 15C11.175 15 12.5937 14.4187 13.7562 13.2562C14.9187 12.0937 15.5 10.675 15.5 9C15.5 7.325 14.9187 5.90625 13.7562 4.74375C12.5937 3.58125 11.175 3 9.5 3C7.825 3 6.40625 3.58125 5.24375 4.74375C4.08125 5.90625 3.5 7.325 3.5 9C3.5 10.675 4.08125 12.0937 5.24375 13.2562C6.40625 14.4187 7.825 15 9.5 15Z" fill="#BABABA"/>
</svg>
