<svg width="34" height="34" viewBox="0 0 34 34" fill="none" xmlns="http://www.w3.org/2000/svg">
<path d="M7.16992 9.1752V22.8873C7.16992 23.6974 7.82366 24.3541 8.63019 24.3541H25.3697C26.1762 24.3541 26.8299 23.6974 26.8299 22.8873V9.1752C26.8299 8.36508 26.1762 7.70844 25.3697 7.70844H8.63019C7.8238 7.70844 7.16992 8.36508 7.16992 9.1752Z" fill="#F0C020"/>
<path d="M25.3239 23.1852H10.6807C10.4916 23.1852 10.3384 23.0313 10.3384 22.8414C10.3384 22.6515 10.4916 22.4976 10.6807 22.4976H24.9816V9.22118C24.9816 9.03126 25.1348 8.87738 25.3239 8.87738C25.513 8.87738 25.6662 9.03126 25.6662 9.22118V22.8414C25.6662 23.0313 25.513 23.1852 25.3239 23.1852ZM9.31158 23.1852H8.67577C8.4867 23.1852 8.3335 23.0313 8.3335 22.8414C8.3335 22.6515 8.4867 22.4976 8.67577 22.4976H9.31158C9.50065 22.4976 9.65385 22.6515 9.65385 22.8414C9.65385 23.0313 9.50065 23.1852 9.31158 23.1852Z" fill="#F8E5B0"/>
<path d="M23.3794 20.0494C23.3794 20.8472 22.7338 21.4834 21.9542 21.4834H12.0458C11.2597 21.4834 10.6206 20.8413 10.6206 20.0494C10.6206 19.261 11.2594 18.6178 12.0458 18.6178H21.9542C22.7403 18.6178 23.3794 19.2599 23.3794 20.0494Z" fill="#EFF0F0"/>
<path d="M10.6206 13.0241C10.6206 11.7819 11.6247 10.7733 12.8614 10.7733C14.0981 10.7733 15.0997 11.7819 15.0997 13.0241C15.0997 14.2663 14.0981 15.2724 12.8614 15.2724C11.6246 15.2724 10.6206 14.2663 10.6206 13.0241Z" fill="#EFF0F0"/>
<path d="M18.9004 13.0241C18.9004 11.7819 19.9045 10.7733 21.1412 10.7733C22.3779 10.7733 23.3795 11.7819 23.3795 13.0241C23.3795 14.2663 22.3779 15.2724 21.1412 15.2724C19.9043 15.2724 18.9004 14.2663 18.9004 13.0241Z" fill="#EFF0F0"/>
<path d="M17.0002 4.36891C18.1068 4.36891 19.0039 3.46785 19.0039 2.35633C19.0039 1.24481 18.1068 0.34375 17.0002 0.34375C15.8937 0.34375 14.9966 1.24481 14.9966 2.35633C14.9966 3.46785 15.8937 4.36891 17.0002 4.36891Z" fill="#FC5D3D"/>
<path d="M31.0881 29.0493H2.91162V27.8159C2.91162 27.4363 3.21816 27.1284 3.59617 27.1284H30.4035C30.7815 27.1284 31.0881 27.4363 31.0881 27.8159V29.0493Z" fill="#AFAFAF"/>
<path d="M32.9729 33.6562H1.02732C0.649313 33.6562 0.342773 33.3483 0.342773 32.9686V29.7369C0.342773 29.3572 0.649313 29.0493 1.02732 29.0493H32.9727C33.3507 29.0493 33.6573 29.3572 33.6573 29.7369V32.9686C33.6574 33.3484 33.3509 33.6562 32.9729 33.6562Z" fill="#72C2E9"/>
<path d="M3.23656 32.2138C3.70052 32.2138 4.07663 31.836 4.07663 31.37C4.07663 30.904 3.70052 30.5262 3.23656 30.5262C2.7726 30.5262 2.39648 30.904 2.39648 31.37C2.39648 31.836 2.7726 32.2138 3.23656 32.2138Z" fill="white"/>
<path d="M7.82445 32.2138C8.28841 32.2138 8.66452 31.836 8.66452 31.37C8.66452 30.904 8.28841 30.5262 7.82445 30.5262C7.36049 30.5262 6.98438 30.904 6.98438 31.37C6.98438 31.836 7.36049 32.2138 7.82445 32.2138Z" fill="white"/>
<path d="M12.4123 32.2138C12.8763 32.2138 13.2524 31.836 13.2524 31.37C13.2524 30.904 12.8763 30.5262 12.4123 30.5262C11.9484 30.5262 11.5723 30.904 11.5723 31.37C11.5723 31.836 11.9484 32.2138 12.4123 32.2138Z" fill="white"/>
<path d="M16.9997 32.2138C17.4637 32.2138 17.8398 31.836 17.8398 31.37C17.8398 30.904 17.4637 30.5262 16.9997 30.5262C16.5358 30.5262 16.1597 30.904 16.1597 31.37C16.1597 31.836 16.5358 32.2138 16.9997 32.2138Z" fill="white"/>
<path d="M21.5876 32.2138C22.0516 32.2138 22.4277 31.836 22.4277 31.37C22.4277 30.904 22.0516 30.5262 21.5876 30.5262C21.1237 30.5262 20.7476 30.904 20.7476 31.37C20.7476 31.836 21.1237 32.2138 21.5876 32.2138Z" fill="white"/>
<path d="M26.1755 32.2138C26.6395 32.2138 27.0156 31.836 27.0156 31.37C27.0156 30.904 26.6395 30.5262 26.1755 30.5262C25.7116 30.5262 25.3354 30.904 25.3354 31.37C25.3354 31.836 25.7116 32.2138 26.1755 32.2138Z" fill="white"/>
<path d="M30.7634 32.2138C31.2274 32.2138 31.6035 31.836 31.6035 31.37C31.6035 30.904 31.2274 30.5262 30.7634 30.5262C30.2995 30.5262 29.9233 30.904 29.9233 31.37C29.9233 31.836 30.2995 32.2138 30.7634 32.2138Z" fill="white"/>
<path d="M8.63073 24.6983H25.3692C26.3632 24.6969 27.1723 23.8855 27.1723 22.8872V20.8931C27.1723 20.7034 27.019 20.5493 26.8301 20.5493C26.6411 20.5493 26.4878 20.7034 26.4878 20.8931V22.8872C26.4864 23.506 25.9853 24.0093 25.3692 24.0107H8.63073C8.01464 24.0093 7.51355 23.506 7.51218 22.8872V9.17521C7.51355 8.55776 8.01464 8.05307 8.63073 8.05169H25.3692C25.9853 8.05307 26.4864 8.55776 26.4878 9.17521V18.1428C26.4878 18.3326 26.6411 18.4866 26.8301 18.4866C27.019 18.4866 27.1723 18.3326 27.1723 18.1428V18.1414V9.17521C27.1723 8.17683 26.3632 7.36547 25.3692 7.3641H17.3423V4.68483C18.4738 4.51747 19.3454 3.53821 19.3466 2.35569C19.3452 1.05752 18.2938 0 17 0C15.7062 0 14.6547 1.05752 14.6547 2.35569C14.6547 3.53821 15.5262 4.51747 16.6577 4.68483V7.3641H8.63073C7.63663 7.36547 6.82764 8.17683 6.82764 9.17521V22.8872C6.82764 23.8855 7.63663 24.6969 8.63073 24.6983ZM15.3378 2.35569C15.3406 1.43844 16.0853 0.688966 17 0.687591C17.9145 0.688966 18.6593 1.43844 18.6607 2.35569C18.6593 3.27431 17.9145 4.02378 17 4.02516C16.0853 4.02378 15.3406 3.27431 15.3378 2.35569Z" fill="black"/>
<path d="M26.8301 19.8617C27.0191 19.8617 27.1723 19.7078 27.1723 19.5179C27.1723 19.3281 27.0191 19.1741 26.8301 19.1741C26.641 19.1741 26.4878 19.3281 26.4878 19.5179C26.4878 19.7078 26.641 19.8617 26.8301 19.8617Z" fill="black"/>
<path d="M12.0453 21.8269H21.9548C22.9282 21.8269 23.7209 21.0293 23.7209 20.0488C23.7209 19.071 22.9282 18.2748 21.9548 18.2734H12.0453C11.072 18.2748 10.2793 19.071 10.2778 20.0488C10.2792 21.0293 11.0719 21.8269 12.0453 21.8269ZM16.6578 21.1393H14.1524V18.961H16.6578V21.1393ZM17.3423 18.961H19.8491V21.1393H17.3423V18.961ZM23.0378 20.0488C23.0364 20.6498 22.5504 21.1379 21.9548 21.1393H20.5337V18.961H21.9548C22.5504 18.9624 23.0364 19.4506 23.0378 20.0488ZM12.0453 18.961H13.4678V21.1393H12.0453C11.4498 21.1379 10.9639 20.6498 10.9624 20.0488C10.9637 19.4506 11.4498 18.9624 12.0453 18.961Z" fill="black"/>
<path d="M12.8613 15.6166C14.2839 15.6166 15.4422 14.4532 15.4422 13.0244C15.4422 11.5942 14.2839 10.4294 12.8613 10.4294C11.4376 10.4308 10.2793 11.5942 10.2778 13.0244C10.2792 14.4532 11.4375 15.6166 12.8613 15.6166ZM12.8613 11.117C13.9046 11.1197 14.7548 11.9751 14.7576 13.0244C14.7548 14.0722 13.9047 14.9262 12.8613 14.929C11.8167 14.9262 10.9651 14.0722 10.9624 13.0244C10.9651 11.9751 11.8167 11.1197 12.8613 11.117Z" fill="black"/>
<path d="M21.1416 10.4294C19.7177 10.4294 18.5581 11.5942 18.5581 13.0244C18.5581 14.4532 19.7177 15.6166 21.1416 15.6166C22.5641 15.6166 23.7209 14.4532 23.7209 13.0244C23.7209 11.5942 22.5641 10.4294 21.1416 10.4294ZM21.1416 14.929C20.097 14.9262 19.2453 14.0722 19.2427 13.0244C19.2454 11.9751 20.097 11.1183 21.1416 11.117C22.1848 11.1183 23.035 11.9751 23.0378 13.0244C23.035 14.0722 22.1848 14.9262 21.1416 14.929Z" fill="black"/>
<path d="M2.0542 31.3699C2.0542 32.0248 2.58458 32.5577 3.23668 32.5577C3.88878 32.5577 4.41917 32.0248 4.41917 31.3699C4.41917 30.7151 3.88878 30.1823 3.23668 30.1823C2.58458 30.1823 2.0542 30.7151 2.0542 31.3699ZM3.73448 31.3699C3.73448 31.6456 3.51105 31.8701 3.23655 31.8701C2.96204 31.8701 2.73861 31.6458 2.73861 31.3699C2.73861 31.0942 2.96204 30.8699 3.23655 30.8699C3.51105 30.8699 3.73448 31.0942 3.73448 31.3699Z" fill="black"/>
<path d="M9.00643 31.3699C9.00643 30.7151 8.47605 30.1823 7.82395 30.1823C7.17199 30.1823 6.6416 30.7151 6.6416 31.3699C6.6416 32.0248 7.17199 32.5577 7.82395 32.5577C8.47605 32.5577 9.00643 32.0248 9.00643 31.3699ZM7.82395 31.8701C7.54945 31.8701 7.32615 31.6458 7.32615 31.3699C7.32615 31.0942 7.54945 30.8699 7.82395 30.8699C8.09845 30.8699 8.32189 31.0942 8.32189 31.3699C8.32189 31.6456 8.09845 31.8701 7.82395 31.8701Z" fill="black"/>
<path d="M13.5943 31.3699C13.5943 30.7151 13.0639 30.1823 12.412 30.1823C11.7599 30.1823 11.2295 30.7151 11.2295 31.3699C11.2295 32.0248 11.7599 32.5577 12.412 32.5577C13.0639 32.5577 13.5943 32.0248 13.5943 31.3699ZM11.9142 31.3699C11.9142 31.0942 12.1376 30.8699 12.4121 30.8699C12.6866 30.8699 12.9099 31.0942 12.9099 31.3699C12.9099 31.6456 12.6866 31.8701 12.4121 31.8701C12.1376 31.8701 11.9142 31.6456 11.9142 31.3699Z" fill="black"/>
<path d="M18.1823 31.3699C18.1823 30.7151 17.652 30.1823 16.9999 30.1823C16.3478 30.1823 15.8174 30.7151 15.8174 31.3699C15.8174 32.0248 16.3478 32.5577 16.9999 32.5577C17.652 32.5577 18.1823 32.0248 18.1823 31.3699ZM16.5019 31.3699C16.5019 31.0942 16.7254 30.8699 16.9999 30.8699C17.2744 30.8699 17.4978 31.0942 17.4978 31.3699C17.4978 31.6456 17.2744 31.8701 16.9999 31.8701C16.7254 31.8701 16.5019 31.6456 16.5019 31.3699Z" fill="black"/>
<path d="M22.7701 31.3699C22.7701 30.7151 22.2397 30.1823 21.5876 30.1823C20.9357 30.1823 20.4053 30.7151 20.4053 31.3699C20.4053 32.0248 20.9357 32.5577 21.5876 32.5577C22.2397 32.5577 22.7701 32.0248 22.7701 31.3699ZM21.09 31.3699C21.09 31.0942 21.3133 30.8699 21.5878 30.8699C21.8623 30.8699 22.0857 31.0942 22.0857 31.3699C22.0857 31.6456 21.8623 31.8701 21.5878 31.8701C21.3133 31.8701 21.09 31.6456 21.09 31.3699Z" fill="black"/>
<path d="M27.358 31.3699C27.358 30.7151 26.8276 30.1823 26.1756 30.1823C25.5236 30.1823 24.9932 30.7151 24.9932 31.3699C24.9932 32.0248 25.5236 32.5577 26.1756 32.5577C26.8276 32.5577 27.358 32.0248 27.358 31.3699ZM25.6778 31.3699C25.6778 31.0942 25.9013 30.8699 26.1758 30.8699C26.4503 30.8699 26.6736 31.0942 26.6736 31.3699C26.6736 31.6456 26.4503 31.8701 26.1758 31.8701C25.9013 31.8701 25.6778 31.6456 25.6778 31.3699Z" fill="black"/>
<path d="M31.946 31.3699C31.946 30.7151 31.4156 30.1823 30.7635 30.1823C30.1114 30.1823 29.5811 30.7151 29.5811 31.3699C29.5811 32.0248 30.1114 32.5577 30.7635 32.5577C31.4156 32.5577 31.946 32.0248 31.946 31.3699ZM30.2657 31.3699C30.2657 31.0942 30.4892 30.8699 30.7637 30.8699C31.0382 30.8699 31.2616 31.0942 31.2616 31.3699C31.2616 31.6456 31.0382 31.8701 30.7637 31.8701C30.4892 31.8701 30.2657 31.6456 30.2657 31.3699Z" fill="black"/>
<path d="M32.9732 28.7056H31.4301V27.8158C31.4301 27.2479 30.9702 26.7844 30.4033 26.7844H29.2491C29.0602 26.7844 28.9068 26.9384 28.9068 27.1282C28.9068 27.318 29.0602 27.472 29.2491 27.472H29.2505H30.4033C30.5923 27.472 30.7455 27.6274 30.7455 27.8158V28.7056C29.3322 28.7056 4.03321 28.7056 3.25419 28.7056V27.8158C3.25419 27.6274 3.40753 27.472 3.59646 27.472H26.5109C26.6985 27.472 26.8532 27.318 26.8532 27.1282C26.8532 26.9384 26.6985 26.7844 26.5109 26.7844H3.5966C3.0298 26.7844 2.56978 27.2479 2.56978 27.8158V28.7056H1.02682C0.461384 28.7056 0.00136909 29.1676 0 29.7369V32.9686C0.00136909 33.5366 0.461384 34 1.02682 34H5.59137C5.77893 34 5.93364 33.846 5.93364 33.6562C5.93364 33.4678 5.7803 33.3138 5.59274 33.3124H5.59137H1.02682C0.839253 33.3124 0.685915 33.1584 0.684545 32.9686V29.7369C0.685915 29.5472 0.839253 29.3931 1.02682 29.3931H32.9732C33.1607 29.3931 33.3141 29.5472 33.3155 29.7369V32.9686C33.3141 33.1584 33.1607 33.3124 32.9732 33.3124H8.32955C8.14061 33.3124 7.98728 33.4664 7.98728 33.6562C7.98728 33.846 8.14061 34 8.32955 34H32.9732C33.5386 34 33.9986 33.5366 34 32.9686V29.7369C33.9986 29.1676 33.5386 28.7056 32.9732 28.7056Z" fill="black"/>
<path d="M6.96044 34C7.14947 34 7.30271 33.846 7.30271 33.6562C7.30271 33.4663 7.14947 33.3124 6.96044 33.3124C6.7714 33.3124 6.61816 33.4663 6.61816 33.6562C6.61816 33.846 6.7714 34 6.96044 34Z" fill="black"/>
<path d="M27.8804 27.472C28.0694 27.472 28.2226 27.3181 28.2226 27.1282C28.2226 26.9383 28.0694 26.7844 27.8804 26.7844C27.6913 26.7844 27.5381 26.9383 27.5381 27.1282C27.5381 27.3181 27.6913 27.472 27.8804 27.472Z" fill="black"/>
</svg>
