<svg width="24" height="24" viewBox="0 0 24 24" fill="none" xmlns="http://www.w3.org/2000/svg">
<path d="M5.25 3V19.5H18.75V3H5.25ZM4.5 1.5H19.5C19.6989 1.5 19.8897 1.57902 20.0303 1.71967C20.171 1.86032 20.25 2.05109 20.25 2.25V20.25C20.25 20.4489 20.171 20.6397 20.0303 20.7803C19.8897 20.921 19.6989 21 19.5 21H4.5C4.30109 21 4.11032 20.921 3.96967 20.7803C3.82902 20.6397 3.75 20.4489 3.75 20.25V2.25C3.75 2.05109 3.82902 1.86032 3.96967 1.71967C4.11032 1.57902 4.30109 1.5 4.5 1.5Z" fill="#76F5A4"/>
<path d="M1.5 19.5H22.5V21H1.5V19.5ZM7.5 4.5H10.5V6.75H7.5V4.5Z" fill="#76F5A4"/>
<path d="M9 19.5H15V18C15 17.2044 14.6839 16.4413 14.1213 15.8787C13.5587 15.3161 12.7956 15 12 15C11.2044 15 10.4413 15.3161 9.87868 15.8787C9.31607 16.4413 9 17.2044 9 18V19.5ZM12 13.5C13.1935 13.5 14.3381 13.9741 15.182 14.818C16.0259 15.6619 16.5 16.8065 16.5 18V21H7.5V18C7.5 16.8065 7.97411 15.6619 8.81802 14.818C9.66193 13.9741 10.8065 13.5 12 13.5ZM7.5 9H10.5V11.25H7.5V9ZM13.5 4.5H16.5V6.75H13.5V4.5ZM13.5 9H16.5V11.25H13.5V9Z" fill="#76F5A4"/>
</svg>
