<svg width="20" height="20" viewBox="0 0 20 20" fill="none" xmlns="http://www.w3.org/2000/svg">
<path d="M19 19L15.5967 15.5963M18.0385 9.52023C18.0385 14.2258 14.2243 18.0405 9.51925 18.0405C4.8142 18.0405 1 14.2258 1 9.52023C1 4.81464 4.8142 1 9.51925 1C14.2243 1 18.0385 4.81464 18.0385 9.52023Z" stroke="#8204FF" stroke-width="1.5" stroke-linecap="round"/>
<path d="M19 19L15.5967 15.5963M18.0385 9.52023C18.0385 14.2258 14.2243 18.0405 9.51925 18.0405C4.8142 18.0405 1 14.2258 1 9.52023C1 4.81464 4.8142 1 9.51925 1C14.2243 1 18.0385 4.81464 18.0385 9.52023Z" stroke="black" stroke-opacity="0.2" stroke-width="1.5" stroke-linecap="round"/>
</svg>
