<svg width="36" height="36" viewBox="0 0 36 36" fill="none" xmlns="http://www.w3.org/2000/svg">
<rect width="36" height="36" rx="18" fill="#F3F3F3"/>
<g clip-path="url(#clip0_976_10165)">
<path d="M17.0464 28.4395H18.8432C19.0972 28.4395 19.312 28.3695 19.4877 28.2295C19.6635 28.0895 19.7775 27.8926 19.8295 27.6387L20.3374 25.4902C20.5262 25.4251 20.7118 25.3568 20.894 25.2852C21.0763 25.2135 21.2488 25.1386 21.4116 25.0605L23.2963 26.2129C23.5047 26.3431 23.7212 26.3984 23.9458 26.3789C24.1704 26.3594 24.3706 26.2617 24.5463 26.0859L25.8061 24.8359C25.9819 24.6602 26.0812 24.4551 26.104 24.2207C26.1268 23.9863 26.0665 23.7649 25.9233 23.5566L24.7709 21.6914C24.8556 21.5221 24.9321 21.3496 25.0004 21.1738C25.0688 20.9981 25.1323 20.8223 25.1909 20.6465L27.3588 20.1289C27.6062 20.0768 27.7999 19.9629 27.9399 19.7871C28.0799 19.6113 28.1499 19.3965 28.1499 19.1426V17.375C28.1499 17.1276 28.0799 16.916 27.9399 16.7402C27.7999 16.5645 27.6062 16.4505 27.3588 16.3984L25.2104 15.8809C25.1453 15.679 25.0753 15.4902 25.0004 15.3145C24.9256 15.1387 24.8556 14.9727 24.7905 14.8164L25.9428 12.9219C26.0796 12.7135 26.1398 12.4971 26.1235 12.2725C26.1073 12.0479 26.008 11.8477 25.8256 11.6719L24.5463 10.4121C24.3641 10.2493 24.1688 10.1533 23.9604 10.124C23.7521 10.0947 23.5405 10.1419 23.3256 10.2656L21.4116 11.4473C21.2554 11.3626 21.0877 11.2845 20.9086 11.2129C20.7296 11.1413 20.5392 11.0729 20.3374 11.0078L19.8295 8.83008C19.7775 8.58268 19.6635 8.38737 19.4877 8.24414C19.312 8.10091 19.0972 8.0293 18.8432 8.0293H17.0464C16.7925 8.0293 16.5776 8.10091 16.4019 8.24414C16.2261 8.38737 16.1089 8.58268 16.0503 8.83008L15.5425 10.9883C15.3537 11.0534 15.1665 11.1234 14.981 11.1982C14.7954 11.2731 14.6213 11.3529 14.4585 11.4375L12.564 10.2656C12.3491 10.1419 12.1359 10.0931 11.9243 10.1191C11.7127 10.1452 11.5158 10.2428 11.3335 10.4121L10.064 11.6719C9.88167 11.8477 9.78076 12.0479 9.76123 12.2725C9.7417 12.4971 9.80355 12.7135 9.94678 12.9219L11.0894 14.8164C11.0242 14.9727 10.9543 15.1387 10.8794 15.3145C10.8045 15.4902 10.7378 15.679 10.6792 15.8809L8.53076 16.3984C8.27686 16.4505 8.08154 16.5645 7.94482 16.7402C7.80811 16.916 7.73975 17.1276 7.73975 17.375V19.1426C7.73975 19.3965 7.80811 19.6113 7.94482 19.7871C8.08154 19.9629 8.27686 20.0768 8.53076 20.1289L10.6987 20.6465C10.7508 20.8223 10.8127 20.9981 10.8843 21.1738C10.9559 21.3496 11.0308 21.5221 11.1089 21.6914L9.96631 23.5566C9.82308 23.7649 9.76286 23.9863 9.78565 24.2207C9.80843 24.4551 9.90772 24.6602 10.0835 24.8359L11.3335 26.0859C11.5093 26.2617 11.7095 26.3594 11.9341 26.3789C12.1587 26.3984 12.3784 26.3431 12.5933 26.2129L14.4683 25.0605C14.631 25.1386 14.8035 25.2135 14.9858 25.2852C15.1681 25.3568 15.3537 25.4251 15.5425 25.4902L16.0503 27.6387C16.1089 27.8926 16.2261 28.0895 16.4019 28.2295C16.5776 28.3695 16.7925 28.4395 17.0464 28.4395ZM17.9448 21.6816C17.3133 21.6816 16.7355 21.5254 16.2114 21.2129C15.6873 20.9004 15.2707 20.4821 14.9614 19.958C14.6522 19.4339 14.4976 18.8561 14.4976 18.2246C14.4976 17.5931 14.6538 17.0186 14.9663 16.501C15.2788 15.9834 15.6955 15.5684 16.2163 15.2559C16.7371 14.9434 17.3133 14.7871 17.9448 14.7871C18.5763 14.7871 19.1541 14.9434 19.6782 15.2559C20.2023 15.5684 20.619 15.9834 20.9282 16.501C21.2374 17.0186 21.392 17.5931 21.392 18.2246C21.392 18.8561 21.2374 19.4339 20.9282 19.958C20.619 20.4821 20.2023 20.9004 19.6782 21.2129C19.1541 21.5254 18.5763 21.6816 17.9448 21.6816Z" fill="#7658F2"/>
</g>
<defs>
<clipPath id="clip0_976_10165">
<rect width="20.4102" height="20.4199" fill="white" transform="translate(7.73975 8.0293)"/>
</clipPath>
</defs>
</svg>
