<svg width="36" height="36" viewBox="0 0 36 36" fill="none" xmlns="http://www.w3.org/2000/svg">
<rect width="36" height="36" rx="18" fill="#F3F3F3"/>
<g clip-path="url(#clip0_2005_559)">
<path d="M17.0464 28.439H18.8432C19.0972 28.439 19.312 28.369 19.4877 28.229C19.6635 28.089 19.7775 27.8921 19.8295 27.6382L20.3374 25.4897C20.5262 25.4246 20.7118 25.3563 20.894 25.2847C21.0763 25.213 21.2488 25.1381 21.4116 25.06L23.2963 26.2124C23.5047 26.3426 23.7212 26.3979 23.9458 26.3784C24.1704 26.3589 24.3706 26.2612 24.5463 26.0854L25.8061 24.8354C25.9819 24.6597 26.0812 24.4546 26.104 24.2202C26.1268 23.9858 26.0665 23.7644 25.9233 23.5561L24.7709 21.6909C24.8556 21.5216 24.9321 21.3491 25.0004 21.1733C25.0688 20.9976 25.1323 20.8218 25.1909 20.646L27.3588 20.1284C27.6062 20.0763 27.7999 19.9624 27.9399 19.7866C28.0799 19.6108 28.1499 19.396 28.1499 19.1421V17.3745C28.1499 17.1271 28.0799 16.9155 27.9399 16.7397C27.7999 16.564 27.6062 16.45 27.3588 16.3979L25.2104 15.8804C25.1453 15.6785 25.0753 15.4897 25.0004 15.314C24.9256 15.1382 24.8556 14.9722 24.7905 14.8159L25.9428 12.9214C26.0796 12.7131 26.1398 12.4966 26.1235 12.272C26.1073 12.0474 26.008 11.8472 25.8256 11.6714L24.5463 10.4116C24.3641 10.2489 24.1688 10.1528 23.9604 10.1235C23.7521 10.0942 23.5405 10.1414 23.3256 10.2651L21.4116 11.4468C21.2554 11.3621 21.0877 11.284 20.9086 11.2124C20.7296 11.1408 20.5392 11.0724 20.3374 11.0073L19.8295 8.82959C19.7775 8.58219 19.6635 8.38688 19.4877 8.24365C19.312 8.10042 19.0972 8.02881 18.8432 8.02881H17.0464C16.7925 8.02881 16.5776 8.10042 16.4019 8.24365C16.2261 8.38688 16.1089 8.58219 16.0503 8.82959L15.5425 10.9878C15.3537 11.0529 15.1665 11.1229 14.981 11.1978C14.7954 11.2726 14.6213 11.3524 14.4585 11.437L12.564 10.2651C12.3491 10.1414 12.1359 10.0926 11.9243 10.1186C11.7127 10.1447 11.5158 10.2424 11.3335 10.4116L10.064 11.6714C9.88167 11.8472 9.78076 12.0474 9.76123 12.272C9.7417 12.4966 9.80355 12.7131 9.94678 12.9214L11.0894 14.8159C11.0242 14.9722 10.9543 15.1382 10.8794 15.314C10.8045 15.4897 10.7378 15.6785 10.6792 15.8804L8.53076 16.3979C8.27686 16.45 8.08154 16.564 7.94482 16.7397C7.80811 16.9155 7.73975 17.1271 7.73975 17.3745V19.1421C7.73975 19.396 7.80811 19.6108 7.94482 19.7866C8.08154 19.9624 8.27686 20.0763 8.53076 20.1284L10.6987 20.646C10.7508 20.8218 10.8127 20.9976 10.8843 21.1733C10.9559 21.3491 11.0308 21.5216 11.1089 21.6909L9.96631 23.5561C9.82308 23.7644 9.76286 23.9858 9.78565 24.2202C9.80843 24.4546 9.90772 24.6597 10.0835 24.8354L11.3335 26.0854C11.5093 26.2612 11.7095 26.3589 11.9341 26.3784C12.1587 26.3979 12.3784 26.3426 12.5933 26.2124L14.4683 25.06C14.631 25.1381 14.8035 25.213 14.9858 25.2847C15.1681 25.3563 15.3537 25.4246 15.5425 25.4897L16.0503 27.6382C16.1089 27.8921 16.2261 28.089 16.4019 28.229C16.5776 28.369 16.7925 28.439 17.0464 28.439ZM17.9448 21.6811C17.3133 21.6811 16.7355 21.5249 16.2114 21.2124C15.6873 20.8999 15.2707 20.4816 14.9614 19.9575C14.6522 19.4334 14.4976 18.8556 14.4976 18.2241C14.4976 17.5926 14.6538 17.0181 14.9663 16.5005C15.2788 15.9829 15.6955 15.5679 16.2163 15.2554C16.7371 14.9429 17.3133 14.7866 17.9448 14.7866C18.5763 14.7866 19.1541 14.9429 19.6782 15.2554C20.2023 15.5679 20.619 15.9829 20.9282 16.5005C21.2374 17.0181 21.392 17.5926 21.392 18.2241C21.392 18.8556 21.2374 19.4334 20.9282 19.9575C20.619 20.4816 20.2023 20.8999 19.6782 21.2124C19.1541 21.5249 18.5763 21.6811 17.9448 21.6811Z" fill="#8204FF"/>
</g>
<defs>
<clipPath id="clip0_2005_559">
<rect width="20.4102" height="20.4199" fill="white" transform="translate(7.73975 8.02881)"/>
</clipPath>
</defs>
</svg>
