<svg width="20" height="20" viewBox="0 0 20 20" fill="none" xmlns="http://www.w3.org/2000/svg">
<g clip-path="url(#clip0_2077_36100)">
<path d="M10.0003 12.5001C11.381 12.5001 12.5003 11.3808 12.5003 10.0001C12.5003 8.61937 11.381 7.50008 10.0003 7.50008C8.61961 7.50008 7.50033 8.61937 7.50033 10.0001C7.50033 11.3808 8.61961 12.5001 10.0003 12.5001Z" stroke="#0079E9" stroke-width="2" stroke-linecap="round" stroke-linejoin="round"/>
<path d="M15.6064 12.2728C15.5055 12.5013 15.4755 12.7548 15.52 13.0005C15.5646 13.2463 15.6817 13.4731 15.8564 13.6516L15.9018 13.6971C16.0427 13.8378 16.1545 14.0049 16.2307 14.1888C16.307 14.3727 16.3462 14.5699 16.3462 14.769C16.3462 14.9681 16.307 15.1653 16.2307 15.3492C16.1545 15.5332 16.0427 15.7003 15.9018 15.841C15.7611 15.9819 15.594 16.0936 15.4101 16.1699C15.2261 16.2461 15.029 16.2854 14.8299 16.2854C14.6308 16.2854 14.4336 16.2461 14.2497 16.1699C14.0657 16.0936 13.8986 15.9819 13.7579 15.841L13.7124 15.7955C13.5339 15.6209 13.3071 15.5037 13.0614 15.4592C12.8156 15.4146 12.5622 15.4447 12.3337 15.5455C12.1096 15.6416 11.9185 15.801 11.7839 16.0043C11.6493 16.2075 11.5771 16.4457 11.5761 16.6895V16.8183C11.5761 17.2201 11.4165 17.6055 11.1323 17.8896C10.8482 18.1738 10.4628 18.3334 10.0609 18.3334C9.65909 18.3334 9.2737 18.1738 8.98956 17.8896C8.70541 17.6055 8.54578 17.2201 8.54578 16.8183V16.7501C8.53991 16.4993 8.45875 16.2561 8.31283 16.0521C8.16692 15.8481 7.963 15.6927 7.7276 15.6061C7.4991 15.5053 7.24563 15.4752 6.99988 15.5198C6.75413 15.5643 6.52736 15.6815 6.34881 15.8561L6.30336 15.9016C6.16264 16.0425 5.99554 16.1542 5.8116 16.2305C5.62766 16.3067 5.4305 16.346 5.23139 16.346C5.03227 16.346 4.83511 16.3067 4.65117 16.2305C4.46724 16.1542 4.30013 16.0425 4.15942 15.9016C4.01854 15.7609 3.90679 15.5938 3.83054 15.4098C3.75429 15.2259 3.71504 15.0287 3.71504 14.8296C3.71504 14.6305 3.75429 14.4334 3.83054 14.2494C3.90679 14.0655 4.01854 13.8984 4.15942 13.7577L4.20487 13.7122C4.37952 13.5337 4.49668 13.3069 4.54124 13.0611C4.5858 12.8154 4.55572 12.5619 4.45487 12.3334C4.35884 12.1093 4.19938 11.9183 3.99613 11.7836C3.79288 11.649 3.55471 11.5768 3.31093 11.5758H3.18214C2.7803 11.5758 2.39492 11.4162 2.11077 11.1321C1.82662 10.8479 1.66699 10.4625 1.66699 10.0607C1.66699 9.65884 1.82662 9.27346 2.11077 8.98931C2.39492 8.70517 2.7803 8.54554 3.18214 8.54554H3.25033C3.50108 8.53967 3.74427 8.45851 3.94828 8.31259C4.15229 8.16667 4.30769 7.96276 4.39427 7.72735C4.49511 7.49886 4.52519 7.24539 4.48063 6.99964C4.43607 6.75388 4.31891 6.52711 4.14427 6.34857L4.09881 6.30311C3.95794 6.1624 3.84618 5.99529 3.76993 5.81135C3.69368 5.62742 3.65444 5.43026 3.65444 5.23114C3.65444 5.03203 3.69368 4.83487 3.76993 4.65093C3.84618 4.46699 3.95794 4.29989 4.09881 4.15917C4.23953 4.0183 4.40663 3.90654 4.59057 3.83029C4.7745 3.75405 4.97167 3.7148 5.17078 3.7148C5.36989 3.7148 5.56706 3.75405 5.75099 3.83029C5.93493 3.90654 6.10203 4.0183 6.24275 4.15917L6.2882 4.20463C6.46675 4.37928 6.69352 4.49643 6.93927 4.54099C7.18503 4.58555 7.4385 4.55547 7.66699 4.45463H7.7276C7.95167 4.35859 8.14276 4.19914 8.27737 3.99589C8.41197 3.79264 8.4842 3.55447 8.48517 3.31069V3.1819C8.48517 2.78006 8.64481 2.39467 8.92895 2.11053C9.2131 1.82638 9.59848 1.66675 10.0003 1.66675C10.4022 1.66675 10.7876 1.82638 11.0717 2.11053C11.3558 2.39467 11.5155 2.78006 11.5155 3.1819V3.25008C11.5164 3.49386 11.5887 3.73203 11.7233 3.93528C11.8579 4.13853 12.049 4.29799 12.2731 4.39402C12.5016 4.49487 12.755 4.52495 13.0008 4.48039C13.2465 4.43583 13.4733 4.31867 13.6518 4.14402L13.6973 4.09857C13.838 3.95769 14.0051 3.84594 14.1891 3.76969C14.373 3.69344 14.5702 3.65419 14.7693 3.65419C14.9684 3.65419 15.1655 3.69344 15.3495 3.76969C15.5334 3.84594 15.7005 3.95769 15.8412 4.09857C15.9821 4.23928 16.0939 4.40639 16.1701 4.59032C16.2464 4.77426 16.2856 4.97142 16.2856 5.17054C16.2856 5.36965 16.2464 5.56681 16.1701 5.75075C16.0939 5.93469 15.9821 6.10179 15.8412 6.24251L15.7958 6.28796C15.6211 6.46651 15.504 6.69328 15.4594 6.93903C15.4149 7.18478 15.4449 7.43825 15.5458 7.66675V7.72735C15.6418 7.95142 15.8013 8.14252 16.0045 8.27712C16.2078 8.41172 16.4459 8.48396 16.6897 8.48493H16.8185C17.2204 8.48493 17.6057 8.64456 17.8899 8.92871C18.174 9.21285 18.3337 9.59824 18.3337 10.0001C18.3337 10.4019 18.174 10.7873 17.8899 11.0715C17.6057 11.3556 17.2204 11.5152 16.8185 11.5152H16.7503C16.5065 11.5162 16.2684 11.5884 16.0651 11.723C15.8619 11.8576 15.7024 12.0487 15.6064 12.2728Z" stroke="#0079E9" stroke-width="2" stroke-linecap="round" stroke-linejoin="round"/>
</g>
<defs>
<clipPath id="clip0_2077_36100">
<rect width="20" height="20" fill="white"/>
</clipPath>
</defs>
</svg>
