<svg width="28" height="28" viewBox="0 0 28 28" fill="none" xmlns="http://www.w3.org/2000/svg">
<path d="M15.167 23.3334C13.9677 23.3334 12.8193 23.111 11.7219 22.6661C10.6252 22.2212 9.63743 21.599 8.75854 20.7994L9.61371 19.9676C10.3829 20.6575 11.2276 21.1965 12.1477 21.5846C13.067 21.9727 14.0735 22.1667 15.167 22.1667C17.4382 22.1667 19.367 21.3734 20.9537 19.7867C22.5404 18.2001 23.3337 16.2712 23.3337 14.0001C23.3337 11.7445 22.5365 9.81953 20.942 8.22508C19.3476 6.63064 17.4226 5.83341 15.167 5.83341C12.9115 5.83341 10.9865 6.63064 9.39204 8.22508C7.7976 9.81953 7.00038 11.7445 7.00038 14.0001V15.6182L9.51104 13.1076L10.3429 13.9102L6.41704 17.8361L2.49121 13.9102L3.32304 13.1076L5.83371 15.6474V14.0001C5.83371 12.7051 6.07716 11.4921 6.56404 10.3612C7.05093 9.23036 7.7171 8.2418 8.56254 7.39558C9.40877 6.55014 10.3973 5.88397 11.5282 5.39708C12.6583 4.91019 13.8709 4.66675 15.1659 4.66675C16.4601 4.66675 17.6734 4.91019 18.8059 5.39708C19.9368 5.88397 20.9253 6.55014 21.7715 7.39558C22.617 8.2418 23.2832 9.22997 23.77 10.3601C24.2569 11.491 24.5004 12.7035 24.5004 13.9977C24.5004 16.587 23.5931 18.79 21.7785 20.6069C19.9632 22.4246 17.7594 23.3334 15.167 23.3334ZM12.8337 18.3984C12.5413 18.3984 12.2963 18.2992 12.0987 18.1009C11.9004 17.9034 11.8012 17.6584 11.8012 17.3659V13.8659C11.8012 13.5735 11.9132 13.3285 12.1372 13.1309C12.3612 12.9334 12.6381 12.8342 12.9679 12.8334V11.5326C12.9679 10.9275 13.1833 10.4099 13.6142 9.97975C14.0451 9.54886 14.5627 9.33341 15.167 9.33341C15.7714 9.33341 16.289 9.54886 16.7199 9.97975C17.1508 10.4099 17.3662 10.9271 17.3662 11.5314V12.8334C17.6968 12.8334 17.9737 12.9322 18.1969 13.1297C18.4201 13.3273 18.5321 13.5723 18.5329 13.8647V17.3647C18.5329 17.658 18.4337 17.903 18.2354 18.0997C18.0378 18.2981 17.7928 18.3972 17.5004 18.3972H12.8337V18.3984ZM13.8662 12.8334H16.4679V11.5407C16.4679 11.1752 16.3411 10.8652 16.0875 10.6109C15.834 10.3574 15.5272 10.2306 15.167 10.2306C14.8069 10.2306 14.4997 10.3574 14.2454 10.6109C13.9926 10.8645 13.8662 11.1744 13.8662 11.5407V12.8334Z" fill="#0079E9"/>
</svg>
