<svg width="15" height="18" viewBox="0 0 15 18" fill="none" xmlns="http://www.w3.org/2000/svg">
<path fill-rule="evenodd" clip-rule="evenodd" d="M11.7503 0.875C11.3541 0.874867 10.9626 0.961683 10.6036 1.12932C10.2445 1.29697 9.92666 1.54135 9.67236 1.84523C9.41807 2.14911 9.23355 2.50509 9.13183 2.88806C9.0301 3.27103 9.01365 3.67165 9.08364 4.06167L5.14197 6.82167C5.12226 6.8353 5.10334 6.85005 5.0853 6.86583C4.68542 6.55324 4.20573 6.3593 3.70096 6.30614C3.19618 6.25299 2.68662 6.34275 2.23039 6.56519C1.77416 6.78763 1.38962 7.13381 1.12062 7.56423C0.851617 7.99466 0.708984 8.49201 0.708984 8.99958C0.708984 9.50715 0.851617 10.0045 1.12062 10.4349C1.38962 10.8654 1.77416 11.2115 2.23039 11.434C2.68662 11.6564 3.19618 11.7462 3.70096 11.693C4.20573 11.6399 4.68542 11.4459 5.0853 11.1333C5.10331 11.1494 5.12223 11.1644 5.14197 11.1783L9.08364 13.9383C8.96662 14.5906 9.09283 15.2632 9.43837 15.8287C9.78391 16.3942 10.3248 16.8134 10.9586 17.0069C11.5924 17.2004 12.2752 17.1548 12.8777 16.8787C13.4802 16.6026 13.9605 16.1152 14.2277 15.5088C14.495 14.9024 14.5306 14.219 14.3279 13.588C14.1252 12.9571 13.6982 12.4224 13.1277 12.0851C12.5572 11.7479 11.8829 11.6315 11.2324 11.758C10.5818 11.8845 10.0003 12.2452 9.5978 12.7717L5.8653 10.1592C6.03197 9.8075 6.1253 9.415 6.1253 9C6.1253 8.585 6.03197 8.19167 5.8653 7.84083L9.59864 5.2275C9.87829 5.59356 10.2467 5.88224 10.669 6.06624C11.0913 6.25024 11.5536 6.32348 12.0121 6.27903C12.4706 6.23459 12.9102 6.07393 13.2893 5.81225C13.6684 5.55056 13.9745 5.19651 14.1787 4.78355C14.3828 4.3706 14.4782 3.9124 14.456 3.45229C14.4337 2.99217 14.2944 2.54534 14.0513 2.15406C13.8082 1.76277 13.4693 1.43996 13.0667 1.21615C12.664 0.992333 12.211 0.874917 11.7503 0.875ZM10.292 3.58333C10.292 3.19656 10.4456 2.82563 10.7191 2.55214C10.9926 2.27865 11.3635 2.125 11.7503 2.125C12.1371 2.125 12.508 2.27865 12.7815 2.55214C13.055 2.82563 13.2086 3.19656 13.2086 3.58333C13.2086 3.97011 13.055 4.34104 12.7815 4.61453C12.508 4.88802 12.1371 5.04167 11.7503 5.04167C11.3635 5.04167 10.9926 4.88802 10.7191 4.61453C10.4456 4.34104 10.292 3.97011 10.292 3.58333ZM3.41697 7.54167C3.0302 7.54167 2.65926 7.69531 2.38577 7.9688C2.11228 8.24229 1.95864 8.61323 1.95864 9C1.95864 9.38677 2.11228 9.75771 2.38577 10.0312C2.65926 10.3047 3.0302 10.4583 3.41697 10.4583C3.80375 10.4583 4.17468 10.3047 4.44817 10.0312C4.72166 9.75771 4.8753 9.38677 4.8753 9C4.8753 8.61323 4.72166 8.24229 4.44817 7.9688C4.17468 7.69531 3.80375 7.54167 3.41697 7.54167ZM11.7503 12.9583C11.3635 12.9583 10.9926 13.112 10.7191 13.3855C10.4456 13.659 10.292 14.0299 10.292 14.4167C10.292 14.8034 10.4456 15.1744 10.7191 15.4479C10.9926 15.7214 11.3635 15.875 11.7503 15.875C12.1371 15.875 12.508 15.7214 12.7815 15.4479C13.055 15.1744 13.2086 14.8034 13.2086 14.4167C13.2086 14.0299 13.055 13.659 12.7815 13.3855C12.508 13.112 12.1371 12.9583 11.7503 12.9583Z" fill="#0079E9"/>
</svg>
