<svg width="34" height="34" viewBox="0 0 34 34" fill="none" xmlns="http://www.w3.org/2000/svg">
<path d="M22.7803 34C22.667 34 22.497 33.9434 22.3837 33.8867C22.157 33.7167 22.0437 33.49 22.1003 33.2634C22.1003 33.2067 23.517 27.1434 15.1303 20.5134C14.847 20.2867 14.847 19.89 15.0737 19.6634C15.3003 19.38 15.7537 19.38 15.9803 19.6067C22.667 24.9334 23.5737 29.8634 23.517 32.2434C28.9003 28.7867 31.9037 25.2167 32.527 21.59C33.037 18.2467 31.2237 16.2067 31.167 16.0934C30.9403 15.81 30.997 15.47 31.2237 15.2434C31.507 15.0167 31.9037 15.0734 32.1303 15.3C32.2437 15.4134 34.397 17.85 33.7737 21.7034C33.0937 25.8967 29.5237 30.0334 23.007 33.9434C23.0637 33.9434 22.8937 34 22.7803 34Z" fill="#D0D0D0"/>
<path d="M16.8868 34C16.7168 34 16.6034 33.9434 16.4334 33.83C16.2068 33.66 16.1501 33.3767 16.2635 33.0934C16.3768 32.8667 18.7568 27.8234 12.3534 21.08C12.1268 20.7967 12.1268 20.4567 12.4101 20.23C12.6934 20.0034 13.0901 20.0034 13.3168 20.2867C18.0768 25.33 18.3601 29.58 17.9634 31.8467C28.7868 24.14 27.7668 17.68 27.7668 17.6234C27.7101 17.34 27.8801 17.1134 28.1068 16.9434C28.3901 16.83 28.6734 16.8867 28.9001 17.0567C36.1534 24.4234 31.1668 28.9 31.1668 28.9567C30.8834 29.1834 30.4868 29.1834 30.2034 28.9567C29.9768 28.73 29.9768 28.3334 30.2034 28.1067C30.3734 27.9367 33.7168 24.82 29.0134 19.21C28.6734 21.9867 26.7468 27.6534 17.1701 33.8867C17.1134 33.9434 17.0001 34 16.8868 34Z" fill="#D0D0D0"/>
<path d="M27.937 34H27.767C27.427 33.8867 27.2003 33.5467 27.3137 33.2633C27.3703 33.0367 28.957 27.4833 21.5337 21.08C20.967 23.0633 19.1537 27.37 13.8837 31.5633C13.6003 31.79 13.2037 31.7333 12.977 31.5067C12.7503 31.2233 12.7503 30.8833 13.0337 30.6567C19.607 25.4433 20.5137 19.89 20.5137 19.8333C20.5703 19.6067 20.6837 19.4367 20.9103 19.3233C21.137 19.2667 21.3636 19.2667 21.5903 19.4367C30.657 26.6333 28.7303 33.2633 28.617 33.5467C28.5036 33.83 28.2203 34 27.937 34Z" fill="#D0D0D0"/>
<path d="M16.1501 22.2133C8.95345 22.2133 9.86011 18.7 10.8234 17.3967C13.4868 13.8267 23.5734 10.2 28.9001 10.2C35.0201 10.2 34.0568 13.6 32.7534 15.3C29.8634 19.21 21.4768 22.2133 16.1501 22.2133ZM28.9001 11.9567C24.5368 11.9567 16.4901 14.9033 13.8268 17.4533C13.3168 17.9633 12.3534 19.3233 16.2068 19.3233C20.9668 19.3233 28.2201 16.3767 30.4301 13.77C31.1668 12.8067 31.5634 11.9567 28.9001 11.9567Z" fill="#ED4C5C"/>
<path d="M11.3333 22.6667C17.5926 22.6667 22.6667 17.5926 22.6667 11.3333C22.6667 5.07411 17.5926 0 11.3333 0C5.0741 0 0 5.07411 0 11.3333C0 17.5926 5.0741 22.6667 11.3333 22.6667Z" fill="#FF8736"/>
<path d="M3.28667 3.40001C3.51333 4.36334 3.91 5.21334 4.36333 6.06334C4.81667 6.91334 5.32667 7.76334 5.83667 8.55668C6.91333 10.1433 8.04667 11.73 9.29333 13.2033C10.54 14.6767 11.8433 16.0933 13.26 17.3967C13.9967 18.02 14.7333 18.6433 15.5267 19.1533C16.32 19.72 17.17 20.1167 18.1333 20.4C17.17 20.3433 16.2067 19.9467 15.3 19.4933C14.3933 19.04 13.6 18.4733 12.8067 17.85C11.2767 16.6033 9.86 15.1867 8.61333 13.7133C7.36667 12.1833 6.23333 10.5967 5.27 8.84001C4.81667 8.04668 4.36333 7.14001 3.96667 6.23334C3.62667 5.32668 3.34333 4.36334 3.28667 3.40001ZM0 11.05C0.68 12.4667 1.53 13.77 2.55 14.8467C3.62667 15.9233 4.87333 16.7733 6.29 17.3967C7.65 18.02 9.18 18.4733 10.5967 19.0967C11.3333 19.4367 12.07 19.7767 12.6933 20.3433C13.3167 20.8533 13.77 21.6467 13.8833 22.3833C13.6 21.6467 13.09 21.08 12.4667 20.6833C11.8433 20.2867 11.1067 20.0033 10.37 19.7767C8.89667 19.2667 7.36667 18.87 5.89333 18.19C4.42 17.51 3.06 16.6033 2.04 15.3567C1.02 14.0533 0.34 12.58 0 11.05ZM20.4567 18.0767C19.55 18.4733 18.4733 18.6433 17.4533 18.19C16.4333 17.7367 15.8667 16.7167 15.47 15.81C14.6767 13.8833 14.3933 11.9 13.9967 9.97334C13.6 8.04668 13.1467 6.12001 12.2967 4.42001C11.4467 2.72001 10.03 1.19001 8.16 0.51001C9.12333 0.736676 10.0867 1.19001 10.88 1.81334C11.6733 2.43668 12.3533 3.28668 12.8633 4.13668C13.8833 5.89334 14.3933 7.93334 14.8467 9.86001L15.4133 12.8067C15.5833 13.77 15.81 14.7333 16.15 15.64C16.49 16.5467 16.8867 17.3967 17.68 17.9067C18.4167 18.36 19.4933 18.3033 20.4567 18.0767Z" fill="#231F20"/>
<path d="M17.9064 2.09674C18.4164 2.43674 18.8131 2.94674 19.0964 3.51341C19.3797 4.08007 19.6631 4.64674 19.8331 5.27007C20.2297 6.46007 20.3997 7.70674 20.4564 9.01007C20.5697 11.5034 19.9464 14.1667 18.5297 16.3201C17.7931 17.3967 16.8864 18.3034 15.8097 19.0401C14.7331 19.7767 13.5431 20.2867 12.2964 20.5701C9.85974 21.1934 7.25307 21.1367 4.81641 20.7401C7.30974 20.7967 9.80307 20.6834 12.0697 19.9467C14.3931 19.2101 16.4331 17.8501 17.7364 15.8667C19.0964 13.8834 19.6631 11.4467 19.7197 9.06674C19.7197 7.87674 19.6064 6.63007 19.3797 5.44007C19.1531 4.19341 18.8131 2.94674 17.9064 2.09674Z" fill="#231F20"/>
</svg>
