<svg width="16" height="15" viewBox="0 0 16 15" fill="none" xmlns="http://www.w3.org/2000/svg">
<path fill-rule="evenodd" clip-rule="evenodd" d="M6.79671 1.41091C7.33279 0.487053 8.66693 0.487055 9.20301 1.41091L10.8447 4.24015C10.996 4.50094 11.2576 4.6789 11.5557 4.72393L14.2818 5.13568C15.4702 5.31517 15.887 6.81555 14.9616 7.58228L12.9752 9.22792C12.6964 9.4589 12.5654 9.82324 12.6331 10.1789L13.1895 13.1008C13.4074 14.2454 12.2059 15.1347 11.1749 14.5919L8.46278 13.1638C8.17302 13.0112 7.8267 13.0112 7.53694 13.1638L4.8248 14.5919C3.79384 15.1347 2.59229 14.2454 2.81024 13.1008L3.36664 10.1789C3.43436 9.82324 3.30327 9.4589 3.02448 9.22792L1.03817 7.58228C0.112707 6.81554 0.529541 5.31516 1.71787 5.13568L4.44401 4.72393C4.74214 4.6789 5.00369 4.50094 5.15502 4.24015L6.79671 1.41091ZM8.17174 2.00931C8.09515 1.87733 7.90456 1.87733 7.82798 2.00931L6.18629 4.83856C5.85337 5.41228 5.27796 5.80381 4.62208 5.90287L1.89594 6.31462C1.72618 6.34026 1.66663 6.5546 1.79884 6.66413L3.78515 8.30977C4.3985 8.81793 4.6869 9.61948 4.5379 10.4019L3.98151 13.3239C3.95037 13.4874 4.12202 13.6144 4.2693 13.5369L6.98144 12.1088C7.6189 11.7732 8.38082 11.7732 9.01828 12.1088L11.7304 13.5369C11.8777 13.6144 12.0493 13.4874 12.0182 13.3239L11.4618 10.4019C11.3128 9.61948 11.6012 8.81793 12.2146 8.30977L14.2009 6.66413C14.3331 6.5546 14.2735 6.34026 14.1038 6.31462L11.3776 5.90287C10.7218 5.80381 10.1463 5.41228 9.81343 4.83856L8.17174 2.00931Z" fill="black"/>
</svg>
