<svg width="60" height="60" viewBox="0 0 60 60" fill="none" xmlns="http://www.w3.org/2000/svg">
<rect width="60" height="60" rx="30" fill="#EBEBEB"/>
<path d="M25.7501 20.5C25.7501 20.3011 25.6711 20.1103 25.5304 19.9697C25.3898 19.829 25.199 19.75 25.0001 19.75C24.8012 19.75 24.6104 19.829 24.4698 19.9697C24.3291 20.1103 24.2501 20.3011 24.2501 20.5V22.08C22.8101 22.195 21.8661 22.477 21.1721 23.172C20.4771 23.866 20.1951 24.811 20.0791 26.25H39.9211C39.8051 24.81 39.5231 23.866 38.8281 23.172C38.1341 22.477 37.1891 22.195 35.7501 22.079V20.5C35.7501 20.3011 35.6711 20.1103 35.5304 19.9697C35.3898 19.829 35.199 19.75 35.0001 19.75C34.8012 19.75 34.6104 19.829 34.4698 19.9697C34.3291 20.1103 34.2501 20.3011 34.2501 20.5V22.013C33.5851 22 32.8391 22 32.0001 22H28.0001C27.1611 22 26.4151 22 25.7501 22.013V20.5Z" fill="#7658F2"/>
<path fill-rule="evenodd" clip-rule="evenodd" d="M40 30C40 29.161 40 28.415 39.987 27.75H20.013C20 28.415 20 29.161 20 30V32C20 35.771 20 37.657 21.172 38.828C22.343 40 24.229 40 28 40H32C35.771 40 37.657 40 38.828 38.828C40 37.657 40 35.771 40 32V30ZM32 30.25C31.5359 30.25 31.0908 30.4344 30.7626 30.7626C30.4344 31.0908 30.25 31.5359 30.25 32V34C30.25 34.4641 30.4344 34.9092 30.7626 35.2374C31.0908 35.5656 31.5359 35.75 32 35.75C32.4641 35.75 32.9092 35.5656 33.2374 35.2374C33.5656 34.9092 33.75 34.4641 33.75 34V32C33.75 31.5359 33.5656 31.0908 33.2374 30.7626C32.9092 30.4344 32.4641 30.25 32 30.25ZM32 31.75C31.9337 31.75 31.8701 31.7763 31.8232 31.8232C31.7763 31.8701 31.75 31.9337 31.75 32V34C31.75 34.0663 31.7763 34.1299 31.8232 34.1768C31.8701 34.2237 31.9337 34.25 32 34.25C32.0663 34.25 32.1299 34.2237 32.1768 34.1768C32.2237 34.1299 32.25 34.0663 32.25 34V32C32.25 31.9337 32.2237 31.8701 32.1768 31.8232C32.1299 31.7763 32.0663 31.75 32 31.75ZM28.787 30.307C28.9241 30.3638 29.0412 30.4599 29.1236 30.5833C29.206 30.7066 29.25 30.8516 29.25 31V35C29.25 35.1989 29.171 35.3897 29.0303 35.5303C28.8897 35.671 28.6989 35.75 28.5 35.75C28.3011 35.75 28.1103 35.671 27.9697 35.5303C27.829 35.3897 27.75 35.1989 27.75 35V32.81L27.53 33.03C27.3878 33.1625 27.1998 33.2346 27.0055 33.2312C26.8112 33.2277 26.6258 33.149 26.4884 33.0116C26.351 32.8742 26.2723 32.6888 26.2688 32.4945C26.2654 32.3002 26.3375 32.1122 26.47 31.97L27.97 30.47C28.0748 30.3651 28.2084 30.2936 28.3538 30.2646C28.4992 30.2356 28.65 30.2504 28.787 30.307Z" fill="#7658F2"/>
</svg>
