<svg width="14" height="13" viewBox="0 0 14 13" fill="none" xmlns="http://www.w3.org/2000/svg">
<path d="M6.52144 1.30229C6.6751 0.990999 6.75193 0.835353 6.85623 0.785624C6.94697 0.742357 7.0524 0.742357 7.14314 0.785624C7.24744 0.835353 7.32427 0.990999 7.47793 1.30229L8.93571 4.2556C8.98108 4.3475 9.00376 4.39345 9.03691 4.42913C9.06626 4.46072 9.10145 4.48631 9.14055 4.5045C9.18471 4.52503 9.23541 4.53244 9.33682 4.54726L12.5977 5.02388C12.941 5.07408 13.1127 5.09917 13.1922 5.18304C13.2613 5.25601 13.2938 5.35628 13.2807 5.45593C13.2656 5.57047 13.1413 5.69153 12.8927 5.93367L10.534 8.23103C10.4604 8.30264 10.4237 8.33845 10.4 8.38106C10.379 8.41878 10.3655 8.46022 10.3603 8.50309C10.3544 8.5515 10.3631 8.60208 10.3804 8.70324L10.937 11.9482C10.9957 12.2904 11.025 12.4615 10.9699 12.5631C10.9219 12.6514 10.8366 12.7134 10.7377 12.7317C10.6241 12.7528 10.4704 12.672 10.1631 12.5104L7.24793 10.9773C7.1571 10.9295 7.11168 10.9057 7.06384 10.8963C7.02147 10.888 6.9779 10.888 6.93554 10.8963C6.88769 10.9057 6.84227 10.9295 6.75144 10.9773L3.83629 12.5104C3.52895 12.672 3.37528 12.7528 3.26166 12.7317C3.1628 12.7134 3.07749 12.6514 3.0295 12.5631C2.97434 12.4615 3.00369 12.2904 3.06239 11.9482L3.61893 8.70324C3.63628 8.60208 3.64496 8.5515 3.63909 8.50309C3.63389 8.46022 3.62042 8.41878 3.59941 8.38106C3.57569 8.33845 3.53893 8.30264 3.4654 8.23103L1.10671 5.93367C0.858116 5.69153 0.733818 5.57047 0.718692 5.45593C0.705532 5.35628 0.738043 5.25601 0.807175 5.18304C0.886631 5.09917 1.05832 5.07408 1.4017 5.02388L4.66255 4.54726C4.76396 4.53244 4.81466 4.52503 4.85882 4.5045C4.89792 4.48631 4.93312 4.46072 4.96246 4.42913C4.99561 4.39345 5.01829 4.3475 5.06366 4.2556L6.52144 1.30229Z" fill="#379DDF"/>
</svg>
