<svg width="14" height="13" viewBox="0 0 14 13" fill="none" xmlns="http://www.w3.org/2000/svg">
<path fill-rule="evenodd" clip-rule="evenodd" d="M5.61051 0.833789C6.0907 0.00624871 7.28576 0.00625098 7.76594 0.83379L9.23649 3.36807C9.37203 3.60167 9.60632 3.76108 9.87337 3.80142L12.3153 4.17024C13.3797 4.33101 13.7531 5.67497 12.9241 6.36177L11.1449 7.83584C10.8952 8.04274 10.7778 8.3691 10.8384 8.68768L11.3368 11.305C11.532 12.3302 10.4558 13.1268 9.53227 12.6406L7.10288 11.3614C6.84334 11.2247 6.53312 11.2247 6.27357 11.3614L3.84418 12.6406C2.9207 13.1268 1.84442 12.3302 2.03965 11.305L2.53804 8.68768C2.5987 8.3691 2.48128 8.04274 2.23155 7.83584L0.452318 6.36177C-0.376658 5.67497 -0.00328028 4.33101 1.06116 4.17024L3.50309 3.80142C3.77014 3.76108 4.00442 3.60167 4.13997 3.36807L5.61051 0.833789ZM6.84219 1.36981C6.77359 1.25159 6.60287 1.25159 6.53427 1.36981L5.06373 3.90409C4.76552 4.41801 4.2501 4.76871 3.66259 4.85745L1.22067 5.22627C1.0686 5.24924 1.01526 5.44123 1.13369 5.53935L2.91292 7.01342C3.46232 7.4686 3.72066 8.18659 3.5872 8.88746L3.0888 11.5048C3.06092 11.6512 3.21467 11.765 3.3466 11.6956L5.77598 10.4164C6.34699 10.1157 7.02947 10.1157 7.60047 10.4164L10.0299 11.6956C10.1618 11.765 10.3155 11.6512 10.2877 11.5048L9.78926 8.88746C9.6558 8.18659 9.91413 7.4686 10.4635 7.01342L12.2428 5.53935C12.3612 5.44123 12.3079 5.24924 12.1558 5.22627L9.71386 4.85745C9.12636 4.76871 8.61093 4.41801 8.31273 3.90409L6.84219 1.36981Z" fill="white"/>
</svg>
