<svg width="15" height="15" viewBox="0 0 15 15" fill="none" xmlns="http://www.w3.org/2000/svg">
<path fill-rule="evenodd" clip-rule="evenodd" d="M6.30171 1.25705C6.83562 0.336923 8.16438 0.336925 8.6983 1.25705L10.3334 4.07488C10.4841 4.33461 10.7446 4.51186 11.0415 4.55671L13.7566 4.96679C14.9402 5.14555 15.3553 6.63988 14.4336 7.40352L12.4553 9.04252C12.1776 9.27256 12.0471 9.63544 12.1145 9.98966L12.6687 12.8998C12.8858 14.0398 11.6891 14.9255 10.6622 14.3848L7.96105 12.9625C7.67247 12.8106 7.32754 12.8106 7.03895 12.9625L4.33776 14.3848C3.31096 14.9255 2.11425 14.0398 2.33133 12.8998L2.88548 9.98966C2.95293 9.63544 2.82237 9.27256 2.5447 9.04252L0.566401 7.40352C-0.355323 6.63988 0.0598294 5.14555 1.24337 4.96679L3.9585 4.55671C4.25543 4.51186 4.51593 4.33461 4.66664 4.07488L6.30171 1.25705ZM7.67119 1.85304C7.59491 1.72159 7.40509 1.72159 7.32882 1.85304L5.69375 4.67087C5.36218 5.24228 4.78909 5.63222 4.13585 5.73089L1.42071 6.14098C1.25164 6.16651 1.19233 6.37999 1.324 6.48908L3.3023 8.12808C3.91318 8.63418 4.20041 9.4325 4.05202 10.2118L3.49787 13.1219C3.46686 13.2848 3.63781 13.4113 3.7845 13.3341L6.48569 11.9118C7.12058 11.5775 7.87942 11.5775 8.51431 11.9118L11.2155 13.3341C11.3622 13.4113 11.5332 13.2848 11.5021 13.1219L10.948 10.2118C10.7996 9.4325 11.0868 8.63418 11.6977 8.12808L13.676 6.48908C13.8077 6.37999 13.7484 6.16651 13.5793 6.14098L10.8642 5.73089C10.2109 5.63222 9.63783 5.24228 9.30626 4.67087L7.67119 1.85304Z" fill="#F8911E"/>
</svg>
