<svg width="12" height="12" viewBox="0 0 12 12" fill="none" xmlns="http://www.w3.org/2000/svg">
<path d="M5.58187 1.01466C5.71632 0.742277 5.78355 0.606087 5.87481 0.562574C5.95421 0.524715 6.04646 0.524715 6.12586 0.562574C6.21712 0.606087 6.28435 0.742277 6.4188 1.01466L7.69436 3.59881C7.73405 3.67922 7.7539 3.71943 7.7829 3.75064C7.80858 3.77828 7.83938 3.80068 7.87359 3.81659C7.91223 3.83455 7.9566 3.84104 8.04533 3.85401L10.8986 4.27105C11.199 4.31497 11.3493 4.33693 11.4188 4.41031C11.4793 4.47416 11.5077 4.5619 11.4962 4.64909C11.483 4.74931 11.3742 4.85525 11.1567 5.06711L9.09284 7.0773C9.0285 7.13996 8.99633 7.1713 8.97557 7.20858C8.9572 7.24158 8.94541 7.27785 8.94086 7.31535C8.93572 7.35771 8.94331 7.40197 8.95849 7.49049L9.44547 10.3298C9.49683 10.6293 9.52251 10.779 9.47425 10.8678C9.43226 10.9452 9.35761 10.9994 9.27111 11.0154C9.17169 11.0338 9.03723 10.9631 8.76831 10.8217L6.21755 9.48029C6.13807 9.4385 6.09833 9.4176 6.05647 9.40939C6.0194 9.40212 5.98127 9.40212 5.9442 9.40939C5.90234 9.4176 5.8626 9.4385 5.78312 9.48029L3.23236 10.8217C2.96344 10.9631 2.82898 11.0338 2.72956 11.0154C2.64306 10.9994 2.56841 10.9452 2.52642 10.8678C2.47816 10.779 2.50384 10.6293 2.5552 10.3298L3.04218 7.49049C3.05736 7.40197 3.06495 7.35771 3.05981 7.31535C3.05526 7.27785 3.04347 7.24158 3.0251 7.20858C3.00434 7.1713 2.97217 7.13996 2.90783 7.0773L0.843985 5.06711C0.626462 4.85525 0.517701 4.74931 0.504466 4.64909C0.492951 4.5619 0.521398 4.47416 0.581888 4.41031C0.651413 4.33693 0.801642 4.31497 1.1021 4.27105L3.95534 3.85401C4.04407 3.84104 4.08844 3.83455 4.12708 3.81659C4.16129 3.80068 4.19209 3.77828 4.21777 3.75064C4.24677 3.71943 4.26662 3.67922 4.30631 3.59881L5.58187 1.01466Z" fill="#FFB13A"/>
</svg>
