<svg width="15" height="15" viewBox="0 0 15 15" fill="none" xmlns="http://www.w3.org/2000/svg">
<path fill-rule="evenodd" clip-rule="evenodd" d="M6.23823 1.25699C6.77215 0.336861 8.10091 0.336864 8.63482 1.25699L10.2699 4.07482C10.4206 4.33455 10.6811 4.5118 10.978 4.55664L13.6932 4.96673C14.8767 5.14549 15.2919 6.63982 14.3701 7.40346L12.3918 9.04246C12.1142 9.2725 11.9836 9.63537 12.0511 9.9896L12.6052 12.8997C12.8223 14.0397 11.6256 14.9254 10.5988 14.3848L7.89758 12.9625C7.60899 12.8105 7.26406 12.8105 6.97548 12.9625L4.27428 14.3848C3.24748 14.9254 2.05078 14.0397 2.26785 12.8997L2.822 9.9896C2.88945 9.63538 2.75889 9.2725 2.48122 9.04245L0.502925 7.40346C-0.4188 6.63982 -0.00364718 5.14549 1.17989 4.96673L3.89503 4.55664C4.19195 4.5118 4.45245 4.33455 4.60316 4.07482L6.23823 1.25699ZM7.60771 1.85298C7.53144 1.72153 7.34162 1.72153 7.26534 1.85298L5.63027 4.67081C5.2987 5.24222 4.72561 5.63216 4.07237 5.73083L1.35724 6.14091C1.18816 6.16645 1.12885 6.37993 1.26053 6.48902L3.23882 8.12802C3.8497 8.63412 4.13694 9.43244 3.98854 10.2117L3.43439 13.1219C3.40338 13.2847 3.57434 13.4113 3.72102 13.334L6.42222 11.9117C7.05711 11.5774 7.81595 11.5774 8.45084 11.9117L11.152 13.334C11.2987 13.4113 11.4697 13.2847 11.4387 13.1219L10.8845 10.2117C10.7361 9.43244 11.0234 8.63412 11.6342 8.12802L13.6125 6.48902C13.7442 6.37993 13.6849 6.16645 13.5158 6.14092L10.8007 5.73083C10.1474 5.63216 9.57435 5.24222 9.24278 4.67081L7.60771 1.85298Z" fill="#493EE3"/>
</svg>
