<svg width="22" height="22" viewBox="0 0 22 22" fill="none" xmlns="http://www.w3.org/2000/svg">
<path fill-rule="evenodd" clip-rule="evenodd" d="M9.56981 3.75449C10.1853 2.69381 11.717 2.69382 12.3325 3.75449L14.2173 7.00275C14.391 7.30216 14.6913 7.50648 15.0336 7.55818L18.1635 8.03091C19.5278 8.23698 20.0064 9.95957 18.9439 10.8399L16.6634 12.7292C16.3433 12.9944 16.1928 13.4127 16.2706 13.821L16.9094 17.1757C17.1596 18.4898 15.7801 19.5108 14.5964 18.8876L11.4826 17.248C11.15 17.0729 10.7523 17.0729 10.4197 17.248L7.30586 18.8876C6.12221 19.5108 4.7427 18.4898 4.99293 17.1757L5.63174 13.821C5.70949 13.4127 5.55899 12.9944 5.2389 12.7292L2.95841 10.8399C1.89589 9.95956 2.37446 8.23698 3.73879 8.03091L6.86867 7.55818C7.21095 7.50648 7.51124 7.30216 7.68497 7.00275L9.56981 3.75449ZM11.1485 4.44152C11.0606 4.29 10.8417 4.29 10.7538 4.44152L8.86898 7.68978C8.48676 8.34848 7.82612 8.79799 7.0731 8.91172L3.94322 9.38446C3.74832 9.41389 3.67995 9.65998 3.83174 9.78573L6.11223 11.6751C6.81642 12.2585 7.14753 13.1788 6.97647 14.0771L6.33767 17.4318C6.30192 17.6195 6.49899 17.7654 6.66808 17.6763L9.78189 16.0368C10.5138 15.6514 11.3885 15.6514 12.1204 16.0368L15.2342 17.6763C15.4033 17.7654 15.6004 17.6195 15.5646 17.4318L14.9258 14.0771C14.7548 13.1788 15.0859 12.2585 15.7901 11.6751L18.0705 9.78573C18.2223 9.65997 18.154 9.41389 17.9591 9.38446L14.8292 8.91172C14.0762 8.79799 13.4155 8.34848 13.0333 7.68978L11.1485 4.44152Z" fill="#493EE3"/>
</svg>
