<svg width="13" height="12" viewBox="0 0 13 12" fill="none" xmlns="http://www.w3.org/2000/svg">
<path fill-rule="evenodd" clip-rule="evenodd" d="M5.89353 0.567955C6.33295 -0.18932 7.42653 -0.189318 7.86595 0.567956L9.21163 2.88706C9.33567 3.10082 9.55006 3.2467 9.79443 3.28361L12.029 3.62111C13.0031 3.76823 13.3448 4.99808 12.5862 5.62656L10.958 6.97548C10.7295 7.16481 10.622 7.46345 10.6775 7.75498L11.1336 10.1501C11.3123 11.0883 10.3274 11.8172 9.4823 11.3723L7.25919 10.2017C7.02168 10.0766 6.7378 10.0766 6.50029 10.2017L4.27718 11.3723C3.43211 11.8172 2.44721 11.0883 2.62586 10.1501L3.08194 7.75498C3.13745 7.46346 3.03 7.16481 2.80147 6.97548L1.17331 5.62656C0.414723 4.99808 0.756398 3.76823 1.73046 3.62111L3.96505 3.28361C4.20942 3.2467 4.42381 3.10082 4.54785 2.88706L5.89353 0.567955ZM7.02063 1.05846C6.95785 0.950279 6.80163 0.95028 6.73885 1.05846L5.39317 3.37756C5.12029 3.84784 4.64863 4.16877 4.11101 4.24997L1.87642 4.58748C1.73727 4.6085 1.68846 4.78419 1.79683 4.87397L3.42499 6.22288C3.92774 6.63941 4.16414 7.29644 4.04201 7.9378L3.58594 10.3329C3.56042 10.4669 3.70112 10.571 3.82184 10.5075L6.04495 9.33692C6.56747 9.06179 7.19201 9.06179 7.71453 9.33692L9.93764 10.5075C10.0584 10.571 10.1991 10.4669 10.1735 10.3329L9.71747 7.9378C9.59534 7.29644 9.83174 6.63941 10.3345 6.22288L11.9627 4.87397C12.071 4.78419 12.0222 4.6085 11.8831 4.58748L9.64848 4.24997C9.11086 4.16877 8.63919 3.84784 8.36631 3.37756L7.02063 1.05846Z" fill="white"/>
</svg>
