<svg width="14" height="14" viewBox="0 0 14 14" fill="none" xmlns="http://www.w3.org/2000/svg">
<path d="M6.52169 1.30217C6.67534 0.990877 6.75217 0.835231 6.85647 0.785502C6.94722 0.742235 7.05264 0.742235 7.14339 0.785502C7.24769 0.835231 7.32452 0.990877 7.47817 1.30217L8.93596 4.25548C8.98132 4.34738 9.004 4.39333 9.03715 4.42901C9.0665 4.4606 9.1017 4.48619 9.1408 4.50437C9.18495 4.52491 9.23566 4.53232 9.33707 4.54714L12.5979 5.02376C12.9413 5.07395 13.113 5.09905 13.1924 5.18292C13.2616 5.25589 13.2941 5.35616 13.2809 5.45581C13.2658 5.57035 13.1415 5.69141 12.8929 5.93355L10.5342 8.2309C10.4607 8.30252 10.4239 8.33833 10.4002 8.38093C10.3792 8.41866 10.3657 8.4601 10.3605 8.50296C10.3547 8.55137 10.3633 8.60196 10.3807 8.70312L10.9372 11.948C10.9959 12.2903 11.0253 12.4614 10.9701 12.563C10.9221 12.6513 10.8368 12.7133 10.738 12.7316C10.6243 12.7527 10.4707 12.6719 10.1633 12.5102L7.24817 10.9772C7.15734 10.9294 7.11193 10.9055 7.06408 10.8961C7.02172 10.8878 6.97814 10.8878 6.93578 10.8961C6.88793 10.9055 6.84252 10.9294 6.75169 10.9772L3.83653 12.5102C3.5292 12.6719 3.37553 12.7527 3.2619 12.7316C3.16304 12.7133 3.07773 12.6513 3.02974 12.563C2.97459 12.4614 3.00394 12.2903 3.06263 11.948L3.61918 8.70312C3.63653 8.60195 3.6452 8.55137 3.63933 8.50296C3.63413 8.4601 3.62066 8.41866 3.59966 8.38093C3.57593 8.33833 3.53917 8.30252 3.46564 8.2309L1.10696 5.93355C0.858361 5.69141 0.734062 5.57035 0.718936 5.45581C0.705776 5.35616 0.738288 5.25589 0.807419 5.18292C0.886875 5.09905 1.05857 5.07395 1.40195 5.02376L4.66279 4.54714C4.7642 4.53232 4.81491 4.52491 4.85906 4.50437C4.89816 4.48619 4.93336 4.4606 4.96271 4.42901C4.99586 4.39333 5.01854 4.34738 5.0639 4.25548L6.52169 1.30217Z" stroke="#00A3FC" stroke-linecap="round" stroke-linejoin="round"/>
</svg>
