<svg width="61" height="60" viewBox="0 0 61 60" fill="none" xmlns="http://www.w3.org/2000/svg">
<rect x="0.5" width="60" height="60" rx="28" fill="#7658F2"/>
<g clip-path="url(#clip0_976_9014)">
<path d="M27.4121 39.9004C27.6074 39.9004 27.7148 39.7963 27.7344 39.5879C27.819 38.9369 27.9053 38.4258 27.9932 38.0547C28.0811 37.6836 28.221 37.4036 28.4131 37.2148C28.6051 37.026 28.89 36.8828 29.2676 36.7851C29.6452 36.6875 30.166 36.5866 30.8301 36.4824C31.058 36.4434 31.1719 36.3327 31.1719 36.1504C31.1719 35.9681 31.071 35.8574 30.8691 35.8183C30.2051 35.6947 29.681 35.5824 29.2969 35.4814C28.9128 35.3806 28.6214 35.239 28.4228 35.0566C28.2243 34.8744 28.0811 34.6009 27.9932 34.2363C27.9053 33.8717 27.819 33.3639 27.7344 32.7129C27.7148 32.5046 27.6074 32.4004 27.4121 32.4004C27.2168 32.4004 27.1061 32.5013 27.0801 32.7031C26.9954 33.3672 26.9075 33.8864 26.8164 34.2607C26.7253 34.6351 26.5837 34.9183 26.3916 35.1103C26.1995 35.3024 25.9115 35.4456 25.5273 35.54C25.1432 35.6344 24.6159 35.7272 23.9453 35.8183C23.8607 35.8314 23.7891 35.8672 23.7305 35.9258C23.6719 35.9844 23.6426 36.0592 23.6426 36.1504C23.6426 36.3327 23.7435 36.4434 23.9453 36.4824C24.6159 36.6061 25.1432 36.72 25.5273 36.8242C25.9115 36.9284 26.1995 37.0732 26.3916 37.2588C26.5837 37.4444 26.7236 37.7194 26.8115 38.084C26.8994 38.4486 26.9889 38.9564 27.0801 39.6074C27.0866 39.692 27.1208 39.762 27.1826 39.8174C27.2445 39.8728 27.321 39.9004 27.4121 39.9004ZM22.7734 31.3945C22.9036 31.3945 22.9818 31.3197 23.0078 31.1699C23.0925 30.7077 23.1706 30.3415 23.2422 30.0713C23.3138 29.8011 23.418 29.5928 23.5547 29.4463C23.6914 29.2998 23.8965 29.1875 24.1699 29.1094C24.4434 29.0313 24.8275 28.9499 25.3223 28.8652C25.472 28.8392 25.5469 28.7578 25.5469 28.6211C25.5469 28.4844 25.472 28.403 25.3223 28.3769C24.8275 28.2923 24.4434 28.2093 24.1699 28.1279C23.8965 28.0465 23.6914 27.9342 23.5547 27.791C23.418 27.6478 23.3138 27.4411 23.2422 27.1709C23.1706 26.9007 23.0925 26.5313 23.0078 26.0625C22.9818 25.9193 22.9036 25.8477 22.7734 25.8477C22.6367 25.8477 22.5553 25.9193 22.5293 26.0625C22.4447 26.5313 22.3665 26.9007 22.2949 27.1709C22.2233 27.4411 22.1191 27.6478 21.9824 27.791C21.8457 27.9342 21.6406 28.0465 21.3672 28.1279C21.0938 28.2093 20.7129 28.2923 20.2246 28.3769C20.0749 28.403 20 28.4844 20 28.6211C20 28.7578 20.0749 28.8392 20.2246 28.8652C20.7129 28.9499 21.0938 29.0313 21.3672 29.1094C21.6406 29.1875 21.8457 29.2998 21.9824 29.4463C22.1191 29.5928 22.2233 29.8011 22.2949 30.0713C22.3665 30.3415 22.4447 30.7077 22.5293 31.1699C22.5423 31.235 22.5684 31.2887 22.6074 31.331C22.6465 31.3734 22.7018 31.3945 22.7734 31.3945ZM28.125 25.1445C28.2292 25.1445 28.2943 25.0859 28.3203 24.9687C28.4049 24.5781 28.4782 24.2705 28.54 24.0459C28.6019 23.8213 28.6898 23.6488 28.8037 23.5283C28.9176 23.4079 29.0885 23.3135 29.3164 23.2451C29.5443 23.1768 29.86 23.1003 30.2637 23.0156C30.3874 22.9961 30.4492 22.931 30.4492 22.8203C30.4492 22.7096 30.3874 22.6413 30.2637 22.6152C29.86 22.5306 29.5443 22.4541 29.3164 22.3857C29.0885 22.3174 28.9176 22.223 28.8037 22.1025C28.6898 21.9821 28.6019 21.8112 28.54 21.5898C28.4782 21.3685 28.4049 21.0625 28.3203 20.6719C28.2943 20.5482 28.2292 20.4863 28.125 20.4863C28.0143 20.4863 27.946 20.5482 27.9199 20.6719C27.8418 21.0625 27.7702 21.3685 27.7051 21.5898C27.64 21.8112 27.5505 21.9821 27.4365 22.1025C27.3226 22.223 27.1533 22.3174 26.9287 22.3857C26.7041 22.4541 26.3867 22.5306 25.9766 22.6152C25.8529 22.6413 25.791 22.7096 25.791 22.8203C25.791 22.931 25.8529 22.9961 25.9766 23.0156C26.3867 23.1003 26.7041 23.1768 26.9287 23.2451C27.1533 23.3135 27.3226 23.4079 27.4365 23.5283C27.5505 23.6488 27.64 23.8213 27.7051 24.0459C27.7702 24.2705 27.8418 24.5781 27.9199 24.9687C27.946 25.0859 28.0143 25.1445 28.125 25.1445ZM36.1914 28.5918C36.3216 28.5918 36.3997 28.5202 36.4258 28.3769C36.5104 27.9082 36.5885 27.5387 36.6602 27.2686C36.7318 26.9984 36.836 26.7917 36.9727 26.6484C37.1094 26.5052 37.3161 26.3929 37.5928 26.3115C37.8695 26.2301 38.2519 26.1471 38.7402 26.0625C38.8899 26.0365 38.9648 25.9551 38.9648 25.8184C38.9648 25.6816 38.8899 25.6003 38.7402 25.5742C38.2519 25.4896 37.8695 25.4082 37.5928 25.3301C37.3161 25.252 37.1094 25.1396 36.9727 24.9932C36.836 24.8467 36.7318 24.6383 36.6602 24.3682C36.5885 24.098 36.5104 23.7318 36.4258 23.2695C36.3997 23.1198 36.3216 23.0449 36.1914 23.0449C36.0547 23.0449 35.9733 23.1198 35.9473 23.2695C35.8626 23.7318 35.7845 24.098 35.7129 24.3682C35.6413 24.6383 35.5371 24.8467 35.4004 24.9932C35.2637 25.1396 35.0586 25.252 34.7852 25.3301C34.5117 25.4082 34.1309 25.4896 33.6426 25.5742C33.5775 25.5872 33.5237 25.6149 33.4814 25.6572C33.4391 25.6995 33.418 25.7533 33.418 25.8184C33.418 25.9551 33.4929 26.0365 33.6426 26.0625C34.1309 26.1471 34.5117 26.2301 34.7852 26.3115C35.0586 26.3929 35.2637 26.5052 35.4004 26.6484C35.5371 26.7917 35.6413 26.9984 35.7129 27.2686C35.7845 27.5387 35.8626 27.9082 35.9473 28.3769C35.9733 28.5202 36.0547 28.5918 36.1914 28.5918ZM39.4434 39.7441C39.6517 39.9525 39.9073 40.0566 40.21 40.0566C40.5127 40.0566 40.7617 39.9525 40.957 39.7441C41.1589 39.5293 41.2582 39.277 41.2549 38.9873C41.2516 38.6976 41.1523 38.4486 40.957 38.2402L31.6699 28.9238C31.4681 28.7155 31.2158 28.6113 30.9131 28.6113C30.6104 28.6113 30.3613 28.7155 30.166 28.9238C29.9642 29.1387 29.8633 29.3926 29.8633 29.6855C29.8633 29.9785 29.9642 30.2292 30.166 30.4375L39.4434 39.7441ZM33.7695 33.0351L30.9082 30.1641C30.8171 30.0794 30.7634 29.9899 30.7471 29.8955C30.7308 29.8011 30.765 29.7116 30.8496 29.6269C30.9212 29.5488 31.0058 29.5179 31.1035 29.5342C31.2012 29.5505 31.2956 29.6042 31.3867 29.6953L34.2578 32.5664L33.7695 33.0351Z" fill="white"/>
</g>
<defs>
<clipPath id="clip0_976_9014">
<rect width="21.255" height="19.6191" fill="white" transform="translate(20 20.4863)"/>
</clipPath>
</defs>
</svg>
