<svg width="20" height="20" viewBox="0 0 20 20" fill="none" xmlns="http://www.w3.org/2000/svg">
<path d="M10.0016 4.44514L9.67055 4.14991L9.64084 4.1234C9.13697 3.67672 8.53927 3.3488 7.89181 3.16383C7.24436 2.97887 6.56366 2.94155 5.89987 3.05465L10.0016 4.44514ZM10.0016 4.44514L10.3342 4.15168M10.0016 4.44514L10.3342 4.15168M10.3342 4.15168L10.3615 4.12757C10.3617 4.12742 10.3618 4.12728 10.362 4.12713C10.8428 3.70532 11.408 3.39085 12.0199 3.20468C12.6308 3.01881 13.2742 2.96509 13.9075 3.04707L14.1019 3.07553C14.8994 3.21436 15.6446 3.56569 16.2591 4.09257C16.8753 4.62081 17.337 5.30583 17.5956 6.07509C17.8542 6.84436 17.8999 7.66924 17.728 8.46237C17.5563 9.25388 17.1743 9.98438 16.6222 10.5768L16.4919 10.7107L16.4695 10.7299L16.4554 10.7419M10.3342 4.15168L16.4554 10.7419M16.4554 10.7419L16.4423 10.7549M16.4554 10.7419L16.4423 10.7549M16.4423 10.7549L10.2341 16.9039C10.1768 16.9606 10.1009 16.9946 10.0204 16.9997C9.94395 17.0044 9.86829 16.9827 9.8061 16.9384L9.75397 16.8929L3.52106 10.719L3.52107 10.719M16.4423 10.7549L3.52107 10.719M3.52107 10.719L3.51787 10.7159M3.52107 10.719L3.51787 10.7159M3.51787 10.7159C2.92254 10.1366 2.49915 9.40391 2.29459 8.59885M3.51787 10.7159L2.29459 8.59885M2.29459 8.59885C2.09004 7.79379 2.1123 6.94782 2.35891 6.15464M2.29459 8.59885L2.35891 6.15464M2.35891 6.15464C2.60553 5.36145 3.06687 4.652 3.69184 4.10485M2.35891 6.15464L3.69184 4.10485M3.69184 4.10485C4.31681 3.55772 5.08102 3.19423 5.89984 3.05465L3.69184 4.10485Z" stroke="#FF3115"/>
</svg>
