<svg width="20" height="20" viewBox="0 0 20 20" fill="none" xmlns="http://www.w3.org/2000/svg">
<path d="M5.81586 2.56176C6.55341 2.43609 7.30976 2.47754 8.02916 2.68307C8.74856 2.88859 9.41267 3.25294 9.97252 3.74926L10.0034 3.77676L10.0317 3.75176C10.566 3.28284 11.1942 2.93325 11.8743 2.72633C12.5545 2.5194 13.2709 2.45989 13.9759 2.55176L14.1809 2.58176C15.0694 2.73518 15.9 3.12606 16.5846 3.71298C17.2692 4.29991 17.7823 5.06105 18.0696 5.91579C18.3569 6.77053 18.4077 7.68706 18.2166 8.56832C18.0255 9.44958 17.5997 10.2628 16.9842 10.9218L16.8342 11.0759L16.7942 11.1101L10.5859 17.2593C10.4426 17.4011 10.2528 17.4861 10.0516 17.4987C9.85041 17.5112 9.65149 17.4505 9.49169 17.3276L9.41336 17.2593L3.16919 11.0743C2.50771 10.4306 2.03727 9.61649 1.80999 8.72198C1.58271 7.82747 1.60744 6.88751 1.88146 6.00619C2.15547 5.12487 2.66807 4.33659 3.36249 3.72865C4.05691 3.12071 4.90605 2.71684 5.81586 2.56176Z" fill="#FF3115"/>
</svg>
