<svg width="17" height="18" viewBox="0 0 17 18" fill="none" xmlns="http://www.w3.org/2000/svg">
<path d="M13.683 12.1193C13.2675 11.7035 12.782 11.364 12.2487 11.1166C13.0007 10.5073 13.4805 9.57764 13.4805 8.53506C13.4805 6.6956 11.9465 5.18652 10.1071 5.21475C8.29584 5.24297 6.83657 6.71885 6.83657 8.53506C6.83657 9.57764 7.31801 10.5073 8.0684 11.1166C7.535 11.3638 7.04943 11.7033 6.63403 12.1193C5.72758 13.0274 5.21293 14.2261 5.17973 15.5044C5.17929 15.5221 5.18239 15.5397 5.18887 15.5562C5.19535 15.5727 5.20506 15.5878 5.21744 15.6005C5.22981 15.6131 5.2446 15.6232 5.26094 15.6301C5.27727 15.637 5.29482 15.6405 5.31254 15.6405H6.24223C6.31362 15.6405 6.37338 15.5841 6.37504 15.5127C6.40658 14.5498 6.79672 13.6483 7.48237 12.9644C7.83322 12.6116 8.25055 12.332 8.7102 12.1416C9.16985 11.9513 9.66269 11.854 10.1602 11.8554C11.1712 11.8554 12.1225 12.2488 12.838 12.9644C13.522 13.6483 13.9122 14.5498 13.9454 15.5127C13.947 15.5841 14.0068 15.6405 14.0782 15.6405H15.0079C15.0256 15.6405 15.0431 15.637 15.0595 15.6301C15.0758 15.6232 15.0906 15.6131 15.103 15.6005C15.1153 15.5878 15.125 15.5727 15.1315 15.5562C15.138 15.5397 15.1411 15.5221 15.1407 15.5044C15.1075 14.2261 14.5928 13.0274 13.683 12.1193ZM10.1602 10.6601C9.59242 10.6601 9.05785 10.4393 8.65776 10.0375C8.45697 9.83829 8.29836 9.60068 8.1914 9.33884C8.08444 9.077 8.03131 8.79629 8.0352 8.51348C8.04018 7.96894 8.25766 7.44268 8.63783 7.05254C9.03627 6.64414 9.56918 6.4167 10.1386 6.41006C10.7014 6.40508 11.2476 6.62422 11.6494 7.01767C12.0611 7.42109 12.2869 7.96064 12.2869 8.53506C12.2869 9.10283 12.0661 9.63574 11.6643 10.0375C11.4672 10.2355 11.2328 10.3925 10.9746 10.4994C10.7164 10.6063 10.4396 10.6609 10.1602 10.6601ZM6.00151 8.97334C5.98657 8.82891 5.97826 8.68281 5.97826 8.53506C5.97826 8.27109 6.00317 8.01377 6.04965 7.76308C6.06127 7.70332 6.02973 7.64189 5.97494 7.61699C5.74916 7.51572 5.54164 7.37627 5.36235 7.20029C5.15107 6.99544 4.98482 6.7488 4.8742 6.4761C4.76358 6.20341 4.71102 5.91065 4.71987 5.6165C4.73481 5.08359 4.94897 4.57724 5.3225 4.19541C5.73256 3.77539 6.28373 3.54629 6.86977 3.55293C7.39936 3.55791 7.91069 3.76211 8.2975 4.12402C8.42865 4.24687 8.54155 4.38301 8.63617 4.5291C8.66938 4.58057 8.73412 4.60215 8.79057 4.58223C9.08276 4.48096 9.39155 4.40957 9.70864 4.37637C9.8016 4.36641 9.85473 4.2668 9.81322 4.18379C9.27367 3.11631 8.17133 2.3792 6.89633 2.35928C5.05522 2.33105 3.52123 3.84014 3.52123 5.67793C3.52123 6.72051 4.00102 7.65019 4.75307 8.25947C4.22514 8.50351 3.73871 8.84053 3.31703 9.26221C2.40727 10.1703 1.89262 11.3689 1.85942 12.6489C1.85897 12.6666 1.86208 12.6843 1.86856 12.7008C1.87503 12.7173 1.88475 12.7323 1.89712 12.745C1.9095 12.7577 1.92429 12.7678 1.94063 12.7746C1.95696 12.7815 1.9745 12.7851 1.99223 12.7851H2.92358C2.99496 12.7851 3.05473 12.7286 3.05639 12.6572C3.08793 11.6943 3.47807 10.7929 4.16371 10.1089C4.6518 9.6208 5.24946 9.28213 5.9019 9.11777C5.96664 9.10117 6.00981 9.03974 6.00151 8.97334Z" fill="#F99034"/>
</svg>
