<svg width="20" height="20" viewBox="0 0 20 20" fill="none" xmlns="http://www.w3.org/2000/svg">
<path d="M12.4997 3.33341H4.99967V16.6667H14.9997V5.83341H12.4997V3.33341ZM4.99967 1.66675H13.333L16.6663 5.00008V16.6667C16.6663 17.1088 16.4907 17.5327 16.1782 17.8453C15.8656 18.1578 15.4417 18.3334 14.9997 18.3334H4.99967C4.55765 18.3334 4.13372 18.1578 3.82116 17.8453C3.5086 17.5327 3.33301 17.1088 3.33301 16.6667V3.33341C3.33301 2.89139 3.5086 2.46746 3.82116 2.1549C4.13372 1.84234 4.55765 1.66675 4.99967 1.66675ZM6.66634 9.16675H13.333V10.8334H6.66634V9.16675ZM6.66634 12.5001H13.333V14.1667H6.66634V12.5001Z" fill="#0079E9"/>
</svg>
