<svg width="18" height="22" viewBox="0 0 18 22" fill="none" xmlns="http://www.w3.org/2000/svg">
<path d="M9 3.75C7.21997 3.75 5.47991 4.27784 3.99987 5.26677C2.51983 6.25571 1.36628 7.66131 0.685088 9.30585C0.00389957 10.9504 -0.17433 12.76 0.172937 14.5058C0.520204 16.2516 1.37737 17.8553 2.63604 19.114C3.89472 20.3726 5.49836 21.2298 7.24419 21.5771C8.99002 21.9243 10.7996 21.7461 12.4442 21.0649C14.0887 20.3837 15.4943 19.2302 16.4832 17.7501C17.4722 16.2701 18 14.53 18 12.75C17.9973 10.3639 17.0482 8.07629 15.361 6.38905C13.6737 4.70182 11.3861 3.75273 9 3.75ZM9 20.25C7.51664 20.25 6.0666 19.8101 4.83323 18.986C3.59986 18.1619 2.63856 16.9906 2.07091 15.6201C1.50325 14.2497 1.35473 12.7417 1.64411 11.2868C1.9335 9.83197 2.64781 8.49559 3.6967 7.4467C4.7456 6.39781 6.08197 5.6835 7.53683 5.39411C8.99168 5.10472 10.4997 5.25325 11.8701 5.8209C13.2406 6.38856 14.4119 7.34986 15.236 8.58322C16.0601 9.81659 16.5 11.2666 16.5 12.75C16.4978 14.7384 15.7069 16.6448 14.3008 18.0508C12.8948 19.4569 10.9884 20.2478 9 20.25ZM13.2806 8.46938C13.3504 8.53903 13.4057 8.62175 13.4434 8.7128C13.4812 8.80384 13.5006 8.90144 13.5006 9C13.5006 9.09856 13.4812 9.19616 13.4434 9.28721C13.4057 9.37825 13.3504 9.46097 13.2806 9.53063L9.53063 13.2806C9.46095 13.3503 9.37822 13.4056 9.28718 13.4433C9.19613 13.481 9.09855 13.5004 9 13.5004C8.90146 13.5004 8.80388 13.481 8.71283 13.4433C8.62179 13.4056 8.53906 13.3503 8.46938 13.2806C8.3997 13.2109 8.34442 13.1282 8.30671 13.0372C8.269 12.9461 8.24959 12.8485 8.24959 12.75C8.24959 12.6515 8.269 12.5539 8.30671 12.4628C8.34442 12.3718 8.3997 12.2891 8.46938 12.2194L12.2194 8.46938C12.289 8.39964 12.3718 8.34432 12.4628 8.30658C12.5538 8.26884 12.6514 8.24941 12.75 8.24941C12.8486 8.24941 12.9462 8.26884 13.0372 8.30658C13.1283 8.34432 13.211 8.39964 13.2806 8.46938ZM6 1.5C6 1.30109 6.07902 1.11032 6.21967 0.96967C6.36033 0.829018 6.55109 0.75 6.75 0.75H11.25C11.4489 0.75 11.6397 0.829018 11.7803 0.96967C11.921 1.11032 12 1.30109 12 1.5C12 1.69891 11.921 1.88968 11.7803 2.03033C11.6397 2.17098 11.4489 2.25 11.25 2.25H6.75C6.55109 2.25 6.36033 2.17098 6.21967 2.03033C6.07902 1.88968 6 1.69891 6 1.5Z" fill="#727272"/>
</svg>
