<svg width="16" height="16" viewBox="0 0 16 16" fill="none" xmlns="http://www.w3.org/2000/svg">
<path d="M6.50002 14.5827C5.84722 14.4347 5.22027 14.1897 4.64002 13.856M9.50002 1.41724C10.9911 1.75779 12.3225 2.5945 13.276 3.79039C14.2296 4.98628 14.7488 6.47047 14.7488 7.99999C14.7488 9.5295 14.2296 11.0137 13.276 12.2096C12.3225 13.4055 10.9911 14.2422 9.50002 14.5827M2.43427 11.8197C2.02515 11.2253 1.71442 10.5689 1.51402 9.87574M1.34302 6.87499C1.46302 6.16249 1.69402 5.48749 2.01802 4.86874L2.14477 4.63999M4.18027 2.43424C4.88201 1.95116 5.66926 1.60602 6.50002 1.41724" stroke="#493EE3" stroke-width="2" stroke-linecap="round" stroke-linejoin="round"/>
<path d="M8 5V8L10.25 10.25" stroke="#493EE3" stroke-width="2" stroke-linecap="round" stroke-linejoin="round"/>
</svg>
