<svg width="16" height="16" viewBox="0 0 16 16" fill="none" xmlns="http://www.w3.org/2000/svg">
<path fill-rule="evenodd" clip-rule="evenodd" d="M7.74102 2.20136C7.90335 2.15516 8.07456 2.15512 8.23687 2.20118C8.58189 2.29909 8.93009 2.38991 9.27946 2.48102C10.92 2.9089 12.5861 3.34345 14.0685 4.55079L14.7511 5.10678C15.028 5.3323 15.1665 5.66613 15.1666 6.00001V10.6667C15.1666 10.9428 14.9428 11.1667 14.6666 11.1667C14.3905 11.1667 14.1666 10.9428 14.1666 10.6667V7.37112L14.058 7.45976C13.5444 7.8789 13.0085 8.20437 12.4592 8.46858C12.4854 8.52932 12.5 8.5963 12.5 8.66667V11.5293C12.5 12.2848 12.0365 12.963 11.3326 13.2374L8.66591 14.277C8.23765 14.444 7.7623 14.444 7.33405 14.277L4.66738 13.2374C3.96346 12.963 3.49998 12.2848 3.49998 11.5293V8.66667C3.49998 8.59452 3.51526 8.52594 3.54277 8.46399C2.9892 8.19822 2.44913 7.87084 1.93148 7.44922L1.24885 6.89323C0.695075 6.44219 0.694785 5.55796 1.24808 5.10645L1.94193 4.54025C3.41356 3.33936 5.06793 2.90741 6.69633 2.48224C7.04645 2.39082 7.39538 2.29972 7.74102 2.20136ZM14.1666 6.0004C14.1666 5.94034 14.1424 5.90068 14.1196 5.88214L13.437 5.32615C12 4.33334 10.7195 3.89547 9.09324 3.46811C8.73565 3.37414 8.36792 3.27751 7.98929 3.1704C7.60897 3.27829 7.23991 3.37538 6.88112 3.46977C5.26785 3.89419 3.86213 4.26401 2.57417 5.31503L1.88031 5.88123C1.85752 5.89983 1.83329 5.93955 1.83331 5.99961C1.83334 6.05967 1.8576 6.09932 1.88037 6.11787L2.563 6.67386C3.86188 7.73178 5.28041 8.10454 6.90672 8.5319C7.26433 8.62587 7.63202 8.72249 8.01067 8.82961C8.39095 8.72173 8.75999 8.62465 9.11876 8.53026C10.732 8.10584 12.1378 7.736 13.4258 6.68498L14.1196 6.11878C14.1424 6.1002 14.1666 6.06036 14.1666 6.0004ZM9.30363 9.51777C10.0368 9.32633 10.7753 9.13352 11.5 8.86976V11.5293C11.5 11.8727 11.2893 12.181 10.9693 12.3057L8.30267 13.3453C8.10801 13.4212 7.89195 13.4212 7.69728 13.3453L5.03062 12.3057C4.71065 12.181 4.49998 11.8727 4.49998 11.5293V8.8641C5.23249 9.1309 5.97911 9.32562 6.7205 9.51898C7.06986 9.6101 7.41807 9.70092 7.76309 9.79883C7.92541 9.84489 8.09661 9.84485 8.25894 9.79865C8.60457 9.70029 8.95353 9.60918 9.30363 9.51777Z" fill="#F99023"/>
</svg>
