<svg width="16" height="16" viewBox="0 0 16 16" fill="none" xmlns="http://www.w3.org/2000/svg">
<path d="M1.25 8C1.25 8.88642 1.42459 9.76417 1.76381 10.5831C2.10303 11.4021 2.60023 12.1462 3.22703 12.773C3.85382 13.3998 4.59794 13.897 5.41689 14.2362C6.23583 14.5754 7.11358 14.75 8 14.75C8.88642 14.75 9.76417 14.5754 10.5831 14.2362C11.4021 13.897 12.1462 13.3998 12.773 12.773C13.3998 12.1462 13.897 11.4021 14.2362 10.5831C14.5754 9.76417 14.75 8.88642 14.75 8C14.75 7.11358 14.5754 6.23583 14.2362 5.41689C13.897 4.59794 13.3998 3.85382 12.773 3.22703C12.1462 2.60023 11.4021 2.10303 10.5831 1.76381C9.76417 1.42459 8.88642 1.25 8 1.25C7.11358 1.25 6.23583 1.42459 5.41689 1.76381C4.59794 2.10303 3.85382 2.60023 3.22703 3.22703C2.60023 3.85382 2.10303 4.59794 1.76381 5.41689C1.42459 6.23583 1.25 7.11358 1.25 8Z" stroke="#493EE3" stroke-linecap="round" stroke-linejoin="round"/>
<path d="M3.62598 13.1368C3.81161 12.5189 4.19145 11.9774 4.70916 11.5925C5.22687 11.2076 5.85486 10.9998 6.49998 11H9.49998C10.1459 10.9998 10.7747 11.208 11.2928 11.5938C11.8108 11.9796 12.1906 12.5223 12.3755 13.1412M5.74998 6.5C5.74998 7.09674 5.98703 7.66903 6.40899 8.09099C6.83094 8.51295 7.40324 8.75 7.99998 8.75C8.59671 8.75 9.16901 8.51295 9.59097 8.09099C10.0129 7.66903 10.25 7.09674 10.25 6.5C10.25 5.90326 10.0129 5.33097 9.59097 4.90901C9.16901 4.48705 8.59671 4.25 7.99998 4.25C7.40324 4.25 6.83094 4.48705 6.40899 4.90901C5.98703 5.33097 5.74998 5.90326 5.74998 6.5Z" stroke="#493EE3" stroke-linecap="round" stroke-linejoin="round"/>
</svg>
