<svg width="52" height="38" viewBox="0 0 52 17" fill="none" xmlns="http://www.w3.org/2000/svg">
<path d="M26.8931 5.36727C26.8635 7.70645 28.9778 9.01173 30.5705 9.78787C32.2069 10.5841 32.7565 11.0948 32.75 11.8069C32.7379 12.8967 31.4448 13.3777 30.2348 13.3964C28.1237 13.4291 26.8962 12.8264 25.9204 12.3706L25.1599 15.9292C26.1389 16.3803 27.9518 16.7737 29.8317 16.791C34.2446 16.791 37.1317 14.6127 37.1473 11.2353C37.1646 6.949 31.2185 6.71175 31.2591 4.79587C31.2731 4.21494 31.8275 3.595 33.0421 3.43738C33.6434 3.35775 35.3031 3.29681 37.1849 4.16334L37.9234 0.720375C36.9115 0.351908 35.6109 -0.000921249 33.9915 -0.000921249C29.838 -0.000921249 26.9167 2.20705 26.8931 5.36727ZM45.0202 0.295641C44.2144 0.295641 43.5354 0.765671 43.2323 1.48697L36.9287 16.5381H41.3384L42.2159 14.113H47.6044L48.1134 16.5381H52L48.6084 0.295641H45.0202ZM45.6371 4.68334L46.9097 10.7826H43.4245L45.6371 4.68334ZM21.5467 0.295843L18.0708 16.5379H22.2729L25.7471 0.295437H21.5467M15.3305 0.295437L10.9568 11.3509L9.18755 1.95091C8.97995 0.901563 8.16014 0.295641 7.24973 0.295641H0.100141L0 0.767296C1.46778 1.0858 3.13544 1.5995 4.14578 2.14916C4.76409 2.48492 4.94041 2.77844 5.14353 3.57631L8.49448 16.5381H12.935L19.7429 0.295641L15.3305 0.295437Z" fill="url(#paint0_linear_976_8132)"/>
<defs>
<linearGradient id="paint0_linear_976_8132" x1="2390.65" y1="50.4756" x2="2439.25" y2="-1674.08" gradientUnits="userSpaceOnUse">
<stop stop-color="#222357"/>
<stop offset="1" stop-color="#254AA5"/>
</linearGradient>
</defs>
</svg>
