<svg width="52" height="17" viewBox="0 0 52 17" fill="none" xmlns="http://www.w3.org/2000/svg">
<path d="M26.8931 5.368C26.8635 7.70718 28.9778 9.01247 30.5705 9.78861C32.2069 10.5849 32.7565 11.0955 32.75 11.8077C32.7379 12.8974 31.4448 13.3784 30.2348 13.3971C28.1237 13.4298 26.8962 12.8272 25.9204 12.3713L25.1599 15.9299C26.1389 16.381 27.9518 16.7745 29.8317 16.7917C34.2446 16.7917 37.1317 14.6134 37.1473 11.2361C37.1646 6.94973 31.2185 6.71248 31.2591 4.79661C31.2731 4.21567 31.8275 3.59573 33.0421 3.43811C33.6434 3.35848 35.3031 3.29755 37.1849 4.16408L37.9234 0.721107C36.9115 0.35264 35.6109 -0.000188828 33.9915 -0.000188828C29.838 -0.000188828 26.9167 2.20778 26.8931 5.368ZM45.0202 0.296373C44.2144 0.296373 43.5354 0.766403 43.2323 1.4877L36.9287 16.5389H41.3384L42.2159 14.1137H47.6044L48.1134 16.5389H52L48.6084 0.296373H45.0202ZM45.6371 4.68408L46.9097 10.7833H43.4245L45.6371 4.68408ZM21.5467 0.296576L18.0708 16.5387H22.2729L25.7471 0.296169H21.5467M15.3305 0.296169L10.9568 11.3517L9.18755 1.95164C8.97995 0.902295 8.16014 0.296373 7.24973 0.296373H0.100141L0 0.768028C1.46778 1.08653 3.13544 1.60023 4.14578 2.14989C4.76409 2.48565 4.94041 2.77917 5.14353 3.57705L8.49448 16.5389H12.935L19.7429 0.296373L15.3305 0.296169Z" fill="url(#paint0_linear_282_2616)"/>
<defs>
<linearGradient id="paint0_linear_282_2616" x1="2390.65" y1="50.4764" x2="2439.25" y2="-1674.08" gradientUnits="userSpaceOnUse">
<stop stop-color="#222357"/>
<stop offset="1" stop-color="#254AA5"/>
</linearGradient>
</defs>
</svg>
