<svg width="18" height="18" viewBox="0 0 18 18" fill="none" xmlns="http://www.w3.org/2000/svg">
<path d="M9 0C10.1819 -1.76116e-08 11.3522 0.232792 12.4442 0.685084C13.5361 1.13738 14.5282 1.80031 15.364 2.63604C16.1997 3.47177 16.8626 4.46392 17.3149 5.55585C17.7672 6.64778 18 7.8181 18 9C18 10.1819 17.7672 11.3522 17.3149 12.4442C16.8626 13.5361 16.1997 14.5282 15.364 15.364C14.5282 16.1997 13.5361 16.8626 12.4442 17.3149C11.3522 17.7672 10.1819 18 9 18C6.61305 18 4.32387 17.0518 2.63604 15.364C0.948211 13.6761 0 11.3869 0 9C0 6.61305 0.948211 4.32387 2.63604 2.63604C4.32387 0.948211 6.61305 3.55683e-08 9 0ZM9 1.5C7.01088 1.5 5.10322 2.29018 3.6967 3.6967C2.29018 5.10322 1.5 7.01088 1.5 9C1.5 10.9891 2.29018 12.8968 3.6967 14.3033C5.10322 15.7098 7.01088 16.5 9 16.5C10.9891 16.5 12.8968 15.7098 14.3033 14.3033C15.7098 12.8968 16.5 10.9891 16.5 9C16.5 7.01088 15.7098 5.10322 14.3033 3.6967C12.8968 2.29018 10.9891 1.5 9 1.5ZM9 12C9.29837 12 9.58452 12.1185 9.79549 12.3295C10.0065 12.5405 10.125 12.8266 10.125 13.125C10.125 13.4234 10.0065 13.7095 9.79549 13.9205C9.58452 14.1315 9.29837 14.25 9 14.25C8.70163 14.25 8.41548 14.1315 8.2045 13.9205C7.99353 13.7095 7.875 13.4234 7.875 13.125C7.875 12.8266 7.99353 12.5405 8.2045 12.3295C8.41548 12.1185 8.70163 12 9 12ZM9 3.75C9.17554 3.74994 9.34554 3.81146 9.48039 3.92383C9.61524 4.03621 9.7064 4.19233 9.738 4.365L9.75 4.5V9.75C9.75035 9.93742 9.68051 10.1182 9.55424 10.2567C9.42797 10.3952 9.25442 10.4814 9.06777 10.4983C8.88111 10.5152 8.69489 10.4617 8.54575 10.3482C8.39662 10.2347 8.29539 10.0694 8.262 9.885L8.25 9.75V4.5C8.25 4.30109 8.32902 4.11032 8.46967 3.96967C8.61032 3.82902 8.80109 3.75 9 3.75Z" fill="white"/>
</svg>
